<svg xmlns="http://www.w3.org/2000/svg" xmlns:xlink="http://www.w3.org/1999/xlink" width="200" zoomAndPan="magnify" viewBox="0 0 150 149.999998" height="200" preserveAspectRatio="xMidYMid meet" version="1.0"><defs><clipPath id="36ce083837"><path d="M 42 77 L 72 77 L 72 125.640625 L 42 125.640625 Z M 42 77 " clip-rule="nonzero"/></clipPath><clipPath id="eddb7b55b0"><path d="M 97 77 L 127 77 L 127 125.640625 L 97 125.640625 Z M 97 77 " clip-rule="nonzero"/></clipPath><clipPath id="143322fb05"><path d="M 112 84 L 134.917969 84 L 134.917969 113 L 112 113 Z M 112 84 " clip-rule="nonzero"/></clipPath></defs><path fill="#0d6591" d="M 66.652344 69.632812 C 66.652344 70.121094 66.605469 70.605469 66.511719 71.089844 C 66.414062 71.570312 66.273438 72.035156 66.085938 72.488281 C 65.898438 72.941406 65.667969 73.371094 65.394531 73.78125 C 65.125 74.1875 64.8125 74.566406 64.46875 74.914062 C 64.121094 75.257812 63.746094 75.570312 63.335938 75.839844 C 62.929688 76.113281 62.5 76.34375 62.046875 76.53125 C 61.59375 76.71875 61.128906 76.859375 60.648438 76.957031 C 60.167969 77.050781 59.679688 77.101562 59.191406 77.101562 C 58.699219 77.101562 58.214844 77.050781 57.734375 76.957031 C 57.253906 76.859375 56.789062 76.71875 56.335938 76.53125 C 55.882812 76.34375 55.453125 76.113281 55.046875 75.839844 C 54.636719 75.570312 54.261719 75.257812 53.914062 74.914062 C 53.566406 74.566406 53.257812 74.1875 52.988281 73.78125 C 52.714844 73.371094 52.484375 72.941406 52.296875 72.488281 C 52.109375 72.035156 51.96875 71.570312 51.871094 71.089844 C 51.777344 70.605469 51.730469 70.121094 51.730469 69.632812 C 51.730469 69.140625 51.777344 68.65625 51.871094 68.175781 C 51.96875 67.691406 52.109375 67.226562 52.296875 66.773438 C 52.484375 66.320312 52.714844 65.890625 52.988281 65.480469 C 53.257812 65.074219 53.566406 64.695312 53.914062 64.347656 C 54.261719 64.003906 54.636719 63.691406 55.046875 63.421875 C 55.453125 63.148438 55.882812 62.917969 56.335938 62.730469 C 56.789062 62.542969 57.253906 62.402344 57.734375 62.304688 C 58.214844 62.210938 58.699219 62.160156 59.191406 62.160156 C 59.679688 62.160156 60.167969 62.210938 60.648438 62.304688 C 61.128906 62.402344 61.59375 62.542969 62.046875 62.730469 C 62.5 62.917969 62.929688 63.148438 63.335938 63.421875 C 63.746094 63.691406 64.121094 64.003906 64.46875 64.347656 C 64.8125 64.695312 65.125 65.074219 65.394531 65.480469 C 65.667969 65.890625 65.898438 66.320312 66.085938 66.773438 C 66.273438 67.226562 66.414062 67.691406 66.511719 68.175781 C 66.605469 68.65625 66.652344 69.140625 66.652344 69.632812 Z M 66.652344 69.632812 " fill-opacity="1" fill-rule="nonzero"/><g clip-path="url(#36ce083837)"><path fill="#0d6591" d="M 70.496094 100.835938 C 69.707031 99.828125 68.503906 99.246094 67.210938 99.246094 L 55.046875 99.308594 C 55.066406 95.644531 55.757812 91.832031 56.414062 88.5625 L 51.101562 87.03125 C 49.289062 86.507812 48.242188 84.609375 48.761719 82.796875 C 49.183594 81.34375 50.53125 80.324219 52.046875 80.324219 C 52.363281 80.324219 52.683594 80.371094 52.992188 80.460938 L 57.136719 81.652344 C 56.71875 79.714844 55.589844 78.101562 53.878906 77.675781 C 51.046875 76.96875 46.941406 78.507812 45.273438 83.367188 C 43.015625 90.066406 42.53125 94.425781 43.386719 101.800781 C 44.425781 107.144531 48.085938 107.691406 51.125 107.652344 C 51.464844 107.648438 51.78125 107.640625 52.078125 107.625 L 61.90625 107.574219 L 58.652344 120.472656 C 58.09375 122.695312 59.4375 124.953125 61.660156 125.511719 C 62 125.597656 62.339844 125.640625 62.675781 125.640625 C 64.53125 125.640625 66.21875 124.386719 66.691406 122.503906 L 71.253906 104.410156 C 71.566406 103.167969 71.289062 101.847656 70.496094 100.835938 Z M 70.496094 100.835938 " fill-opacity="1" fill-rule="nonzero"/></g><path fill="#0d6591" d="M 49.496094 83.007812 C 49.089844 84.417969 49.902344 85.890625 51.3125 86.296875 L 74.957031 93.113281 C 75.203125 93.183594 75.449219 93.214844 75.691406 93.214844 C 76.84375 93.214844 77.90625 92.457031 78.242188 91.292969 C 78.648438 89.886719 77.835938 88.414062 76.425781 88.007812 L 52.78125 81.191406 C 51.375 80.789062 49.902344 81.601562 49.496094 83.007812 Z M 49.496094 83.007812 " fill-opacity="1" fill-rule="nonzero"/><path fill="#0d6591" d="M 57.007812 111.464844 C 57.007812 110.730469 56.414062 110.136719 55.679688 110.136719 L 42.488281 110.136719 L 37.078125 85.429688 C 36.921875 84.714844 36.214844 84.25 35.496094 84.40625 C 34.78125 84.5625 34.328125 85.265625 34.484375 85.980469 L 40.125 111.730469 C 40.257812 112.339844 40.796875 112.792969 41.417969 112.792969 L 55.679688 112.792969 C 56.414062 112.792969 57.007812 112.199219 57.007812 111.464844 Z M 57.007812 111.464844 " fill-opacity="1" fill-rule="nonzero"/><g clip-path="url(#eddb7b55b0)"><path fill="#0d6591" d="M 106.449219 125.640625 C 106.785156 125.640625 107.125 125.597656 107.46875 125.511719 C 109.6875 124.953125 111.03125 122.695312 110.472656 120.472656 L 107.222656 107.574219 L 117.046875 107.625 C 117.34375 107.640625 117.664062 107.648438 118.003906 107.652344 C 121.042969 107.691406 124.703125 107.144531 125.738281 101.800781 C 126.597656 94.425781 126.113281 90.066406 123.855469 83.367188 C 122.183594 78.507812 118.082031 76.96875 115.25 77.675781 C 112.417969 78.382812 111.171875 82.335938 112.125 85.640625 C 112.261719 86.332031 112.410156 87.074219 112.570312 87.847656 L 113.761719 82.9375 C 114.132812 81.398438 115.5 80.324219 117.078125 80.324219 C 117.351562 80.324219 117.621094 80.355469 117.886719 80.421875 C 118.773438 80.636719 119.523438 81.1875 119.996094 81.964844 C 120.472656 82.746094 120.613281 83.664062 120.398438 84.550781 L 117.425781 96.789062 C 117.132812 98.003906 116.199219 98.960938 114.996094 99.285156 L 103.5 102.382812 C 103.207031 102.460938 102.910156 102.5 102.609375 102.5 C 101.121094 102.5 99.808594 101.527344 99.359375 100.117188 C 99.089844 100.324219 98.84375 100.5625 98.628906 100.835938 C 97.835938 101.847656 97.558594 103.167969 97.871094 104.410156 L 102.433594 122.503906 C 102.90625 124.386719 104.59375 125.640625 106.449219 125.640625 Z M 106.449219 125.640625 " fill-opacity="1" fill-rule="nonzero"/></g><g clip-path="url(#143322fb05)"><path fill="#0d6591" d="M 129.003906 111.726562 L 134.640625 85.988281 C 134.796875 85.269531 134.34375 84.558594 133.628906 84.398438 C 132.914062 84.242188 132.207031 84.714844 132.050781 85.433594 L 126.640625 110.136719 L 113.445312 110.136719 C 112.710938 110.136719 112.117188 110.730469 112.117188 111.464844 C 112.117188 112.199219 112.710938 112.792969 113.445312 112.792969 L 127.707031 112.792969 C 128.328125 112.792969 128.867188 112.335938 129.003906 111.726562 Z M 129.003906 111.726562 " fill-opacity="1" fill-rule="nonzero"/></g><path fill="#0d6591" d="M 101.722656 95.777344 L 106.53125 94.480469 L 106.53125 94.203125 L 62.753906 94.203125 L 62.753906 97.519531 L 99.5 97.519531 C 99.542969 97.519531 99.59375 97.398438 99.648438 97.300781 C 100.105469 96.507812 100.839844 96.015625 101.722656 95.777344 Z M 101.722656 95.777344 " fill-opacity="1" fill-rule="nonzero"/><path fill="#0d6591" d="M 79.472656 76.226562 L 77.546875 76.707031 L 81.636719 92.542969 L 97.246094 92.542969 L 97.246094 90.550781 L 83.179688 90.550781 Z M 79.472656 76.226562 " fill-opacity="1" fill-rule="nonzero"/><path fill="#0d6591" d="M 73.722656 59.960938 C 75.953125 61.648438 78.730469 62.648438 81.738281 62.648438 C 89.09375 62.648438 95.050781 56.683594 95.050781 49.324219 C 95.050781 41.964844 89.09375 36 81.738281 36 C 74.386719 36 68.425781 41.964844 68.425781 49.324219 C 68.425781 52.613281 69.621094 55.621094 71.589844 57.945312 L 68.082031 64.269531 Z M 69.90625 49.835938 C 69.90625 43.558594 74.992188 38.46875 81.261719 38.46875 C 87.535156 38.46875 92.617188 43.558594 92.617188 49.835938 C 92.617188 56.113281 87.535156 61.199219 81.261719 61.199219 C 74.992188 61.199219 69.90625 56.113281 69.90625 49.835938 Z M 69.90625 49.835938 " fill-opacity="1" fill-rule="nonzero"/><path fill="#0d6591" d="M 44.871094 51.046875 C 47.691406 52.734375 50.882812 53.253906 53.886719 52.753906 L 57.507812 59.019531 L 56.710938 51.960938 C 59.300781 50.910156 61.585938 49.039062 63.132812 46.453125 C 66.910156 40.140625 64.855469 31.957031 58.546875 28.179688 C 52.238281 24.398438 44.0625 26.453125 40.285156 32.769531 C 36.511719 39.082031 38.5625 47.265625 44.871094 51.046875 Z M 42.15625 34.445312 C 45.378906 29.058594 52.351562 27.304688 57.734375 30.53125 C 63.113281 33.753906 64.867188 40.734375 61.644531 46.121094 C 58.425781 51.503906 51.449219 53.257812 46.070312 50.035156 C 40.6875 46.8125 38.9375 39.832031 42.15625 34.445312 Z M 42.15625 34.445312 " fill-opacity="1" fill-rule="nonzero"/><path fill="#0d6591" d="M 33.511719 72.648438 C 36.5625 71.4375 38.917969 69.21875 40.347656 66.527344 L 47.515625 67.460938 L 41.433594 63.800781 C 42.179688 61.105469 42.085938 58.148438 40.972656 55.347656 C 38.261719 48.507812 30.523438 45.164062 23.6875 47.878906 C 16.855469 50.59375 13.515625 58.339844 16.226562 65.179688 C 18.9375 72.019531 26.675781 75.363281 33.511719 72.648438 Z M 18.695312 64.714844 C 16.382812 58.878906 19.230469 52.273438 25.058594 49.957031 C 30.890625 47.640625 37.488281 50.492188 39.804688 56.328125 C 42.117188 62.164062 39.265625 68.769531 33.4375 71.085938 C 27.609375 73.398438 21.007812 70.546875 18.695312 64.714844 Z M 18.695312 64.714844 " fill-opacity="1" fill-rule="nonzero"/><path fill="#0d6591" d="M 29.203125 67.714844 L 29.417969 66.257812 C 29.765625 66.246094 30.113281 66.207031 30.460938 66.136719 L 31.003906 67.503906 L 32.855469 66.769531 L 32.308594 65.398438 C 32.613281 65.214844 32.894531 65.003906 33.152344 64.773438 L 34.308594 65.6875 L 35.542969 64.125 L 34.390625 63.214844 C 34.558594 62.90625 34.699219 62.582031 34.808594 62.246094 L 36.261719 62.460938 L 36.550781 60.492188 L 35.09375 60.277344 C 35.082031 59.929688 35.042969 59.582031 34.972656 59.234375 L 36.339844 58.6875 L 35.605469 56.835938 L 34.238281 57.382812 C 34.050781 57.078125 33.84375 56.796875 33.609375 56.539062 L 34.523438 55.382812 L 32.964844 54.148438 L 32.054688 55.300781 C 31.746094 55.132812 31.421875 54.992188 31.085938 54.882812 L 31.300781 53.425781 L 29.332031 53.136719 L 29.117188 54.597656 C 28.769531 54.605469 28.421875 54.644531 28.074219 54.71875 L 27.53125 53.347656 L 25.683594 54.082031 L 26.226562 55.453125 C 25.921875 55.636719 25.644531 55.847656 25.382812 56.078125 L 24.230469 55.164062 L 22.992188 56.726562 L 24.144531 57.640625 C 23.976562 57.949219 23.839844 58.273438 23.730469 58.605469 L 22.277344 58.390625 L 21.988281 60.363281 L 23.445312 60.578125 C 23.453125 60.925781 23.492188 61.273438 23.566406 61.621094 L 22.195312 62.164062 L 22.929688 64.015625 L 24.300781 63.472656 C 24.484375 63.773438 24.695312 64.054688 24.925781 64.3125 L 24.011719 65.46875 L 25.570312 66.707031 L 26.484375 65.554688 C 26.792969 65.722656 27.117188 65.859375 27.449219 65.972656 L 27.234375 67.425781 Z M 25.300781 62.003906 C 24.429688 59.808594 25.5 57.324219 27.691406 56.453125 C 29.882812 55.582031 32.367188 56.65625 33.238281 58.851562 C 34.105469 61.042969 33.035156 63.527344 30.84375 64.398438 C 28.652344 65.269531 26.167969 64.199219 25.300781 62.003906 Z M 25.300781 62.003906 " fill-opacity="1" fill-rule="nonzero"/><path fill="#0d6591" d="M 31.019531 59.730469 C 31.113281 59.960938 31.15625 60.203125 31.152344 60.453125 C 31.152344 60.703125 31.097656 60.945312 31 61.175781 C 30.902344 61.40625 30.761719 61.605469 30.582031 61.78125 C 30.402344 61.957031 30.195312 62.089844 29.964844 62.179688 C 29.730469 62.273438 29.492188 62.316406 29.242188 62.3125 C 28.992188 62.3125 28.75 62.257812 28.519531 62.160156 C 28.292969 62.0625 28.089844 61.921875 27.914062 61.742188 C 27.742188 61.5625 27.609375 61.355469 27.515625 61.121094 C 27.421875 60.890625 27.378906 60.648438 27.382812 60.398438 C 27.386719 60.148438 27.4375 59.90625 27.535156 59.679688 C 27.636719 59.449219 27.773438 59.246094 27.953125 59.070312 C 28.132812 58.898438 28.339844 58.765625 28.574219 58.671875 C 28.804688 58.578125 29.046875 58.535156 29.296875 58.539062 C 29.546875 58.542969 29.785156 58.59375 30.015625 58.691406 C 30.246094 58.792969 30.449219 58.933594 30.621094 59.113281 C 30.796875 59.292969 30.929688 59.496094 31.019531 59.730469 Z M 31.019531 59.730469 " fill-opacity="1" fill-rule="nonzero"/><path fill="#0d6591" d="M 117.398438 69.632812 C 117.398438 70.121094 117.351562 70.605469 117.253906 71.089844 C 117.160156 71.570312 117.015625 72.035156 116.828125 72.488281 C 116.640625 72.941406 116.414062 73.371094 116.140625 73.78125 C 115.867188 74.1875 115.558594 74.566406 115.210938 74.914062 C 114.867188 75.257812 114.488281 75.570312 114.082031 75.839844 C 113.675781 76.113281 113.242188 76.34375 112.792969 76.53125 C 112.339844 76.71875 111.871094 76.859375 111.390625 76.957031 C 110.910156 77.050781 110.425781 77.101562 109.933594 77.101562 C 109.445312 77.101562 108.960938 77.050781 108.480469 76.957031 C 108 76.859375 107.53125 76.71875 107.078125 76.53125 C 106.628906 76.34375 106.195312 76.113281 105.789062 75.839844 C 105.382812 75.570312 105.003906 75.257812 104.660156 74.914062 C 104.3125 74.566406 104.003906 74.1875 103.730469 73.78125 C 103.457031 73.371094 103.230469 72.941406 103.042969 72.488281 C 102.855469 72.035156 102.710938 71.570312 102.617188 71.089844 C 102.519531 70.605469 102.472656 70.121094 102.472656 69.632812 C 102.472656 69.140625 102.519531 68.65625 102.617188 68.175781 C 102.710938 67.691406 102.855469 67.226562 103.042969 66.773438 C 103.230469 66.320312 103.457031 65.890625 103.730469 65.480469 C 104.003906 65.074219 104.3125 64.695312 104.660156 64.347656 C 105.003906 64.003906 105.382812 63.691406 105.789062 63.421875 C 106.195312 63.148438 106.628906 62.917969 107.078125 62.730469 C 107.53125 62.542969 108 62.402344 108.480469 62.304688 C 108.960938 62.210938 109.445312 62.160156 109.933594 62.160156 C 110.425781 62.160156 110.910156 62.210938 111.390625 62.304688 C 111.871094 62.402344 112.339844 62.542969 112.792969 62.730469 C 113.242188 62.917969 113.675781 63.148438 114.082031 63.421875 C 114.488281 63.691406 114.867188 64.003906 115.210938 64.347656 C 115.558594 64.695312 115.867188 65.074219 116.140625 65.480469 C 116.414062 65.890625 116.640625 66.320312 116.828125 66.773438 C 117.015625 67.226562 117.160156 67.691406 117.253906 68.175781 C 117.351562 68.65625 117.398438 69.140625 117.398438 69.632812 Z M 117.398438 69.632812 " fill-opacity="1" fill-rule="nonzero"/><path fill="#0d6591" d="M 78.183594 51.378906 L 77.40625 51.378906 L 77.605469 55.695312 L 78.160156 55.695312 C 78.316406 55.363281 78.363281 55.160156 78.648438 55.160156 C 79.070312 55.160156 79.558594 55.371094 80.402344 55.503906 L 80.136719 57.226562 L 81.042969 57.335938 L 81.308594 55.582031 C 81.464844 55.605469 81.621094 55.601562 81.796875 55.601562 C 84.722656 55.601562 86.320312 53.984375 86.320312 51.808594 C 86.320312 49.367188 84.390625 48.746094 82.417969 48.257812 L 82.972656 44.585938 C 83.882812 44.832031 84.503906 45.402344 84.988281 47.0625 L 85.699219 47.0625 L 85.566406 43.410156 L 85.078125 43.410156 C 84.945312 43.742188 84.835938 43.816406 84.570312 43.816406 C 84.257812 43.816406 83.792969 43.652344 83.128906 43.496094 L 83.394531 41.78125 L 82.507812 41.679688 L 82.242188 43.414062 C 82.085938 43.394531 81.953125 43.394531 81.796875 43.394531 C 79.027344 43.394531 77.675781 45.0625 77.675781 46.945312 C 77.675781 49.011719 78.9375 49.808594 81.175781 50.320312 L 80.554688 54.398438 C 79.179688 54.042969 78.695312 53.039062 78.183594 51.378906 Z M 84.589844 52.574219 C 84.589844 53.863281 83.570312 54.699219 81.753906 54.699219 L 81.464844 54.699219 L 82.0625 50.609375 C 83.859375 51.050781 84.589844 51.355469 84.589844 52.574219 Z M 79.445312 46.222656 C 79.445312 45.089844 80.402344 44.40625 81.753906 44.40625 L 82.085938 44.40625 L 81.53125 48.066406 C 80.15625 47.6875 79.445312 47.332031 79.445312 46.222656 Z M 79.445312 46.222656 " fill-opacity="1" fill-rule="nonzero"/><path fill="#0d6591" d="M 51.761719 47.386719 C 55.789062 47.386719 59.054688 44.117188 59.054688 40.089844 C 59.054688 38.976562 58.804688 37.925781 58.359375 36.984375 L 52.003906 40.523438 C 51.929688 40.566406 51.847656 40.585938 51.761719 40.585938 C 51.683594 40.585938 51.605469 40.570312 51.535156 40.53125 C 51.386719 40.453125 51.285156 40.308594 51.269531 40.140625 L 50.5 32.90625 C 47.078125 33.503906 44.472656 36.492188 44.472656 40.089844 C 44.472656 44.117188 47.738281 47.386719 51.761719 47.386719 Z M 51.761719 47.386719 " fill-opacity="1" fill-rule="nonzero"/><path fill="#0d6591" d="M 52.179688 39.289062 L 57.875 36.113281 C 56.574219 34.113281 54.324219 32.792969 51.761719 32.792969 C 51.671875 32.792969 51.578125 32.796875 51.488281 32.800781 Z M 52.179688 39.289062 " fill-opacity="1" fill-rule="nonzero"/><path fill="#0d6591" d="M 102.609375 101.738281 C 102.835938 101.738281 103.070312 101.707031 103.300781 101.644531 L 114.796875 98.546875 C 115.734375 98.292969 116.457031 97.550781 116.6875 96.609375 L 119.660156 84.371094 C 120.003906 82.945312 119.132812 81.511719 117.707031 81.164062 C 116.285156 80.816406 114.847656 81.691406 114.503906 83.117188 L 111.902344 93.828125 L 101.921875 96.515625 C 100.503906 96.898438 99.667969 98.355469 100.046875 99.769531 C 100.367188 100.957031 101.4375 101.738281 102.609375 101.738281 Z M 102.609375 101.738281 " fill-opacity="1" fill-rule="nonzero"/></svg>