<svg xmlns="http://www.w3.org/2000/svg" xmlns:xlink="http://www.w3.org/1999/xlink" width="200" zoomAndPan="magnify" viewBox="0 0 150 149.999998" height="200" preserveAspectRatio="xMidYMid meet" version="1.0"><defs><clipPath id="6e96d11b1a"><path d="M 28.367188 15.167969 L 102.175781 15.167969 L 102.175781 140.230469 L 28.367188 140.230469 Z M 28.367188 15.167969 " clip-rule="nonzero"/></clipPath><clipPath id="243f0b5236"><path d="M 28.285156 119 L 102 119 L 102 122 L 28.285156 122 Z M 28.285156 119 " clip-rule="nonzero"/></clipPath><clipPath id="fe83297af0"><path d="M 75.765625 26.703125 L 125.703125 26.703125 L 125.703125 76.914062 L 75.765625 76.914062 Z M 75.765625 26.703125 " clip-rule="nonzero"/></clipPath></defs><g clip-path="url(#6e96d11b1a)"><path fill="#0d6591" d="M 89.226562 140.230469 L 41.207031 140.230469 C 37.800781 140.230469 34.585938 138.894531 32.148438 136.460938 C 29.710938 134.035156 28.367188 130.835938 28.367188 127.445312 L 28.367188 27.953125 C 28.367188 27.945312 28.367188 27.945312 28.367188 27.9375 C 28.410156 24.515625 29.765625 21.308594 32.171875 18.90625 C 34.59375 16.496094 37.800781 15.167969 41.207031 15.167969 L 89.226562 15.167969 C 92.632812 15.167969 95.851562 16.503906 98.289062 18.941406 C 100.726562 21.367188 102.066406 24.566406 102.066406 27.953125 L 102.066406 28.195312 C 102.066406 28.914062 101.480469 29.5 100.765625 29.5 C 100.050781 29.5 99.464844 28.914062 99.464844 28.195312 L 99.464844 27.953125 C 99.464844 22.34375 94.875 17.773438 89.226562 17.773438 L 41.207031 17.773438 C 35.632812 17.773438 31.042969 22.34375 30.96875 27.960938 L 30.96875 127.445312 C 30.96875 133.054688 35.558594 137.625 41.207031 137.625 L 89.226562 137.625 C 94.875 137.625 99.464844 133.054688 99.464844 127.445312 L 99.464844 75.582031 C 99.464844 74.867188 100.050781 74.28125 100.765625 74.28125 C 101.480469 74.28125 102.066406 74.867188 102.066406 75.582031 L 102.066406 127.445312 C 102.066406 130.835938 100.726562 134.035156 98.289062 136.460938 C 95.851562 138.894531 92.632812 140.230469 89.226562 140.230469 " fill-opacity="1" fill-rule="evenodd"/></g><g clip-path="url(#243f0b5236)"><path fill="#0d6591" d="M 100.683594 121.667969 L 29.75 121.667969 C 29.035156 121.667969 28.449219 121.078125 28.449219 120.363281 C 28.449219 119.648438 29.035156 119.058594 29.75 119.058594 L 100.683594 119.058594 C 101.398438 119.058594 101.984375 119.648438 101.984375 120.363281 C 101.984375 121.078125 101.398438 121.667969 100.683594 121.667969 " fill-opacity="1" fill-rule="evenodd"/></g><path fill="#0d6591" d="M 82.648438 28.523438 L 47.789062 28.523438 C 47.324219 28.523438 46.894531 28.269531 46.660156 27.871094 L 40.484375 17.125 C 40.125 16.496094 40.335938 15.707031 40.960938 15.347656 C 41.589844 14.992188 42.375 15.203125 42.734375 15.828125 L 48.535156 25.925781 L 81.890625 25.925781 L 87.691406 15.828125 C 88.050781 15.203125 88.847656 14.992188 89.464844 15.347656 C 90.089844 15.707031 90.300781 16.503906 89.941406 17.125 L 83.769531 27.871094 C 83.539062 28.269531 83.109375 28.523438 82.648438 28.523438 " fill-opacity="1" fill-rule="evenodd"/><path fill="#0d6591" d="M 74.113281 134.855469 L 56.320312 134.855469 C 53.5 134.855469 51.121094 132.472656 51.121094 129.644531 C 51.121094 126.820312 53.5 124.433594 56.320312 124.433594 L 74.113281 124.433594 C 76.933594 124.433594 79.316406 126.820312 79.316406 129.644531 C 79.316406 132.472656 76.933594 134.855469 74.113281 134.855469 Z M 56.320312 127.039062 C 54.9375 127.039062 53.71875 128.261719 53.71875 129.644531 C 53.71875 131.027344 54.9375 132.25 56.320312 132.25 L 74.113281 132.25 C 75.496094 132.25 76.714844 131.027344 76.714844 129.644531 C 76.714844 128.261719 75.496094 127.039062 74.113281 127.039062 L 56.320312 127.039062 " fill-opacity="1" fill-rule="evenodd"/><path fill="#0d6591" d="M 51.609375 109.128906 C 42.289062 109.128906 34.707031 101.53125 34.707031 92.191406 C 34.707031 87.671875 36.46875 83.429688 39.664062 80.257812 C 42.847656 77.089844 47.089844 75.339844 51.609375 75.339844 C 56.125 75.339844 60.367188 77.082031 63.550781 80.257812 C 66.746094 83.429688 68.507812 87.671875 68.507812 92.191406 C 68.507812 101.53125 60.925781 109.128906 51.609375 109.128906 Z M 51.609375 77.945312 C 43.726562 77.945312 37.304688 84.335938 37.304688 92.191406 C 37.304688 100.089844 43.726562 106.523438 51.609375 106.523438 C 59.488281 106.523438 65.90625 100.089844 65.90625 92.191406 C 65.90625 84.335938 59.488281 77.945312 51.609375 77.945312 " fill-opacity="1" fill-rule="evenodd"/><path fill="#0d6591" d="M 51.609375 102.613281 C 48.382812 102.613281 45.757812 99.984375 45.757812 96.75 C 45.757812 96.035156 46.34375 95.449219 47.058594 95.449219 C 47.773438 95.449219 48.355469 96.035156 48.355469 96.75 C 48.355469 98.550781 49.8125 100.007812 51.609375 100.007812 C 53.402344 100.007812 54.855469 98.550781 54.855469 96.75 C 54.855469 94.953125 53.402344 93.496094 51.609375 93.496094 C 50.039062 93.496094 48.578125 92.902344 47.480469 91.835938 C 46.367188 90.75 45.757812 89.285156 45.757812 87.714844 C 45.757812 84.480469 48.382812 81.851562 51.609375 81.851562 C 54.832031 81.851562 57.457031 84.480469 57.457031 87.714844 C 57.457031 88.429688 56.871094 89.015625 56.160156 89.015625 C 55.441406 89.015625 54.855469 88.429688 54.855469 87.714844 C 54.855469 85.914062 53.402344 84.457031 51.609375 84.457031 C 49.8125 84.457031 48.355469 85.914062 48.355469 87.714844 C 48.355469 89.496094 49.789062 90.890625 51.609375 90.890625 C 54.832031 90.890625 57.457031 93.519531 57.457031 96.75 C 57.457031 99.984375 54.832031 102.613281 51.609375 102.613281 " fill-opacity="1" fill-rule="evenodd"/><path fill="#0d6591" d="M 51.609375 84.457031 C 50.890625 84.457031 50.308594 83.871094 50.308594 83.152344 L 50.308594 81.609375 C 50.308594 80.890625 50.890625 80.304688 51.609375 80.304688 C 52.324219 80.304688 52.90625 80.890625 52.90625 81.609375 L 52.90625 83.152344 C 52.90625 83.871094 52.324219 84.457031 51.609375 84.457031 " fill-opacity="1" fill-rule="evenodd"/><path fill="#0d6591" d="M 51.609375 104.160156 C 50.890625 104.160156 50.308594 103.574219 50.308594 102.859375 L 50.308594 101.308594 C 50.308594 100.59375 50.890625 100.007812 51.609375 100.007812 C 52.324219 100.007812 52.90625 100.59375 52.90625 101.308594 L 52.90625 102.859375 C 52.90625 103.574219 52.324219 104.160156 51.609375 104.160156 " fill-opacity="1" fill-rule="evenodd"/><path fill="#0d6591" d="M 94.429688 79.328125 L 73.789062 79.328125 C 73.074219 79.328125 72.488281 78.742188 72.488281 78.023438 C 72.488281 77.308594 73.074219 76.722656 73.789062 76.722656 L 94.429688 76.722656 C 95.144531 76.722656 95.730469 77.308594 95.730469 78.023438 C 95.730469 78.742188 95.144531 79.328125 94.429688 79.328125 " fill-opacity="1" fill-rule="evenodd"/><path fill="#0d6591" d="M 94.429688 86.410156 L 73.789062 86.410156 C 73.074219 86.410156 72.488281 85.824219 72.488281 85.109375 C 72.488281 84.390625 73.074219 83.804688 73.789062 83.804688 L 94.429688 83.804688 C 95.144531 83.804688 95.730469 84.390625 95.730469 85.109375 C 95.730469 85.824219 95.144531 86.410156 94.429688 86.410156 " fill-opacity="1" fill-rule="evenodd"/><path fill="#0d6591" d="M 94.429688 93.496094 L 73.789062 93.496094 C 73.074219 93.496094 72.488281 92.910156 72.488281 92.191406 C 72.488281 91.476562 73.074219 90.890625 73.789062 90.890625 L 94.429688 90.890625 C 95.144531 90.890625 95.730469 91.476562 95.730469 92.191406 C 95.730469 92.910156 95.144531 93.496094 94.429688 93.496094 " fill-opacity="1" fill-rule="evenodd"/><path fill="#0d6591" d="M 94.429688 100.660156 L 73.789062 100.660156 C 73.074219 100.660156 72.488281 100.074219 72.488281 99.355469 C 72.488281 98.640625 73.074219 98.054688 73.789062 98.054688 L 94.429688 98.054688 C 95.144531 98.054688 95.730469 98.640625 95.730469 99.355469 C 95.730469 100.074219 95.144531 100.660156 94.429688 100.660156 " fill-opacity="1" fill-rule="evenodd"/><path fill="#0d6591" d="M 94.429688 107.742188 L 73.789062 107.742188 C 73.074219 107.742188 72.488281 107.15625 72.488281 106.441406 C 72.488281 105.726562 73.074219 105.136719 73.789062 105.136719 L 94.429688 105.136719 C 95.144531 105.136719 95.730469 105.726562 95.730469 106.441406 C 95.730469 107.15625 95.144531 107.742188 94.429688 107.742188 " fill-opacity="1" fill-rule="evenodd"/><path fill="#0d6591" d="M 92.996094 67.238281 C 91.683594 67.238281 90.390625 66.699219 89.445312 65.753906 L 84.246094 60.546875 C 82.363281 58.65625 82.351562 55.503906 84.222656 53.519531 C 84.238281 53.5 84.253906 53.484375 84.273438 53.46875 C 86.253906 51.597656 89.398438 51.605469 91.285156 53.492188 C 91.292969 53.5 91.292969 53.5 91.300781 53.511719 L 92.980469 55.246094 L 110.167969 38.023438 C 111.117188 37.070312 112.367188 36.542969 113.6875 36.542969 C 115 36.542969 116.253906 37.070312 117.203125 38.023438 C 117.210938 38.03125 117.21875 38.039062 117.230469 38.050781 C 119.082031 40.011719 119.082031 43.089844 117.230469 45.050781 C 117.21875 45.058594 117.210938 45.066406 117.203125 45.074219 L 96.566406 65.753906 C 96.46875 65.851562 96.363281 65.933594 96.242188 65.992188 C 95.371094 66.78125 94.257812 67.222656 93.0625 67.238281 C 93.046875 67.238281 93.023438 67.238281 92.996094 67.238281 Z M 86.082031 55.332031 C 85.207031 56.285156 85.207031 57.824219 86.082031 58.703125 L 91.285156 63.914062 C 91.753906 64.386719 92.371094 64.648438 93.03125 64.632812 C 93.648438 64.625 94.210938 64.378906 94.625 63.941406 C 94.722656 63.835938 94.835938 63.753906 94.957031 63.679688 L 115.351562 43.242188 C 116.238281 42.289062 116.238281 40.800781 115.351562 39.847656 C 114.394531 38.902344 112.953125 38.902344 112.003906 39.863281 L 93.882812 58.019531 C 93.640625 58.265625 93.308594 58.402344 92.964844 58.402344 L 92.957031 58.402344 C 92.609375 58.402344 92.273438 58.257812 92.03125 58.003906 L 89.4375 55.324219 C 88.5625 54.453125 87.035156 54.460938 86.082031 55.332031 " fill-opacity="1" fill-rule="evenodd"/><g clip-path="url(#fe83297af0)"><path fill="#0d6591" d="M 100.765625 76.886719 C 94.09375 76.886719 87.820312 74.289062 83.117188 69.574219 C 78.414062 64.859375 75.820312 58.574219 75.820312 51.890625 C 75.820312 38.105469 87.007812 26.894531 100.765625 26.894531 C 104.121094 26.894531 107.378906 27.5625 110.453125 28.863281 C 113.417969 30.128906 116.082031 31.933594 118.382812 34.230469 C 120.675781 36.527344 122.476562 39.203125 123.738281 42.175781 C 125.046875 45.261719 125.703125 48.527344 125.703125 51.882812 C 125.710938 65.671875 114.523438 76.886719 100.765625 76.886719 Z M 100.765625 29.5 C 88.445312 29.5 78.421875 39.546875 78.421875 51.890625 C 78.421875 64.234375 88.445312 74.28125 100.765625 74.28125 C 113.085938 74.28125 123.113281 64.234375 123.113281 51.890625 C 123.113281 39.546875 113.085938 29.5 100.765625 29.5 " fill-opacity="1" fill-rule="evenodd"/></g></svg>