<svg xmlns="http://www.w3.org/2000/svg" xmlns:xlink="http://www.w3.org/1999/xlink" width="200" zoomAndPan="magnify" viewBox="0 0 150 149.999998" height="200" preserveAspectRatio="xMidYMid meet" version="1.0"><defs><clipPath id="2819a9889d"><path d="M 10.007812 10.007812 L 140.507812 10.007812 L 140.507812 140.507812 L 10.007812 140.507812 Z M 10.007812 10.007812 " clip-rule="nonzero"/></clipPath><clipPath id="526b487478"><path d="M 41.367188 26.136719 L 99.28125 26.136719 L 99.28125 124.234375 L 41.367188 124.234375 Z M 41.367188 26.136719 " clip-rule="nonzero"/></clipPath><clipPath id="b4b1bb7413"><path d="M 41.308594 107 L 100 107 L 100 110 L 41.308594 110 Z M 41.308594 107 " clip-rule="nonzero"/></clipPath><clipPath id="2710c5dee6"><path d="M 50 26.003906 L 90 26.003906 L 90 37 L 50 37 Z M 50 26.003906 " clip-rule="nonzero"/></clipPath><clipPath id="b6f3c0ec35"><path d="M 78.558594 35.183594 L 117.746094 35.183594 L 117.746094 74.566406 L 78.558594 74.566406 Z M 78.558594 35.183594 " clip-rule="nonzero"/></clipPath></defs><g clip-path="url(#2819a9889d)"><path fill="#0d6591" d="M 140.507812 75.257812 C 140.507812 76.328125 140.484375 77.394531 140.429688 78.460938 C 140.378906 79.527344 140.300781 80.59375 140.195312 81.65625 C 140.089844 82.71875 139.960938 83.777344 139.804688 84.832031 C 139.648438 85.890625 139.464844 86.941406 139.253906 87.988281 C 139.046875 89.035156 138.8125 90.078125 138.554688 91.113281 C 138.292969 92.148438 138.011719 93.179688 137.699219 94.199219 C 137.390625 95.222656 137.054688 96.234375 136.695312 97.242188 C 136.335938 98.246094 135.953125 99.242188 135.542969 100.230469 C 135.132812 101.214844 134.703125 102.191406 134.246094 103.15625 C 133.789062 104.121094 133.308594 105.078125 132.804688 106.019531 C 132.300781 106.960938 131.773438 107.890625 131.226562 108.804688 C 130.675781 109.71875 130.105469 110.621094 129.511719 111.511719 C 128.917969 112.398438 128.304688 113.269531 127.667969 114.128906 C 127.03125 114.988281 126.375 115.828125 125.699219 116.652344 C 125.019531 117.480469 124.324219 118.289062 123.605469 119.078125 C 122.890625 119.871094 122.152344 120.644531 121.398438 121.398438 C 120.644531 122.152344 119.871094 122.890625 119.078125 123.605469 C 118.289062 124.324219 117.480469 125.019531 116.652344 125.699219 C 115.828125 126.375 114.988281 127.03125 114.128906 127.667969 C 113.269531 128.304688 112.398438 128.917969 111.511719 129.511719 C 110.621094 130.105469 109.71875 130.675781 108.804688 131.226562 C 107.890625 131.773438 106.960938 132.300781 106.019531 132.804688 C 105.078125 133.308594 104.121094 133.789062 103.15625 134.246094 C 102.191406 134.703125 101.214844 135.132812 100.230469 135.542969 C 99.242188 135.953125 98.246094 136.335938 97.242188 136.695312 C 96.234375 137.054688 95.222656 137.390625 94.199219 137.699219 C 93.179688 138.011719 92.148438 138.292969 91.113281 138.554688 C 90.078125 138.8125 89.035156 139.046875 87.988281 139.253906 C 86.941406 139.464844 85.890625 139.648438 84.832031 139.804688 C 83.777344 139.960938 82.71875 140.089844 81.65625 140.195312 C 80.59375 140.300781 79.527344 140.378906 78.460938 140.429688 C 77.394531 140.484375 76.328125 140.507812 75.257812 140.507812 C 74.191406 140.507812 73.125 140.484375 72.058594 140.429688 C 70.992188 140.378906 69.925781 140.300781 68.863281 140.195312 C 67.800781 140.089844 66.742188 139.960938 65.683594 139.804688 C 64.628906 139.648438 63.578125 139.464844 62.53125 139.253906 C 61.484375 139.046875 60.441406 138.8125 59.40625 138.554688 C 58.371094 138.292969 57.339844 138.011719 56.320312 137.699219 C 55.296875 137.390625 54.28125 137.054688 53.277344 136.695312 C 52.273438 136.335938 51.277344 135.953125 50.289062 135.542969 C 49.304688 135.132812 48.328125 134.703125 47.363281 134.246094 C 46.394531 133.789062 45.441406 133.308594 44.5 132.804688 C 43.558594 132.300781 42.628906 131.773438 41.714844 131.226562 C 40.796875 130.675781 39.898438 130.105469 39.007812 129.511719 C 38.121094 128.917969 37.246094 128.304688 36.390625 127.667969 C 35.53125 127.03125 34.691406 126.375 33.867188 125.699219 C 33.039062 125.019531 32.230469 124.324219 31.441406 123.605469 C 30.648438 122.890625 29.875 122.152344 29.121094 121.398438 C 28.367188 120.644531 27.628906 119.871094 26.914062 119.078125 C 26.195312 118.289062 25.5 117.480469 24.820312 116.652344 C 24.144531 115.828125 23.488281 114.988281 22.851562 114.128906 C 22.214844 113.269531 21.597656 112.398438 21.007812 111.511719 C 20.414062 110.621094 19.839844 109.71875 19.292969 108.804688 C 18.742188 107.890625 18.21875 106.960938 17.714844 106.019531 C 17.210938 105.078125 16.730469 104.121094 16.273438 103.15625 C 15.816406 102.191406 15.386719 101.214844 14.976562 100.230469 C 14.566406 99.242188 14.183594 98.246094 13.824219 97.242188 C 13.464844 96.234375 13.128906 95.222656 12.820312 94.199219 C 12.507812 93.179688 12.222656 92.148438 11.964844 91.113281 C 11.707031 90.078125 11.472656 89.035156 11.261719 87.988281 C 11.054688 86.941406 10.871094 85.890625 10.714844 84.832031 C 10.558594 83.777344 10.429688 82.71875 10.324219 81.65625 C 10.21875 80.59375 10.140625 79.527344 10.089844 78.460938 C 10.035156 77.394531 10.007812 76.328125 10.007812 75.257812 C 10.007812 74.191406 10.035156 73.125 10.089844 72.058594 C 10.140625 70.992188 10.21875 69.925781 10.324219 68.863281 C 10.429688 67.800781 10.558594 66.742188 10.714844 65.683594 C 10.871094 64.628906 11.054688 63.578125 11.261719 62.53125 C 11.472656 61.484375 11.707031 60.441406 11.964844 59.40625 C 12.222656 58.371094 12.507812 57.339844 12.820312 56.320312 C 13.128906 55.296875 13.464844 54.28125 13.824219 53.277344 C 14.183594 52.273438 14.566406 51.277344 14.976562 50.289062 C 15.386719 49.304688 15.816406 48.328125 16.273438 47.363281 C 16.730469 46.394531 17.210938 45.441406 17.714844 44.5 C 18.21875 43.558594 18.742188 42.628906 19.292969 41.714844 C 19.839844 40.796875 20.414062 39.898438 21.007812 39.007812 C 21.597656 38.121094 22.214844 37.246094 22.851562 36.390625 C 23.488281 35.53125 24.144531 34.691406 24.820312 33.867188 C 25.5 33.039062 26.195312 32.230469 26.914062 31.441406 C 27.628906 30.648438 28.367188 29.875 29.121094 29.121094 C 29.875 28.367188 30.648438 27.628906 31.441406 26.914062 C 32.230469 26.195312 33.039062 25.5 33.867188 24.820312 C 34.691406 24.144531 35.53125 23.488281 36.390625 22.851562 C 37.246094 22.214844 38.121094 21.597656 39.007812 21.007812 C 39.898438 20.414062 40.796875 19.839844 41.714844 19.292969 C 42.628906 18.742188 43.558594 18.21875 44.5 17.714844 C 45.441406 17.210938 46.394531 16.730469 47.363281 16.273438 C 48.328125 15.816406 49.304688 15.386719 50.289062 14.976562 C 51.277344 14.566406 52.273438 14.183594 53.277344 13.824219 C 54.28125 13.464844 55.296875 13.128906 56.320312 12.820312 C 57.339844 12.507812 58.371094 12.222656 59.40625 11.964844 C 60.441406 11.707031 61.484375 11.472656 62.53125 11.261719 C 63.578125 11.054688 64.628906 10.871094 65.683594 10.714844 C 66.742188 10.558594 67.800781 10.429688 68.863281 10.324219 C 69.925781 10.21875 70.992188 10.140625 72.058594 10.089844 C 73.125 10.035156 74.191406 10.007812 75.257812 10.007812 C 76.328125 10.007812 77.394531 10.035156 78.460938 10.089844 C 79.527344 10.140625 80.59375 10.21875 81.65625 10.324219 C 82.71875 10.429688 83.777344 10.558594 84.832031 10.714844 C 85.890625 10.871094 86.941406 11.054688 87.988281 11.261719 C 89.035156 11.472656 90.078125 11.707031 91.113281 11.964844 C 92.148438 12.222656 93.179688 12.507812 94.199219 12.820312 C 95.222656 13.128906 96.234375 13.464844 97.242188 13.824219 C 98.246094 14.183594 99.242188 14.566406 100.230469 14.976562 C 101.214844 15.386719 102.191406 15.816406 103.15625 16.273438 C 104.121094 16.730469 105.078125 17.210938 106.019531 17.714844 C 106.960938 18.21875 107.890625 18.742188 108.804688 19.292969 C 109.722656 19.839844 110.621094 20.414062 111.511719 21.007812 C 112.398438 21.597656 113.269531 22.214844 114.128906 22.851562 C 114.988281 23.488281 115.828125 24.144531 116.652344 24.820312 C 117.480469 25.5 118.289062 26.195312 119.078125 26.914062 C 119.871094 27.628906 120.644531 28.367188 121.398438 29.121094 C 122.152344 29.875 122.890625 30.648438 123.605469 31.441406 C 124.324219 32.230469 125.019531 33.039062 125.699219 33.867188 C 126.375 34.691406 127.03125 35.53125 127.667969 36.390625 C 128.304688 37.246094 128.917969 38.121094 129.511719 39.007812 C 130.105469 39.898438 130.675781 40.796875 131.226562 41.714844 C 131.773438 42.628906 132.300781 43.558594 132.804688 44.5 C 133.308594 45.441406 133.789062 46.394531 134.246094 47.363281 C 134.703125 48.328125 135.132812 49.304688 135.542969 50.289062 C 135.953125 51.277344 136.335938 52.273438 136.695312 53.277344 C 137.054688 54.28125 137.390625 55.296875 137.699219 56.320312 C 138.011719 57.339844 138.292969 58.371094 138.554688 59.40625 C 138.8125 60.441406 139.046875 61.484375 139.253906 62.53125 C 139.464844 63.578125 139.648438 64.628906 139.804688 65.683594 C 139.960938 66.742188 140.089844 67.800781 140.195312 68.863281 C 140.300781 69.925781 140.378906 70.992188 140.429688 72.058594 C 140.484375 73.125 140.507812 74.191406 140.507812 75.257812 Z M 140.507812 75.257812 " fill-opacity="1" fill-rule="nonzero"/></g><g clip-path="url(#526b487478)"><path fill="#ffffff" d="M 89.121094 124.234375 L 51.441406 124.234375 C 48.769531 124.234375 46.246094 123.1875 44.332031 121.277344 C 42.421875 119.375 41.367188 116.867188 41.367188 114.210938 L 41.367188 36.164062 C 41.367188 36.15625 41.367188 36.15625 41.367188 36.148438 C 41.398438 33.464844 42.464844 30.949219 44.351562 29.066406 C 46.25 27.175781 48.769531 26.136719 51.441406 26.136719 L 89.121094 26.136719 C 91.792969 26.136719 94.320312 27.183594 96.230469 29.09375 C 98.144531 30.996094 99.195312 33.503906 99.195312 36.164062 L 99.195312 36.351562 C 99.195312 36.914062 98.738281 37.375 98.175781 37.375 C 97.617188 37.375 97.15625 36.914062 97.15625 36.351562 L 97.15625 36.164062 C 97.15625 31.761719 93.554688 28.179688 89.121094 28.179688 L 51.441406 28.179688 C 47.066406 28.179688 43.464844 31.761719 43.40625 36.167969 L 43.40625 114.210938 C 43.40625 118.609375 47.011719 122.191406 51.441406 122.191406 L 89.121094 122.191406 C 93.554688 122.191406 97.15625 118.609375 97.15625 114.210938 L 97.15625 73.523438 C 97.15625 72.964844 97.617188 72.503906 98.175781 72.503906 C 98.738281 72.503906 99.195312 72.964844 99.195312 73.523438 L 99.195312 114.210938 C 99.195312 116.867188 98.144531 119.375 96.230469 121.277344 C 94.320312 123.1875 91.792969 124.234375 89.121094 124.234375 " fill-opacity="1" fill-rule="evenodd"/></g><g clip-path="url(#b4b1bb7413)"><path fill="#ffffff" d="M 98.113281 109.675781 L 42.453125 109.675781 C 41.890625 109.675781 41.429688 109.214844 41.429688 108.652344 C 41.429688 108.089844 41.890625 107.628906 42.453125 107.628906 L 98.113281 107.628906 C 98.675781 107.628906 99.132812 108.089844 99.132812 108.652344 C 99.132812 109.214844 98.675781 109.675781 98.113281 109.675781 " fill-opacity="1" fill-rule="evenodd"/></g><g clip-path="url(#2710c5dee6)"><path fill="#ffffff" d="M 83.957031 36.609375 L 56.605469 36.609375 C 56.242188 36.609375 55.90625 36.410156 55.71875 36.097656 L 50.875 27.667969 C 50.59375 27.175781 50.757812 26.558594 51.25 26.273438 C 51.742188 25.996094 52.359375 26.160156 52.640625 26.652344 L 57.191406 34.570312 L 83.367188 34.570312 L 87.917969 26.652344 C 88.199219 26.160156 88.824219 25.996094 89.308594 26.273438 C 89.800781 26.558594 89.964844 27.183594 89.683594 27.667969 L 84.839844 36.097656 C 84.660156 36.410156 84.320312 36.609375 83.957031 36.609375 " fill-opacity="1" fill-rule="evenodd"/></g><path fill="#ffffff" d="M 77.265625 120.019531 L 63.300781 120.019531 C 61.089844 120.019531 59.21875 118.148438 59.21875 115.933594 C 59.21875 113.71875 61.089844 111.84375 63.300781 111.84375 L 77.265625 111.84375 C 79.476562 111.84375 81.34375 113.71875 81.34375 115.933594 C 81.34375 118.148438 79.476562 120.019531 77.265625 120.019531 Z M 63.300781 113.890625 C 62.21875 113.890625 61.261719 114.847656 61.261719 115.933594 C 61.261719 117.019531 62.21875 117.976562 63.300781 117.976562 L 77.265625 117.976562 C 78.347656 117.976562 79.304688 117.019531 79.304688 115.933594 C 79.304688 114.847656 78.347656 113.890625 77.265625 113.890625 L 63.300781 113.890625 " fill-opacity="1" fill-rule="evenodd"/><path fill="#ffffff" d="M 59.601562 99.839844 C 52.289062 99.839844 46.339844 93.878906 46.339844 86.554688 C 46.339844 83.007812 47.726562 79.679688 50.230469 77.191406 C 52.730469 74.707031 56.058594 73.332031 59.601562 73.332031 C 63.148438 73.332031 66.476562 74.699219 68.976562 77.191406 C 71.480469 79.679688 72.863281 83.007812 72.863281 86.554688 C 72.863281 93.878906 66.917969 99.839844 59.601562 99.839844 Z M 59.601562 75.375 C 53.417969 75.375 48.382812 80.390625 48.382812 86.554688 C 48.382812 92.75 53.417969 97.796875 59.601562 97.796875 C 65.785156 97.796875 70.824219 92.75 70.824219 86.554688 C 70.824219 80.390625 65.785156 75.375 59.601562 75.375 " fill-opacity="1" fill-rule="evenodd"/><path fill="#ffffff" d="M 59.601562 94.730469 C 57.070312 94.730469 55.011719 92.667969 55.011719 90.128906 C 55.011719 89.566406 55.472656 89.109375 56.03125 89.109375 C 56.59375 89.109375 57.050781 89.566406 57.050781 90.128906 C 57.050781 91.542969 58.195312 92.683594 59.601562 92.683594 C 61.011719 92.683594 62.152344 91.542969 62.152344 90.128906 C 62.152344 88.71875 61.011719 87.574219 59.601562 87.574219 C 58.371094 87.574219 57.222656 87.109375 56.363281 86.273438 C 55.492188 85.421875 55.011719 84.273438 55.011719 83.042969 C 55.011719 80.503906 57.070312 78.441406 59.601562 78.441406 C 62.132812 78.441406 64.195312 80.503906 64.195312 83.042969 C 64.195312 83.605469 63.734375 84.0625 63.175781 84.0625 C 62.613281 84.0625 62.152344 83.605469 62.152344 83.042969 C 62.152344 81.628906 61.011719 80.484375 59.601562 80.484375 C 58.195312 80.484375 57.050781 81.628906 57.050781 83.042969 C 57.050781 84.441406 58.175781 85.53125 59.601562 85.53125 C 62.132812 85.53125 64.191406 87.59375 64.191406 90.128906 C 64.191406 92.667969 62.132812 94.730469 59.601562 94.730469 " fill-opacity="1" fill-rule="evenodd"/><path fill="#ffffff" d="M 59.601562 80.484375 C 59.042969 80.484375 58.582031 80.027344 58.582031 79.464844 L 58.582031 78.25 C 58.582031 77.6875 59.042969 77.230469 59.601562 77.230469 C 60.164062 77.230469 60.625 77.6875 60.625 78.25 L 60.625 79.464844 C 60.625 80.027344 60.164062 80.484375 59.601562 80.484375 " fill-opacity="1" fill-rule="evenodd"/><path fill="#ffffff" d="M 59.601562 95.941406 C 59.042969 95.941406 58.582031 95.484375 58.582031 94.921875 L 58.582031 93.707031 C 58.582031 93.144531 59.042969 92.683594 59.601562 92.683594 C 60.164062 92.683594 60.625 93.144531 60.625 93.707031 L 60.625 94.921875 C 60.625 95.484375 60.164062 95.941406 59.601562 95.941406 " fill-opacity="1" fill-rule="evenodd"/><path fill="#ffffff" d="M 93.203125 76.460938 L 77.007812 76.460938 C 76.449219 76.460938 75.988281 76.003906 75.988281 75.441406 C 75.988281 74.878906 76.449219 74.417969 77.007812 74.417969 L 93.203125 74.417969 C 93.765625 74.417969 94.222656 74.878906 94.222656 75.441406 C 94.222656 76.003906 93.765625 76.460938 93.203125 76.460938 " fill-opacity="1" fill-rule="evenodd"/><path fill="#ffffff" d="M 93.203125 82.019531 L 77.007812 82.019531 C 76.449219 82.019531 75.988281 81.558594 75.988281 80.996094 C 75.988281 80.433594 76.449219 79.976562 77.007812 79.976562 L 93.203125 79.976562 C 93.765625 79.976562 94.222656 80.433594 94.222656 80.996094 C 94.222656 81.558594 93.765625 82.019531 93.203125 82.019531 " fill-opacity="1" fill-rule="evenodd"/><path fill="#ffffff" d="M 93.203125 87.574219 L 77.007812 87.574219 C 76.449219 87.574219 75.988281 87.117188 75.988281 86.554688 C 75.988281 85.992188 76.449219 85.53125 77.007812 85.53125 L 93.203125 85.53125 C 93.765625 85.53125 94.222656 85.992188 94.222656 86.554688 C 94.222656 87.117188 93.765625 87.574219 93.203125 87.574219 " fill-opacity="1" fill-rule="evenodd"/><path fill="#ffffff" d="M 93.203125 93.195312 L 77.007812 93.195312 C 76.449219 93.195312 75.988281 92.738281 75.988281 92.175781 C 75.988281 91.613281 76.449219 91.152344 77.007812 91.152344 L 93.203125 91.152344 C 93.765625 91.152344 94.222656 91.613281 94.222656 92.175781 C 94.222656 92.738281 93.765625 93.195312 93.203125 93.195312 " fill-opacity="1" fill-rule="evenodd"/><path fill="#ffffff" d="M 93.203125 98.753906 L 77.007812 98.753906 C 76.449219 98.753906 75.988281 98.292969 75.988281 97.730469 C 75.988281 97.167969 76.449219 96.707031 77.007812 96.707031 L 93.203125 96.707031 C 93.765625 96.707031 94.222656 97.167969 94.222656 97.730469 C 94.222656 98.292969 93.765625 98.753906 93.203125 98.753906 " fill-opacity="1" fill-rule="evenodd"/><path fill="#ffffff" d="M 92.082031 66.980469 C 91.046875 66.980469 90.035156 66.554688 89.296875 65.816406 L 85.214844 61.730469 C 83.734375 60.246094 83.726562 57.773438 85.195312 56.214844 C 85.207031 56.203125 85.222656 56.191406 85.234375 56.179688 C 86.789062 54.710938 89.257812 54.714844 90.738281 56.199219 C 90.742188 56.203125 90.742188 56.203125 90.75 56.210938 L 92.070312 57.570312 L 105.554688 44.0625 C 106.300781 43.316406 107.28125 42.898438 108.316406 42.898438 C 109.347656 42.898438 110.328125 43.316406 111.074219 44.0625 C 111.082031 44.070312 111.085938 44.074219 111.09375 44.082031 C 112.546875 45.621094 112.546875 48.035156 111.09375 49.574219 C 111.085938 49.582031 111.082031 49.585938 111.074219 49.59375 L 94.878906 65.816406 C 94.804688 65.890625 94.722656 65.957031 94.625 66 C 93.941406 66.621094 93.070312 66.964844 92.132812 66.980469 C 92.121094 66.980469 92.101562 66.980469 92.082031 66.980469 Z M 86.65625 57.640625 C 85.96875 58.386719 85.96875 59.59375 86.65625 60.285156 L 90.738281 64.371094 C 91.105469 64.742188 91.589844 64.949219 92.105469 64.933594 C 92.59375 64.929688 93.03125 64.738281 93.355469 64.390625 C 93.433594 64.308594 93.523438 64.246094 93.617188 64.1875 L 109.621094 48.15625 C 110.316406 47.410156 110.316406 46.242188 109.621094 45.492188 C 108.871094 44.753906 107.742188 44.753906 106.996094 45.507812 L 92.777344 59.75 C 92.585938 59.941406 92.324219 60.050781 92.054688 60.050781 L 92.050781 60.050781 C 91.773438 60.050781 91.511719 59.933594 91.324219 59.738281 L 89.289062 57.632812 C 88.601562 56.953125 87.402344 56.957031 86.65625 57.640625 " fill-opacity="1" fill-rule="evenodd"/><g clip-path="url(#b6f3c0ec35)"><path fill="#ffffff" d="M 98.175781 74.546875 C 92.941406 74.546875 88.019531 72.511719 84.328125 68.8125 C 80.636719 65.113281 78.601562 60.183594 78.601562 54.9375 C 78.601562 44.128906 87.382812 35.332031 98.175781 35.332031 C 100.8125 35.332031 103.367188 35.855469 105.777344 36.878906 C 108.105469 37.867188 110.195312 39.285156 112 41.085938 C 113.796875 42.886719 115.214844 44.988281 116.203125 47.320312 C 117.226562 49.742188 117.746094 52.300781 117.746094 54.933594 C 117.75 65.753906 108.972656 74.546875 98.175781 74.546875 Z M 98.175781 37.375 C 88.511719 37.375 80.644531 45.257812 80.644531 54.9375 C 80.644531 64.621094 88.511719 72.503906 98.175781 72.503906 C 107.84375 72.503906 115.710938 64.621094 115.710938 54.9375 C 115.710938 45.257812 107.84375 37.375 98.175781 37.375 " fill-opacity="1" fill-rule="evenodd"/></g></svg>