<?xml version="1.0" encoding="utf-8"?>
<!-- Generator: Adobe Illustrator 26.5.0, SVG Export Plug-In . SVG Version: 6.00 Build 0)  -->
<svg version="1.1" id="Layer_1" xmlns="http://www.w3.org/2000/svg" xmlns:xlink="http://www.w3.org/1999/xlink" x="0px" y="0px"
	 viewBox="0 0 200 200" style="enable-background:new 0 0 200 200;" xml:space="preserve">
<style type="text/css">
	.st0{fill:none;}
	.st1{fill-rule:evenodd;clip-rule:evenodd;fill:#D900BC;}
	.st2{fill-rule:evenodd;clip-rule:evenodd;fill:#FFFFFF;}
	.st3{fill:#0E6692;}
</style>
<g>
	
		<rect x="34.4" y="64.2" transform="matrix(0.2028 -0.9792 0.9792 0.2028 -17.9655 178.803)" class="st0" width="132.8" height="72.5"/>
	
		<rect x="34.4" y="64.2" transform="matrix(0.2028 -0.9792 0.9792 0.2028 -17.9655 178.803)" class="st0" width="132.8" height="72.5"/>
	<path class="st1" d="M90.5,156l-2.3-0.5c-0.9-0.2-1.8,0.4-2,1.3l-0.5,2.3c-0.2,0.9,0.4,1.8,1.3,2l2.3,0.5c0.9,0.2,1.8-0.4,2-1.3
		l0.5-2.3C92,157.1,91.4,156.2,90.5,156z M90.5,156l-2.3-0.5c-0.9-0.2-1.8,0.4-2,1.3l-0.5,2.3c-0.2,0.9,0.4,1.8,1.3,2l2.3,0.5
		c0.9,0.2,1.8-0.4,2-1.3l0.5-2.3C92,157.1,91.4,156.2,90.5,156z M148.3,46.1c-0.1-0.4-0.2-0.8-0.4-1.1c-0.2-0.4-0.4-0.7-0.6-1.1
		c-0.2-0.3-0.5-0.6-0.7-0.8c-0.3-0.3-0.6-0.5-0.9-0.7c-0.3-0.2-0.6-0.3-0.9-0.5c-0.2-0.1-0.5-0.2-0.7-0.3c-0.1,0-0.3-0.1-0.4-0.1
		c-19.6-4.1-39.3-8.2-58.9-12.2c-0.1,0-0.3-0.1-0.4-0.1c-0.3,0-0.6,0-0.8,0c-0.4,0-0.8,0-1.1,0.1c-0.4,0.1-0.7,0.2-1.1,0.3
		c-0.4,0.1-0.7,0.3-1,0.5c-0.3,0.2-0.6,0.5-0.9,0.7c-0.3,0.3-0.5,0.5-0.7,0.9c-0.2,0.3-0.4,0.6-0.5,0.9c-0.1,0.3-0.2,0.5-0.3,0.8
		c0,0.1-0.1,0.3-0.1,0.4c-8.4,39.4-16.5,78.8-24.5,118.3c0,0.1-0.1,0.3-0.1,0.4c0,0.3-0.1,0.6,0,0.8c0,0.3,0,0.7,0.1,1
		c0.1,0.3,0.2,0.7,0.3,1c0.1,0.4,0.3,0.7,0.5,1c0.2,0.3,0.5,0.6,0.7,0.9c0.3,0.3,0.6,0.6,0.9,0.8c0.3,0.2,0.6,0.4,0.9,0.5
		c0.3,0.1,0.5,0.2,0.8,0.3c0.2,0,0.3,0.1,0.5,0.1c19.6,4.2,39.3,8.2,58.9,12.2c0.2,0,0.3,0.1,0.5,0.1c0.3,0,0.6,0,0.8,0
		c0.4,0,0.7,0,1.1-0.1c0.3-0.1,0.7-0.2,1-0.3c0.4-0.1,0.7-0.3,1.1-0.5c0.3-0.2,0.6-0.5,0.9-0.7c0.3-0.3,0.5-0.6,0.8-0.9
		c0.2-0.3,0.4-0.6,0.5-0.9c0.1-0.2,0.2-0.5,0.3-0.8c0-0.2,0.1-0.3,0.1-0.5c8.3-39.4,16.5-78.8,24.5-118.3c0-0.2,0.1-0.3,0.1-0.5
		c0-0.3,0-0.6,0-0.8C148.5,46.9,148.4,46.5,148.3,46.1z M101.1,37.9l0.2-1c0.1-0.3,0.3-0.4,0.6-0.4l23.2,4.8
		c0.3,0.1,0.5,0.3,0.4,0.6l-0.2,1c-0.1,0.3-0.3,0.5-0.6,0.4l-23.3-4.8C101.3,38.5,101.1,38.2,101.1,37.9z M93.6,157.7l-0.8,3.6
		c-0.3,1.4-1.7,2.3-3.1,2.1l-3.7-0.8c-1.4-0.3-2.4-1.7-2.1-3.1l0.8-3.6c0.3-1.4,1.7-2.4,3.1-2.1l3.7,0.8
		C93,154.8,93.9,156.2,93.6,157.7z M123.4,158.8l-66.5-13.8c7.3-35.8,14.8-71.6,22.3-107.4l66.4,13.8h0
		C138.4,87.2,130.9,123,123.4,158.8z M90.5,156l-2.3-0.5c-0.9-0.2-1.8,0.4-2,1.3l-0.5,2.3c-0.2,0.9,0.4,1.8,1.3,2l2.3,0.5
		c0.9,0.2,1.8-0.4,2-1.3l0.5-2.3C92,157.1,91.4,156.2,90.5,156z"/>
	<path class="st2" d="M145.6,51.4c-7.3,35.8-14.8,71.6-22.3,107.4l-66.5-13.8c7.3-35.8,14.8-71.6,22.3-107.4L145.6,51.4L145.6,51.4z
		"/>
	<path class="st3" d="M123.6,118.2l-9.3-2c-1.7-0.4-3.3,0.7-3.7,2.4l-6.3,29.6c-0.3,1.7,0.7,3.3,2.4,3.6l9.3,2
		c1.7,0.4,3.3-0.7,3.7-2.4l6.3-29.6C126.3,120.2,125.2,118.6,123.6,118.2z M117.8,151c-0.1,0.6-0.7,1-1.3,0.8l-9.3-2
		c-0.6-0.1-1-0.7-0.8-1.3l6.3-29.6c0.1-0.6,0.7-1,1.3-0.8l9.3,2c0.6,0.1,1,0.7,0.8,1.3L117.8,151z M101.9,122.4l-9.3-2
		c-1.7-0.4-3.3,0.7-3.7,2.4L84.5,144c-0.3,1.7,0.7,3.3,2.4,3.6l9.3,2c1.7,0.4,3.3-0.7,3.7-2.4l4.5-21.2
		C104.7,124.4,103.6,122.8,101.9,122.4z M97.9,146.8c-0.1,0.6-0.7,1-1.3,0.8l-9.3-2c-0.6-0.1-1-0.7-0.8-1.3l4.5-21.2
		c0.1-0.6,0.7-1,1.3-0.8l9.3,2c0.6,0.1,1,0.7,0.8,1.3L97.9,146.8z M80.3,126.6l-9.3-2c-1.7-0.4-3.3,0.7-3.7,2.4l-2.7,12.8
		c-0.3,1.7,0.7,3.3,2.4,3.6l9.3,2c1.7,0.4,3.3-0.7,3.7-2.4l2.7-12.8C83.1,128.6,82,127,80.3,126.6z M78.1,142.6
		c-0.1,0.6-0.7,1-1.3,0.8l-9.3-2c-0.6-0.1-1-0.7-0.8-1.3l2.7-12.8c0.1-0.6,0.7-1,1.3-0.8l9.3,2c0.6,0.1,1,0.7,0.8,1.3L78.1,142.6z
		 M111.4,105.5l-7.1-1.5c-0.5-0.1-1.1,0.2-1.2,0.8c-0.1,0.5,0.2,1.1,0.8,1.2l4.8,1l-12.4,7.7l-5.4-6c-0.3-0.4-0.9-0.4-1.3-0.2
		L70.7,121c-0.5,0.3-0.6,0.9-0.3,1.4c0.2,0.2,0.4,0.4,0.6,0.4c0.3,0.1,0.5,0,0.8-0.1l18.2-12.1l5.4,6c0.3,0.4,0.9,0.4,1.3,0.2
		l13.1-8.1l-1,4.9c-0.1,0.5,0.2,1.1,0.8,1.2c0.5,0.1,1.1-0.2,1.2-0.8l1.6-7.3C112.3,106.2,112,105.6,111.4,105.5z"/>
	<path class="st3" d="M124.9,102.8l-46.1-9.6c-1.2-0.2-1.9-1.4-1.7-2.5c0.2-1.2,1.4-1.9,2.5-1.7l46.1,9.6c1.2,0.2,1.9,1.4,1.7,2.5
		C127.2,102.3,126.1,103.1,124.9,102.8z"/>
	<path class="st3" d="M127.3,91.3l-46.1-9.6c-1.2-0.2-1.9-1.4-1.7-2.5c0.2-1.2,1.4-1.9,2.5-1.7l46.1,9.6c1.2,0.2,1.9,1.4,1.7,2.5
		C129.6,90.8,128.5,91.5,127.3,91.3z"/>
	<path class="st3" d="M129.7,79.8l-46.1-9.6c-1.2-0.2-1.9-1.4-1.7-2.5c0.2-1.2,1.4-1.9,2.5-1.7l46.1,9.6c1.2,0.2,1.9,1.4,1.7,2.5
		C132,79.3,130.9,80,129.7,79.8z"/>
	<path class="st3" d="M132.1,68.3l-46.1-9.6c-1.2-0.2-1.9-1.4-1.7-2.5c0.2-1.2,1.4-1.9,2.5-1.7l46.1,9.6c1.2,0.2,1.9,1.4,1.7,2.5
		S133.3,68.5,132.1,68.3z"/>
	<path class="st3" d="M115.7,52.8l-27.2-5.7c-1.2-0.2-1.9-1.4-1.7-2.5c0.2-1.2,1.4-1.9,2.5-1.7l27.2,5.7c1.2,0.2,1.9,1.4,1.7,2.5
		C118,52.3,116.9,53.1,115.7,52.8z"/>
</g>
</svg>
