<svg xmlns="http://www.w3.org/2000/svg" xmlns:xlink="http://www.w3.org/1999/xlink" width="200" zoomAndPan="magnify" viewBox="0 0 150 149.999998" height="200" preserveAspectRatio="xMidYMid meet" version="1.0"><defs><clipPath id="17e589f70b"><path d="M 10.007812 10.007812 L 140.507812 10.007812 L 140.507812 140.507812 L 10.007812 140.507812 Z M 10.007812 10.007812 " clip-rule="nonzero"/></clipPath><clipPath id="d1feb549ba"><path d="M 47 73 L 70 73 L 70 111.757812 L 47 111.757812 Z M 47 73 " clip-rule="nonzero"/></clipPath><clipPath id="f97fe54159"><path d="M 90 73 L 114 73 L 114 111.757812 L 90 111.757812 Z M 90 73 " clip-rule="nonzero"/></clipPath><clipPath id="984775cb67"><path d="M 102 79 L 120.371094 79 L 120.371094 102 L 102 102 Z M 102 79 " clip-rule="nonzero"/></clipPath></defs><g clip-path="url(#17e589f70b)"><path fill="#0d6591" d="M 140.507812 75.257812 C 140.507812 76.328125 140.484375 77.394531 140.429688 78.460938 C 140.378906 79.527344 140.300781 80.59375 140.195312 81.65625 C 140.089844 82.71875 139.960938 83.777344 139.804688 84.832031 C 139.648438 85.890625 139.464844 86.941406 139.253906 87.988281 C 139.046875 89.035156 138.8125 90.078125 138.554688 91.113281 C 138.292969 92.148438 138.011719 93.179688 137.699219 94.199219 C 137.390625 95.222656 137.054688 96.234375 136.695312 97.242188 C 136.335938 98.246094 135.953125 99.242188 135.542969 100.230469 C 135.132812 101.214844 134.703125 102.191406 134.246094 103.15625 C 133.789062 104.121094 133.308594 105.078125 132.804688 106.019531 C 132.300781 106.960938 131.773438 107.890625 131.226562 108.804688 C 130.675781 109.71875 130.105469 110.621094 129.511719 111.511719 C 128.917969 112.398438 128.304688 113.269531 127.667969 114.128906 C 127.03125 114.988281 126.375 115.828125 125.699219 116.652344 C 125.019531 117.480469 124.324219 118.289062 123.605469 119.078125 C 122.890625 119.871094 122.152344 120.644531 121.398438 121.398438 C 120.644531 122.152344 119.871094 122.890625 119.078125 123.605469 C 118.289062 124.324219 117.480469 125.019531 116.652344 125.699219 C 115.828125 126.375 114.988281 127.03125 114.128906 127.667969 C 113.269531 128.304688 112.398438 128.917969 111.511719 129.511719 C 110.621094 130.105469 109.71875 130.675781 108.804688 131.226562 C 107.890625 131.773438 106.960938 132.300781 106.019531 132.804688 C 105.078125 133.308594 104.121094 133.789062 103.15625 134.246094 C 102.191406 134.703125 101.214844 135.132812 100.230469 135.542969 C 99.242188 135.953125 98.246094 136.335938 97.242188 136.695312 C 96.234375 137.054688 95.222656 137.390625 94.199219 137.699219 C 93.179688 138.011719 92.148438 138.292969 91.113281 138.554688 C 90.078125 138.8125 89.035156 139.046875 87.988281 139.253906 C 86.941406 139.464844 85.890625 139.648438 84.832031 139.804688 C 83.777344 139.960938 82.71875 140.089844 81.65625 140.195312 C 80.59375 140.300781 79.527344 140.378906 78.460938 140.429688 C 77.394531 140.484375 76.328125 140.507812 75.257812 140.507812 C 74.191406 140.507812 73.125 140.484375 72.058594 140.429688 C 70.992188 140.378906 69.925781 140.300781 68.863281 140.195312 C 67.800781 140.089844 66.742188 139.960938 65.683594 139.804688 C 64.628906 139.648438 63.578125 139.464844 62.53125 139.253906 C 61.484375 139.046875 60.441406 138.8125 59.40625 138.554688 C 58.371094 138.292969 57.339844 138.011719 56.320312 137.699219 C 55.296875 137.390625 54.28125 137.054688 53.277344 136.695312 C 52.273438 136.335938 51.277344 135.953125 50.289062 135.542969 C 49.304688 135.132812 48.328125 134.703125 47.363281 134.246094 C 46.394531 133.789062 45.441406 133.308594 44.5 132.804688 C 43.558594 132.300781 42.628906 131.773438 41.714844 131.226562 C 40.796875 130.675781 39.898438 130.105469 39.007812 129.511719 C 38.121094 128.917969 37.246094 128.304688 36.390625 127.667969 C 35.53125 127.03125 34.691406 126.375 33.867188 125.699219 C 33.039062 125.019531 32.230469 124.324219 31.441406 123.605469 C 30.648438 122.890625 29.875 122.152344 29.121094 121.398438 C 28.367188 120.644531 27.628906 119.871094 26.914062 119.078125 C 26.195312 118.289062 25.5 117.480469 24.820312 116.652344 C 24.144531 115.828125 23.488281 114.988281 22.851562 114.128906 C 22.214844 113.269531 21.597656 112.398438 21.007812 111.511719 C 20.414062 110.621094 19.839844 109.71875 19.292969 108.804688 C 18.742188 107.890625 18.21875 106.960938 17.714844 106.019531 C 17.210938 105.078125 16.730469 104.121094 16.273438 103.15625 C 15.816406 102.191406 15.386719 101.214844 14.976562 100.230469 C 14.566406 99.242188 14.183594 98.246094 13.824219 97.242188 C 13.464844 96.234375 13.128906 95.222656 12.820312 94.199219 C 12.507812 93.179688 12.222656 92.148438 11.964844 91.113281 C 11.707031 90.078125 11.472656 89.035156 11.261719 87.988281 C 11.054688 86.941406 10.871094 85.890625 10.714844 84.832031 C 10.558594 83.777344 10.429688 82.71875 10.324219 81.65625 C 10.21875 80.59375 10.140625 79.527344 10.089844 78.460938 C 10.035156 77.394531 10.007812 76.328125 10.007812 75.257812 C 10.007812 74.191406 10.035156 73.125 10.089844 72.058594 C 10.140625 70.992188 10.21875 69.925781 10.324219 68.863281 C 10.429688 67.800781 10.558594 66.742188 10.714844 65.683594 C 10.871094 64.628906 11.054688 63.578125 11.261719 62.53125 C 11.472656 61.484375 11.707031 60.441406 11.964844 59.40625 C 12.222656 58.371094 12.507812 57.339844 12.820312 56.320312 C 13.128906 55.296875 13.464844 54.28125 13.824219 53.277344 C 14.183594 52.273438 14.566406 51.277344 14.976562 50.289062 C 15.386719 49.304688 15.816406 48.328125 16.273438 47.363281 C 16.730469 46.394531 17.210938 45.441406 17.714844 44.5 C 18.21875 43.558594 18.742188 42.628906 19.292969 41.714844 C 19.839844 40.796875 20.414062 39.898438 21.007812 39.007812 C 21.597656 38.121094 22.214844 37.246094 22.851562 36.390625 C 23.488281 35.53125 24.144531 34.691406 24.820312 33.867188 C 25.5 33.039062 26.195312 32.230469 26.914062 31.441406 C 27.628906 30.648438 28.367188 29.875 29.121094 29.121094 C 29.875 28.367188 30.648438 27.628906 31.441406 26.914062 C 32.230469 26.195312 33.039062 25.5 33.867188 24.820312 C 34.691406 24.144531 35.53125 23.488281 36.390625 22.851562 C 37.246094 22.214844 38.121094 21.597656 39.007812 21.007812 C 39.898438 20.414062 40.796875 19.839844 41.714844 19.292969 C 42.628906 18.742188 43.558594 18.21875 44.5 17.714844 C 45.441406 17.210938 46.394531 16.730469 47.363281 16.273438 C 48.328125 15.816406 49.304688 15.386719 50.289062 14.976562 C 51.277344 14.566406 52.273438 14.183594 53.277344 13.824219 C 54.28125 13.464844 55.296875 13.128906 56.320312 12.820312 C 57.339844 12.507812 58.371094 12.222656 59.40625 11.964844 C 60.441406 11.707031 61.484375 11.472656 62.53125 11.261719 C 63.578125 11.054688 64.628906 10.871094 65.683594 10.714844 C 66.742188 10.558594 67.800781 10.429688 68.863281 10.324219 C 69.925781 10.21875 70.992188 10.140625 72.058594 10.089844 C 73.125 10.035156 74.191406 10.007812 75.257812 10.007812 C 76.328125 10.007812 77.394531 10.035156 78.460938 10.089844 C 79.527344 10.140625 80.59375 10.21875 81.65625 10.324219 C 82.71875 10.429688 83.777344 10.558594 84.832031 10.714844 C 85.890625 10.871094 86.941406 11.054688 87.988281 11.261719 C 89.035156 11.472656 90.078125 11.707031 91.113281 11.964844 C 92.148438 12.222656 93.179688 12.507812 94.199219 12.820312 C 95.222656 13.128906 96.234375 13.464844 97.242188 13.824219 C 98.246094 14.183594 99.242188 14.566406 100.230469 14.976562 C 101.214844 15.386719 102.191406 15.816406 103.15625 16.273438 C 104.121094 16.730469 105.078125 17.210938 106.019531 17.714844 C 106.960938 18.21875 107.890625 18.742188 108.804688 19.292969 C 109.722656 19.839844 110.621094 20.414062 111.511719 21.007812 C 112.398438 21.597656 113.269531 22.214844 114.128906 22.851562 C 114.988281 23.488281 115.828125 24.144531 116.652344 24.820312 C 117.480469 25.5 118.289062 26.195312 119.078125 26.914062 C 119.871094 27.628906 120.644531 28.367188 121.398438 29.121094 C 122.152344 29.875 122.890625 30.648438 123.605469 31.441406 C 124.324219 32.230469 125.019531 33.039062 125.699219 33.867188 C 126.375 34.691406 127.03125 35.53125 127.667969 36.390625 C 128.304688 37.246094 128.917969 38.121094 129.511719 39.007812 C 130.105469 39.898438 130.675781 40.796875 131.226562 41.714844 C 131.773438 42.628906 132.300781 43.558594 132.804688 44.5 C 133.308594 45.441406 133.789062 46.394531 134.246094 47.363281 C 134.703125 48.328125 135.132812 49.304688 135.542969 50.289062 C 135.953125 51.277344 136.335938 52.273438 136.695312 53.277344 C 137.054688 54.28125 137.390625 55.296875 137.699219 56.320312 C 138.011719 57.339844 138.292969 58.371094 138.554688 59.40625 C 138.8125 60.441406 139.046875 61.484375 139.253906 62.53125 C 139.464844 63.578125 139.648438 64.628906 139.804688 65.683594 C 139.960938 66.742188 140.089844 67.800781 140.195312 68.863281 C 140.300781 69.925781 140.378906 70.992188 140.429688 72.058594 C 140.484375 73.125 140.507812 74.191406 140.507812 75.257812 Z M 140.507812 75.257812 " fill-opacity="1" fill-rule="nonzero"/></g><path fill="#ffffff" d="M 66.011719 67.363281 C 66.011719 67.753906 65.972656 68.136719 65.898438 68.519531 C 65.820312 68.902344 65.710938 69.269531 65.558594 69.628906 C 65.410156 69.988281 65.226562 70.332031 65.011719 70.652344 C 64.792969 70.976562 64.546875 71.277344 64.273438 71.550781 C 63.996094 71.824219 63.695312 72.070312 63.371094 72.285156 C 63.046875 72.503906 62.703125 72.683594 62.34375 72.832031 C 61.984375 72.984375 61.613281 73.09375 61.230469 73.171875 C 60.847656 73.246094 60.460938 73.285156 60.070312 73.285156 C 59.679688 73.285156 59.292969 73.246094 58.910156 73.171875 C 58.527344 73.09375 58.15625 72.984375 57.796875 72.832031 C 57.4375 72.683594 57.09375 72.503906 56.769531 72.285156 C 56.445312 72.070312 56.144531 71.824219 55.867188 71.550781 C 55.59375 71.277344 55.347656 70.976562 55.128906 70.652344 C 54.914062 70.332031 54.730469 69.988281 54.582031 69.628906 C 54.433594 69.269531 54.320312 68.902344 54.242188 68.519531 C 54.167969 68.136719 54.128906 67.753906 54.128906 67.363281 C 54.128906 66.976562 54.167969 66.589844 54.242188 66.210938 C 54.320312 65.828125 54.433594 65.457031 54.582031 65.097656 C 54.730469 64.738281 54.914062 64.398438 55.128906 64.074219 C 55.347656 63.753906 55.59375 63.453125 55.867188 63.179688 C 56.144531 62.902344 56.445312 62.65625 56.769531 62.441406 C 57.09375 62.226562 57.4375 62.042969 57.796875 61.894531 C 58.15625 61.746094 58.527344 61.632812 58.910156 61.558594 C 59.292969 61.480469 59.679688 61.445312 60.070312 61.445312 C 60.460938 61.445312 60.847656 61.480469 61.230469 61.558594 C 61.613281 61.632812 61.984375 61.746094 62.34375 61.894531 C 62.703125 62.042969 63.046875 62.226562 63.371094 62.441406 C 63.695312 62.65625 63.996094 62.902344 64.273438 63.179688 C 64.546875 63.453125 64.792969 63.753906 65.011719 64.074219 C 65.226562 64.398438 65.410156 64.738281 65.558594 65.097656 C 65.710938 65.457031 65.820312 65.828125 65.898438 66.210938 C 65.972656 66.589844 66.011719 66.976562 66.011719 67.363281 Z M 66.011719 67.363281 " fill-opacity="1" fill-rule="nonzero"/><g clip-path="url(#d1feb549ba)"><path fill="#ffffff" d="M 69.074219 92.097656 C 68.445312 91.296875 67.484375 90.839844 66.457031 90.835938 L 56.769531 90.886719 C 56.785156 87.980469 57.335938 84.960938 57.859375 82.367188 L 53.628906 81.15625 C 52.1875 80.742188 51.351562 79.238281 51.765625 77.800781 C 52.101562 76.644531 53.175781 75.839844 54.382812 75.839844 C 54.636719 75.839844 54.886719 75.875 55.132812 75.945312 L 58.433594 76.894531 C 58.101562 75.355469 57.203125 74.078125 55.839844 73.742188 C 53.585938 73.179688 50.316406 74.398438 48.988281 78.253906 C 47.191406 83.5625 46.804688 87.015625 47.488281 92.859375 C 48.3125 97.097656 51.226562 97.53125 53.648438 97.5 C 53.917969 97.496094 54.171875 97.492188 54.40625 97.476562 L 62.230469 97.4375 L 59.640625 107.660156 C 59.195312 109.421875 60.269531 111.210938 62.035156 111.65625 C 62.308594 111.722656 62.578125 111.757812 62.84375 111.757812 C 64.320312 111.757812 65.667969 110.761719 66.042969 109.269531 L 69.675781 94.929688 C 69.925781 93.945312 69.703125 92.898438 69.074219 92.097656 Z M 69.074219 92.097656 " fill-opacity="1" fill-rule="nonzero"/></g><path fill="#ffffff" d="M 52.351562 77.96875 C 52.027344 79.085938 52.675781 80.25 53.796875 80.574219 L 72.625 85.976562 C 72.820312 86.03125 73.015625 86.058594 73.210938 86.058594 C 74.128906 86.058594 74.972656 85.457031 75.238281 84.535156 C 75.5625 83.417969 74.914062 82.25 73.792969 81.929688 L 54.964844 76.527344 C 53.847656 76.207031 52.675781 76.851562 52.351562 77.96875 Z M 52.351562 77.96875 " fill-opacity="1" fill-rule="nonzero"/><path fill="#ffffff" d="M 58.332031 100.519531 C 58.332031 99.941406 57.859375 99.46875 57.277344 99.46875 L 46.769531 99.46875 L 42.464844 79.886719 C 42.335938 79.316406 41.773438 78.949219 41.203125 79.074219 C 40.636719 79.199219 40.273438 79.757812 40.398438 80.324219 L 44.886719 100.730469 C 44.996094 101.214844 45.425781 101.574219 45.921875 101.574219 L 57.277344 101.574219 C 57.859375 101.574219 58.332031 101.101562 58.332031 100.519531 Z M 58.332031 100.519531 " fill-opacity="1" fill-rule="nonzero"/><g clip-path="url(#f97fe54159)"><path fill="#ffffff" d="M 97.699219 111.757812 C 97.964844 111.757812 98.238281 111.722656 98.507812 111.65625 C 100.277344 111.210938 101.347656 109.421875 100.902344 107.660156 L 98.3125 97.4375 L 106.136719 97.476562 C 106.375 97.492188 106.625 97.496094 106.898438 97.5 C 109.316406 97.53125 112.230469 97.097656 113.058594 92.859375 C 113.742188 87.015625 113.355469 83.5625 111.558594 78.253906 C 110.226562 74.398438 106.960938 73.179688 104.703125 73.738281 C 102.449219 74.300781 101.460938 77.433594 102.21875 80.050781 C 102.324219 80.601562 102.445312 81.191406 102.570312 81.800781 L 103.519531 77.910156 C 103.816406 76.691406 104.902344 75.839844 106.160156 75.839844 C 106.378906 75.839844 106.59375 75.867188 106.804688 75.917969 C 107.511719 76.089844 108.109375 76.523438 108.484375 77.140625 C 108.863281 77.757812 108.976562 78.488281 108.804688 79.191406 L 106.441406 88.890625 C 106.203125 89.851562 105.464844 90.609375 104.503906 90.867188 L 95.347656 93.324219 C 95.117188 93.386719 94.878906 93.417969 94.640625 93.417969 C 93.457031 93.417969 92.410156 92.644531 92.054688 91.527344 C 91.839844 91.691406 91.640625 91.882812 91.472656 92.097656 C 90.839844 92.898438 90.621094 93.945312 90.871094 94.929688 L 94.5 109.269531 C 94.878906 110.761719 96.222656 111.757812 97.699219 111.757812 Z M 97.699219 111.757812 " fill-opacity="1" fill-rule="nonzero"/></g><g clip-path="url(#984775cb67)"><path fill="#ffffff" d="M 115.65625 100.730469 L 120.144531 80.328125 C 120.269531 79.761719 119.910156 79.195312 119.339844 79.070312 C 118.769531 78.945312 118.207031 79.320312 118.082031 79.886719 L 113.773438 99.46875 L 103.269531 99.46875 C 102.683594 99.46875 102.210938 99.941406 102.210938 100.519531 C 102.210938 101.101562 102.683594 101.574219 103.269531 101.574219 L 114.625 101.574219 C 115.121094 101.574219 115.550781 101.210938 115.65625 100.730469 Z M 115.65625 100.730469 " fill-opacity="1" fill-rule="nonzero"/></g><path fill="#ffffff" d="M 93.933594 88.089844 L 97.765625 87.0625 L 97.765625 86.839844 L 62.90625 86.839844 L 62.90625 89.46875 L 92.164062 89.46875 C 92.199219 89.46875 92.242188 89.371094 92.285156 89.292969 C 92.648438 88.667969 93.230469 88.277344 93.933594 88.089844 Z M 93.933594 88.089844 " fill-opacity="1" fill-rule="nonzero"/><path fill="#ffffff" d="M 76.21875 72.589844 L 74.6875 72.972656 L 77.941406 85.523438 L 90.371094 85.523438 L 90.371094 83.945312 L 79.167969 83.945312 Z M 76.21875 72.589844 " fill-opacity="1" fill-rule="nonzero"/><path fill="#ffffff" d="M 71.640625 59.699219 C 73.417969 61.039062 75.625 61.832031 78.023438 61.832031 C 83.878906 61.832031 88.625 57.101562 88.625 51.269531 C 88.625 45.4375 83.878906 40.710938 78.023438 40.710938 C 72.171875 40.710938 67.425781 45.4375 67.425781 51.269531 C 67.425781 53.875 68.375 56.261719 69.945312 58.101562 L 67.148438 63.117188 Z M 68.601562 51.675781 C 68.601562 46.699219 72.652344 42.664062 77.644531 42.664062 C 82.636719 42.664062 86.6875 46.699219 86.6875 51.675781 C 86.6875 56.648438 82.636719 60.683594 77.644531 60.683594 C 72.652344 60.683594 68.601562 56.648438 68.601562 51.675781 Z M 68.601562 51.675781 " fill-opacity="1" fill-rule="nonzero"/><path fill="#ffffff" d="M 48.671875 52.632812 C 50.914062 53.972656 53.453125 54.382812 55.847656 53.988281 L 58.730469 58.953125 L 58.09375 53.359375 C 60.15625 52.527344 61.976562 51.042969 63.207031 48.996094 C 66.214844 43.988281 64.582031 37.503906 59.558594 34.507812 C 54.535156 31.511719 48.023438 33.140625 45.019531 38.148438 C 42.011719 43.152344 43.648438 49.636719 48.671875 52.632812 Z M 46.507812 39.476562 C 49.074219 35.207031 54.625 33.816406 58.910156 36.375 C 63.195312 38.929688 64.589844 44.460938 62.023438 48.730469 C 59.460938 53 53.90625 54.386719 49.625 51.832031 C 45.339844 49.277344 43.945312 43.746094 46.507812 39.476562 Z M 46.507812 39.476562 " fill-opacity="1" fill-rule="nonzero"/><path fill="#ffffff" d="M 39.625 69.757812 C 42.054688 68.796875 43.929688 67.039062 45.066406 64.902344 L 50.777344 65.644531 L 45.933594 62.742188 C 46.523438 60.605469 46.449219 58.265625 45.566406 56.042969 C 43.40625 50.625 37.246094 47.972656 31.804688 50.125 C 26.363281 52.277344 23.703125 58.414062 25.859375 63.835938 C 28.019531 69.257812 34.183594 71.910156 39.625 69.757812 Z M 27.828125 63.464844 C 25.984375 58.84375 28.253906 53.605469 32.894531 51.769531 C 37.535156 49.933594 42.792969 52.195312 44.632812 56.820312 C 46.476562 61.445312 44.207031 66.679688 39.566406 68.515625 C 34.921875 70.351562 29.667969 68.089844 27.828125 63.464844 Z M 27.828125 63.464844 " fill-opacity="1" fill-rule="nonzero"/><path fill="#ffffff" d="M 36.195312 65.847656 L 36.363281 64.691406 C 36.640625 64.683594 36.917969 64.652344 37.195312 64.59375 L 37.628906 65.679688 L 39.101562 65.097656 L 38.667969 64.011719 C 38.910156 63.863281 39.132812 63.699219 39.339844 63.515625 L 40.257812 64.238281 L 41.242188 63 L 40.324219 62.277344 C 40.457031 62.035156 40.566406 61.777344 40.65625 61.511719 L 41.8125 61.679688 L 42.042969 60.121094 L 40.882812 59.949219 C 40.875 59.675781 40.84375 59.398438 40.785156 59.121094 L 41.875 58.691406 L 41.292969 57.226562 L 40.203125 57.65625 C 40.054688 57.414062 39.886719 57.191406 39.703125 56.988281 L 40.429688 56.070312 L 39.1875 55.089844 L 38.460938 56.003906 C 38.214844 55.871094 37.960938 55.761719 37.695312 55.675781 L 37.863281 54.523438 L 36.296875 54.292969 L 36.125 55.449219 C 35.847656 55.457031 35.574219 55.488281 35.296875 55.542969 L 34.863281 54.457031 L 33.390625 55.039062 L 33.824219 56.125 C 33.582031 56.273438 33.359375 56.441406 33.152344 56.625 L 32.234375 55.898438 L 31.25 57.136719 L 32.167969 57.859375 C 32.035156 58.105469 31.921875 58.359375 31.835938 58.625 L 30.675781 58.457031 L 30.449219 60.019531 L 31.609375 60.1875 C 31.613281 60.464844 31.644531 60.738281 31.703125 61.015625 L 30.613281 61.445312 L 31.199219 62.914062 L 32.289062 62.484375 C 32.4375 62.722656 32.601562 62.945312 32.789062 63.152344 L 32.058594 64.066406 L 33.300781 65.046875 L 34.027344 64.132812 C 34.273438 64.265625 34.53125 64.375 34.796875 64.464844 L 34.625 65.617188 Z M 33.085938 61.320312 C 32.390625 59.578125 33.246094 57.609375 34.992188 56.921875 C 36.734375 56.230469 38.710938 57.082031 39.40625 58.820312 C 40.097656 60.558594 39.246094 62.527344 37.5 63.21875 C 35.753906 63.90625 33.777344 63.058594 33.085938 61.320312 Z M 33.085938 61.320312 " fill-opacity="1" fill-rule="nonzero"/><path fill="#ffffff" d="M 37.640625 59.515625 C 37.714844 59.703125 37.75 59.894531 37.746094 60.089844 C 37.742188 60.289062 37.703125 60.480469 37.625 60.664062 C 37.546875 60.84375 37.433594 61.003906 37.292969 61.144531 C 37.148438 61.28125 36.984375 61.386719 36.800781 61.460938 C 36.613281 61.535156 36.421875 61.570312 36.222656 61.566406 C 36.023438 61.5625 35.832031 61.523438 35.648438 61.441406 C 35.46875 61.363281 35.304688 61.253906 35.167969 61.109375 C 35.027344 60.96875 34.921875 60.804688 34.847656 60.621094 C 34.777344 60.4375 34.742188 60.246094 34.742188 60.046875 C 34.746094 59.847656 34.789062 59.65625 34.867188 59.476562 C 34.945312 59.292969 35.054688 59.132812 35.199219 58.996094 C 35.34375 58.855469 35.507812 58.75 35.691406 58.679688 C 35.875 58.605469 36.070312 58.570312 36.269531 58.574219 C 36.464844 58.574219 36.65625 58.617188 36.839844 58.695312 C 37.023438 58.773438 37.183594 58.882812 37.324219 59.027344 C 37.460938 59.167969 37.566406 59.332031 37.640625 59.515625 Z M 37.640625 59.515625 " fill-opacity="1" fill-rule="nonzero"/><path fill="#ffffff" d="M 106.414062 67.363281 C 106.414062 67.753906 106.378906 68.136719 106.300781 68.519531 C 106.226562 68.902344 106.113281 69.269531 105.964844 69.628906 C 105.8125 69.988281 105.632812 70.332031 105.414062 70.652344 C 105.199219 70.976562 104.953125 71.277344 104.675781 71.550781 C 104.398438 71.824219 104.097656 72.070312 103.773438 72.285156 C 103.449219 72.503906 103.109375 72.683594 102.746094 72.832031 C 102.386719 72.984375 102.015625 73.09375 101.632812 73.171875 C 101.25 73.246094 100.863281 73.285156 100.472656 73.285156 C 100.085938 73.285156 99.699219 73.246094 99.316406 73.171875 C 98.933594 73.09375 98.5625 72.984375 98.199219 72.832031 C 97.839844 72.683594 97.496094 72.503906 97.171875 72.285156 C 96.847656 72.070312 96.546875 71.824219 96.273438 71.550781 C 95.996094 71.277344 95.75 70.976562 95.535156 70.652344 C 95.316406 70.332031 95.132812 69.988281 94.984375 69.628906 C 94.835938 69.269531 94.722656 68.902344 94.648438 68.519531 C 94.570312 68.136719 94.53125 67.753906 94.53125 67.363281 C 94.53125 66.976562 94.570312 66.589844 94.648438 66.210938 C 94.722656 65.828125 94.835938 65.457031 94.984375 65.097656 C 95.132812 64.738281 95.316406 64.398438 95.535156 64.074219 C 95.75 63.753906 95.996094 63.453125 96.273438 63.179688 C 96.546875 62.902344 96.847656 62.65625 97.171875 62.441406 C 97.496094 62.226562 97.839844 62.042969 98.199219 61.894531 C 98.5625 61.746094 98.933594 61.632812 99.316406 61.558594 C 99.699219 61.480469 100.085938 61.445312 100.472656 61.445312 C 100.863281 61.445312 101.25 61.480469 101.632812 61.558594 C 102.015625 61.632812 102.386719 61.746094 102.746094 61.894531 C 103.109375 62.042969 103.449219 62.226562 103.773438 62.441406 C 104.097656 62.65625 104.398438 62.902344 104.675781 63.179688 C 104.953125 63.453125 105.199219 63.753906 105.414062 64.074219 C 105.632812 64.398438 105.8125 64.738281 105.964844 65.097656 C 106.113281 65.457031 106.226562 65.828125 106.300781 66.210938 C 106.378906 66.589844 106.414062 66.976562 106.414062 67.363281 Z M 106.414062 67.363281 " fill-opacity="1" fill-rule="nonzero"/><path fill="#ffffff" d="M 75.191406 52.898438 L 74.574219 52.898438 L 74.734375 56.316406 L 75.175781 56.316406 C 75.300781 56.054688 75.335938 55.894531 75.5625 55.894531 C 75.898438 55.894531 76.289062 56.0625 76.957031 56.167969 L 76.746094 57.535156 L 77.46875 57.621094 L 77.683594 56.230469 C 77.804688 56.246094 77.929688 56.246094 78.070312 56.246094 C 80.398438 56.246094 81.671875 54.960938 81.671875 53.238281 C 81.671875 51.304688 80.136719 50.8125 78.5625 50.425781 L 79.003906 47.515625 C 79.730469 47.707031 80.222656 48.160156 80.613281 49.476562 L 81.175781 49.476562 L 81.070312 46.582031 L 80.683594 46.582031 C 80.578125 46.847656 80.488281 46.902344 80.277344 46.902344 C 80.03125 46.902344 79.660156 46.773438 79.128906 46.648438 L 79.339844 45.292969 L 78.636719 45.210938 L 78.421875 46.585938 C 78.300781 46.570312 78.195312 46.570312 78.070312 46.570312 C 75.863281 46.570312 74.785156 47.890625 74.785156 49.386719 C 74.785156 51.019531 75.792969 51.65625 77.578125 52.058594 L 77.082031 55.292969 C 75.988281 55.011719 75.597656 54.214844 75.191406 52.898438 Z M 80.292969 53.847656 C 80.292969 54.867188 79.480469 55.527344 78.035156 55.527344 L 77.804688 55.527344 L 78.28125 52.285156 C 79.710938 52.636719 80.292969 52.878906 80.292969 53.847656 Z M 76.199219 48.808594 C 76.199219 47.914062 76.957031 47.371094 78.035156 47.371094 L 78.300781 47.371094 L 77.859375 50.273438 C 76.765625 49.972656 76.199219 49.6875 76.199219 48.808594 Z M 76.199219 48.808594 " fill-opacity="1" fill-rule="nonzero"/><path fill="#ffffff" d="M 54.15625 49.734375 C 57.363281 49.734375 59.960938 47.144531 59.960938 43.949219 C 59.960938 43.070312 59.761719 42.234375 59.410156 41.488281 L 54.347656 44.292969 C 54.289062 44.328125 54.222656 44.34375 54.15625 44.34375 C 54.09375 44.34375 54.03125 44.328125 53.972656 44.300781 C 53.855469 44.238281 53.777344 44.125 53.761719 43.992188 L 53.148438 38.253906 C 50.425781 38.730469 48.351562 41.097656 48.351562 43.949219 C 48.351562 47.144531 50.953125 49.734375 54.15625 49.734375 Z M 54.15625 49.734375 " fill-opacity="1" fill-rule="nonzero"/><path fill="#ffffff" d="M 54.488281 43.316406 L 59.023438 40.796875 C 57.988281 39.214844 56.195312 38.167969 54.15625 38.167969 C 54.082031 38.167969 54.011719 38.167969 53.9375 38.171875 Z M 54.488281 43.316406 " fill-opacity="1" fill-rule="nonzero"/><path fill="#ffffff" d="M 94.640625 92.8125 C 94.824219 92.8125 95.007812 92.789062 95.191406 92.738281 L 104.347656 90.28125 C 105.089844 90.082031 105.667969 89.496094 105.847656 88.746094 L 108.214844 79.046875 C 108.492188 77.917969 107.796875 76.78125 106.664062 76.503906 C 105.53125 76.230469 104.386719 76.925781 104.109375 78.054688 L 102.039062 86.542969 L 94.09375 88.671875 C 92.964844 88.976562 92.296875 90.132812 92.601562 91.253906 C 92.855469 92.191406 93.710938 92.8125 94.640625 92.8125 Z M 94.640625 92.8125 " fill-opacity="1" fill-rule="nonzero"/></svg>