<svg xmlns="http://www.w3.org/2000/svg" xmlns:xlink="http://www.w3.org/1999/xlink" width="200" zoomAndPan="magnify" viewBox="0 0 150 149.999998" height="200" preserveAspectRatio="xMidYMid meet" version="1.0"><defs><clipPath id="0949d0d7d1"><path d="M 10.007812 10.007812 L 140.507812 10.007812 L 140.507812 140.507812 L 10.007812 140.507812 Z M 10.007812 10.007812 " clip-rule="nonzero"/></clipPath><clipPath id="9799d48f23"><path d="M 35.019531 32.339844 L 118 32.339844 L 118 113.339844 L 35.019531 113.339844 Z M 35.019531 32.339844 " clip-rule="nonzero"/></clipPath></defs><g clip-path="url(#0949d0d7d1)"><path fill="#0d6591" d="M 140.507812 75.257812 C 140.507812 76.328125 140.484375 77.394531 140.429688 78.460938 C 140.378906 79.527344 140.300781 80.59375 140.195312 81.65625 C 140.089844 82.71875 139.960938 83.777344 139.804688 84.832031 C 139.648438 85.890625 139.464844 86.941406 139.253906 87.988281 C 139.046875 89.035156 138.8125 90.078125 138.554688 91.113281 C 138.292969 92.148438 138.011719 93.179688 137.699219 94.199219 C 137.390625 95.222656 137.054688 96.234375 136.695312 97.242188 C 136.335938 98.246094 135.953125 99.242188 135.542969 100.230469 C 135.132812 101.214844 134.703125 102.191406 134.246094 103.15625 C 133.789062 104.121094 133.308594 105.078125 132.804688 106.019531 C 132.300781 106.960938 131.773438 107.890625 131.226562 108.804688 C 130.675781 109.71875 130.105469 110.621094 129.511719 111.511719 C 128.917969 112.398438 128.304688 113.269531 127.667969 114.128906 C 127.03125 114.988281 126.375 115.828125 125.699219 116.652344 C 125.019531 117.480469 124.324219 118.289062 123.605469 119.078125 C 122.890625 119.871094 122.152344 120.644531 121.398438 121.398438 C 120.644531 122.152344 119.871094 122.890625 119.078125 123.605469 C 118.289062 124.324219 117.480469 125.019531 116.652344 125.699219 C 115.828125 126.375 114.988281 127.03125 114.128906 127.667969 C 113.269531 128.304688 112.398438 128.917969 111.511719 129.511719 C 110.621094 130.105469 109.71875 130.675781 108.804688 131.226562 C 107.890625 131.773438 106.960938 132.300781 106.019531 132.804688 C 105.078125 133.308594 104.121094 133.789062 103.15625 134.246094 C 102.191406 134.703125 101.214844 135.132812 100.230469 135.542969 C 99.242188 135.953125 98.246094 136.335938 97.242188 136.695312 C 96.234375 137.054688 95.222656 137.390625 94.199219 137.699219 C 93.179688 138.011719 92.148438 138.292969 91.113281 138.554688 C 90.078125 138.8125 89.035156 139.046875 87.988281 139.253906 C 86.941406 139.464844 85.890625 139.648438 84.832031 139.804688 C 83.777344 139.960938 82.71875 140.089844 81.65625 140.195312 C 80.59375 140.300781 79.527344 140.378906 78.460938 140.429688 C 77.394531 140.484375 76.328125 140.507812 75.257812 140.507812 C 74.191406 140.507812 73.125 140.484375 72.058594 140.429688 C 70.992188 140.378906 69.925781 140.300781 68.863281 140.195312 C 67.800781 140.089844 66.742188 139.960938 65.683594 139.804688 C 64.628906 139.648438 63.578125 139.464844 62.53125 139.253906 C 61.484375 139.046875 60.441406 138.8125 59.40625 138.554688 C 58.371094 138.292969 57.339844 138.011719 56.320312 137.699219 C 55.296875 137.390625 54.28125 137.054688 53.277344 136.695312 C 52.273438 136.335938 51.277344 135.953125 50.289062 135.542969 C 49.304688 135.132812 48.328125 134.703125 47.363281 134.246094 C 46.394531 133.789062 45.441406 133.308594 44.5 132.804688 C 43.558594 132.300781 42.628906 131.773438 41.714844 131.226562 C 40.796875 130.675781 39.898438 130.105469 39.007812 129.511719 C 38.121094 128.917969 37.246094 128.304688 36.390625 127.667969 C 35.53125 127.03125 34.691406 126.375 33.867188 125.699219 C 33.039062 125.019531 32.230469 124.324219 31.441406 123.605469 C 30.648438 122.890625 29.875 122.152344 29.121094 121.398438 C 28.367188 120.644531 27.628906 119.871094 26.914062 119.078125 C 26.195312 118.289062 25.5 117.480469 24.820312 116.652344 C 24.144531 115.828125 23.488281 114.988281 22.851562 114.128906 C 22.214844 113.269531 21.597656 112.398438 21.007812 111.511719 C 20.414062 110.621094 19.839844 109.71875 19.292969 108.804688 C 18.742188 107.890625 18.21875 106.960938 17.714844 106.019531 C 17.210938 105.078125 16.730469 104.121094 16.273438 103.15625 C 15.816406 102.191406 15.386719 101.214844 14.976562 100.230469 C 14.566406 99.242188 14.183594 98.246094 13.824219 97.242188 C 13.464844 96.234375 13.128906 95.222656 12.820312 94.199219 C 12.507812 93.179688 12.222656 92.148438 11.964844 91.113281 C 11.707031 90.078125 11.472656 89.035156 11.261719 87.988281 C 11.054688 86.941406 10.871094 85.890625 10.714844 84.832031 C 10.558594 83.777344 10.429688 82.71875 10.324219 81.65625 C 10.21875 80.59375 10.140625 79.527344 10.089844 78.460938 C 10.035156 77.394531 10.007812 76.328125 10.007812 75.257812 C 10.007812 74.191406 10.035156 73.125 10.089844 72.058594 C 10.140625 70.992188 10.21875 69.925781 10.324219 68.863281 C 10.429688 67.800781 10.558594 66.742188 10.714844 65.683594 C 10.871094 64.628906 11.054688 63.578125 11.261719 62.53125 C 11.472656 61.484375 11.707031 60.441406 11.964844 59.40625 C 12.222656 58.371094 12.507812 57.339844 12.820312 56.320312 C 13.128906 55.296875 13.464844 54.28125 13.824219 53.277344 C 14.183594 52.273438 14.566406 51.277344 14.976562 50.289062 C 15.386719 49.304688 15.816406 48.328125 16.273438 47.363281 C 16.730469 46.394531 17.210938 45.441406 17.714844 44.5 C 18.21875 43.558594 18.742188 42.628906 19.292969 41.714844 C 19.839844 40.796875 20.414062 39.898438 21.007812 39.007812 C 21.597656 38.121094 22.214844 37.246094 22.851562 36.390625 C 23.488281 35.53125 24.144531 34.691406 24.820312 33.867188 C 25.5 33.039062 26.195312 32.230469 26.914062 31.441406 C 27.628906 30.648438 28.367188 29.875 29.121094 29.121094 C 29.875 28.367188 30.648438 27.628906 31.441406 26.914062 C 32.230469 26.195312 33.039062 25.5 33.867188 24.820312 C 34.691406 24.144531 35.53125 23.488281 36.390625 22.851562 C 37.246094 22.214844 38.121094 21.597656 39.007812 21.007812 C 39.898438 20.414062 40.796875 19.839844 41.714844 19.292969 C 42.628906 18.742188 43.558594 18.21875 44.5 17.714844 C 45.441406 17.210938 46.394531 16.730469 47.363281 16.273438 C 48.328125 15.816406 49.304688 15.386719 50.289062 14.976562 C 51.277344 14.566406 52.273438 14.183594 53.277344 13.824219 C 54.28125 13.464844 55.296875 13.128906 56.320312 12.820312 C 57.339844 12.507812 58.371094 12.222656 59.40625 11.964844 C 60.441406 11.707031 61.484375 11.472656 62.53125 11.261719 C 63.578125 11.054688 64.628906 10.871094 65.683594 10.714844 C 66.742188 10.558594 67.800781 10.429688 68.863281 10.324219 C 69.925781 10.21875 70.992188 10.140625 72.058594 10.089844 C 73.125 10.035156 74.191406 10.007812 75.257812 10.007812 C 76.328125 10.007812 77.394531 10.035156 78.460938 10.089844 C 79.527344 10.140625 80.59375 10.21875 81.65625 10.324219 C 82.71875 10.429688 83.777344 10.558594 84.832031 10.714844 C 85.890625 10.871094 86.941406 11.054688 87.988281 11.261719 C 89.035156 11.472656 90.078125 11.707031 91.113281 11.964844 C 92.148438 12.222656 93.179688 12.507812 94.199219 12.820312 C 95.222656 13.128906 96.234375 13.464844 97.242188 13.824219 C 98.246094 14.183594 99.242188 14.566406 100.230469 14.976562 C 101.214844 15.386719 102.191406 15.816406 103.15625 16.273438 C 104.121094 16.730469 105.078125 17.210938 106.019531 17.714844 C 106.960938 18.21875 107.890625 18.742188 108.804688 19.292969 C 109.722656 19.839844 110.621094 20.414062 111.511719 21.007812 C 112.398438 21.597656 113.269531 22.214844 114.128906 22.851562 C 114.988281 23.488281 115.828125 24.144531 116.652344 24.820312 C 117.480469 25.5 118.289062 26.195312 119.078125 26.914062 C 119.871094 27.628906 120.644531 28.367188 121.398438 29.121094 C 122.152344 29.875 122.890625 30.648438 123.605469 31.441406 C 124.324219 32.230469 125.019531 33.039062 125.699219 33.867188 C 126.375 34.691406 127.03125 35.53125 127.667969 36.390625 C 128.304688 37.246094 128.917969 38.121094 129.511719 39.007812 C 130.105469 39.898438 130.675781 40.796875 131.226562 41.714844 C 131.773438 42.628906 132.300781 43.558594 132.804688 44.5 C 133.308594 45.441406 133.789062 46.394531 134.246094 47.363281 C 134.703125 48.328125 135.132812 49.304688 135.542969 50.289062 C 135.953125 51.277344 136.335938 52.273438 136.695312 53.277344 C 137.054688 54.28125 137.390625 55.296875 137.699219 56.320312 C 138.011719 57.339844 138.292969 58.371094 138.554688 59.40625 C 138.8125 60.441406 139.046875 61.484375 139.253906 62.53125 C 139.464844 63.578125 139.648438 64.628906 139.804688 65.683594 C 139.960938 66.742188 140.089844 67.800781 140.195312 68.863281 C 140.300781 69.925781 140.378906 70.992188 140.429688 72.058594 C 140.484375 73.125 140.507812 74.191406 140.507812 75.257812 Z M 140.507812 75.257812 " fill-opacity="1" fill-rule="nonzero"/></g><g clip-path="url(#9799d48f23)"><path fill="#ffffff" d="M 37.734375 61.089844 C 37.304688 61.707031 36.410156 61.832031 35.796875 61.398438 C 35.121094 60.902344 35.121094 60.035156 35.550781 59.382812 C 36.074219 58.515625 36.78125 57.738281 37.425781 56.964844 C 38.074219 56.21875 38.71875 55.507812 39.394531 54.792969 C 43.976562 50.171875 49.757812 46.855469 55.96875 44.960938 C 62.949219 42.824219 70.421875 42.574219 77.558594 44.125 L 77.679688 44.15625 C 78.203125 44.28125 78.757812 44.40625 79.28125 44.527344 C 83.308594 45.550781 87.152344 47.164062 90.71875 49.304688 C 94.164062 51.382812 97.332031 53.957031 100.039062 56.964844 C 100.746094 57.738281 101.421875 58.578125 102.035156 59.414062 C 102.3125 59.753906 102.589844 60.128906 102.652344 60.59375 C 102.714844 61.027344 102.527344 61.492188 102.191406 61.800781 C 101.851562 62.082031 101.421875 62.203125 100.992188 62.113281 C 100.589844 62.019531 100.285156 61.707031 100.039062 61.398438 C 99.390625 60.53125 98.746094 59.691406 98.007812 58.886719 C 95.332031 55.878906 92.132812 53.367188 88.691406 51.351562 C 85.09375 49.273438 81.15625 47.753906 77.097656 46.886719 L 76.972656 46.855469 C 73.53125 46.109375 69.960938 45.800781 66.425781 45.957031 C 60.644531 46.234375 54.925781 47.785156 49.789062 50.515625 C 45.054688 53.027344 40.871094 56.652344 37.734375 61.089844 C 38.289062 60.28125 38.871094 59.476562 39.425781 58.699219 C 38.871094 59.476562 38.289062 60.28125 37.734375 61.089844 C 37.242188 61.738281 38.074219 60.59375 37.734375 61.089844 Z M 117.320312 95.511719 C 117.414062 96.347656 117.414062 97.214844 117.351562 98.054688 C 117.136719 101.464844 115.8125 104.71875 113.628906 107.355469 C 111.691406 109.683594 109.046875 111.417969 106.15625 112.316406 C 102.835938 113.339844 99.175781 113.21875 95.917969 111.976562 C 93.058594 110.890625 90.566406 108.9375 88.75 106.488281 C 84.785156 101.03125 84.691406 93.402344 88.566406 87.851562 C 90.320312 85.308594 92.84375 83.324219 95.671875 82.175781 C 98.839844 80.902344 102.4375 80.71875 105.726562 81.617188 C 112 83.324219 116.707031 89 117.320312 95.511719 C 117.597656 98.488281 117.042969 92.503906 117.320312 95.511719 Z M 110.15625 88.285156 C 109.570312 87.820312 108.679688 87.976562 108.21875 88.5625 L 98.132812 102.148438 L 94.902344 97.09375 C 94.503906 96.472656 93.609375 96.253906 92.996094 96.6875 C 92.378906 97.09375 92.164062 97.992188 92.597656 98.613281 L 96.902344 105.339844 C 97.425781 106.148438 98.59375 106.179688 99.175781 105.433594 L 110.460938 90.238281 C 110.894531 89.648438 110.769531 88.75 110.15625 88.285156 Z M 37.734375 61.089844 C 37.703125 61.121094 37.671875 61.152344 37.734375 61.089844 Z M 79.066406 34.015625 C 79.066406 34.015625 79.097656 34.015625 79.066406 34.015625 C 75.191406 33.179688 77.035156 33.582031 79.066406 34.015625 Z M 79.097656 34.015625 C 81.308594 34.480469 83.679688 35.007812 79.097656 34.015625 Z M 47.390625 40.683594 C 53.941406 37.457031 61.199219 35.691406 68.515625 35.691406 C 75.773438 35.691406 83.09375 37.367188 89.644531 40.527344 C 90.414062 40.902344 91.179688 41.335938 91.917969 41.769531 C 92.535156 42.140625 93.210938 42.359375 93.824219 41.894531 C 94.347656 41.519531 94.5625 40.808594 94.289062 40.21875 C 93.980469 39.503906 93.089844 39.164062 92.441406 38.824219 C 89.273438 37.117188 85.921875 35.816406 82.476562 34.851562 C 75.3125 32.835938 67.75 32.339844 60.398438 33.550781 C 56.769531 34.140625 53.234375 35.132812 49.820312 36.527344 C 48.988281 36.867188 48.160156 37.210938 47.359375 37.582031 C 46.589844 37.953125 45.761719 38.296875 45.023438 38.699219 C 44.4375 39.039062 44.007812 39.503906 44.101562 40.21875 C 44.160156 40.871094 44.714844 41.425781 45.390625 41.457031 C 46.128906 41.488281 46.746094 40.992188 47.390625 40.683594 C 49.542969 39.628906 46.527344 41.085938 47.390625 40.683594 Z M 43.421875 67.382812 C 45.421875 65.648438 47.511719 63.847656 49.574219 62.082031 C 49.882812 61.800781 50.3125 61.554688 50.558594 61.242188 C 50.433594 61.398438 50.21875 61.554688 50.035156 61.675781 C 49.542969 62.082031 49.082031 62.515625 48.589844 62.917969 C 53.878906 58.359375 60.613281 55.660156 67.5625 55.351562 C 74.453125 55.042969 81.464844 57.089844 87.058594 61.242188 C 89.734375 63.226562 92.042969 65.648438 93.886719 68.40625 C 94.902344 69.925781 95.761719 71.507812 96.46875 73.183594 C 96.65625 73.617188 96.839844 74.050781 96.992188 74.484375 C 97.117188 74.828125 97.207031 75.230469 97.453125 75.507812 C 97.855469 75.972656 98.53125 76.097656 99.085938 75.820312 C 100.652344 75.074219 99.390625 72.996094 98.929688 71.910156 C 98.222656 70.269531 97.394531 68.71875 96.441406 67.230469 C 94.65625 64.4375 92.441406 61.957031 89.890625 59.878906 C 84.539062 55.507812 77.773438 52.996094 70.886719 52.589844 C 63.8125 52.1875 56.707031 54.050781 50.710938 57.894531 C 45.023438 61.523438 40.59375 66.855469 38.378906 73.277344 C 35.980469 80.253906 36.164062 87.976562 37.886719 95.078125 C 38.101562 96.007812 38.347656 96.90625 38.65625 97.804688 C 38.871094 98.457031 39.027344 99.324219 39.640625 99.726562 C 40.195312 100.101562 40.933594 100.007812 41.394531 99.542969 C 41.917969 99.015625 41.792969 98.332031 41.546875 97.710938 C 40.316406 94.175781 39.671875 90.425781 39.488281 86.703125 C 39.085938 79.570312 40.6875 72.285156 45.144531 66.578125 C 46.191406 65.242188 47.359375 64.003906 48.652344 62.917969 C 46.867188 64.40625 45.144531 65.894531 43.421875 67.382812 C 43.390625 67.414062 43.546875 67.289062 43.421875 67.382812 Z M 82.203125 87.167969 C 81.617188 85.988281 81.21875 84.6875 80.941406 83.417969 C 80.664062 82.144531 80.417969 80.875 79.957031 79.664062 C 79.097656 77.460938 77.558594 75.507812 75.589844 74.175781 C 71.652344 71.476562 66.363281 71.664062 62.519531 74.484375 C 60.738281 75.789062 59.320312 77.523438 58.398438 79.507812 C 57.382812 81.710938 57.015625 84.191406 57.167969 86.609375 C 57.507812 91.480469 59.722656 96.191406 62.429688 100.160156 C 63.75 102.085938 65.257812 103.914062 66.949219 105.527344 C 67.808594 106.363281 68.730469 107.171875 69.714844 107.914062 C 70.238281 108.316406 70.761719 108.691406 71.316406 109.0625 C 71.808594 109.402344 72.332031 109.804688 72.914062 110.054688 C 73.929688 110.488281 75.066406 109.558594 74.820312 108.472656 C 74.699219 107.914062 74.269531 107.574219 73.804688 107.324219 C 73.3125 107.015625 72.824219 106.734375 72.332031 106.394531 C 70.363281 105 68.546875 103.324219 66.980469 101.496094 C 63.933594 97.992188 61.445312 93.679688 60.367188 89.121094 C 59.84375 86.859375 59.722656 84.410156 60.367188 82.144531 C 61.011719 79.910156 62.457031 77.894531 64.367188 76.59375 C 66.304688 75.292969 68.730469 74.734375 71.007812 75.199219 C 73.097656 75.632812 74.976562 76.902344 76.234375 78.640625 C 76.882812 79.539062 77.375 80.53125 77.679688 81.585938 C 78.050781 82.859375 78.234375 84.191406 78.605469 85.460938 C 78.972656 86.703125 79.433594 87.882812 80.019531 89 C 80.234375 89.464844 80.511719 89.960938 80.972656 90.175781 C 81.464844 90.425781 82.046875 90.363281 82.476562 89.992188 C 82.847656 89.679688 83.03125 89.183594 82.96875 88.71875 C 82.878906 88.160156 82.476562 87.695312 82.203125 87.167969 C 81.617188 85.988281 82.449219 87.664062 82.203125 87.167969 Z M 114.554688 106.117188 C 114.03125 106.890625 118.917969 99.757812 114.554688 106.117188 Z M 72.578125 66.265625 C 72.605469 66.265625 72.605469 66.265625 72.578125 66.265625 C 72.578125 66.265625 72.605469 66.265625 72.578125 66.265625 Z M 88.015625 79.476562 C 88.351562 80.5 89.675781 80.84375 90.414062 80.003906 C 90.78125 79.570312 90.78125 79.042969 90.628906 78.515625 C 90.441406 77.867188 90.195312 77.214844 89.921875 76.5625 C 88.9375 74.144531 87.550781 71.847656 85.769531 69.925781 C 82.171875 66.019531 77.160156 63.910156 71.960938 63.382812 C 66.640625 62.855469 61.167969 64.21875 56.738281 67.257812 C 52.558594 70.113281 49.449219 74.453125 48.128906 79.386719 C 46.683594 84.75 47.390625 90.394531 49.265625 95.574219 C 51.140625 100.78125 54.0625 105.589844 57.355469 110.023438 C 57.722656 110.519531 58.09375 111.078125 58.523438 111.542969 C 58.921875 112.007812 59.507812 112.226562 60.089844 112.039062 C 60.550781 111.882812 60.890625 111.449219 61.011719 110.984375 C 61.136719 110.425781 60.859375 109.929688 60.492188 109.496094 C 58.738281 107.292969 57.140625 104.9375 55.695312 102.519531 C 52.925781 97.835938 50.648438 92.59375 50.21875 87.105469 C 49.789062 81.804688 51.355469 76.5 54.925781 72.53125 C 58.367188 68.6875 63.320312 66.421875 68.425781 66.113281 C 69.839844 66.019531 71.222656 66.082031 72.636719 66.265625 C 71.898438 66.175781 71.160156 66.050781 70.421875 65.957031 C 72.238281 66.207031 74.050781 66.453125 75.867188 66.730469 C 74.789062 66.578125 73.714844 66.421875 72.636719 66.265625 C 75.40625 66.671875 78.113281 67.539062 80.480469 69.058594 C 82.785156 70.515625 84.691406 72.59375 86.078125 74.949219 C 86.875 76.375 87.492188 77.894531 88.015625 79.476562 C 88.230469 80.191406 87.429688 77.710938 88.015625 79.476562 Z M 82.324219 90.113281 C 82.664062 89.898438 82.476562 90.019531 82.324219 90.113281 Z M 80.019531 99.078125 C 80.050781 99.078125 80.050781 99.109375 80.019531 99.078125 Z M 80.019531 99.078125 C 78.664062 98.394531 77.34375 97.679688 75.988281 97 C 77.34375 97.679688 78.664062 98.363281 80.019531 99.078125 C 77.34375 97.679688 75.003906 95.632812 73.34375 93.121094 C 72.453125 91.820312 71.777344 90.363281 71.253906 88.875 C 70.945312 88.003906 70.730469 87.105469 70.546875 86.207031 C 70.484375 85.804688 70.421875 85.371094 70.363281 84.964844 C 70.332031 84.59375 70.363281 84.160156 70.207031 83.789062 C 69.714844 82.394531 67.71875 82.640625 67.5625 84.097656 C 67.472656 84.9375 67.6875 85.898438 67.839844 86.734375 C 67.996094 87.570312 68.210938 88.410156 68.457031 89.214844 C 69.46875 92.503906 71.253906 95.511719 73.683594 97.898438 C 75.066406 99.261719 76.667969 100.441406 78.386719 101.371094 C 79.125 101.773438 79.988281 101.835938 80.511719 101.0625 C 80.972656 100.410156 80.726562 99.449219 80.019531 99.078125 C 79.648438 98.890625 80.480469 99.324219 80.019531 99.078125 Z M 82.324219 90.113281 C 82.171875 90.207031 82.015625 90.332031 82.324219 90.113281 Z M 82.324219 90.113281 " fill-opacity="1" fill-rule="nonzero"/></g></svg>