<svg xmlns="http://www.w3.org/2000/svg" xmlns:xlink="http://www.w3.org/1999/xlink" width="200" zoomAndPan="magnify" viewBox="0 0 150 149.999998" height="200" preserveAspectRatio="xMidYMid meet" version="1.0"><defs><clipPath id="ad6249a7ff"><path d="M 10.007812 10.007812 L 140.507812 10.007812 L 140.507812 140.507812 L 10.007812 140.507812 Z M 10.007812 10.007812 " clip-rule="nonzero"/></clipPath><clipPath id="60f2467e85"><path d="M 31.457031 40.382812 L 118.457031 40.382812 L 118.457031 109.382812 L 31.457031 109.382812 Z M 31.457031 40.382812 " clip-rule="nonzero"/></clipPath></defs><g clip-path="url(#ad6249a7ff)"><path fill="#0d6591" d="M 140.507812 75.257812 C 140.507812 76.328125 140.484375 77.394531 140.429688 78.460938 C 140.378906 79.527344 140.300781 80.59375 140.195312 81.65625 C 140.089844 82.71875 139.960938 83.777344 139.804688 84.832031 C 139.648438 85.890625 139.464844 86.941406 139.253906 87.988281 C 139.046875 89.035156 138.8125 90.078125 138.554688 91.113281 C 138.292969 92.148438 138.011719 93.179688 137.699219 94.199219 C 137.390625 95.222656 137.054688 96.234375 136.695312 97.242188 C 136.335938 98.246094 135.953125 99.242188 135.542969 100.230469 C 135.132812 101.214844 134.703125 102.191406 134.246094 103.15625 C 133.789062 104.121094 133.308594 105.078125 132.804688 106.019531 C 132.300781 106.960938 131.773438 107.890625 131.226562 108.804688 C 130.675781 109.71875 130.105469 110.621094 129.511719 111.511719 C 128.917969 112.398438 128.304688 113.269531 127.667969 114.128906 C 127.03125 114.988281 126.375 115.828125 125.699219 116.652344 C 125.019531 117.480469 124.324219 118.289062 123.605469 119.078125 C 122.890625 119.871094 122.152344 120.644531 121.398438 121.398438 C 120.644531 122.152344 119.871094 122.890625 119.078125 123.605469 C 118.289062 124.324219 117.480469 125.019531 116.652344 125.699219 C 115.828125 126.375 114.988281 127.03125 114.128906 127.667969 C 113.269531 128.304688 112.398438 128.917969 111.511719 129.511719 C 110.621094 130.105469 109.71875 130.675781 108.804688 131.226562 C 107.890625 131.773438 106.960938 132.300781 106.019531 132.804688 C 105.078125 133.308594 104.121094 133.789062 103.15625 134.246094 C 102.191406 134.703125 101.214844 135.132812 100.230469 135.542969 C 99.242188 135.953125 98.246094 136.335938 97.242188 136.695312 C 96.234375 137.054688 95.222656 137.390625 94.199219 137.699219 C 93.179688 138.011719 92.148438 138.292969 91.113281 138.554688 C 90.078125 138.8125 89.035156 139.046875 87.988281 139.253906 C 86.941406 139.464844 85.890625 139.648438 84.832031 139.804688 C 83.777344 139.960938 82.71875 140.089844 81.65625 140.195312 C 80.59375 140.300781 79.527344 140.378906 78.460938 140.429688 C 77.394531 140.484375 76.328125 140.507812 75.257812 140.507812 C 74.191406 140.507812 73.125 140.484375 72.058594 140.429688 C 70.992188 140.378906 69.925781 140.300781 68.863281 140.195312 C 67.800781 140.089844 66.742188 139.960938 65.683594 139.804688 C 64.628906 139.648438 63.578125 139.464844 62.53125 139.253906 C 61.484375 139.046875 60.441406 138.8125 59.40625 138.554688 C 58.371094 138.292969 57.339844 138.011719 56.320312 137.699219 C 55.296875 137.390625 54.28125 137.054688 53.277344 136.695312 C 52.273438 136.335938 51.277344 135.953125 50.289062 135.542969 C 49.304688 135.132812 48.328125 134.703125 47.363281 134.246094 C 46.394531 133.789062 45.441406 133.308594 44.5 132.804688 C 43.558594 132.300781 42.628906 131.773438 41.714844 131.226562 C 40.796875 130.675781 39.898438 130.105469 39.007812 129.511719 C 38.121094 128.917969 37.246094 128.304688 36.390625 127.667969 C 35.53125 127.03125 34.691406 126.375 33.867188 125.699219 C 33.039062 125.019531 32.230469 124.324219 31.441406 123.605469 C 30.648438 122.890625 29.875 122.152344 29.121094 121.398438 C 28.367188 120.644531 27.628906 119.871094 26.914062 119.078125 C 26.195312 118.289062 25.5 117.480469 24.820312 116.652344 C 24.144531 115.828125 23.488281 114.988281 22.851562 114.128906 C 22.214844 113.269531 21.597656 112.398438 21.007812 111.511719 C 20.414062 110.621094 19.839844 109.71875 19.292969 108.804688 C 18.742188 107.890625 18.21875 106.960938 17.714844 106.019531 C 17.210938 105.078125 16.730469 104.121094 16.273438 103.15625 C 15.816406 102.191406 15.386719 101.214844 14.976562 100.230469 C 14.566406 99.242188 14.183594 98.246094 13.824219 97.242188 C 13.464844 96.234375 13.128906 95.222656 12.820312 94.199219 C 12.507812 93.179688 12.222656 92.148438 11.964844 91.113281 C 11.707031 90.078125 11.472656 89.035156 11.261719 87.988281 C 11.054688 86.941406 10.871094 85.890625 10.714844 84.832031 C 10.558594 83.777344 10.429688 82.71875 10.324219 81.65625 C 10.21875 80.59375 10.140625 79.527344 10.089844 78.460938 C 10.035156 77.394531 10.007812 76.328125 10.007812 75.257812 C 10.007812 74.191406 10.035156 73.125 10.089844 72.058594 C 10.140625 70.992188 10.21875 69.925781 10.324219 68.863281 C 10.429688 67.800781 10.558594 66.742188 10.714844 65.683594 C 10.871094 64.628906 11.054688 63.578125 11.261719 62.53125 C 11.472656 61.484375 11.707031 60.441406 11.964844 59.40625 C 12.222656 58.371094 12.507812 57.339844 12.820312 56.320312 C 13.128906 55.296875 13.464844 54.28125 13.824219 53.277344 C 14.183594 52.273438 14.566406 51.277344 14.976562 50.289062 C 15.386719 49.304688 15.816406 48.328125 16.273438 47.363281 C 16.730469 46.394531 17.210938 45.441406 17.714844 44.5 C 18.21875 43.558594 18.742188 42.628906 19.292969 41.714844 C 19.839844 40.796875 20.414062 39.898438 21.007812 39.007812 C 21.597656 38.121094 22.214844 37.246094 22.851562 36.390625 C 23.488281 35.53125 24.144531 34.691406 24.820312 33.867188 C 25.5 33.039062 26.195312 32.230469 26.914062 31.441406 C 27.628906 30.648438 28.367188 29.875 29.121094 29.121094 C 29.875 28.367188 30.648438 27.628906 31.441406 26.914062 C 32.230469 26.195312 33.039062 25.5 33.867188 24.820312 C 34.691406 24.144531 35.53125 23.488281 36.390625 22.851562 C 37.246094 22.214844 38.121094 21.597656 39.007812 21.007812 C 39.898438 20.414062 40.796875 19.839844 41.714844 19.292969 C 42.628906 18.742188 43.558594 18.21875 44.5 17.714844 C 45.441406 17.210938 46.394531 16.730469 47.363281 16.273438 C 48.328125 15.816406 49.304688 15.386719 50.289062 14.976562 C 51.277344 14.566406 52.273438 14.183594 53.277344 13.824219 C 54.28125 13.464844 55.296875 13.128906 56.320312 12.820312 C 57.339844 12.507812 58.371094 12.222656 59.40625 11.964844 C 60.441406 11.707031 61.484375 11.472656 62.53125 11.261719 C 63.578125 11.054688 64.628906 10.871094 65.683594 10.714844 C 66.742188 10.558594 67.800781 10.429688 68.863281 10.324219 C 69.925781 10.21875 70.992188 10.140625 72.058594 10.089844 C 73.125 10.035156 74.191406 10.007812 75.257812 10.007812 C 76.328125 10.007812 77.394531 10.035156 78.460938 10.089844 C 79.527344 10.140625 80.59375 10.21875 81.65625 10.324219 C 82.71875 10.429688 83.777344 10.558594 84.832031 10.714844 C 85.890625 10.871094 86.941406 11.054688 87.988281 11.261719 C 89.035156 11.472656 90.078125 11.707031 91.113281 11.964844 C 92.148438 12.222656 93.179688 12.507812 94.199219 12.820312 C 95.222656 13.128906 96.234375 13.464844 97.242188 13.824219 C 98.246094 14.183594 99.242188 14.566406 100.230469 14.976562 C 101.214844 15.386719 102.191406 15.816406 103.15625 16.273438 C 104.121094 16.730469 105.078125 17.210938 106.019531 17.714844 C 106.960938 18.21875 107.890625 18.742188 108.804688 19.292969 C 109.722656 19.839844 110.621094 20.414062 111.511719 21.007812 C 112.398438 21.597656 113.269531 22.214844 114.128906 22.851562 C 114.988281 23.488281 115.828125 24.144531 116.652344 24.820312 C 117.480469 25.5 118.289062 26.195312 119.078125 26.914062 C 119.871094 27.628906 120.644531 28.367188 121.398438 29.121094 C 122.152344 29.875 122.890625 30.648438 123.605469 31.441406 C 124.324219 32.230469 125.019531 33.039062 125.699219 33.867188 C 126.375 34.691406 127.03125 35.53125 127.667969 36.390625 C 128.304688 37.246094 128.917969 38.121094 129.511719 39.007812 C 130.105469 39.898438 130.675781 40.796875 131.226562 41.714844 C 131.773438 42.628906 132.300781 43.558594 132.804688 44.5 C 133.308594 45.441406 133.789062 46.394531 134.246094 47.363281 C 134.703125 48.328125 135.132812 49.304688 135.542969 50.289062 C 135.953125 51.277344 136.335938 52.273438 136.695312 53.277344 C 137.054688 54.28125 137.390625 55.296875 137.699219 56.320312 C 138.011719 57.339844 138.292969 58.371094 138.554688 59.40625 C 138.8125 60.441406 139.046875 61.484375 139.253906 62.53125 C 139.464844 63.578125 139.648438 64.628906 139.804688 65.683594 C 139.960938 66.742188 140.089844 67.800781 140.195312 68.863281 C 140.300781 69.925781 140.378906 70.992188 140.429688 72.058594 C 140.484375 73.125 140.507812 74.191406 140.507812 75.257812 Z M 140.507812 75.257812 " fill-opacity="1" fill-rule="nonzero"/></g><g clip-path="url(#60f2467e85)"><path fill="#ffffff" d="M 67.679688 98.636719 L 82.230469 98.636719 L 85.128906 106.726562 L 64.785156 106.726562 Z M 33.734375 89.566406 L 96.109375 89.566406 L 100.042969 96.363281 L 37.773438 96.363281 C 35.511719 96.363281 33.734375 94.582031 33.734375 92.324219 Z M 101.355469 85.390625 L 110.539062 101.269531 C 110.617188 101.410156 110.65625 101.632812 110.453125 102.035156 C 110.253906 102.433594 109.8125 102.925781 109.195312 103.28125 C 108.578125 103.644531 107.929688 103.773438 107.480469 103.746094 C 107.023438 103.714844 106.855469 103.574219 106.777344 103.445312 L 97.578125 87.5625 C 98.242188 87.285156 98.898438 86.972656 99.539062 86.601562 C 100.179688 86.230469 100.777344 85.824219 101.355469 85.390625 Z M 49.597656 67.707031 C 51.40625 67.707031 52.851562 69.148438 52.851562 70.945312 C 52.851562 72.746094 51.40625 74.1875 49.597656 74.1875 C 47.800781 74.1875 46.355469 72.746094 46.355469 70.945312 C 46.355469 69.148438 47.800781 67.707031 49.597656 67.707031 Z M 63.445312 56.183594 C 65.246094 56.183594 66.691406 57.617188 66.691406 59.417969 C 66.691406 61.214844 65.246094 62.65625 63.445312 62.65625 C 61.640625 62.65625 60.195312 61.214844 60.195312 59.417969 C 60.195312 57.617188 61.640625 56.183594 63.445312 56.183594 Z M 90.054688 55.121094 C 95.679688 54.972656 101.191406 57.824219 104.207031 63.03125 C 108.59375 70.605469 106.003906 80.261719 98.40625 84.636719 C 90.8125 89.011719 81.125 86.425781 76.746094 78.851562 C 72.359375 71.277344 74.957031 61.621094 82.546875 57.246094 C 84.917969 55.875 87.5 55.1875 90.054688 55.121094 Z M 37.773438 43.128906 L 112.136719 43.128906 C 114.402344 43.128906 116.175781 44.917969 116.175781 47.175781 L 116.175781 87.285156 L 109.171875 87.285156 C 107.648438 87.285156 107.648438 89.566406 109.171875 89.566406 L 116.175781 89.566406 L 116.175781 92.449219 C 116.175781 94.714844 114.492188 96.363281 112.363281 96.363281 L 110.484375 96.363281 C 110.4375 96.363281 110.382812 96.363281 110.339844 96.371094 L 103.109375 83.890625 C 108.910156 78.257812 110.40625 69.210938 106.175781 61.898438 C 101.175781 53.261719 90.070312 50.289062 81.414062 55.273438 C 78.855469 56.746094 76.808594 58.757812 75.304688 61.066406 L 68.945312 59.1875 C 68.824219 56.257812 66.40625 53.910156 63.445312 53.910156 C 60.410156 53.910156 57.917969 56.390625 57.917969 59.417969 C 57.917969 60.097656 58.054688 60.734375 58.289062 61.335938 L 52.464844 66.261719 C 51.621094 65.75 50.648438 65.4375 49.597656 65.4375 C 46.5625 65.4375 44.074219 67.925781 44.074219 70.953125 C 44.074219 73.980469 46.5625 76.460938 49.597656 76.460938 C 52.640625 76.460938 55.128906 73.980469 55.128906 70.953125 C 55.128906 69.789062 54.757812 68.710938 54.140625 67.824219 L 59.515625 63.269531 C 60.519531 64.289062 61.910156 64.917969 63.445312 64.917969 C 65.765625 64.917969 67.75 63.472656 68.558594 61.445312 L 74.144531 63.101562 C 71.640625 68.308594 71.664062 74.621094 74.769531 79.992188 C 76.695312 83.304688 79.511719 85.777344 82.75 87.285156 L 33.734375 87.285156 L 33.734375 47.175781 C 33.734375 44.917969 35.511719 43.128906 37.773438 43.128906 Z M 37.773438 40.867188 C 34.289062 40.867188 31.457031 43.699219 31.457031 47.175781 L 31.457031 92.324219 C 31.457031 95.800781 34.289062 98.636719 37.773438 98.636719 L 65.253906 98.636719 L 62.367188 106.726562 L 60.1875 106.726562 C 58.667969 106.726562 58.667969 109.007812 60.1875 109.007812 L 89.722656 109.007812 C 91.246094 109.007812 91.246094 106.726562 89.722656 106.726562 L 87.546875 106.726562 L 84.65625 98.636719 L 101.355469 98.636719 L 104.800781 104.585938 C 105.332031 105.507812 106.34375 105.949219 107.332031 106.007812 C 108.3125 106.070312 109.363281 105.808594 110.332031 105.253906 C 111.304688 104.691406 112.050781 103.929688 112.492188 103.042969 C 112.933594 102.15625 113.050781 101.0625 112.515625 100.136719 L 111.644531 98.636719 L 112.363281 98.636719 C 115.722656 98.636719 118.457031 95.886719 118.457031 92.449219 L 118.457031 47.175781 C 118.457031 43.699219 115.621094 40.867188 112.136719 40.867188 L 37.773438 40.867188 " fill-opacity="1" fill-rule="nonzero"/></g><path fill="#ffffff" d="M 89.878906 63.855469 C 91.398438 63.839844 92.742188 64.882812 93.074219 66.421875 C 93.453125 68.179688 92.339844 69.890625 90.582031 70.257812 C 88.820312 70.636719 87.113281 69.535156 86.734375 67.777344 C 86.355469 66.015625 87.460938 64.3125 89.222656 63.933594 C 89.445312 63.886719 89.667969 63.863281 89.878906 63.855469 Z M 89.855469 61.582031 C 89.484375 61.589844 89.113281 61.628906 88.742188 61.707031 C 87.136719 62.054688 85.863281 63.085938 85.113281 64.425781 L 80.757812 62.949219 C 80.609375 62.894531 80.453125 62.878906 80.300781 62.886719 C 79.058594 62.96875 78.832031 64.703125 80.015625 65.097656 L 84.433594 66.597656 C 84.386719 67.140625 84.386719 67.695312 84.511719 68.25 C 85.144531 71.214844 88.09375 73.117188 91.058594 72.484375 C 93.761719 71.90625 95.578125 69.410156 95.40625 66.738281 L 100.226562 65.097656 C 101.496094 64.671875 101.125 62.792969 99.789062 62.886719 C 99.6875 62.894531 99.585938 62.917969 99.484375 62.949219 L 94.773438 64.550781 C 93.816406 62.746094 91.925781 61.566406 89.855469 61.582031 " fill-opacity="1" fill-rule="nonzero"/></svg>