<svg xmlns="http://www.w3.org/2000/svg" xmlns:xlink="http://www.w3.org/1999/xlink" width="200" zoomAndPan="magnify" viewBox="0 0 150 149.999998" height="200" preserveAspectRatio="xMidYMid meet" version="1.0"><defs><clipPath id="027c095a2f"><path d="M 10.007812 10.007812 L 140.507812 10.007812 L 140.507812 140.507812 L 10.007812 140.507812 Z M 10.007812 10.007812 " clip-rule="nonzero"/></clipPath><clipPath id="a749973623"><path d="M 29.828125 54.921875 L 55.265625 54.921875 L 55.265625 78.699219 L 29.828125 78.699219 Z M 29.828125 54.921875 " clip-rule="nonzero"/></clipPath><clipPath id="dac555cd3e"><path d="M 23.125 68 L 31 68 L 31 73 L 23.125 73 Z M 23.125 68 " clip-rule="nonzero"/></clipPath><clipPath id="9f3f1f2cb8"><path d="M 23.144531 68.808594 L 31.875 68.808594 L 31.875 78.699219 L 23.144531 78.699219 Z M 23.144531 68.808594 " clip-rule="nonzero"/></clipPath><clipPath id="d9e2e9a9d9"><path d="M 23.125 53.199219 L 52 53.199219 L 52 70 L 23.125 70 Z M 23.125 53.199219 " clip-rule="nonzero"/></clipPath><clipPath id="b0baf68918"><path d="M 51.816406 66.261719 L 62.875 66.261719 L 62.875 76.652344 L 51.816406 76.652344 Z M 51.816406 66.261719 " clip-rule="nonzero"/></clipPath><clipPath id="6790e5a295"><path d="M 37.710938 108 L 52 108 L 52 122 L 37.710938 122 Z M 37.710938 108 " clip-rule="nonzero"/></clipPath><clipPath id="2540cd297e"><path d="M 61 108 L 75.210938 108 L 75.210938 122 L 61 122 Z M 61 108 " clip-rule="nonzero"/></clipPath><clipPath id="40ffd3a748"><path d="M 49 82.25 L 64 82.25 L 64 97 L 49 97 Z M 49 82.25 " clip-rule="nonzero"/></clipPath><clipPath id="1bdc0859e6"><path d="M 87.488281 82.25 L 118.988281 82.25 L 118.988281 119 L 87.488281 119 Z M 87.488281 82.25 " clip-rule="nonzero"/></clipPath><clipPath id="18e4c38849"><path d="M 50.898438 19.832031 L 99.648438 19.832031 L 99.648438 47.582031 L 50.898438 47.582031 Z M 50.898438 19.832031 " clip-rule="nonzero"/></clipPath><clipPath id="e29e92a615"><path d="M 87.488281 53.847656 L 125.738281 53.847656 L 125.738281 78.597656 L 87.488281 78.597656 Z M 87.488281 53.847656 " clip-rule="nonzero"/></clipPath></defs><g clip-path="url(#027c095a2f)"><path fill="#0d6591" d="M 140.507812 75.257812 C 140.507812 76.328125 140.484375 77.394531 140.429688 78.460938 C 140.378906 79.527344 140.300781 80.59375 140.195312 81.65625 C 140.089844 82.71875 139.960938 83.777344 139.804688 84.832031 C 139.648438 85.890625 139.464844 86.941406 139.253906 87.988281 C 139.046875 89.035156 138.8125 90.078125 138.554688 91.113281 C 138.292969 92.148438 138.011719 93.179688 137.699219 94.199219 C 137.390625 95.222656 137.054688 96.234375 136.695312 97.242188 C 136.335938 98.246094 135.953125 99.242188 135.542969 100.230469 C 135.132812 101.214844 134.703125 102.191406 134.246094 103.15625 C 133.789062 104.121094 133.308594 105.078125 132.804688 106.019531 C 132.300781 106.960938 131.773438 107.890625 131.226562 108.804688 C 130.675781 109.71875 130.105469 110.621094 129.511719 111.511719 C 128.917969 112.398438 128.304688 113.269531 127.667969 114.128906 C 127.03125 114.988281 126.375 115.828125 125.699219 116.652344 C 125.019531 117.480469 124.324219 118.289062 123.605469 119.078125 C 122.890625 119.871094 122.152344 120.644531 121.398438 121.398438 C 120.644531 122.152344 119.871094 122.890625 119.078125 123.605469 C 118.289062 124.324219 117.480469 125.019531 116.652344 125.699219 C 115.828125 126.375 114.988281 127.03125 114.128906 127.667969 C 113.269531 128.304688 112.398438 128.917969 111.511719 129.511719 C 110.621094 130.105469 109.71875 130.675781 108.804688 131.226562 C 107.890625 131.773438 106.960938 132.300781 106.019531 132.804688 C 105.078125 133.308594 104.121094 133.789062 103.15625 134.246094 C 102.191406 134.703125 101.214844 135.132812 100.230469 135.542969 C 99.242188 135.953125 98.246094 136.335938 97.242188 136.695312 C 96.234375 137.054688 95.222656 137.390625 94.199219 137.699219 C 93.179688 138.011719 92.148438 138.292969 91.113281 138.554688 C 90.078125 138.8125 89.035156 139.046875 87.988281 139.253906 C 86.941406 139.464844 85.890625 139.648438 84.832031 139.804688 C 83.777344 139.960938 82.71875 140.089844 81.65625 140.195312 C 80.59375 140.300781 79.527344 140.378906 78.460938 140.429688 C 77.394531 140.484375 76.328125 140.507812 75.257812 140.507812 C 74.191406 140.507812 73.125 140.484375 72.058594 140.429688 C 70.992188 140.378906 69.925781 140.300781 68.863281 140.195312 C 67.800781 140.089844 66.742188 139.960938 65.683594 139.804688 C 64.628906 139.648438 63.578125 139.464844 62.53125 139.253906 C 61.484375 139.046875 60.441406 138.8125 59.40625 138.554688 C 58.371094 138.292969 57.339844 138.011719 56.320312 137.699219 C 55.296875 137.390625 54.28125 137.054688 53.277344 136.695312 C 52.273438 136.335938 51.277344 135.953125 50.289062 135.542969 C 49.304688 135.132812 48.328125 134.703125 47.363281 134.246094 C 46.394531 133.789062 45.441406 133.308594 44.5 132.804688 C 43.558594 132.300781 42.628906 131.773438 41.714844 131.226562 C 40.796875 130.675781 39.898438 130.105469 39.007812 129.511719 C 38.121094 128.917969 37.246094 128.304688 36.390625 127.667969 C 35.53125 127.03125 34.691406 126.375 33.867188 125.699219 C 33.039062 125.019531 32.230469 124.324219 31.441406 123.605469 C 30.648438 122.890625 29.875 122.152344 29.121094 121.398438 C 28.367188 120.644531 27.628906 119.871094 26.914062 119.078125 C 26.195312 118.289062 25.5 117.480469 24.820312 116.652344 C 24.144531 115.828125 23.488281 114.988281 22.851562 114.128906 C 22.214844 113.269531 21.597656 112.398438 21.007812 111.511719 C 20.414062 110.621094 19.839844 109.71875 19.292969 108.804688 C 18.742188 107.890625 18.21875 106.960938 17.714844 106.019531 C 17.210938 105.078125 16.730469 104.121094 16.273438 103.15625 C 15.816406 102.191406 15.386719 101.214844 14.976562 100.230469 C 14.566406 99.242188 14.183594 98.246094 13.824219 97.242188 C 13.464844 96.234375 13.128906 95.222656 12.820312 94.199219 C 12.507812 93.179688 12.222656 92.148438 11.964844 91.113281 C 11.707031 90.078125 11.472656 89.035156 11.261719 87.988281 C 11.054688 86.941406 10.871094 85.890625 10.714844 84.832031 C 10.558594 83.777344 10.429688 82.71875 10.324219 81.65625 C 10.21875 80.59375 10.140625 79.527344 10.089844 78.460938 C 10.035156 77.394531 10.007812 76.328125 10.007812 75.257812 C 10.007812 74.191406 10.035156 73.125 10.089844 72.058594 C 10.140625 70.992188 10.21875 69.925781 10.324219 68.863281 C 10.429688 67.800781 10.558594 66.742188 10.714844 65.683594 C 10.871094 64.628906 11.054688 63.578125 11.261719 62.53125 C 11.472656 61.484375 11.707031 60.441406 11.964844 59.40625 C 12.222656 58.371094 12.507812 57.339844 12.820312 56.320312 C 13.128906 55.296875 13.464844 54.28125 13.824219 53.277344 C 14.183594 52.273438 14.566406 51.277344 14.976562 50.289062 C 15.386719 49.304688 15.816406 48.328125 16.273438 47.363281 C 16.730469 46.394531 17.210938 45.441406 17.714844 44.5 C 18.21875 43.558594 18.742188 42.628906 19.292969 41.714844 C 19.839844 40.796875 20.414062 39.898438 21.007812 39.007812 C 21.597656 38.121094 22.214844 37.246094 22.851562 36.390625 C 23.488281 35.53125 24.144531 34.691406 24.820312 33.867188 C 25.5 33.039062 26.195312 32.230469 26.914062 31.441406 C 27.628906 30.648438 28.367188 29.875 29.121094 29.121094 C 29.875 28.367188 30.648438 27.628906 31.441406 26.914062 C 32.230469 26.195312 33.039062 25.5 33.867188 24.820312 C 34.691406 24.144531 35.53125 23.488281 36.390625 22.851562 C 37.246094 22.214844 38.121094 21.597656 39.007812 21.007812 C 39.898438 20.414062 40.796875 19.839844 41.714844 19.292969 C 42.628906 18.742188 43.558594 18.21875 44.5 17.714844 C 45.441406 17.210938 46.394531 16.730469 47.363281 16.273438 C 48.328125 15.816406 49.304688 15.386719 50.289062 14.976562 C 51.277344 14.566406 52.273438 14.183594 53.277344 13.824219 C 54.28125 13.464844 55.296875 13.128906 56.320312 12.820312 C 57.339844 12.507812 58.371094 12.222656 59.40625 11.964844 C 60.441406 11.707031 61.484375 11.472656 62.53125 11.261719 C 63.578125 11.054688 64.628906 10.871094 65.683594 10.714844 C 66.742188 10.558594 67.800781 10.429688 68.863281 10.324219 C 69.925781 10.21875 70.992188 10.140625 72.058594 10.089844 C 73.125 10.035156 74.191406 10.007812 75.257812 10.007812 C 76.328125 10.007812 77.394531 10.035156 78.460938 10.089844 C 79.527344 10.140625 80.59375 10.21875 81.65625 10.324219 C 82.71875 10.429688 83.777344 10.558594 84.832031 10.714844 C 85.890625 10.871094 86.941406 11.054688 87.988281 11.261719 C 89.035156 11.472656 90.078125 11.707031 91.113281 11.964844 C 92.148438 12.222656 93.179688 12.507812 94.199219 12.820312 C 95.222656 13.128906 96.234375 13.464844 97.242188 13.824219 C 98.246094 14.183594 99.242188 14.566406 100.230469 14.976562 C 101.214844 15.386719 102.191406 15.816406 103.15625 16.273438 C 104.121094 16.730469 105.078125 17.210938 106.019531 17.714844 C 106.960938 18.21875 107.890625 18.742188 108.804688 19.292969 C 109.722656 19.839844 110.621094 20.414062 111.511719 21.007812 C 112.398438 21.597656 113.269531 22.214844 114.128906 22.851562 C 114.988281 23.488281 115.828125 24.144531 116.652344 24.820312 C 117.480469 25.5 118.289062 26.195312 119.078125 26.914062 C 119.871094 27.628906 120.644531 28.367188 121.398438 29.121094 C 122.152344 29.875 122.890625 30.648438 123.605469 31.441406 C 124.324219 32.230469 125.019531 33.039062 125.699219 33.867188 C 126.375 34.691406 127.03125 35.53125 127.667969 36.390625 C 128.304688 37.246094 128.917969 38.121094 129.511719 39.007812 C 130.105469 39.898438 130.675781 40.796875 131.226562 41.714844 C 131.773438 42.628906 132.300781 43.558594 132.804688 44.5 C 133.308594 45.441406 133.789062 46.394531 134.246094 47.363281 C 134.703125 48.328125 135.132812 49.304688 135.542969 50.289062 C 135.953125 51.277344 136.335938 52.273438 136.695312 53.277344 C 137.054688 54.28125 137.390625 55.296875 137.699219 56.320312 C 138.011719 57.339844 138.292969 58.371094 138.554688 59.40625 C 138.8125 60.441406 139.046875 61.484375 139.253906 62.53125 C 139.464844 63.578125 139.648438 64.628906 139.804688 65.683594 C 139.960938 66.742188 140.089844 67.800781 140.195312 68.863281 C 140.300781 69.925781 140.378906 70.992188 140.429688 72.058594 C 140.484375 73.125 140.507812 74.191406 140.507812 75.257812 Z M 140.507812 75.257812 " fill-opacity="1" fill-rule="nonzero"/></g><g clip-path="url(#a749973623)"><path fill="#ffffff" d="M 30.070312 71.675781 L 51.179688 55.066406 C 51.191406 55.058594 51.199219 55.046875 51.210938 55.039062 C 51.390625 54.898438 51.648438 54.925781 51.789062 55.101562 L 51.792969 55.105469 L 55.148438 59.230469 C 55.316406 59.402344 55.285156 59.699219 55.113281 59.832031 L 31.644531 78.589844 C 31.585938 78.644531 31.511719 78.683594 31.425781 78.695312 C 31.199219 78.730469 30.984375 78.582031 30.949219 78.359375 L 29.925781 72.089844 C 29.882812 71.929688 29.941406 71.78125 30.070312 71.675781 Z M 51.40625 55.925781 L 30.769531 72.160156 L 31.652344 77.535156 L 54.277344 59.457031 L 51.40625 55.925781 " fill-opacity="1" fill-rule="nonzero"/></g><g clip-path="url(#dac555cd3e)"><path fill="#ffffff" d="M 23.753906 68.871094 C 23.542969 68.785156 23.300781 68.882812 23.214844 69.089844 C 23.125 69.296875 23.226562 69.535156 23.4375 69.621094 L 30.167969 72.367188 C 30.378906 72.453125 30.621094 72.355469 30.707031 72.148438 C 30.796875 71.941406 30.695312 71.703125 30.484375 71.617188 L 23.753906 68.871094 " fill-opacity="1" fill-rule="nonzero"/></g><g clip-path="url(#9f3f1f2cb8)"><path fill="#ffffff" d="M 24.007812 69.246094 C 24.007812 69.023438 23.824219 68.839844 23.597656 68.839844 C 23.367188 68.839844 23.183594 69.019531 23.183594 69.242188 L 23.144531 75.316406 C 23.144531 75.503906 23.269531 75.660156 23.441406 75.710938 L 31.210938 78.671875 C 31.421875 78.753906 31.660156 78.648438 31.742188 78.441406 C 31.824219 78.230469 31.71875 77.996094 31.507812 77.914062 L 23.972656 75.042969 L 24.007812 69.246094 " fill-opacity="1" fill-rule="nonzero"/></g><g clip-path="url(#d9e2e9a9d9)"><path fill="#ffffff" d="M 51.375 55.753906 C 51.597656 55.804688 51.820312 55.667969 51.871094 55.453125 C 51.921875 55.234375 51.789062 55.015625 51.566406 54.964844 L 44.234375 53.234375 C 44.09375 53.207031 43.980469 53.242188 43.863281 53.328125 L 23.34375 68.921875 C 23.160156 69.0625 23.128906 69.316406 23.269531 69.492188 C 23.40625 69.671875 23.667969 69.703125 23.847656 69.566406 L 44.238281 54.070312 L 51.375 55.753906 " fill-opacity="1" fill-rule="nonzero"/></g><g clip-path="url(#b0baf68918)"><path fill="#ffffff" d="M 52.730469 69.792969 L 52.730469 75.589844 L 61.96875 72.5625 L 60.546875 67.285156 Z M 51.902344 76.144531 L 51.902344 69.496094 C 51.902344 69.308594 52.035156 69.148438 52.214844 69.101562 L 60.707031 66.378906 C 60.941406 66.296875 61.195312 66.449219 61.242188 66.6875 L 62.863281 72.71875 C 62.929688 72.949219 62.777344 73.152344 62.558594 73.222656 L 52.445312 76.535156 C 52.171875 76.621094 51.898438 76.417969 51.902344 76.144531 " fill-opacity="1" fill-rule="nonzero"/></g><path fill="#ffffff" d="M 52.097656 69.84375 C 52.292969 69.960938 52.546875 69.902344 52.667969 69.710938 C 52.785156 69.519531 52.726562 69.269531 52.53125 69.152344 L 46.925781 65.738281 C 46.734375 65.621094 46.480469 65.679688 46.359375 65.867188 C 46.242188 66.058594 46.300781 66.308594 46.492188 66.425781 L 52.097656 69.84375 " fill-opacity="1" fill-rule="nonzero"/><path fill="#ffffff" d="M 52.097656 76.496094 C 52.292969 76.613281 52.546875 76.554688 52.667969 76.363281 C 52.785156 76.171875 52.726562 75.925781 52.53125 75.804688 L 42.207031 69.523438 C 42.011719 69.402344 41.757812 69.464844 41.636719 69.652344 C 41.519531 69.84375 41.578125 70.09375 41.773438 70.210938 L 52.097656 76.496094 " fill-opacity="1" fill-rule="nonzero"/><path fill="#ffffff" d="M 60.65625 67.128906 C 60.859375 67.226562 61.105469 67.140625 61.207031 66.941406 C 61.304688 66.738281 61.21875 66.496094 61.011719 66.398438 L 51.617188 61.945312 C 51.414062 61.847656 51.167969 61.933594 51.066406 62.136719 C 50.96875 62.339844 51.054688 62.582031 51.261719 62.679688 L 60.65625 67.128906 " fill-opacity="1" fill-rule="nonzero"/><path fill="#ffffff" d="M 43.816406 113.703125 C 43.816406 113.882812 43.871094 114.023438 43.976562 114.121094 C 44.078125 114.222656 44.28125 114.324219 44.578125 114.417969 L 44.578125 113.058594 C 44.339844 113.078125 44.15625 113.144531 44.019531 113.265625 C 43.886719 113.382812 43.816406 113.53125 43.816406 113.703125 Z M 43.816406 113.703125 " fill-opacity="1" fill-rule="nonzero"/><path fill="#ffffff" d="M 45.082031 115.515625 L 45.082031 116.929688 C 45.335938 116.902344 45.535156 116.828125 45.683594 116.710938 C 45.832031 116.585938 45.902344 116.4375 45.902344 116.25 C 45.902344 116.070312 45.847656 115.925781 45.726562 115.816406 C 45.613281 115.710938 45.398438 115.609375 45.082031 115.515625 Z M 45.082031 115.515625 " fill-opacity="1" fill-rule="nonzero"/><path fill="#ffffff" d="M 44.753906 110.296875 C 42.097656 110.296875 39.9375 112.441406 39.9375 115.078125 C 39.9375 117.714844 42.097656 119.859375 44.753906 119.859375 C 47.40625 119.859375 49.558594 117.714844 49.558594 115.078125 C 49.558594 112.441406 47.40625 110.296875 44.753906 110.296875 Z M 46.378906 117.300781 C 46.050781 117.585938 45.617188 117.746094 45.082031 117.769531 L 45.082031 118.332031 L 44.578125 118.332031 L 44.578125 117.757812 C 43.851562 117.691406 43.203125 117.402344 42.632812 116.902344 L 43.210938 116.222656 C 43.652344 116.601562 44.105469 116.828125 44.578125 116.902344 L 44.578125 115.382812 C 43.980469 115.242188 43.542969 115.054688 43.269531 114.820312 C 42.992188 114.59375 42.851562 114.253906 42.851562 113.796875 C 42.851562 113.347656 43.011719 112.976562 43.328125 112.6875 C 43.648438 112.398438 44.066406 112.242188 44.578125 112.214844 L 44.578125 111.824219 L 45.082031 111.824219 L 45.082031 112.226562 C 45.664062 112.265625 46.210938 112.464844 46.726562 112.816406 L 46.210938 113.535156 C 45.863281 113.289062 45.488281 113.136719 45.082031 113.082031 L 45.082031 114.554688 L 45.105469 114.554688 C 45.710938 114.699219 46.15625 114.890625 46.4375 115.128906 C 46.726562 115.371094 46.867188 115.722656 46.867188 116.175781 C 46.867188 116.636719 46.703125 117.011719 46.378906 117.300781 Z M 46.378906 117.300781 " fill-opacity="1" fill-rule="nonzero"/><g clip-path="url(#6790e5a295)"><path fill="#ffffff" d="M 44.753906 108.15625 C 40.898438 108.15625 37.785156 111.257812 37.785156 115.078125 C 37.785156 118.902344 40.898438 122 44.753906 122 C 48.597656 122 51.71875 118.902344 51.71875 115.078125 C 51.71875 111.257812 48.597656 108.15625 44.753906 108.15625 Z M 44.753906 120.851562 C 41.546875 120.851562 38.945312 118.257812 38.945312 115.078125 C 38.945312 111.898438 41.546875 109.308594 44.753906 109.308594 C 47.953125 109.308594 50.554688 111.898438 50.554688 115.078125 C 50.554688 118.257812 47.953125 120.851562 44.753906 120.851562 Z M 44.753906 120.851562 " fill-opacity="1" fill-rule="nonzero"/></g><path fill="#ffffff" d="M 68.171875 110.296875 C 65.519531 110.296875 63.355469 112.445312 63.355469 115.082031 C 63.355469 117.714844 65.519531 119.863281 68.171875 119.863281 C 70.824219 119.863281 72.980469 117.714844 72.980469 115.082031 C 72.980469 112.445312 70.824219 110.296875 68.171875 110.296875 Z M 69.933594 118.078125 L 66.871094 118.078125 C 66.550781 118.078125 66.292969 117.820312 66.292969 117.496094 L 66.292969 117.484375 C 66.292969 117.296875 66.390625 117.117188 66.546875 117.007812 C 67.027344 116.714844 67.1875 116.253906 67.222656 115.824219 L 66.441406 115.824219 C 66.089844 115.824219 65.8125 115.546875 65.8125 115.203125 C 65.8125 114.855469 66.089844 114.574219 66.441406 114.574219 L 67.074219 114.574219 C 66.761719 112.117188 68.710938 112.015625 69.617188 112.09375 C 69.863281 112.117188 70.0625 112.320312 70.074219 112.574219 C 70.085938 112.859375 69.859375 113.097656 69.570312 113.097656 L 69.191406 113.097656 C 67.976562 113.175781 68.410156 114.574219 68.410156 114.574219 L 68.996094 114.574219 C 69.34375 114.574219 69.621094 114.855469 69.621094 115.195312 C 69.621094 115.542969 69.34375 115.816406 68.996094 115.816406 L 68.410156 115.816406 L 68.410156 115.824219 C 68.25 116.445312 68.019531 116.910156 68.019531 116.910156 L 69.933594 116.910156 C 70.257812 116.910156 70.523438 117.175781 70.523438 117.492188 C 70.523438 117.8125 70.257812 118.078125 69.933594 118.078125 Z M 69.933594 118.078125 " fill-opacity="1" fill-rule="nonzero"/><g clip-path="url(#2540cd297e)"><path fill="#ffffff" d="M 68.171875 108.15625 C 64.320312 108.15625 61.203125 111.257812 61.203125 115.078125 C 61.203125 118.902344 64.320312 122 68.171875 122 C 72.019531 122 75.140625 118.902344 75.140625 115.078125 C 75.140625 111.257812 72.019531 108.15625 68.171875 108.15625 Z M 68.171875 120.851562 C 64.964844 120.851562 62.363281 118.257812 62.363281 115.078125 C 62.363281 111.898438 64.964844 109.308594 68.171875 109.308594 C 71.371094 109.308594 73.972656 111.898438 73.972656 115.078125 C 73.972656 118.257812 71.371094 120.851562 68.171875 120.851562 Z M 68.171875 120.851562 " fill-opacity="1" fill-rule="nonzero"/></g><path fill="#ffffff" d="M 56.613281 93.953125 C 59.261719 93.953125 61.417969 91.8125 61.417969 89.175781 C 61.417969 86.539062 59.261719 84.394531 56.613281 84.394531 C 53.953125 84.394531 51.796875 86.539062 51.796875 89.175781 C 51.796875 91.8125 53.953125 93.953125 56.613281 93.953125 Z M 55.1875 89.171875 C 55.1875 89.101562 55.191406 89.035156 55.199219 88.964844 L 54.3125 88.964844 C 54.074219 88.964844 53.878906 88.773438 53.878906 88.539062 C 53.878906 88.296875 54.074219 88.101562 54.3125 88.101562 L 55.40625 88.101562 C 55.824219 87.089844 56.832031 86.375 58 86.375 C 58.238281 86.375 58.429688 86.570312 58.429688 86.8125 C 58.429688 87.046875 58.238281 87.238281 58 87.238281 C 57.324219 87.238281 56.730469 87.582031 56.378906 88.101562 L 58 88.101562 C 58.238281 88.101562 58.429688 88.296875 58.429688 88.539062 C 58.429688 88.773438 58.238281 88.964844 58 88.964844 L 56.066406 88.964844 C 56.054688 89.035156 56.054688 89.101562 56.054688 89.171875 C 56.054688 89.246094 56.054688 89.3125 56.066406 89.382812 L 58 89.382812 C 58.238281 89.382812 58.429688 89.574219 58.429688 89.8125 C 58.429688 90.054688 58.238281 90.246094 58 90.246094 L 56.378906 90.246094 C 56.730469 90.765625 57.324219 91.109375 58 91.109375 C 58.238281 91.109375 58.429688 91.300781 58.429688 91.539062 C 58.429688 91.78125 58.238281 91.964844 58 91.964844 C 56.832031 91.964844 55.824219 91.257812 55.40625 90.246094 L 54.3125 90.246094 C 54.074219 90.246094 53.878906 90.054688 53.878906 89.8125 C 53.878906 89.574219 54.074219 89.382812 54.3125 89.382812 L 55.199219 89.382812 C 55.191406 89.3125 55.1875 89.246094 55.1875 89.171875 Z M 55.1875 89.171875 " fill-opacity="1" fill-rule="nonzero"/><g clip-path="url(#40ffd3a748)"><path fill="#ffffff" d="M 56.609375 96.097656 C 60.457031 96.097656 63.578125 92.996094 63.578125 89.175781 C 63.578125 85.351562 60.457031 82.25 56.609375 82.25 C 52.757812 82.25 49.640625 85.351562 49.640625 89.175781 C 49.640625 92.996094 52.757812 96.097656 56.609375 96.097656 Z M 56.609375 83.402344 C 59.808594 83.402344 62.414062 85.996094 62.414062 89.175781 C 62.414062 92.355469 59.808594 94.945312 56.609375 94.945312 C 53.402344 94.945312 50.800781 92.355469 50.800781 89.175781 C 50.800781 85.996094 53.402344 83.402344 56.609375 83.402344 Z M 56.609375 83.402344 " fill-opacity="1" fill-rule="nonzero"/></g><path fill="#ffffff" d="M 57.402344 103.53125 L 57.402344 99.539062 L 58.519531 99.539062 C 58.589844 99.539062 58.628906 99.457031 58.582031 99.402344 L 56.675781 96.992188 C 56.644531 96.945312 56.574219 96.945312 56.542969 96.992188 L 54.636719 99.402344 C 54.589844 99.457031 54.628906 99.539062 54.699219 99.539062 L 55.816406 99.539062 L 55.816406 103.53125 C 55.816406 103.679688 55.9375 103.800781 56.085938 103.800781 L 57.132812 103.800781 C 57.28125 103.800781 57.402344 103.679688 57.402344 103.53125 Z M 57.402344 103.53125 " fill-opacity="1" fill-rule="nonzero"/><path fill="#ffffff" d="M 59.480469 109.863281 L 62.546875 110.226562 C 62.601562 110.238281 62.648438 110.1875 62.640625 110.136719 L 62.273438 107.089844 C 62.265625 107.019531 62.179688 106.988281 62.128906 107.039062 L 61.339844 107.820312 L 58.5 105 C 58.394531 104.894531 58.222656 104.894531 58.117188 105 L 57.375 105.734375 C 57.269531 105.839844 57.269531 106.007812 57.375 106.113281 L 60.21875 108.9375 L 59.429688 109.71875 C 59.378906 109.769531 59.410156 109.855469 59.480469 109.863281 Z M 59.480469 109.863281 " fill-opacity="1" fill-rule="nonzero"/><path fill="#ffffff" d="M 55.101562 105 C 54.996094 104.894531 54.824219 104.894531 54.71875 105 L 51.878906 107.820312 L 51.089844 107.039062 C 51.039062 106.988281 50.953125 107.019531 50.945312 107.089844 L 50.578125 110.136719 C 50.570312 110.1875 50.617188 110.238281 50.671875 110.226562 L 53.738281 109.863281 C 53.808594 109.855469 53.839844 109.769531 53.789062 109.71875 L 53 108.9375 L 55.84375 106.113281 C 55.949219 106.007812 55.949219 105.839844 55.84375 105.734375 Z M 55.101562 105 " fill-opacity="1" fill-rule="nonzero"/><path fill="#ffffff" d="M 41.148438 104.300781 C 40.804688 104.34375 40.5625 104.652344 40.605469 104.996094 C 40.675781 105.527344 40.773438 106.0625 40.894531 106.585938 C 40.972656 106.921875 41.308594 107.125 41.644531 107.050781 C 41.980469 106.972656 42.1875 106.640625 42.109375 106.304688 C 42 105.824219 41.910156 105.328125 41.847656 104.839844 C 41.804688 104.496094 41.492188 104.261719 41.148438 104.300781 Z M 41.148438 104.300781 " fill-opacity="1" fill-rule="nonzero"/><path fill="#ffffff" d="M 41.863281 98.210938 C 42.195312 98.332031 42.550781 98.160156 42.667969 97.847656 C 42.945312 97.109375 43.285156 96.386719 43.679688 95.707031 C 43.851562 95.40625 43.75 95.027344 43.449219 94.859375 C 43.148438 94.6875 42.769531 94.789062 42.597656 95.085938 C 42.167969 95.828125 41.800781 96.609375 41.496094 97.410156 C 41.375 97.730469 41.539062 98.089844 41.863281 98.210938 Z M 41.863281 98.210938 " fill-opacity="1" fill-rule="nonzero"/><path fill="#ffffff" d="M 41.09375 103.070312 C 41.101562 103.074219 41.105469 103.074219 41.117188 103.074219 C 41.449219 103.074219 41.726562 102.808594 41.738281 102.472656 C 41.765625 101.6875 41.859375 100.894531 42.015625 100.121094 C 42.082031 99.785156 41.863281 99.457031 41.523438 99.390625 C 41.183594 99.324219 40.855469 99.542969 40.789062 99.878906 C 40.621094 100.71875 40.519531 101.578125 40.488281 102.429688 C 40.476562 102.773438 40.746094 103.058594 41.09375 103.070312 Z M 41.09375 103.070312 " fill-opacity="1" fill-rule="nonzero"/><path fill="#ffffff" d="M 45.039062 93.75 C 45.351562 93.367188 45.691406 92.996094 46.042969 92.644531 C 46.289062 92.398438 46.289062 92.007812 46.042969 91.765625 C 45.800781 91.523438 45.40625 91.523438 45.160156 91.765625 C 44.777344 92.144531 44.410156 92.546875 44.070312 92.960938 C 43.851562 93.226562 43.890625 93.621094 44.160156 93.835938 C 44.425781 94.054688 44.816406 94.015625 45.039062 93.75 Z M 45.039062 93.75 " fill-opacity="1" fill-rule="nonzero"/><path fill="#ffffff" d="M 59.273438 117.359375 C 58.785156 117.453125 58.285156 117.523438 57.789062 117.566406 C 57.445312 117.597656 57.191406 117.898438 57.222656 118.242188 C 57.253906 118.589844 57.566406 118.835938 57.902344 118.804688 C 58.4375 118.757812 58.980469 118.679688 59.511719 118.578125 C 59.851562 118.511719 60.074219 118.1875 60.007812 117.847656 C 59.941406 117.511719 59.613281 117.292969 59.273438 117.359375 Z M 59.273438 117.359375 " fill-opacity="1" fill-rule="nonzero"/><path fill="#ffffff" d="M 54.941406 117.546875 C 54.441406 117.496094 53.941406 117.421875 53.457031 117.320312 C 53.121094 117.253906 52.789062 117.464844 52.71875 117.800781 C 52.648438 118.140625 52.867188 118.46875 53.203125 118.539062 C 53.730469 118.644531 54.269531 118.730469 54.8125 118.785156 C 55.183594 118.816406 55.464844 118.554688 55.5 118.230469 C 55.535156 117.890625 55.285156 117.585938 54.941406 117.546875 Z M 54.941406 117.546875 " fill-opacity="1" fill-rule="nonzero"/><path fill="#ffffff" d="M 67.882812 93.75 C 68.105469 94.015625 68.5 94.050781 68.765625 93.835938 C 69.03125 93.621094 69.070312 93.230469 68.851562 92.964844 C 68.511719 92.550781 68.144531 92.144531 67.761719 91.765625 C 67.519531 91.523438 67.121094 91.523438 66.878906 91.765625 C 66.632812 92.007812 66.632812 92.402344 66.878906 92.644531 C 67.230469 92.996094 67.570312 93.367188 67.882812 93.75 Z M 67.882812 93.75 " fill-opacity="1" fill-rule="nonzero"/><path fill="#ffffff" d="M 70.941406 100.292969 C 71.089844 101.085938 71.175781 101.898438 71.191406 102.710938 C 71.199219 103.050781 71.476562 103.320312 71.816406 103.320312 C 71.820312 103.320312 71.824219 103.320312 71.828125 103.320312 C 72.171875 103.3125 72.445312 103.03125 72.441406 102.6875 C 72.425781 101.808594 72.332031 100.925781 72.171875 100.066406 C 72.109375 99.730469 71.785156 99.507812 71.441406 99.570312 C 71.101562 99.632812 70.878906 99.957031 70.941406 100.292969 Z M 70.941406 100.292969 " fill-opacity="1" fill-rule="nonzero"/><path fill="#ffffff" d="M 70.296875 97.953125 C 70.414062 98.273438 70.769531 98.441406 71.097656 98.324219 C 71.421875 98.207031 71.589844 97.847656 71.46875 97.527344 C 71.167969 96.699219 70.792969 95.898438 70.355469 95.136719 C 70.183594 94.839844 69.800781 94.734375 69.5 94.902344 C 69.203125 95.074219 69.097656 95.453125 69.269531 95.75 C 69.671875 96.453125 70.015625 97.191406 70.296875 97.953125 Z M 70.296875 97.953125 " fill-opacity="1" fill-rule="nonzero"/><path fill="#ffffff" d="M 71.742188 104.617188 C 71.390625 104.5625 71.082031 104.800781 71.03125 105.140625 C 70.960938 105.632812 70.863281 106.121094 70.738281 106.601562 C 70.652344 106.933594 70.855469 107.273438 71.191406 107.355469 C 71.527344 107.441406 71.867188 107.238281 71.953125 106.90625 C 72.085938 106.386719 72.191406 105.855469 72.269531 105.324219 C 72.320312 104.984375 72.085938 104.667969 71.742188 104.617188 Z M 71.742188 104.617188 " fill-opacity="1" fill-rule="nonzero"/><g clip-path="url(#1bdc0859e6)"><path fill="#ffffff" d="M 117.445312 93.246094 C 117.199219 93.011719 116.976562 92.808594 116.777344 92.625 C 115.15625 91.128906 115.15625 91.128906 114.664062 88.988281 C 114.605469 88.722656 114.539062 88.429688 114.460938 88.101562 C 114.082031 86.5 112.71875 85.359375 111.066406 85.269531 C 110.726562 85.25 110.425781 85.234375 110.152344 85.222656 C 107.945312 85.113281 107.945312 85.113281 106.183594 83.785156 C 105.96875 83.621094 105.726562 83.441406 105.453125 83.238281 C 104.128906 82.25 102.347656 82.25 101.023438 83.238281 C 100.753906 83.441406 100.511719 83.621094 100.292969 83.785156 C 98.53125 85.113281 98.53125 85.113281 96.324219 85.222656 C 96.054688 85.234375 95.75 85.25 95.410156 85.269531 C 93.761719 85.359375 92.394531 86.5 92.019531 88.101562 C 91.941406 88.429688 91.875 88.722656 91.8125 88.988281 C 91.320312 91.128906 91.320312 91.128906 89.703125 92.625 C 89.503906 92.808594 89.28125 93.011719 89.03125 93.246094 C 87.824219 94.371094 87.515625 96.113281 88.261719 97.582031 C 88.417969 97.886719 88.554688 98.152344 88.679688 98.394531 C 89.6875 100.347656 89.6875 100.347656 89.414062 102.53125 C 89.378906 102.796875 89.339844 103.097656 89.300781 103.433594 C 89.105469 105.066406 89.992188 106.601562 91.515625 107.25 C 91.828125 107.382812 92.105469 107.5 92.359375 107.605469 C 93.40625 108.042969 93.914062 108.257812 94.324219 108.613281 L 91.042969 115.628906 C 90.953125 115.820312 90.976562 116.046875 91.105469 116.214844 C 91.238281 116.382812 91.449219 116.46875 91.660156 116.429688 L 94.933594 115.863281 L 96.601562 118.71875 C 96.703125 118.894531 96.894531 119 97.097656 119 C 97.105469 119 97.113281 119 97.125 119 C 97.335938 118.992188 97.527344 118.863281 97.617188 118.671875 L 100.507812 112.496094 C 100.734375 112.429688 100.9375 112.367188 101.128906 112.308594 C 103.238281 111.660156 103.238281 111.660156 105.351562 112.308594 C 105.566406 112.375 105.804688 112.445312 106.066406 112.527344 L 108.945312 118.671875 C 109.035156 118.863281 109.226562 118.992188 109.4375 119 C 109.449219 119 109.457031 119 109.464844 119 C 109.667969 119 109.859375 118.894531 109.960938 118.71875 L 111.628906 115.863281 L 114.902344 116.429688 C 115.113281 116.464844 115.324219 116.382812 115.457031 116.214844 C 115.585938 116.046875 115.609375 115.820312 115.519531 115.628906 L 112.214844 108.5625 C 112.613281 108.234375 113.121094 108.023438 114.121094 107.605469 C 114.371094 107.5 114.652344 107.382812 114.964844 107.25 C 116.484375 106.601562 117.375 105.066406 117.179688 103.433594 C 117.140625 103.097656 117.101562 102.796875 117.066406 102.53125 C 116.792969 100.347656 116.792969 100.347656 117.800781 98.394531 C 117.925781 98.152344 118.0625 97.886719 118.214844 97.582031 C 118.960938 96.113281 118.652344 94.371094 117.445312 93.246094 Z M 97.042969 117.199219 L 95.722656 114.945312 C 95.601562 114.738281 95.367188 114.628906 95.128906 114.667969 L 92.546875 115.117188 L 95.128906 109.597656 C 95.265625 109.800781 95.414062 110.03125 95.59375 110.304688 C 95.738281 110.53125 95.90625 110.785156 96.089844 111.066406 C 96.785156 112.121094 97.925781 112.722656 99.132812 112.734375 Z M 111.433594 114.667969 C 111.195312 114.628906 110.960938 114.738281 110.839844 114.945312 L 109.519531 117.199219 L 107.429688 112.730469 C 108.605469 112.691406 109.710938 112.097656 110.386719 111.066406 C 110.574219 110.785156 110.738281 110.53125 110.886719 110.304688 C 111.085938 109.996094 111.25 109.742188 111.398438 109.527344 L 114.015625 115.117188 Z M 117.191406 97.070312 C 117.039062 97.367188 116.902344 97.632812 116.78125 97.875 C 115.644531 100.078125 115.617188 100.214844 115.929688 102.671875 C 115.960938 102.9375 116 103.234375 116.039062 103.570312 C 116.175781 104.714844 115.578125 105.746094 114.511719 106.199219 C 114.203125 106.332031 113.925781 106.449219 113.675781 106.550781 C 111.378906 107.515625 111.273438 107.601562 109.921875 109.683594 C 109.777344 109.910156 109.613281 110.160156 109.429688 110.441406 C 108.792969 111.40625 107.667969 111.816406 106.558594 111.480469 C 106.234375 111.382812 105.949219 111.296875 105.691406 111.21875 C 104.5 110.851562 103.871094 110.667969 103.238281 110.667969 C 102.609375 110.667969 101.980469 110.851562 100.789062 111.21875 C 100.53125 111.296875 100.246094 111.382812 99.921875 111.480469 C 98.8125 111.816406 97.683594 111.40625 97.050781 110.441406 C 96.867188 110.160156 96.703125 109.910156 96.554688 109.683594 C 95.203125 107.601562 95.097656 107.515625 92.804688 106.550781 C 92.554688 106.449219 92.277344 106.332031 91.964844 106.199219 C 90.902344 105.746094 90.300781 104.714844 90.4375 103.570312 C 90.480469 103.234375 90.515625 102.9375 90.550781 102.671875 C 90.859375 100.214844 90.835938 100.078125 89.699219 97.875 C 89.578125 97.632812 89.4375 97.367188 89.285156 97.070312 C 88.765625 96.039062 88.972656 94.867188 89.816406 94.078125 C 90.0625 93.847656 90.285156 93.644531 90.480469 93.460938 C 92.308594 91.777344 92.378906 91.65625 92.933594 89.242188 C 92.992188 88.980469 93.058594 88.6875 93.136719 88.359375 C 93.398438 87.238281 94.320312 86.472656 95.476562 86.40625 C 95.8125 86.390625 96.113281 86.375 96.382812 86.359375 C 98.871094 86.238281 99 86.191406 100.988281 84.695312 C 101.203125 84.53125 101.441406 84.351562 101.710938 84.148438 C 102.640625 83.460938 103.839844 83.460938 104.765625 84.148438 C 105.039062 84.351562 105.277344 84.53125 105.492188 84.695312 C 107.476562 86.191406 107.609375 86.238281 110.097656 86.359375 C 110.367188 86.375 110.667969 86.390625 111.003906 86.40625 C 112.160156 86.472656 113.078125 87.238281 113.34375 88.359375 C 113.421875 88.6875 113.488281 88.980469 113.546875 89.242188 C 114.101562 91.65625 114.171875 91.777344 115.996094 93.460938 C 116.195312 93.644531 116.414062 93.847656 116.664062 94.078125 C 117.507812 94.867188 117.714844 96.039062 117.191406 97.070312 Z M 103.238281 88.132812 C 97.980469 88.132812 93.703125 92.386719 93.703125 97.613281 C 93.703125 102.84375 97.980469 107.097656 103.238281 107.097656 C 108.496094 107.097656 112.773438 102.84375 112.773438 97.613281 C 112.773438 92.386719 108.496094 88.132812 103.238281 88.132812 Z M 97.625 103.808594 C 98.058594 101.074219 100.421875 99.046875 103.238281 99.046875 C 106.054688 99.046875 108.421875 101.074219 108.855469 103.808594 C 107.367188 105.144531 105.398438 105.957031 103.238281 105.957031 C 101.082031 105.957031 99.113281 105.144531 97.625 103.808594 Z M 103.238281 97.902344 C 101.8125 97.902344 100.648438 96.75 100.648438 95.328125 C 100.648438 93.90625 101.8125 92.75 103.238281 92.75 C 104.667969 92.75 105.832031 93.90625 105.832031 95.328125 C 105.832031 96.75 104.667969 97.902344 103.238281 97.902344 Z M 109.800781 102.804688 C 109.1875 100.675781 107.566406 99 105.5 98.285156 C 106.398438 97.605469 106.976562 96.53125 106.976562 95.328125 C 106.976562 93.277344 105.300781 91.609375 103.238281 91.609375 C 101.179688 91.609375 99.5 93.277344 99.5 95.328125 C 99.5 96.53125 100.082031 97.605469 100.976562 98.285156 C 98.914062 99 97.292969 100.675781 96.675781 102.804688 C 95.535156 101.378906 94.851562 99.574219 94.851562 97.613281 C 94.851562 93.015625 98.613281 89.273438 103.238281 89.273438 C 107.863281 89.273438 111.628906 93.015625 111.628906 97.613281 C 111.628906 99.574219 110.945312 101.378906 109.800781 102.804688 Z M 109.800781 102.804688 " fill-opacity="1" fill-rule="nonzero"/></g><g clip-path="url(#18e4c38849)"><path fill="#ffffff" d="M 88.261719 22.28125 C 86.828125 22.28125 85.4375 22.542969 84.117188 23.0625 C 81.71875 21.046875 78.636719 19.832031 75.273438 19.832031 C 71.910156 19.832031 68.824219 21.046875 66.425781 23.0625 C 65.105469 22.542969 63.714844 22.28125 62.28125 22.28125 C 56.011719 22.28125 50.914062 27.40625 50.914062 33.707031 C 50.914062 40.007812 56.011719 45.132812 62.28125 45.132812 C 63.714844 45.132812 65.105469 44.867188 66.425781 44.347656 C 68.824219 46.363281 71.910156 47.582031 75.273438 47.582031 C 78.632812 47.582031 81.71875 46.363281 84.117188 44.347656 C 85.4375 44.867188 86.832031 45.132812 88.261719 45.132812 C 94.53125 45.132812 99.628906 40.007812 99.628906 33.707031 C 99.628906 27.40625 94.53125 22.28125 88.261719 22.28125 Z M 61.566406 35.339844 L 60.753906 33.707031 L 61.566406 32.074219 C 61.503906 32.609375 61.46875 33.152344 61.46875 33.707031 C 61.46875 34.257812 61.503906 34.804688 61.566406 35.339844 Z M 62.652344 28.085938 C 62.539062 28.027344 62.414062 27.992188 62.28125 27.992188 C 61.972656 27.992188 61.691406 28.167969 61.554688 28.445312 L 59.117188 33.339844 C 59.003906 33.570312 59.003906 33.839844 59.117188 34.070312 L 61.554688 38.96875 C 61.691406 39.246094 61.972656 39.417969 62.28125 39.417969 C 62.414062 39.417969 62.539062 39.386719 62.652344 39.324219 C 62.78125 39.617188 62.921875 39.90625 63.070312 40.1875 C 62.808594 40.21875 62.546875 40.234375 62.28125 40.234375 C 58.699219 40.234375 55.785156 37.304688 55.785156 33.707031 C 55.785156 30.105469 58.699219 27.175781 62.28125 27.175781 C 62.546875 27.175781 62.808594 27.195312 63.070312 27.226562 C 62.921875 27.507812 62.78125 27.792969 62.652344 28.085938 Z M 52.539062 33.707031 C 52.539062 28.304688 56.910156 23.910156 62.28125 23.910156 C 63.25 23.910156 64.195312 24.050781 65.105469 24.328125 C 64.703125 24.769531 64.332031 25.234375 63.988281 25.726562 C 63.429688 25.605469 62.855469 25.542969 62.28125 25.542969 C 57.804688 25.542969 54.160156 29.207031 54.160156 33.707031 C 54.160156 38.207031 57.804688 41.867188 62.28125 41.867188 C 62.855469 41.867188 63.429688 41.808594 63.988281 41.6875 C 64.332031 42.175781 64.703125 42.640625 65.105469 43.082031 C 64.195312 43.359375 63.25 43.5 62.28125 43.5 C 56.910156 43.5 52.539062 39.105469 52.539062 33.707031 Z M 63.09375 33.707031 C 63.09375 26.957031 68.554688 21.464844 75.273438 21.464844 C 81.988281 21.464844 87.449219 26.957031 87.449219 33.707031 C 87.449219 40.457031 81.988281 45.949219 75.273438 45.949219 C 68.554688 45.949219 63.09375 40.457031 63.09375 33.707031 Z M 90.699219 34.523438 C 91.144531 34.523438 91.511719 34.886719 91.511719 35.339844 C 91.511719 35.789062 91.144531 36.15625 90.699219 36.15625 C 90.25 36.15625 89.886719 35.789062 89.886719 35.339844 C 89.886719 34.886719 90.25 34.523438 90.699219 34.523438 Z M 89.070312 33.515625 C 89.070312 33.261719 89.058594 33.011719 89.042969 32.761719 C 89.058594 32.753906 89.074219 32.75 89.089844 32.742188 L 89.292969 33.339844 C 89.21875 33.394531 89.140625 33.453125 89.070312 33.515625 Z M 88.816406 31.035156 C 88.726562 30.566406 88.609375 30.105469 88.472656 29.652344 C 88.820312 29.746094 89.074219 30.066406 89.074219 30.441406 C 89.074219 30.675781 88.976562 30.886719 88.816406 31.035156 Z M 88.730469 36.78125 C 89.175781 37.390625 89.890625 37.785156 90.699219 37.785156 C 92.042969 37.785156 93.132812 36.6875 93.132812 35.339844 C 93.132812 34.042969 92.128906 32.980469 90.859375 32.894531 L 90.414062 31.585938 C 90.59375 31.246094 90.699219 30.855469 90.699219 30.441406 C 90.699219 29.089844 89.605469 27.992188 88.261719 27.992188 C 88.128906 27.992188 87.996094 28.003906 87.863281 28.027344 C 87.742188 27.753906 87.613281 27.488281 87.472656 27.226562 C 87.734375 27.195312 87.996094 27.175781 88.261719 27.175781 C 91.84375 27.175781 94.757812 30.105469 94.757812 33.707031 C 94.757812 37.304688 91.84375 40.234375 88.261719 40.234375 C 87.996094 40.234375 87.734375 40.21875 87.472656 40.1875 C 88.03125 39.125 88.460938 37.984375 88.730469 36.78125 Z M 88.261719 43.5 C 87.292969 43.5 86.347656 43.359375 85.4375 43.082031 C 85.839844 42.640625 86.210938 42.175781 86.554688 41.6875 C 87.113281 41.808594 87.6875 41.867188 88.261719 41.867188 C 92.738281 41.867188 96.382812 38.207031 96.382812 33.707031 C 96.382812 29.207031 92.738281 25.542969 88.261719 25.542969 C 87.6875 25.542969 87.113281 25.605469 86.554688 25.726562 C 86.214844 25.234375 85.839844 24.769531 85.4375 24.332031 C 86.347656 24.050781 87.292969 23.910156 88.261719 23.910156 C 93.636719 23.910156 98.003906 28.304688 98.003906 33.707031 C 98.003906 39.105469 93.636719 43.5 88.261719 43.5 Z M 88.261719 43.5 " fill-opacity="1" fill-rule="nonzero"/></g><path fill="#ffffff" d="M 75.273438 23.09375 C 69.453125 23.09375 64.714844 27.855469 64.714844 33.707031 C 64.714844 39.554688 69.453125 44.316406 75.273438 44.316406 C 81.089844 44.316406 85.828125 39.554688 85.828125 33.707031 C 85.828125 27.855469 81.089844 23.09375 75.273438 23.09375 Z M 75.273438 42.683594 C 71.492188 42.683594 68.253906 40.3125 66.953125 36.96875 L 69.589844 36.96875 C 70.035156 36.96875 70.398438 36.605469 70.398438 36.15625 C 70.398438 35.703125 70.035156 35.339844 69.589844 35.339844 L 66.488281 35.339844 C 66.390625 34.808594 66.339844 34.261719 66.339844 33.707031 L 67.964844 33.707031 C 68.414062 33.707031 68.777344 33.339844 68.777344 32.890625 L 68.777344 32.074219 L 69.589844 32.074219 C 70.035156 32.074219 70.398438 31.707031 70.398438 31.257812 C 70.398438 30.808594 70.035156 30.441406 69.589844 30.441406 L 67.964844 30.441406 C 67.515625 30.441406 67.152344 30.808594 67.152344 31.257812 L 67.152344 32.074219 L 66.488281 32.074219 C 67.253906 27.898438 70.902344 24.726562 75.273438 24.726562 C 79.351562 24.726562 82.800781 27.492188 83.863281 31.257812 L 81.765625 31.257812 C 81.320312 31.257812 80.957031 31.621094 80.957031 32.074219 C 80.957031 32.523438 81.320312 32.890625 81.765625 32.890625 L 84.164062 32.890625 C 84.191406 33.160156 84.203125 33.429688 84.203125 33.707031 C 84.203125 33.980469 84.191406 34.253906 84.164062 34.523438 L 81.867188 34.523438 C 81.421875 34.523438 81.054688 34.886719 81.054688 35.339844 L 81.054688 36.96875 C 81.054688 37.421875 81.421875 37.785156 81.867188 37.785156 C 82.316406 37.785156 82.679688 37.421875 82.679688 36.96875 L 82.679688 36.15625 L 83.863281 36.15625 C 82.800781 39.917969 79.351562 42.683594 75.273438 42.683594 Z M 75.273438 42.683594 " fill-opacity="1" fill-rule="nonzero"/><path fill="#ffffff" d="M 80.144531 31.257812 C 80.144531 29.738281 79.105469 28.460938 77.707031 28.097656 L 77.707031 27.175781 C 77.707031 26.726562 77.34375 26.359375 76.894531 26.359375 C 76.445312 26.359375 76.082031 26.726562 76.082031 27.175781 L 76.082031 27.992188 L 74.460938 27.992188 L 74.460938 27.175781 C 74.460938 26.726562 74.097656 26.359375 73.648438 26.359375 C 73.199219 26.359375 72.835938 26.726562 72.835938 27.175781 L 72.835938 27.992188 L 71.210938 27.992188 C 70.761719 27.992188 70.398438 28.359375 70.398438 28.808594 C 70.398438 29.257812 70.761719 29.625 71.210938 29.625 L 72.023438 29.625 L 72.023438 37.785156 L 71.210938 37.785156 C 70.761719 37.785156 70.398438 38.152344 70.398438 38.601562 C 70.398438 39.054688 70.761719 39.417969 71.210938 39.417969 L 72.835938 39.417969 L 72.835938 40.234375 C 72.835938 40.6875 73.199219 41.050781 73.648438 41.050781 C 74.097656 41.050781 74.460938 40.6875 74.460938 40.234375 L 74.460938 39.417969 L 76.082031 39.417969 L 76.082031 40.234375 C 76.082031 40.6875 76.445312 41.050781 76.894531 41.050781 C 77.34375 41.050781 77.707031 40.6875 77.707031 40.234375 L 77.707031 39.316406 C 79.105469 38.953125 80.144531 37.671875 80.144531 36.15625 C 80.144531 35.179688 79.714844 34.304688 79.039062 33.707031 C 79.714844 33.105469 80.144531 32.230469 80.144531 31.257812 Z M 78.519531 36.15625 C 78.519531 37.054688 77.789062 37.785156 76.894531 37.785156 L 73.648438 37.785156 L 73.648438 34.523438 L 76.894531 34.523438 C 77.789062 34.523438 78.519531 35.253906 78.519531 36.15625 Z M 73.648438 32.890625 L 73.648438 29.625 L 76.894531 29.625 C 77.789062 29.625 78.519531 30.355469 78.519531 31.257812 C 78.519531 32.15625 77.789062 32.890625 76.894531 32.890625 Z M 73.648438 32.890625 " fill-opacity="1" fill-rule="nonzero"/><path fill="#ffffff" d="M 105.578125 68.335938 L 104.84375 68.335938 C 104.632812 68.335938 104.441406 68.25 104.300781 68.109375 L 104.28125 68.089844 C 104.15625 67.953125 104.078125 67.773438 104.078125 67.574219 C 104.078125 67.296875 103.851562 67.074219 103.570312 67.074219 C 103.292969 67.074219 103.066406 67.296875 103.066406 67.574219 C 103.066406 68.039062 103.253906 68.464844 103.558594 68.78125 L 103.589844 68.816406 C 103.882812 69.105469 104.273438 69.292969 104.707031 69.328125 L 104.707031 69.890625 C 104.707031 70.167969 104.933594 70.390625 105.210938 70.390625 C 105.492188 70.390625 105.714844 70.167969 105.714844 69.890625 L 105.714844 69.328125 C 106.152344 69.292969 106.542969 69.105469 106.835938 68.816406 C 107.15625 68.496094 107.355469 68.054688 107.355469 67.574219 C 107.355469 67.089844 107.15625 66.648438 106.835938 66.328125 L 106.832031 66.328125 C 106.511719 66.007812 106.066406 65.8125 105.578125 65.8125 L 104.84375 65.8125 C 104.632812 65.8125 104.441406 65.726562 104.300781 65.585938 L 104.28125 65.566406 C 104.15625 65.429688 104.078125 65.25 104.078125 65.050781 C 104.078125 64.839844 104.164062 64.648438 104.300781 64.511719 C 104.441406 64.375 104.632812 64.289062 104.84375 64.289062 L 105.578125 64.289062 C 105.789062 64.289062 105.984375 64.375 106.121094 64.511719 C 106.261719 64.648438 106.347656 64.839844 106.347656 65.050781 C 106.347656 65.324219 106.574219 65.546875 106.851562 65.546875 C 107.128906 65.546875 107.355469 65.324219 107.355469 65.050781 C 107.355469 64.566406 107.15625 64.125 106.835938 63.804688 L 106.832031 63.804688 C 106.542969 63.515625 106.148438 63.328125 105.714844 63.292969 L 105.714844 62.730469 C 105.714844 62.453125 105.492188 62.230469 105.210938 62.230469 C 104.933594 62.230469 104.707031 62.453125 104.707031 62.730469 L 104.707031 63.292969 C 104.273438 63.328125 103.882812 63.515625 103.589844 63.804688 C 103.269531 64.125 103.066406 64.566406 103.066406 65.046875 C 103.066406 65.515625 103.253906 65.941406 103.558594 66.257812 L 103.589844 66.292969 C 103.910156 66.613281 104.355469 66.808594 104.84375 66.808594 L 105.578125 66.808594 C 105.792969 66.808594 105.984375 66.894531 106.121094 67.03125 C 106.261719 67.171875 106.347656 67.363281 106.347656 67.570312 C 106.347656 67.78125 106.261719 67.972656 106.121094 68.109375 C 105.980469 68.25 105.789062 68.335938 105.578125 68.335938 Z M 105.578125 68.335938 " fill-opacity="1" fill-rule="nonzero"/><path fill="#ffffff" d="M 105.210938 72.648438 C 106.976562 72.648438 108.574219 71.9375 109.730469 70.792969 C 110.886719 69.644531 111.605469 68.0625 111.605469 66.3125 C 111.605469 64.5625 110.886719 62.976562 109.730469 61.832031 C 108.574219 60.683594 106.976562 59.972656 105.210938 59.972656 C 103.445312 59.972656 101.847656 60.683594 100.691406 61.832031 C 99.535156 62.976562 98.820312 64.5625 98.820312 66.3125 C 98.820312 68.0625 99.535156 69.644531 100.691406 70.792969 C 101.847656 71.9375 103.445312 72.648438 105.210938 72.648438 Z M 101.5 62.632812 C 102.449219 61.6875 103.761719 61.105469 105.210938 61.105469 C 106.660156 61.105469 107.972656 61.691406 108.925781 62.632812 C 109.875 63.574219 110.460938 64.875 110.460938 66.3125 C 110.460938 67.746094 109.871094 69.050781 108.925781 69.992188 C 107.972656 70.933594 106.660156 71.515625 105.210938 71.515625 C 103.761719 71.515625 102.449219 70.929688 101.5 69.992188 C 100.550781 69.050781 99.964844 67.746094 99.964844 66.3125 C 99.960938 64.875 100.550781 63.574219 101.5 62.632812 Z M 101.5 62.632812 " fill-opacity="1" fill-rule="nonzero"/><g clip-path="url(#e29e92a615)"><path fill="#ffffff" d="M 125.671875 70.988281 L 122.925781 57.816406 L 122.925781 57.8125 C 122.925781 57.730469 122.910156 57.65625 122.878906 57.585938 L 122.203125 54.34375 C 122.140625 54.039062 121.839844 53.84375 121.53125 53.90625 L 105.222656 57.246094 L 88.070312 57.246094 C 87.753906 57.246094 87.496094 57.5 87.496094 57.8125 L 87.496094 74.808594 C 87.496094 75.121094 87.753906 75.375 88.070312 75.375 L 90.414062 75.375 L 90.980469 78.09375 C 91.042969 78.398438 91.34375 78.597656 91.652344 78.535156 L 107.070312 75.375 L 122.355469 75.375 C 122.667969 75.375 122.925781 75.121094 122.925781 74.808594 L 122.925781 72.128906 L 125.226562 71.65625 C 125.535156 71.59375 125.734375 71.296875 125.671875 70.988281 Z M 121.203125 55.125 L 121.644531 57.246094 L 110.847656 57.246094 Z M 91.980469 77.3125 L 91.574219 75.375 L 101.445312 75.375 Z M 121.785156 74.242188 L 88.640625 74.242188 L 88.640625 58.378906 L 121.785156 58.378906 Z M 122.925781 70.976562 L 122.925781 63.394531 L 124.441406 70.664062 Z M 122.925781 70.976562 " fill-opacity="1" fill-rule="nonzero"/></g><path fill="#ffffff" d="M 91.003906 63.824219 C 91.320312 63.824219 91.574219 63.570312 91.574219 63.257812 L 91.574219 61.136719 L 93.714844 61.136719 C 94.03125 61.136719 94.289062 60.882812 94.289062 60.570312 C 94.289062 60.257812 94.03125 60.003906 93.714844 60.003906 L 91.003906 60.003906 C 90.691406 60.003906 90.433594 60.257812 90.433594 60.570312 L 90.433594 63.257812 C 90.433594 63.570312 90.6875 63.824219 91.003906 63.824219 Z M 91.003906 63.824219 " fill-opacity="1" fill-rule="nonzero"/><path fill="#ffffff" d="M 93.714844 71.484375 L 91.574219 71.484375 L 91.574219 69.363281 C 91.574219 69.050781 91.320312 68.796875 91.003906 68.796875 C 90.691406 68.796875 90.433594 69.050781 90.433594 69.363281 L 90.433594 72.050781 C 90.433594 72.363281 90.691406 72.617188 91.003906 72.617188 L 93.714844 72.617188 C 94.03125 72.617188 94.289062 72.363281 94.289062 72.050781 C 94.289062 71.738281 94.03125 71.484375 93.714844 71.484375 Z M 93.714844 71.484375 " fill-opacity="1" fill-rule="nonzero"/><path fill="#ffffff" d="M 116.707031 61.136719 L 118.847656 61.136719 L 118.847656 63.257812 C 118.847656 63.570312 119.101562 63.824219 119.417969 63.824219 C 119.734375 63.824219 119.988281 63.570312 119.988281 63.257812 L 119.988281 60.570312 C 119.988281 60.257812 119.734375 60.003906 119.417969 60.003906 L 116.707031 60.003906 C 116.390625 60.003906 116.136719 60.257812 116.136719 60.570312 C 116.136719 60.882812 116.390625 61.136719 116.707031 61.136719 Z M 116.707031 61.136719 " fill-opacity="1" fill-rule="nonzero"/><path fill="#ffffff" d="M 116.707031 72.617188 L 119.417969 72.617188 C 119.734375 72.617188 119.988281 72.367188 119.988281 72.054688 L 119.988281 69.363281 C 119.988281 69.050781 119.734375 68.800781 119.417969 68.800781 C 119.101562 68.800781 118.847656 69.050781 118.847656 69.363281 L 118.847656 71.488281 L 116.707031 71.488281 C 116.390625 71.488281 116.136719 71.742188 116.136719 72.054688 C 116.136719 72.367188 116.390625 72.617188 116.707031 72.617188 Z M 116.707031 72.617188 " fill-opacity="1" fill-rule="nonzero"/></svg>