<svg xmlns="http://www.w3.org/2000/svg" xmlns:xlink="http://www.w3.org/1999/xlink" width="200" zoomAndPan="magnify" viewBox="0 0 150 149.999998" height="200" preserveAspectRatio="xMidYMid meet" version="1.0"><defs><clipPath id="b59726a00d"><path d="M 49.933594 15 L 100.183594 15 L 100.183594 63 L 49.933594 63 Z M 49.933594 15 " clip-rule="nonzero"/></clipPath><clipPath id="1d5290fe6f"><path d="M 72.308594 17.328125 L 77.558594 17.328125 L 77.558594 25.578125 L 72.308594 25.578125 Z M 72.308594 17.328125 " clip-rule="nonzero"/></clipPath><clipPath id="d239473eb8"><path d="M 26.820312 64.960938 L 122.820312 64.960938 L 122.820312 130.210938 L 26.820312 130.210938 Z M 26.820312 64.960938 " clip-rule="nonzero"/></clipPath></defs><g clip-path="url(#b59726a00d)"><path fill="#0d6591" d="M 58.609375 31.722656 L 62.699219 31.722656 L 63.332031 53.714844 L 58.058594 53.714844 L 58.609375 31.71875 Z M 54.753906 54.507812 L 95.355469 54.507812 L 95.355469 57.335938 L 97.789062 57.335938 L 97.789062 60.167969 L 100.148438 60.167969 L 100.148438 62.996094 L 49.960938 62.996094 L 49.960938 60.167969 L 52.320312 60.167969 L 52.320312 57.335938 L 54.753906 57.335938 Z M 97.472656 25.578125 L 75.054688 15 L 52.632812 25.578125 L 52.632812 27.308594 L 97.472656 27.308594 Z M 56.957031 28.101562 L 93.152344 28.101562 L 93.152344 30.929688 L 56.957031 30.929688 Z M 87.328125 31.722656 L 91.421875 31.722656 L 92.050781 53.71875 L 86.777344 53.71875 Z M 77.753906 31.722656 L 81.847656 31.722656 L 82.476562 53.714844 L 77.203125 53.714844 L 77.753906 31.71875 Z M 68.183594 31.722656 L 72.273438 31.722656 L 72.902344 53.71875 L 67.632812 53.71875 Z M 68.183594 31.722656 " fill-opacity="1" fill-rule="nonzero"/></g><g clip-path="url(#1d5290fe6f)"><path fill="#ffffff" d="M 77.214844 24.132812 C 77.210938 24.132812 77.011719 24.199219 76.777344 24.265625 C 76.351562 24.390625 76.234375 24.398438 76.226562 24.398438 C 76.035156 24.410156 75.636719 24.328125 75.316406 24.257812 C 74.933594 24.179688 74.574219 24.105469 74.28125 24.105469 C 74.226562 24.105469 74.160156 24.105469 74.085938 24.113281 C 74.445312 23.484375 74.527344 23.203125 74.554688 23.027344 C 74.601562 22.738281 74.570312 22.398438 74.503906 22.042969 L 75.972656 22.042969 L 75.972656 20.863281 L 74.203125 20.863281 C 74.160156 20.703125 74.121094 20.558594 74.101562 20.449219 C 74.058594 20.25 74.015625 19.839844 74 19.660156 C 74.011719 19.023438 74.515625 18.507812 75.128906 18.507812 C 75.75 18.507812 76.257812 19.035156 76.257812 19.6875 L 77.386719 19.6875 C 77.386719 19.367188 77.324219 19.058594 77.207031 18.769531 C 77.09375 18.488281 76.929688 18.238281 76.722656 18.019531 C 76.515625 17.804688 76.277344 17.632812 76.007812 17.515625 C 75.726562 17.394531 75.433594 17.332031 75.128906 17.332031 C 74.824219 17.332031 74.527344 17.394531 74.25 17.515625 C 73.980469 17.632812 73.738281 17.804688 73.53125 18.019531 C 73.324219 18.238281 73.164062 18.488281 73.046875 18.769531 C 72.929688 19.058594 72.871094 19.367188 72.871094 19.6875 L 72.871094 19.714844 L 72.875 19.742188 C 72.878906 19.808594 72.933594 20.378906 72.996094 20.691406 C 73.007812 20.746094 73.019531 20.804688 73.035156 20.863281 L 72.308594 20.863281 L 72.308594 22.042969 L 73.347656 22.042969 C 73.363281 22.109375 73.375 22.179688 73.390625 22.242188 C 73.460938 22.601562 73.453125 22.761719 73.445312 22.824219 C 73.441406 22.835938 73.390625 23.066406 72.921875 23.84375 C 72.8125 24.023438 72.707031 24.191406 72.621094 24.328125 C 72.542969 24.34375 72.414062 24.367188 72.414062 24.367188 L 72.414062 25.566406 C 72.964844 25.457031 73.957031 25.28125 74.28125 25.28125 C 74.460938 25.28125 74.796875 25.351562 75.097656 25.414062 C 75.496094 25.5 75.878906 25.578125 76.195312 25.578125 C 76.226562 25.578125 76.257812 25.578125 76.285156 25.574219 C 76.390625 25.570312 76.585938 25.546875 77.082031 25.402344 C 77.335938 25.328125 77.546875 25.257812 77.558594 25.253906 L 77.214844 24.132812 " fill-opacity="1" fill-rule="nonzero"/></g><g clip-path="url(#d239473eb8)"><path fill="#0d6591" d="M 63.691406 81.832031 C 63.691406 75.667969 68.671875 70.667969 74.820312 70.667969 C 80.964844 70.667969 85.945312 75.667969 85.945312 81.832031 C 85.945312 88 80.964844 92.996094 74.820312 92.996094 C 68.671875 92.996094 63.691406 88 63.691406 81.832031 Z M 89.789062 97.960938 L 59.847656 97.960938 C 57.347656 97.960938 55.324219 99.992188 55.324219 102.496094 L 55.324219 130.214844 L 61.507812 130.214844 L 61.507812 109.714844 C 61.507812 109.160156 61.953125 108.710938 62.507812 108.710938 C 63.058594 108.710938 63.503906 109.160156 63.503906 109.714844 L 63.503906 130.214844 L 86.132812 130.214844 L 86.132812 109.714844 C 86.132812 109.160156 86.578125 108.710938 87.132812 108.710938 C 87.683594 108.710938 88.132812 109.160156 88.132812 109.714844 L 88.132812 130.214844 L 94.3125 130.214844 L 94.3125 102.496094 C 94.3125 99.992188 92.289062 97.960938 89.789062 97.960938 Z M 103.257812 87.292969 C 109.402344 87.292969 114.386719 82.292969 114.386719 76.125 C 114.386719 69.960938 109.402344 64.960938 103.257812 64.960938 C 97.113281 64.960938 92.128906 69.960938 92.128906 76.125 C 92.128906 82.292969 97.113281 87.292969 103.257812 87.292969 Z M 118.230469 92.253906 L 88.285156 92.253906 C 86.523438 92.253906 85.011719 93.277344 84.265625 94.753906 L 89.789062 94.753906 C 94.046875 94.753906 97.507812 98.226562 97.507812 102.496094 L 97.507812 124.507812 L 114.570312 124.507812 L 114.570312 104.007812 C 114.570312 103.453125 115.019531 103.003906 115.570312 103.003906 C 116.121094 103.003906 116.570312 103.453125 116.570312 104.007812 L 116.570312 124.507812 L 122.75 124.507812 L 122.75 96.792969 C 122.75 94.285156 120.726562 92.253906 118.230469 92.253906 Z M 46.378906 87.292969 C 52.527344 87.292969 57.507812 82.292969 57.507812 76.125 C 57.507812 69.960938 52.527344 64.960938 46.378906 64.960938 C 40.234375 64.960938 35.253906 69.960938 35.253906 76.125 C 35.253906 82.292969 40.234375 87.292969 46.378906 87.292969 Z M 65.375 94.753906 C 64.628906 93.277344 63.117188 92.253906 61.351562 92.253906 L 31.410156 92.253906 C 28.910156 92.253906 26.886719 94.285156 26.886719 96.792969 L 26.886719 124.507812 L 33.070312 124.507812 L 33.070312 104.007812 C 33.070312 103.453125 33.515625 103.003906 34.066406 103.003906 C 34.621094 103.003906 35.066406 103.453125 35.066406 104.007812 L 35.066406 124.507812 L 52.128906 124.507812 L 52.128906 102.496094 C 52.128906 98.226562 55.589844 94.753906 59.847656 94.753906 Z M 65.375 94.753906 " fill-opacity="1" fill-rule="nonzero"/></g></svg>