<svg xmlns="http://www.w3.org/2000/svg" xmlns:xlink="http://www.w3.org/1999/xlink" width="200" zoomAndPan="magnify" viewBox="0 0 150 149.999998" height="200" preserveAspectRatio="xMidYMid meet" version="1.0"><defs><clipPath id="b8342206e4"><path d="M 10.007812 10.007812 L 140.507812 10.007812 L 140.507812 140.507812 L 10.007812 140.507812 Z M 10.007812 10.007812 " clip-rule="nonzero"/></clipPath><clipPath id="c5b3887204"><path d="M 25.519531 30.714844 L 124.519531 30.714844 L 124.519531 119.214844 L 25.519531 119.214844 Z M 25.519531 30.714844 " clip-rule="nonzero"/></clipPath></defs><g clip-path="url(#b8342206e4)"><path fill="#0d6591" d="M 140.507812 75.257812 C 140.507812 76.328125 140.484375 77.394531 140.429688 78.460938 C 140.378906 79.527344 140.300781 80.59375 140.195312 81.65625 C 140.089844 82.71875 139.960938 83.777344 139.804688 84.832031 C 139.648438 85.890625 139.464844 86.941406 139.253906 87.988281 C 139.046875 89.035156 138.8125 90.078125 138.554688 91.113281 C 138.292969 92.148438 138.011719 93.179688 137.699219 94.199219 C 137.390625 95.222656 137.054688 96.234375 136.695312 97.242188 C 136.335938 98.246094 135.953125 99.242188 135.542969 100.230469 C 135.132812 101.214844 134.703125 102.191406 134.246094 103.15625 C 133.789062 104.121094 133.308594 105.078125 132.804688 106.019531 C 132.300781 106.960938 131.773438 107.890625 131.226562 108.804688 C 130.675781 109.71875 130.105469 110.621094 129.511719 111.511719 C 128.917969 112.398438 128.304688 113.269531 127.667969 114.128906 C 127.03125 114.988281 126.375 115.828125 125.699219 116.652344 C 125.019531 117.480469 124.324219 118.289062 123.605469 119.078125 C 122.890625 119.871094 122.152344 120.644531 121.398438 121.398438 C 120.644531 122.152344 119.871094 122.890625 119.078125 123.605469 C 118.289062 124.324219 117.480469 125.019531 116.652344 125.699219 C 115.828125 126.375 114.988281 127.03125 114.128906 127.667969 C 113.269531 128.304688 112.398438 128.917969 111.511719 129.511719 C 110.621094 130.105469 109.71875 130.675781 108.804688 131.226562 C 107.890625 131.773438 106.960938 132.300781 106.019531 132.804688 C 105.078125 133.308594 104.121094 133.789062 103.15625 134.246094 C 102.191406 134.703125 101.214844 135.132812 100.230469 135.542969 C 99.242188 135.953125 98.246094 136.335938 97.242188 136.695312 C 96.234375 137.054688 95.222656 137.390625 94.199219 137.699219 C 93.179688 138.011719 92.148438 138.292969 91.113281 138.554688 C 90.078125 138.8125 89.035156 139.046875 87.988281 139.253906 C 86.941406 139.464844 85.890625 139.648438 84.832031 139.804688 C 83.777344 139.960938 82.71875 140.089844 81.65625 140.195312 C 80.59375 140.300781 79.527344 140.378906 78.460938 140.429688 C 77.394531 140.484375 76.328125 140.507812 75.257812 140.507812 C 74.191406 140.507812 73.125 140.484375 72.058594 140.429688 C 70.992188 140.378906 69.925781 140.300781 68.863281 140.195312 C 67.800781 140.089844 66.742188 139.960938 65.683594 139.804688 C 64.628906 139.648438 63.578125 139.464844 62.53125 139.253906 C 61.484375 139.046875 60.441406 138.8125 59.40625 138.554688 C 58.371094 138.292969 57.339844 138.011719 56.320312 137.699219 C 55.296875 137.390625 54.28125 137.054688 53.277344 136.695312 C 52.273438 136.335938 51.277344 135.953125 50.289062 135.542969 C 49.304688 135.132812 48.328125 134.703125 47.363281 134.246094 C 46.394531 133.789062 45.441406 133.308594 44.5 132.804688 C 43.558594 132.300781 42.628906 131.773438 41.714844 131.226562 C 40.796875 130.675781 39.898438 130.105469 39.007812 129.511719 C 38.121094 128.917969 37.246094 128.304688 36.390625 127.667969 C 35.53125 127.03125 34.691406 126.375 33.867188 125.699219 C 33.039062 125.019531 32.230469 124.324219 31.441406 123.605469 C 30.648438 122.890625 29.875 122.152344 29.121094 121.398438 C 28.367188 120.644531 27.628906 119.871094 26.914062 119.078125 C 26.195312 118.289062 25.5 117.480469 24.820312 116.652344 C 24.144531 115.828125 23.488281 114.988281 22.851562 114.128906 C 22.214844 113.269531 21.597656 112.398438 21.007812 111.511719 C 20.414062 110.621094 19.839844 109.71875 19.292969 108.804688 C 18.742188 107.890625 18.21875 106.960938 17.714844 106.019531 C 17.210938 105.078125 16.730469 104.121094 16.273438 103.15625 C 15.816406 102.191406 15.386719 101.214844 14.976562 100.230469 C 14.566406 99.242188 14.183594 98.246094 13.824219 97.242188 C 13.464844 96.234375 13.128906 95.222656 12.820312 94.199219 C 12.507812 93.179688 12.222656 92.148438 11.964844 91.113281 C 11.707031 90.078125 11.472656 89.035156 11.261719 87.988281 C 11.054688 86.941406 10.871094 85.890625 10.714844 84.832031 C 10.558594 83.777344 10.429688 82.71875 10.324219 81.65625 C 10.21875 80.59375 10.140625 79.527344 10.089844 78.460938 C 10.035156 77.394531 10.007812 76.328125 10.007812 75.257812 C 10.007812 74.191406 10.035156 73.125 10.089844 72.058594 C 10.140625 70.992188 10.21875 69.925781 10.324219 68.863281 C 10.429688 67.800781 10.558594 66.742188 10.714844 65.683594 C 10.871094 64.628906 11.054688 63.578125 11.261719 62.53125 C 11.472656 61.484375 11.707031 60.441406 11.964844 59.40625 C 12.222656 58.371094 12.507812 57.339844 12.820312 56.320312 C 13.128906 55.296875 13.464844 54.28125 13.824219 53.277344 C 14.183594 52.273438 14.566406 51.277344 14.976562 50.289062 C 15.386719 49.304688 15.816406 48.328125 16.273438 47.363281 C 16.730469 46.394531 17.210938 45.441406 17.714844 44.5 C 18.21875 43.558594 18.742188 42.628906 19.292969 41.714844 C 19.839844 40.796875 20.414062 39.898438 21.007812 39.007812 C 21.597656 38.121094 22.214844 37.246094 22.851562 36.390625 C 23.488281 35.53125 24.144531 34.691406 24.820312 33.867188 C 25.5 33.039062 26.195312 32.230469 26.914062 31.441406 C 27.628906 30.648438 28.367188 29.875 29.121094 29.121094 C 29.875 28.367188 30.648438 27.628906 31.441406 26.914062 C 32.230469 26.195312 33.039062 25.5 33.867188 24.820312 C 34.691406 24.144531 35.53125 23.488281 36.390625 22.851562 C 37.246094 22.214844 38.121094 21.597656 39.007812 21.007812 C 39.898438 20.414062 40.796875 19.839844 41.714844 19.292969 C 42.628906 18.742188 43.558594 18.21875 44.5 17.714844 C 45.441406 17.210938 46.394531 16.730469 47.363281 16.273438 C 48.328125 15.816406 49.304688 15.386719 50.289062 14.976562 C 51.277344 14.566406 52.273438 14.183594 53.277344 13.824219 C 54.28125 13.464844 55.296875 13.128906 56.320312 12.820312 C 57.339844 12.507812 58.371094 12.222656 59.40625 11.964844 C 60.441406 11.707031 61.484375 11.472656 62.53125 11.261719 C 63.578125 11.054688 64.628906 10.871094 65.683594 10.714844 C 66.742188 10.558594 67.800781 10.429688 68.863281 10.324219 C 69.925781 10.21875 70.992188 10.140625 72.058594 10.089844 C 73.125 10.035156 74.191406 10.007812 75.257812 10.007812 C 76.328125 10.007812 77.394531 10.035156 78.460938 10.089844 C 79.527344 10.140625 80.59375 10.21875 81.65625 10.324219 C 82.71875 10.429688 83.777344 10.558594 84.832031 10.714844 C 85.890625 10.871094 86.941406 11.054688 87.988281 11.261719 C 89.035156 11.472656 90.078125 11.707031 91.113281 11.964844 C 92.148438 12.222656 93.179688 12.507812 94.199219 12.820312 C 95.222656 13.128906 96.234375 13.464844 97.242188 13.824219 C 98.246094 14.183594 99.242188 14.566406 100.230469 14.976562 C 101.214844 15.386719 102.191406 15.816406 103.15625 16.273438 C 104.121094 16.730469 105.078125 17.210938 106.019531 17.714844 C 106.960938 18.21875 107.890625 18.742188 108.804688 19.292969 C 109.722656 19.839844 110.621094 20.414062 111.511719 21.007812 C 112.398438 21.597656 113.269531 22.214844 114.128906 22.851562 C 114.988281 23.488281 115.828125 24.144531 116.652344 24.820312 C 117.480469 25.5 118.289062 26.195312 119.078125 26.914062 C 119.871094 27.628906 120.644531 28.367188 121.398438 29.121094 C 122.152344 29.875 122.890625 30.648438 123.605469 31.441406 C 124.324219 32.230469 125.019531 33.039062 125.699219 33.867188 C 126.375 34.691406 127.03125 35.53125 127.667969 36.390625 C 128.304688 37.246094 128.917969 38.121094 129.511719 39.007812 C 130.105469 39.898438 130.675781 40.796875 131.226562 41.714844 C 131.773438 42.628906 132.300781 43.558594 132.804688 44.5 C 133.308594 45.441406 133.789062 46.394531 134.246094 47.363281 C 134.703125 48.328125 135.132812 49.304688 135.542969 50.289062 C 135.953125 51.277344 136.335938 52.273438 136.695312 53.277344 C 137.054688 54.28125 137.390625 55.296875 137.699219 56.320312 C 138.011719 57.339844 138.292969 58.371094 138.554688 59.40625 C 138.8125 60.441406 139.046875 61.484375 139.253906 62.53125 C 139.464844 63.578125 139.648438 64.628906 139.804688 65.683594 C 139.960938 66.742188 140.089844 67.800781 140.195312 68.863281 C 140.300781 69.925781 140.378906 70.992188 140.429688 72.058594 C 140.484375 73.125 140.507812 74.191406 140.507812 75.257812 Z M 140.507812 75.257812 " fill-opacity="1" fill-rule="nonzero"/></g><path fill="#ffffff" d="M 57.15625 64.429688 L 60.289062 53.128906 C 60.355469 52.882812 60.617188 52.75 60.859375 52.835938 L 64.40625 54.125 L 59.394531 64.429688 L 57.15625 64.429688 " fill-opacity="1" fill-rule="nonzero"/><path fill="#ffffff" d="M 97.085938 62.464844 C 97.320312 62.082031 97.484375 61.660156 97.574219 61.210938 C 97.613281 60.972656 97.640625 60.726562 97.640625 60.476562 C 97.640625 58.296875 95.824219 56.523438 93.582031 56.523438 L 84.167969 56.523438 Z M 57.65625 56.523438 L 55.777344 63.304688 L 55.777344 57.558594 C 55.777344 56.984375 56.242188 56.523438 56.816406 56.523438 L 57.65625 56.523438 " fill-opacity="1" fill-rule="nonzero"/><path fill="#ffffff" d="M 97.640625 64.351562 L 97.640625 90.808594 C 97.640625 93.285156 95.632812 95.292969 93.152344 95.292969 L 55.34375 95.292969 C 54.769531 95.292969 54.308594 94.832031 54.308594 94.257812 L 54.308594 88.050781 L 64.289062 88.050781 C 64.84375 88.050781 65.371094 87.941406 65.859375 87.746094 C 66.601562 87.445312 67.238281 86.941406 67.6875 86.296875 C 68.140625 85.65625 68.40625 84.878906 68.40625 84.042969 L 68.40625 77.269531 C 68.40625 75.0625 66.558594 73.265625 64.289062 73.265625 L 54.308594 73.265625 L 54.308594 66.019531 L 93.582031 66.019531 C 95.171875 66.019531 96.605469 65.382812 97.640625 64.351562 " fill-opacity="1" fill-rule="nonzero"/><path fill="#ffffff" d="M 61.632812 78.535156 C 62.835938 78.535156 63.816406 79.488281 63.816406 80.65625 C 63.816406 81.828125 62.835938 82.777344 61.632812 82.777344 C 60.429688 82.777344 59.453125 81.828125 59.453125 80.65625 C 59.453125 79.488281 60.429688 78.535156 61.632812 78.535156 Z M 64.289062 86.460938 C 65.65625 86.460938 66.773438 85.375 66.773438 84.042969 L 66.773438 77.269531 C 66.773438 75.9375 65.65625 74.851562 64.289062 74.851562 L 54.867188 74.851562 C 53.496094 74.851562 52.378906 75.9375 52.378906 77.269531 L 52.378906 84.042969 C 52.378906 85.375 53.496094 86.460938 54.867188 86.460938 L 64.289062 86.460938 " fill-opacity="1" fill-rule="nonzero"/><path fill="#ffffff" d="M 95.890625 63.71875 C 95.265625 64.144531 94.503906 64.402344 93.6875 64.425781 C 93.652344 64.425781 93.617188 64.429688 93.582031 64.429688 L 61.199219 64.429688 L 67.652344 51.148438 C 67.664062 51.132812 67.679688 51.121094 67.6875 51.101562 C 67.808594 50.925781 68.03125 50.851562 68.230469 50.941406 L 95.890625 63.71875 " fill-opacity="1" fill-rule="nonzero"/><g clip-path="url(#c5b3887204)"><path fill="#ffffff" d="M 67.792969 30.710938 C 65.925781 30.738281 64.320312 32.246094 64.1875 34.105469 C 64.058594 35.929688 65.265625 37.488281 66.929688 37.914062 L 66.929688 49.332031 C 67.167969 48.847656 67.75 48.632812 68.25 48.84375 L 68.761719 49.058594 L 68.761719 37.914062 C 70.339844 37.507812 71.511719 36.078125 71.511719 34.371094 C 71.511719 32.332031 69.839844 30.683594 67.792969 30.710938 Z M 75.792969 45.773438 C 77.371094 45.363281 78.539062 43.933594 78.539062 42.230469 C 78.539062 40.207031 76.898438 38.570312 74.875 38.570312 C 72.851562 38.570312 71.210938 40.207031 71.210938 42.230469 C 71.210938 43.933594 72.378906 45.363281 73.957031 45.773438 L 73.957031 51.832031 L 75.792969 52.675781 Z M 82.820312 42.382812 L 86.246094 39.929688 C 86.917969 40.632812 87.855469 41.074219 88.90625 41.074219 C 90.929688 41.074219 92.570312 39.4375 92.570312 37.414062 C 92.570312 35.394531 90.929688 33.753906 88.90625 33.753906 C 86.882812 33.753906 85.238281 35.394531 85.238281 37.414062 C 85.238281 37.726562 85.28125 38.023438 85.355469 38.3125 L 81.371094 41.171875 C 81.132812 41.34375 80.988281 41.617188 80.988281 41.914062 L 80.988281 55.070312 L 82.820312 55.914062 Z M 74.296875 111.964844 C 72.714844 112.375 71.546875 113.800781 71.546875 115.507812 C 71.546875 117.53125 73.1875 119.167969 75.214844 119.167969 C 77.238281 119.167969 78.878906 117.53125 78.878906 115.507812 C 78.878906 113.800781 77.710938 112.375 76.128906 111.964844 L 76.128906 97.035156 L 74.296875 97.035156 Z M 81.328125 103.882812 C 79.75 104.285156 78.578125 105.71875 78.578125 107.417969 C 78.578125 109.441406 80.222656 111.078125 82.246094 111.078125 C 84.269531 111.078125 85.910156 109.441406 85.910156 107.417969 C 85.910156 105.71875 84.742188 104.285156 83.160156 103.882812 L 83.160156 97.035156 L 81.328125 97.035156 Z M 67.269531 101.433594 L 62.53125 104.613281 C 62.277344 104.785156 62.128906 105.074219 62.128906 105.375 L 62.128906 108.761719 C 60.546875 109.167969 59.378906 110.601562 59.378906 112.304688 C 59.378906 114.320312 61.019531 115.96875 63.046875 115.96875 C 65.070312 115.96875 66.710938 114.320312 66.710938 112.304688 C 66.710938 110.601562 65.542969 109.167969 63.960938 108.761719 L 63.960938 105.863281 L 68.699219 102.675781 C 68.949219 102.511719 69.097656 102.222656 69.097656 101.921875 L 69.097656 97.035156 L 67.269531 97.035156 Z M 25.738281 89.175781 C 25.738281 91.199219 27.378906 92.835938 29.402344 92.835938 C 31.109375 92.835938 32.542969 91.667969 32.949219 90.089844 L 43.074219 90.089844 C 43.40625 90.089844 43.710938 89.914062 43.871094 89.621094 L 46.664062 84.667969 L 50.777344 84.667969 L 50.777344 82.835938 L 46.128906 82.835938 C 45.796875 82.835938 45.492188 83.015625 45.332031 83.304688 L 42.539062 88.257812 L 32.949219 88.257812 C 32.542969 86.683594 31.109375 85.511719 29.402344 85.511719 C 27.378906 85.511719 25.738281 87.152344 25.738281 89.175781 Z M 50.777344 77.792969 L 50.777344 75.960938 L 44.941406 75.960938 C 44.53125 74.382812 43.101562 73.214844 41.394531 73.214844 C 39.371094 73.214844 37.726562 74.855469 37.726562 76.875 C 37.726562 78.898438 39.371094 80.535156 41.394531 80.535156 C 43.101562 80.535156 44.53125 79.371094 44.941406 77.792969 Z M 50.777344 70.769531 L 50.777344 68.941406 L 46.664062 68.941406 L 43.871094 63.984375 C 43.710938 63.695312 43.40625 63.515625 43.074219 63.515625 L 39.238281 63.515625 C 38.828125 61.941406 37.398438 60.773438 35.691406 60.773438 C 33.667969 60.773438 32.023438 62.410156 32.023438 64.433594 C 32.023438 66.453125 33.667969 68.09375 35.691406 68.09375 C 37.398438 68.09375 38.828125 66.925781 39.238281 65.347656 L 42.539062 65.347656 L 45.332031 70.300781 C 45.492188 70.589844 45.796875 70.769531 46.128906 70.769531 Z M 120.644531 85.511719 C 118.941406 85.511719 117.507812 86.683594 117.101562 88.257812 L 107.511719 88.257812 L 104.71875 83.304688 C 104.5625 83.015625 104.253906 82.835938 103.921875 82.835938 L 99.277344 82.835938 L 99.277344 84.667969 L 103.378906 84.667969 L 106.175781 89.621094 C 106.339844 89.914062 106.648438 90.089844 106.976562 90.089844 L 117.101562 90.089844 C 117.507812 91.667969 118.941406 92.835938 120.644531 92.835938 C 122.675781 92.835938 124.316406 91.199219 124.316406 89.175781 C 124.316406 87.152344 122.675781 85.511719 120.644531 85.511719 Z M 105.109375 77.792969 C 105.515625 79.371094 106.949219 80.535156 108.652344 80.535156 C 110.683594 80.535156 112.316406 78.898438 112.316406 76.875 C 112.316406 74.855469 110.683594 73.214844 108.652344 73.214844 C 106.949219 73.214844 105.515625 74.382812 105.109375 75.960938 L 99.277344 75.960938 L 99.277344 77.792969 Z M 99.277344 70.769531 L 99.277344 68.941406 L 103.378906 68.941406 L 106.175781 63.984375 C 106.339844 63.695312 106.648438 63.515625 106.976562 63.515625 L 110.8125 63.515625 C 111.21875 61.941406 112.648438 60.773438 114.355469 60.773438 C 116.378906 60.773438 118.019531 62.410156 118.019531 64.433594 C 118.019531 66.453125 116.378906 68.09375 114.355469 68.09375 C 112.648438 68.09375 111.21875 66.925781 110.8125 65.347656 L 107.511719 65.347656 L 104.71875 70.300781 C 104.5625 70.589844 104.253906 70.769531 103.921875 70.769531 L 99.277344 70.769531 " fill-opacity="1" fill-rule="nonzero"/></g></svg>