<svg xmlns="http://www.w3.org/2000/svg" xmlns:xlink="http://www.w3.org/1999/xlink" width="200" zoomAndPan="magnify" viewBox="0 0 150 149.999998" height="200" preserveAspectRatio="xMidYMid meet" version="1.0"><defs><clipPath id="7c3b2e8922"><path d="M 15 20.0625 L 133 20.0625 L 133 134.8125 L 15 134.8125 Z M 15 20.0625 " clip-rule="nonzero"/></clipPath></defs><g clip-path="url(#7c3b2e8922)"><path fill="#0d6591" d="M 18.878906 60.789062 C 18.265625 61.667969 16.988281 61.84375 16.109375 61.226562 C 15.144531 60.523438 15.144531 59.296875 15.757812 58.371094 C 16.507812 57.144531 17.515625 56.042969 18.441406 54.945312 C 19.363281 53.890625 20.285156 52.882812 21.25 51.871094 C 27.796875 45.324219 36.054688 40.625 44.929688 37.945312 C 54.902344 34.914062 65.578125 34.5625 75.769531 36.757812 L 75.945312 36.800781 C 76.691406 36.976562 77.480469 37.152344 78.230469 37.328125 C 83.984375 38.777344 89.476562 41.0625 94.570312 44.09375 C 99.492188 47.039062 104.015625 50.683594 107.882812 54.945312 C 108.890625 56.042969 109.859375 57.230469 110.738281 58.417969 C 111.132812 58.898438 111.527344 59.425781 111.617188 60.085938 C 111.703125 60.699219 111.441406 61.359375 110.957031 61.800781 C 110.472656 62.195312 109.859375 62.371094 109.242188 62.238281 C 108.671875 62.105469 108.234375 61.667969 107.882812 61.226562 C 106.960938 60 106.035156 58.8125 104.984375 57.667969 C 101.160156 53.410156 96.59375 49.851562 91.671875 46.996094 C 86.53125 44.050781 80.910156 41.898438 75.109375 40.667969 L 74.933594 40.625 C 70.015625 39.570312 64.917969 39.128906 59.867188 39.351562 C 51.605469 39.746094 43.4375 41.941406 36.097656 45.808594 C 29.335938 49.367188 23.359375 54.507812 18.878906 60.789062 C 19.667969 59.648438 20.503906 58.503906 21.296875 57.40625 C 20.503906 58.503906 19.667969 59.648438 18.878906 60.789062 C 18.175781 61.710938 19.363281 60.085938 18.878906 60.789062 Z M 132.570312 109.554688 C 132.703125 110.738281 132.703125 111.96875 132.613281 113.15625 C 132.308594 117.988281 130.417969 122.601562 127.300781 126.335938 C 124.53125 129.628906 120.753906 132.089844 116.625 133.363281 C 111.878906 134.8125 106.652344 134.636719 101.996094 132.882812 C 97.910156 131.34375 94.351562 128.574219 91.757812 125.105469 C 86.09375 117.375 85.960938 106.566406 91.496094 98.703125 C 94 95.101562 97.601562 92.289062 101.644531 90.664062 C 106.167969 88.863281 111.308594 88.597656 116.007812 89.871094 C 124.972656 92.289062 131.691406 100.328125 132.570312 109.554688 C 132.964844 113.769531 132.175781 105.292969 132.570312 109.554688 Z M 122.335938 99.316406 C 121.5 98.660156 120.226562 98.878906 119.566406 99.710938 L 105.160156 118.953125 L 100.546875 111.792969 C 99.972656 110.914062 98.699219 110.609375 97.820312 111.222656 C 96.941406 111.792969 96.636719 113.066406 97.25 113.945312 L 103.402344 123.480469 C 104.148438 124.621094 105.816406 124.664062 106.652344 123.613281 L 122.773438 102.085938 C 123.390625 101.25 123.214844 99.976562 122.335938 99.316406 Z M 18.878906 60.789062 C 18.835938 60.832031 18.789062 60.875 18.878906 60.789062 Z M 77.921875 22.4375 C 77.921875 22.4375 77.964844 22.4375 77.921875 22.4375 C 72.386719 21.25 75.023438 21.820312 77.921875 22.4375 Z M 77.964844 22.4375 C 81.128906 23.09375 84.511719 23.84375 77.964844 22.4375 Z M 32.671875 31.882812 C 42.03125 27.3125 52.398438 24.808594 62.851562 24.808594 C 73.222656 24.808594 83.675781 27.179688 93.035156 31.664062 C 94.132812 32.1875 95.230469 32.804688 96.285156 33.417969 C 97.164062 33.945312 98.128906 34.253906 99.007812 33.59375 C 99.753906 33.066406 100.0625 32.058594 99.667969 31.222656 C 99.226562 30.210938 97.953125 29.730469 97.03125 29.246094 C 92.507812 26.828125 87.71875 24.984375 82.796875 23.621094 C 72.5625 20.765625 61.753906 20.0625 51.253906 21.777344 C 46.070312 22.613281 41.019531 24.019531 36.144531 25.996094 C 34.957031 26.476562 33.769531 26.960938 32.628906 27.488281 C 31.53125 28.015625 30.34375 28.5 29.289062 29.070312 C 28.457031 29.554688 27.839844 30.210938 27.972656 31.222656 C 28.058594 32.144531 28.851562 32.9375 29.816406 32.980469 C 30.871094 33.023438 31.75 32.320312 32.671875 31.882812 C 35.75 30.386719 31.441406 32.453125 32.671875 31.882812 Z M 27.007812 69.707031 C 29.863281 67.246094 32.847656 64.699219 35.792969 62.195312 C 36.230469 61.800781 36.847656 61.449219 37.199219 61.007812 C 37.023438 61.226562 36.714844 61.449219 36.449219 61.625 C 35.75 62.195312 35.089844 62.808594 34.386719 63.382812 C 41.941406 56.921875 51.5625 53.101562 61.492188 52.660156 C 71.332031 52.222656 81.347656 55.121094 89.34375 61.007812 C 93.164062 63.820312 96.460938 67.246094 99.097656 71.15625 C 100.546875 73.308594 101.777344 75.550781 102.785156 77.921875 C 103.050781 78.539062 103.3125 79.152344 103.53125 79.765625 C 103.707031 80.25 103.839844 80.820312 104.191406 81.21875 C 104.761719 81.875 105.730469 82.050781 106.519531 81.65625 C 108.761719 80.601562 106.960938 77.660156 106.300781 76.121094 C 105.289062 73.792969 104.105469 71.597656 102.742188 69.488281 C 100.195312 65.535156 97.03125 62.019531 93.386719 59.074219 C 85.742188 52.882812 76.078125 49.324219 66.234375 48.75 C 56.132812 48.179688 45.984375 50.816406 37.417969 56.265625 C 29.289062 61.402344 22.964844 68.960938 19.800781 78.054688 C 16.375 87.9375 16.636719 98.878906 19.097656 108.9375 C 19.40625 110.257812 19.757812 111.53125 20.195312 112.804688 C 20.503906 113.726562 20.722656 114.957031 21.601562 115.527344 C 22.394531 116.054688 23.449219 115.921875 24.105469 115.265625 C 24.851562 114.519531 24.675781 113.550781 24.324219 112.671875 C 22.570312 107.664062 21.644531 102.347656 21.382812 97.078125 C 20.8125 86.972656 23.097656 76.648438 29.464844 68.566406 C 30.960938 66.675781 32.628906 64.917969 34.472656 63.382812 C 31.925781 65.488281 29.464844 67.597656 27.007812 69.707031 C 26.960938 69.75 27.183594 69.574219 27.007812 69.707031 Z M 82.402344 97.734375 C 81.566406 96.066406 80.996094 94.222656 80.601562 92.417969 C 80.207031 90.617188 79.855469 88.816406 79.195312 87.105469 C 77.964844 83.984375 75.769531 81.21875 72.957031 79.328125 C 67.335938 75.507812 59.777344 75.769531 54.285156 79.765625 C 51.738281 81.613281 49.71875 84.074219 48.398438 86.882812 C 46.949219 90.003906 46.421875 93.519531 46.644531 96.945312 C 47.125 103.84375 50.289062 110.519531 54.15625 116.144531 C 56.042969 118.867188 58.195312 121.457031 60.613281 123.742188 C 61.84375 124.929688 63.160156 126.070312 64.566406 127.125 C 65.3125 127.695312 66.058594 128.222656 66.851562 128.75 C 67.554688 129.234375 68.300781 129.804688 69.136719 130.15625 C 70.585938 130.773438 72.210938 129.453125 71.859375 127.917969 C 71.683594 127.125 71.066406 126.644531 70.410156 126.292969 C 69.707031 125.851562 69.003906 125.457031 68.300781 124.972656 C 65.488281 122.996094 62.898438 120.625 60.65625 118.03125 C 56.308594 113.066406 52.75 106.960938 51.210938 100.503906 C 50.464844 97.296875 50.289062 93.824219 51.210938 90.617188 C 52.132812 87.457031 54.199219 84.601562 56.921875 82.753906 C 59.691406 80.910156 63.160156 80.117188 66.410156 80.777344 C 69.398438 81.394531 72.078125 83.195312 73.878906 85.65625 C 74.800781 86.929688 75.503906 88.335938 75.945312 89.828125 C 76.472656 91.628906 76.734375 93.519531 77.261719 95.320312 C 77.789062 97.078125 78.449219 98.746094 79.285156 100.328125 C 79.589844 100.988281 79.984375 101.691406 80.644531 101.996094 C 81.347656 102.347656 82.183594 102.261719 82.796875 101.734375 C 83.324219 101.292969 83.589844 100.589844 83.5 99.933594 C 83.367188 99.140625 82.796875 98.484375 82.402344 97.734375 C 81.566406 96.066406 82.753906 98.4375 82.402344 97.734375 Z M 128.617188 124.578125 C 127.871094 125.675781 134.855469 115.570312 128.617188 124.578125 Z M 68.652344 68.125 C 68.695312 68.125 68.695312 68.125 68.652344 68.125 C 68.652344 68.125 68.695312 68.125 68.652344 68.125 Z M 90.707031 86.839844 C 91.1875 88.289062 93.078125 88.773438 94.132812 87.585938 C 94.660156 86.972656 94.660156 86.226562 94.4375 85.480469 C 94.175781 84.554688 93.824219 83.632812 93.429688 82.710938 C 92.023438 79.285156 90.046875 76.035156 87.5 73.308594 C 82.359375 67.773438 75.199219 64.785156 67.773438 64.039062 C 60.171875 63.292969 52.355469 65.226562 46.027344 69.53125 C 40.054688 73.574219 35.617188 79.722656 33.726562 86.707031 C 31.664062 94.308594 32.671875 102.304688 35.351562 109.640625 C 38.03125 117.023438 42.207031 123.832031 46.90625 130.113281 C 47.433594 130.816406 47.960938 131.605469 48.574219 132.265625 C 49.148438 132.925781 49.980469 133.234375 50.816406 132.96875 C 51.476562 132.75 51.957031 132.132812 52.132812 131.476562 C 52.308594 130.683594 51.914062 129.980469 51.386719 129.367188 C 48.882812 126.246094 46.597656 122.910156 44.535156 119.480469 C 40.582031 112.847656 37.328125 105.421875 36.714844 97.648438 C 36.097656 90.136719 38.339844 82.625 43.4375 77 C 48.355469 71.550781 55.429688 68.34375 62.722656 67.90625 C 64.742188 67.773438 66.71875 67.863281 68.738281 68.125 C 67.6875 67.992188 66.632812 67.816406 65.578125 67.6875 C 68.167969 68.039062 70.761719 68.390625 73.351562 68.785156 C 71.816406 68.566406 70.277344 68.34375 68.738281 68.125 C 72.695312 68.695312 76.558594 69.925781 79.941406 72.078125 C 83.238281 74.144531 85.960938 77.085938 87.9375 80.425781 C 89.078125 82.449219 89.957031 84.601562 90.707031 86.839844 C 91.011719 87.851562 89.871094 84.335938 90.707031 86.839844 Z M 82.578125 101.910156 C 83.0625 101.601562 82.796875 101.777344 82.578125 101.910156 Z M 79.285156 114.605469 C 79.328125 114.605469 79.328125 114.648438 79.285156 114.605469 Z M 79.285156 114.605469 C 77.351562 113.640625 75.460938 112.628906 73.527344 111.660156 C 75.460938 112.628906 77.351562 113.59375 79.285156 114.605469 C 75.460938 112.628906 72.121094 109.730469 69.75 106.171875 C 68.476562 104.324219 67.511719 102.261719 66.761719 100.152344 C 66.324219 98.921875 66.015625 97.648438 65.753906 96.375 C 65.664062 95.800781 65.578125 95.1875 65.488281 94.617188 C 65.445312 94.089844 65.488281 93.472656 65.269531 92.945312 C 64.566406 90.96875 61.710938 91.320312 61.492188 93.386719 C 61.359375 94.574219 61.667969 95.933594 61.886719 97.121094 C 62.105469 98.308594 62.414062 99.492188 62.765625 100.636719 C 64.214844 105.292969 66.761719 109.554688 70.234375 112.9375 C 72.210938 114.867188 74.496094 116.539062 76.953125 117.855469 C 78.007812 118.425781 79.238281 118.515625 79.984375 117.417969 C 80.644531 116.496094 80.292969 115.132812 79.285156 114.605469 C 78.757812 114.34375 79.941406 114.957031 79.285156 114.605469 Z M 82.578125 101.910156 C 82.359375 102.039062 82.140625 102.214844 82.578125 101.910156 Z M 82.578125 101.910156 " fill-opacity="1" fill-rule="nonzero"/></g></svg>