<svg xmlns="http://www.w3.org/2000/svg" xmlns:xlink="http://www.w3.org/1999/xlink" width="200" zoomAndPan="magnify" viewBox="0 0 150 149.999998" height="200" preserveAspectRatio="xMidYMid meet" version="1.0"><defs><clipPath id="f6e6051e96"><path d="M 10.007812 10.007812 L 140.507812 10.007812 L 140.507812 140.507812 L 10.007812 140.507812 Z M 10.007812 10.007812 " clip-rule="nonzero"/></clipPath><clipPath id="86cf5bb7ac"><path d="M 29.570312 27.050781 L 120.320312 27.050781 L 120.320312 114.050781 L 29.570312 114.050781 Z M 29.570312 27.050781 " clip-rule="nonzero"/></clipPath><clipPath id="3cffc1e429"><path d="M 70.171875 31.957031 L 79.921875 31.957031 L 79.921875 46.207031 L 70.171875 46.207031 Z M 70.171875 31.957031 " clip-rule="nonzero"/></clipPath></defs><g clip-path="url(#f6e6051e96)"><path fill="#0d6591" d="M 140.507812 75.257812 C 140.507812 76.328125 140.484375 77.394531 140.429688 78.460938 C 140.378906 79.527344 140.300781 80.59375 140.195312 81.65625 C 140.089844 82.71875 139.960938 83.777344 139.804688 84.832031 C 139.648438 85.890625 139.464844 86.941406 139.253906 87.988281 C 139.046875 89.035156 138.8125 90.078125 138.554688 91.113281 C 138.292969 92.148438 138.011719 93.179688 137.699219 94.199219 C 137.390625 95.222656 137.054688 96.234375 136.695312 97.242188 C 136.335938 98.246094 135.953125 99.242188 135.542969 100.230469 C 135.132812 101.214844 134.703125 102.191406 134.246094 103.15625 C 133.789062 104.121094 133.308594 105.078125 132.804688 106.019531 C 132.300781 106.960938 131.773438 107.890625 131.226562 108.804688 C 130.675781 109.71875 130.105469 110.621094 129.511719 111.511719 C 128.917969 112.398438 128.304688 113.269531 127.667969 114.128906 C 127.03125 114.988281 126.375 115.828125 125.699219 116.652344 C 125.019531 117.480469 124.324219 118.289062 123.605469 119.078125 C 122.890625 119.871094 122.152344 120.644531 121.398438 121.398438 C 120.644531 122.152344 119.871094 122.890625 119.078125 123.605469 C 118.289062 124.324219 117.480469 125.019531 116.652344 125.699219 C 115.828125 126.375 114.988281 127.03125 114.128906 127.667969 C 113.269531 128.304688 112.398438 128.917969 111.511719 129.511719 C 110.621094 130.105469 109.71875 130.675781 108.804688 131.226562 C 107.890625 131.773438 106.960938 132.300781 106.019531 132.804688 C 105.078125 133.308594 104.121094 133.789062 103.15625 134.246094 C 102.191406 134.703125 101.214844 135.132812 100.230469 135.542969 C 99.242188 135.953125 98.246094 136.335938 97.242188 136.695312 C 96.234375 137.054688 95.222656 137.390625 94.199219 137.699219 C 93.179688 138.011719 92.148438 138.292969 91.113281 138.554688 C 90.078125 138.8125 89.035156 139.046875 87.988281 139.253906 C 86.941406 139.464844 85.890625 139.648438 84.832031 139.804688 C 83.777344 139.960938 82.71875 140.089844 81.65625 140.195312 C 80.59375 140.300781 79.527344 140.378906 78.460938 140.429688 C 77.394531 140.484375 76.328125 140.507812 75.257812 140.507812 C 74.191406 140.507812 73.125 140.484375 72.058594 140.429688 C 70.992188 140.378906 69.925781 140.300781 68.863281 140.195312 C 67.800781 140.089844 66.742188 139.960938 65.683594 139.804688 C 64.628906 139.648438 63.578125 139.464844 62.53125 139.253906 C 61.484375 139.046875 60.441406 138.8125 59.40625 138.554688 C 58.371094 138.292969 57.339844 138.011719 56.320312 137.699219 C 55.296875 137.390625 54.28125 137.054688 53.277344 136.695312 C 52.273438 136.335938 51.277344 135.953125 50.289062 135.542969 C 49.304688 135.132812 48.328125 134.703125 47.363281 134.246094 C 46.394531 133.789062 45.441406 133.308594 44.5 132.804688 C 43.558594 132.300781 42.628906 131.773438 41.714844 131.226562 C 40.796875 130.675781 39.898438 130.105469 39.007812 129.511719 C 38.121094 128.917969 37.246094 128.304688 36.390625 127.667969 C 35.53125 127.03125 34.691406 126.375 33.867188 125.699219 C 33.039062 125.019531 32.230469 124.324219 31.441406 123.605469 C 30.648438 122.890625 29.875 122.152344 29.121094 121.398438 C 28.367188 120.644531 27.628906 119.871094 26.914062 119.078125 C 26.195312 118.289062 25.5 117.480469 24.820312 116.652344 C 24.144531 115.828125 23.488281 114.988281 22.851562 114.128906 C 22.214844 113.269531 21.597656 112.398438 21.007812 111.511719 C 20.414062 110.621094 19.839844 109.71875 19.292969 108.804688 C 18.742188 107.890625 18.21875 106.960938 17.714844 106.019531 C 17.210938 105.078125 16.730469 104.121094 16.273438 103.15625 C 15.816406 102.191406 15.386719 101.214844 14.976562 100.230469 C 14.566406 99.242188 14.183594 98.246094 13.824219 97.242188 C 13.464844 96.234375 13.128906 95.222656 12.820312 94.199219 C 12.507812 93.179688 12.222656 92.148438 11.964844 91.113281 C 11.707031 90.078125 11.472656 89.035156 11.261719 87.988281 C 11.054688 86.941406 10.871094 85.890625 10.714844 84.832031 C 10.558594 83.777344 10.429688 82.71875 10.324219 81.65625 C 10.21875 80.59375 10.140625 79.527344 10.089844 78.460938 C 10.035156 77.394531 10.007812 76.328125 10.007812 75.257812 C 10.007812 74.191406 10.035156 73.125 10.089844 72.058594 C 10.140625 70.992188 10.21875 69.925781 10.324219 68.863281 C 10.429688 67.800781 10.558594 66.742188 10.714844 65.683594 C 10.871094 64.628906 11.054688 63.578125 11.261719 62.53125 C 11.472656 61.484375 11.707031 60.441406 11.964844 59.40625 C 12.222656 58.371094 12.507812 57.339844 12.820312 56.320312 C 13.128906 55.296875 13.464844 54.28125 13.824219 53.277344 C 14.183594 52.273438 14.566406 51.277344 14.976562 50.289062 C 15.386719 49.304688 15.816406 48.328125 16.273438 47.363281 C 16.730469 46.394531 17.210938 45.441406 17.714844 44.5 C 18.21875 43.558594 18.742188 42.628906 19.292969 41.714844 C 19.839844 40.796875 20.414062 39.898438 21.007812 39.007812 C 21.597656 38.121094 22.214844 37.246094 22.851562 36.390625 C 23.488281 35.53125 24.144531 34.691406 24.820312 33.867188 C 25.5 33.039062 26.195312 32.230469 26.914062 31.441406 C 27.628906 30.648438 28.367188 29.875 29.121094 29.121094 C 29.875 28.367188 30.648438 27.628906 31.441406 26.914062 C 32.230469 26.195312 33.039062 25.5 33.867188 24.820312 C 34.691406 24.144531 35.53125 23.488281 36.390625 22.851562 C 37.246094 22.214844 38.121094 21.597656 39.007812 21.007812 C 39.898438 20.414062 40.796875 19.839844 41.714844 19.292969 C 42.628906 18.742188 43.558594 18.21875 44.5 17.714844 C 45.441406 17.210938 46.394531 16.730469 47.363281 16.273438 C 48.328125 15.816406 49.304688 15.386719 50.289062 14.976562 C 51.277344 14.566406 52.273438 14.183594 53.277344 13.824219 C 54.28125 13.464844 55.296875 13.128906 56.320312 12.820312 C 57.339844 12.507812 58.371094 12.222656 59.40625 11.964844 C 60.441406 11.707031 61.484375 11.472656 62.53125 11.261719 C 63.578125 11.054688 64.628906 10.871094 65.683594 10.714844 C 66.742188 10.558594 67.800781 10.429688 68.863281 10.324219 C 69.925781 10.21875 70.992188 10.140625 72.058594 10.089844 C 73.125 10.035156 74.191406 10.007812 75.257812 10.007812 C 76.328125 10.007812 77.394531 10.035156 78.460938 10.089844 C 79.527344 10.140625 80.59375 10.21875 81.65625 10.324219 C 82.71875 10.429688 83.777344 10.558594 84.832031 10.714844 C 85.890625 10.871094 86.941406 11.054688 87.988281 11.261719 C 89.035156 11.472656 90.078125 11.707031 91.113281 11.964844 C 92.148438 12.222656 93.179688 12.507812 94.199219 12.820312 C 95.222656 13.128906 96.234375 13.464844 97.242188 13.824219 C 98.246094 14.183594 99.242188 14.566406 100.230469 14.976562 C 101.214844 15.386719 102.191406 15.816406 103.15625 16.273438 C 104.121094 16.730469 105.078125 17.210938 106.019531 17.714844 C 106.960938 18.21875 107.890625 18.742188 108.804688 19.292969 C 109.722656 19.839844 110.621094 20.414062 111.511719 21.007812 C 112.398438 21.597656 113.269531 22.214844 114.128906 22.851562 C 114.988281 23.488281 115.828125 24.144531 116.652344 24.820312 C 117.480469 25.5 118.289062 26.195312 119.078125 26.914062 C 119.871094 27.628906 120.644531 28.367188 121.398438 29.121094 C 122.152344 29.875 122.890625 30.648438 123.605469 31.441406 C 124.324219 32.230469 125.019531 33.039062 125.699219 33.867188 C 126.375 34.691406 127.03125 35.53125 127.667969 36.390625 C 128.304688 37.246094 128.917969 38.121094 129.511719 39.007812 C 130.105469 39.898438 130.675781 40.796875 131.226562 41.714844 C 131.773438 42.628906 132.300781 43.558594 132.804688 44.5 C 133.308594 45.441406 133.789062 46.394531 134.246094 47.363281 C 134.703125 48.328125 135.132812 49.304688 135.542969 50.289062 C 135.953125 51.277344 136.335938 52.273438 136.695312 53.277344 C 137.054688 54.28125 137.390625 55.296875 137.699219 56.320312 C 138.011719 57.339844 138.292969 58.371094 138.554688 59.40625 C 138.8125 60.441406 139.046875 61.484375 139.253906 62.53125 C 139.464844 63.578125 139.648438 64.628906 139.804688 65.683594 C 139.960938 66.742188 140.089844 67.800781 140.195312 68.863281 C 140.300781 69.925781 140.378906 70.992188 140.429688 72.058594 C 140.484375 73.125 140.507812 74.191406 140.507812 75.257812 Z M 140.507812 75.257812 " fill-opacity="1" fill-rule="nonzero"/></g><g clip-path="url(#86cf5bb7ac)"><path fill="#ffffff" d="M 45.242188 57.359375 L 52.632812 57.359375 L 53.769531 97.226562 L 44.25 97.226562 L 45.242188 57.355469 Z M 38.28125 98.660156 L 111.605469 98.660156 L 111.605469 103.789062 L 116 103.789062 L 116 108.917969 L 120.257812 108.917969 L 120.257812 114.046875 L 29.625 114.046875 L 29.625 108.917969 L 33.886719 108.917969 L 33.886719 103.789062 L 38.28125 103.789062 L 38.28125 98.65625 Z M 115.429688 46.226562 L 74.941406 27.050781 L 34.453125 46.226562 L 34.453125 49.363281 L 115.429688 49.363281 Z M 42.257812 50.796875 L 107.625 50.796875 L 107.625 55.925781 L 42.257812 55.925781 Z M 97.109375 57.359375 L 104.5 57.359375 L 105.632812 97.226562 L 96.113281 97.226562 Z M 79.820312 57.359375 L 87.210938 57.359375 L 88.347656 97.226562 L 78.828125 97.226562 L 79.820312 57.355469 Z M 62.53125 57.359375 L 69.921875 57.359375 L 71.058594 97.226562 L 61.539062 97.226562 Z M 62.53125 57.359375 " fill-opacity="1" fill-rule="nonzero"/></g><g clip-path="url(#3cffc1e429)"><path fill="#0d6591" d="M 79.28125 43.707031 C 79.277344 43.707031 78.90625 43.824219 78.472656 43.941406 C 77.679688 44.15625 77.460938 44.167969 77.449219 44.167969 C 77.09375 44.1875 76.355469 44.042969 75.761719 43.929688 C 75.050781 43.789062 74.378906 43.660156 73.839844 43.660156 C 73.734375 43.660156 73.613281 43.664062 73.480469 43.675781 C 74.140625 42.585938 74.292969 42.101562 74.347656 41.796875 C 74.4375 41.300781 74.375 40.710938 74.25 40.097656 L 76.980469 40.097656 L 76.980469 38.0625 L 73.695312 38.0625 C 73.617188 37.785156 73.542969 37.535156 73.503906 37.34375 C 73.429688 37 73.347656 36.289062 73.316406 35.984375 C 73.339844 34.878906 74.269531 33.992188 75.410156 33.992188 C 76.566406 33.992188 77.503906 34.90625 77.503906 36.027344 L 79.597656 36.027344 C 79.597656 35.476562 79.488281 34.945312 79.269531 34.441406 C 79.058594 33.957031 78.757812 33.523438 78.371094 33.148438 C 77.988281 32.773438 77.539062 32.480469 77.039062 32.277344 C 76.523438 32.0625 75.976562 31.957031 75.410156 31.957031 C 74.84375 31.957031 74.296875 32.0625 73.78125 32.277344 C 73.28125 32.480469 72.832031 32.773438 72.449219 33.148438 C 72.066406 33.523438 71.761719 33.957031 71.550781 34.441406 C 71.332031 34.945312 71.222656 35.476562 71.222656 36.027344 L 71.222656 36.074219 L 71.226562 36.125 C 71.238281 36.234375 71.335938 37.222656 71.453125 37.761719 C 71.476562 37.859375 71.5 37.957031 71.527344 38.0625 L 70.175781 38.0625 L 70.175781 40.097656 L 72.105469 40.097656 C 72.132812 40.214844 72.160156 40.332031 72.183594 40.445312 C 72.316406 41.0625 72.304688 41.339844 72.285156 41.449219 C 72.28125 41.472656 72.1875 41.867188 71.316406 43.210938 C 71.117188 43.519531 70.917969 43.8125 70.753906 44.046875 C 70.613281 44.074219 70.371094 44.113281 70.371094 44.113281 L 70.371094 46.183594 C 71.394531 45.996094 73.238281 45.695312 73.839844 45.695312 C 74.171875 45.695312 74.796875 45.816406 75.351562 45.925781 C 76.09375 46.070312 76.800781 46.207031 77.386719 46.207031 C 77.445312 46.207031 77.503906 46.203125 77.558594 46.203125 C 77.753906 46.191406 78.117188 46.152344 79.035156 45.902344 C 79.503906 45.773438 79.898438 45.652344 79.917969 45.648438 L 79.28125 43.707031 " fill-opacity="1" fill-rule="nonzero"/></g></svg>