<svg xmlns="http://www.w3.org/2000/svg" xmlns:xlink="http://www.w3.org/1999/xlink" width="200" zoomAndPan="magnify" viewBox="0 0 150 149.999998" height="200" preserveAspectRatio="xMidYMid meet" version="1.0"><defs><clipPath id="ea9ef85ada"><path d="M 6.414062 15 L 143.664062 15 L 143.664062 138 L 6.414062 138 Z M 6.414062 15 " clip-rule="nonzero"/></clipPath></defs><path fill="#0d6591" d="M 50.277344 61.859375 L 54.621094 46.152344 C 54.714844 45.8125 55.078125 45.625 55.410156 45.746094 L 60.324219 47.535156 L 53.378906 61.859375 L 50.277344 61.859375 " fill-opacity="1" fill-rule="nonzero"/><path fill="#0d6591" d="M 105.628906 59.128906 C 105.953125 58.597656 106.183594 58.011719 106.304688 57.386719 C 106.363281 57.054688 106.402344 56.710938 106.402344 56.363281 C 106.402344 53.332031 103.878906 50.867188 100.773438 50.867188 L 87.722656 50.867188 Z M 50.972656 50.867188 L 48.367188 60.296875 L 48.367188 52.308594 C 48.367188 51.511719 49.011719 50.867188 49.808594 50.867188 L 50.972656 50.867188 " fill-opacity="1" fill-rule="nonzero"/><path fill="#0d6591" d="M 106.402344 61.75 L 106.402344 98.523438 C 106.402344 101.964844 103.613281 104.753906 100.175781 104.753906 L 47.765625 104.753906 C 46.972656 104.753906 46.328125 104.113281 46.328125 103.316406 L 46.328125 94.6875 L 60.167969 94.6875 C 60.9375 94.6875 61.667969 94.535156 62.339844 94.265625 C 63.375 93.847656 64.253906 93.144531 64.878906 92.25 C 65.503906 91.359375 65.871094 90.277344 65.871094 89.117188 L 65.871094 79.703125 C 65.871094 76.632812 63.3125 74.136719 60.167969 74.136719 L 46.328125 74.136719 L 46.328125 64.066406 L 100.773438 64.066406 C 102.976562 64.066406 104.964844 63.179688 106.402344 61.75 " fill-opacity="1" fill-rule="nonzero"/><path fill="#0d6591" d="M 56.484375 81.460938 C 58.152344 81.460938 59.507812 82.785156 59.507812 84.414062 C 59.507812 86.039062 58.152344 87.359375 56.484375 87.359375 C 54.816406 87.359375 53.460938 86.039062 53.460938 84.414062 C 53.460938 82.785156 54.816406 81.460938 56.484375 81.460938 Z M 60.167969 92.476562 C 62.0625 92.476562 63.609375 90.96875 63.609375 89.117188 L 63.609375 79.703125 C 63.609375 77.851562 62.0625 76.34375 60.167969 76.34375 L 47.101562 76.34375 C 45.203125 76.34375 43.65625 77.851562 43.65625 79.703125 L 43.65625 89.117188 C 43.65625 90.96875 45.203125 92.476562 47.101562 92.476562 L 60.167969 92.476562 " fill-opacity="1" fill-rule="nonzero"/><path fill="#0d6591" d="M 103.976562 60.871094 C 103.109375 61.460938 102.054688 61.824219 100.917969 61.851562 C 100.867188 61.851562 100.820312 61.859375 100.773438 61.859375 L 55.882812 61.859375 L 64.832031 43.402344 C 64.84375 43.378906 64.863281 43.359375 64.878906 43.335938 C 65.042969 43.089844 65.355469 42.988281 65.628906 43.113281 L 103.976562 60.871094 " fill-opacity="1" fill-rule="nonzero"/><g clip-path="url(#ea9ef85ada)"><path fill="#0d6591" d="M 65.019531 14.996094 C 62.433594 15.035156 60.210938 17.128906 60.023438 19.710938 C 59.847656 22.246094 61.519531 24.414062 63.824219 25.007812 L 63.824219 40.875 C 64.15625 40.203125 64.960938 39.90625 65.65625 40.195312 L 66.367188 40.496094 L 66.367188 25.007812 C 68.554688 24.441406 70.175781 22.453125 70.175781 20.082031 C 70.175781 17.246094 67.859375 14.957031 65.019531 14.996094 Z M 76.113281 35.925781 C 78.300781 35.359375 79.921875 33.375 79.921875 31.007812 C 79.921875 28.195312 77.644531 25.914062 74.839844 25.914062 C 72.035156 25.914062 69.757812 28.195312 69.757812 31.007812 C 69.757812 33.375 71.378906 35.359375 73.570312 35.925781 L 73.570312 44.347656 L 76.113281 45.519531 Z M 85.855469 31.21875 L 90.601562 27.804688 C 91.53125 28.785156 92.835938 29.398438 94.289062 29.398438 C 97.097656 29.398438 99.371094 27.121094 99.371094 24.3125 C 99.371094 21.5 97.097656 19.222656 94.289062 19.222656 C 91.484375 19.222656 89.207031 21.5 89.207031 24.3125 C 89.207031 24.742188 89.269531 25.160156 89.367188 25.5625 L 83.847656 29.535156 C 83.515625 29.773438 83.3125 30.15625 83.3125 30.566406 L 83.3125 48.847656 L 85.855469 50.019531 Z M 74.039062 127.921875 C 71.847656 128.496094 70.226562 130.476562 70.226562 132.847656 C 70.226562 135.660156 72.503906 137.9375 75.3125 137.9375 C 78.117188 137.9375 80.394531 135.660156 80.394531 132.847656 C 80.394531 130.476562 78.773438 128.496094 76.578125 127.921875 L 76.578125 107.175781 L 74.039062 107.175781 Z M 83.785156 116.691406 C 81.597656 117.253906 79.972656 119.242188 79.972656 121.605469 C 79.972656 124.417969 82.25 126.695312 85.058594 126.695312 C 87.863281 126.695312 90.136719 124.417969 90.136719 121.605469 C 90.136719 119.242188 88.519531 117.253906 86.324219 116.691406 L 86.324219 107.175781 L 83.785156 107.175781 Z M 64.296875 113.289062 L 57.730469 117.710938 C 57.378906 117.949219 57.171875 118.347656 57.171875 118.765625 L 57.171875 123.472656 C 54.976562 124.035156 53.355469 126.027344 53.355469 128.398438 C 53.355469 131.199219 55.636719 133.488281 58.441406 133.488281 C 61.246094 133.488281 63.523438 131.199219 63.523438 128.398438 C 63.523438 126.027344 61.902344 124.035156 59.710938 123.472656 L 59.710938 119.445312 L 66.277344 115.011719 C 66.625 114.785156 66.835938 114.382812 66.835938 113.964844 L 66.835938 107.175781 L 64.296875 107.175781 Z M 6.722656 96.25 C 6.722656 99.0625 8.996094 101.339844 11.804688 101.339844 C 14.171875 101.339844 16.15625 99.714844 16.71875 97.523438 L 30.757812 97.523438 C 31.214844 97.523438 31.640625 97.273438 31.863281 96.871094 L 35.734375 89.988281 L 41.433594 89.988281 L 41.433594 87.441406 L 34.992188 87.441406 C 34.53125 87.441406 34.105469 87.691406 33.882812 88.089844 L 30.015625 94.976562 L 16.71875 94.976562 C 16.15625 92.785156 14.171875 91.160156 11.804688 91.160156 C 8.996094 91.160156 6.722656 93.441406 6.722656 96.25 Z M 41.433594 80.429688 L 41.433594 77.882812 L 33.34375 77.882812 C 32.777344 75.691406 30.796875 74.070312 28.429688 74.070312 C 25.621094 74.070312 23.34375 76.347656 23.34375 79.15625 C 23.34375 81.96875 25.621094 84.246094 28.429688 84.246094 C 30.796875 84.246094 32.777344 82.621094 33.34375 80.429688 Z M 41.433594 70.671875 L 41.433594 68.125 L 35.734375 68.125 L 31.863281 61.238281 C 31.640625 60.839844 31.214844 60.589844 30.757812 60.589844 L 25.4375 60.589844 C 24.871094 58.398438 22.890625 56.773438 20.523438 56.773438 C 17.714844 56.773438 15.4375 59.050781 15.4375 61.863281 C 15.4375 64.671875 17.714844 66.949219 20.523438 66.949219 C 22.890625 66.949219 24.871094 65.328125 25.4375 63.136719 L 30.015625 63.136719 L 33.882812 70.019531 C 34.105469 70.421875 34.53125 70.671875 34.992188 70.671875 Z M 138.285156 91.160156 C 135.925781 91.160156 133.9375 92.785156 133.375 94.976562 L 120.085938 94.976562 L 116.210938 88.089844 C 115.992188 87.691406 115.566406 87.441406 115.109375 87.441406 L 108.667969 87.441406 L 108.667969 89.988281 L 114.355469 89.988281 L 118.230469 96.871094 C 118.457031 97.273438 118.886719 97.523438 119.34375 97.523438 L 133.375 97.523438 C 133.9375 99.714844 135.925781 101.339844 138.285156 101.339844 C 141.101562 101.339844 143.375 99.0625 143.375 96.25 C 143.375 93.441406 141.101562 91.160156 138.285156 91.160156 Z M 116.753906 80.429688 C 117.316406 82.621094 119.304688 84.246094 121.664062 84.246094 C 124.480469 84.246094 126.746094 81.96875 126.746094 79.15625 C 126.746094 76.347656 124.480469 74.070312 121.664062 74.070312 C 119.304688 74.070312 117.316406 75.691406 116.753906 77.882812 L 108.667969 77.882812 L 108.667969 80.429688 Z M 108.667969 70.671875 L 108.667969 68.125 L 114.355469 68.125 L 118.230469 61.238281 C 118.457031 60.839844 118.886719 60.589844 119.34375 60.589844 L 124.660156 60.589844 C 125.222656 58.398438 127.203125 56.773438 129.570312 56.773438 C 132.378906 56.773438 134.652344 59.050781 134.652344 61.863281 C 134.652344 64.671875 132.378906 66.949219 129.570312 66.949219 C 127.203125 66.949219 125.222656 65.328125 124.660156 63.136719 L 120.085938 63.136719 L 116.210938 70.019531 C 115.992188 70.421875 115.566406 70.671875 115.109375 70.671875 L 108.667969 70.671875 " fill-opacity="1" fill-rule="nonzero"/></g></svg>