<svg xmlns="http://www.w3.org/2000/svg" xmlns:xlink="http://www.w3.org/1999/xlink" width="200" zoomAndPan="magnify" viewBox="0 0 150 149.999998" height="200" preserveAspectRatio="xMidYMid meet" version="1.0"><defs><clipPath id="088a863eb1"><path d="M 28.1875 40.398438 L 121.9375 40.398438 L 121.9375 110.148438 L 28.1875 110.148438 Z M 28.1875 40.398438 " clip-rule="nonzero"/></clipPath></defs><g clip-path="url(#088a863eb1)"><path fill="#0d6591" d="M 117.449219 40.402344 L 32.671875 40.402344 C 32.378906 40.402344 32.085938 40.433594 31.796875 40.492188 C 31.507812 40.546875 31.226562 40.632812 30.957031 40.746094 C 30.683594 40.859375 30.425781 40.996094 30.179688 41.160156 C 29.933594 41.324219 29.707031 41.511719 29.5 41.71875 C 29.292969 41.925781 29.105469 42.15625 28.941406 42.398438 C 28.777344 42.644531 28.640625 42.902344 28.527344 43.175781 C 28.414062 43.449219 28.328125 43.730469 28.273438 44.019531 C 28.214844 44.308594 28.1875 44.597656 28.1875 44.894531 L 28.1875 105.640625 C 28.1875 105.933594 28.214844 106.226562 28.273438 106.515625 C 28.328125 106.804688 28.414062 107.085938 28.527344 107.359375 C 28.640625 107.628906 28.777344 107.890625 28.941406 108.132812 C 29.105469 108.378906 29.292969 108.605469 29.5 108.816406 C 29.707031 109.023438 29.933594 109.210938 30.179688 109.371094 C 30.425781 109.535156 30.683594 109.675781 30.957031 109.789062 C 31.226562 109.902344 31.507812 109.984375 31.796875 110.042969 C 32.085938 110.101562 32.378906 110.128906 32.671875 110.128906 L 117.449219 110.128906 C 117.742188 110.128906 118.035156 110.101562 118.324219 110.042969 C 118.613281 109.984375 118.894531 109.902344 119.164062 109.789062 C 119.4375 109.675781 119.695312 109.535156 119.941406 109.371094 C 120.1875 109.210938 120.414062 109.023438 120.621094 108.816406 C 120.828125 108.605469 121.015625 108.378906 121.179688 108.132812 C 121.34375 107.890625 121.480469 107.628906 121.59375 107.359375 C 121.707031 107.085938 121.792969 106.804688 121.847656 106.515625 C 121.90625 106.226562 121.9375 105.933594 121.9375 105.640625 L 121.9375 44.894531 C 121.9375 44.597656 121.90625 44.308594 121.847656 44.019531 C 121.792969 43.730469 121.707031 43.449219 121.59375 43.175781 C 121.480469 42.902344 121.34375 42.644531 121.179688 42.398438 C 121.015625 42.15625 120.828125 41.925781 120.621094 41.71875 C 120.414062 41.511719 120.1875 41.324219 119.941406 41.160156 C 119.695312 40.996094 119.4375 40.859375 119.164062 40.746094 C 118.894531 40.632812 118.613281 40.546875 118.324219 40.492188 C 118.035156 40.433594 117.742188 40.402344 117.449219 40.402344 Z M 117.945312 105.640625 C 117.945312 105.777344 117.898438 105.894531 117.800781 105.992188 C 117.703125 106.089844 117.585938 106.140625 117.449219 106.140625 L 32.671875 106.140625 C 32.535156 106.140625 32.417969 106.089844 32.320312 105.992188 C 32.222656 105.894531 32.175781 105.777344 32.175781 105.640625 L 32.175781 44.894531 C 32.175781 44.753906 32.222656 44.636719 32.320312 44.539062 C 32.417969 44.445312 32.535156 44.394531 32.671875 44.394531 L 117.449219 44.394531 C 117.585938 44.394531 117.703125 44.445312 117.800781 44.539062 C 117.898438 44.636719 117.945312 44.753906 117.945312 44.894531 Z M 117.945312 105.640625 " fill-opacity="1" fill-rule="nonzero"/></g><path fill="#0d6591" d="M 81.132812 83.710938 L 80.601562 83.710938 L 80.601562 53.003906 C 80.601562 52.640625 80.566406 52.28125 80.496094 51.921875 C 80.421875 51.566406 80.316406 51.21875 80.179688 50.882812 C 80.039062 50.546875 79.871094 50.226562 79.667969 49.925781 C 79.464844 49.621094 79.234375 49.34375 78.976562 49.085938 C 78.722656 48.828125 78.441406 48.597656 78.136719 48.398438 C 77.835938 48.195312 77.515625 48.023438 77.179688 47.882812 C 76.84375 47.746094 76.5 47.640625 76.140625 47.570312 C 75.785156 47.496094 75.425781 47.460938 75.0625 47.460938 C 74.695312 47.460938 74.335938 47.496094 73.980469 47.570312 C 73.621094 47.640625 73.277344 47.746094 72.941406 47.882812 C 72.605469 48.023438 72.285156 48.195312 71.984375 48.398438 C 71.679688 48.597656 71.398438 48.828125 71.144531 49.085938 C 70.886719 49.34375 70.65625 49.621094 70.453125 49.925781 C 70.25 50.226562 70.082031 50.546875 69.941406 50.882812 C 69.804688 51.21875 69.699219 51.566406 69.625 51.921875 C 69.554688 52.28125 69.519531 52.640625 69.519531 53.003906 L 69.519531 83.710938 L 68.988281 83.710938 C 68.667969 83.703125 68.347656 83.722656 68.035156 83.777344 C 67.71875 83.832031 67.410156 83.914062 67.113281 84.03125 C 66.8125 84.144531 66.527344 84.289062 66.257812 84.460938 C 65.988281 84.632812 65.738281 84.832031 65.507812 85.054688 C 65.28125 85.277344 65.074219 85.519531 64.894531 85.785156 C 64.710938 86.050781 64.558594 86.328125 64.433594 86.625 C 64.308594 86.917969 64.214844 87.222656 64.152344 87.535156 C 64.085938 87.851562 64.054688 88.167969 64.054688 88.488281 C 64.054688 88.808594 64.085938 89.125 64.152344 89.4375 C 64.214844 89.753906 64.308594 90.058594 64.433594 90.351562 C 64.558594 90.648438 64.710938 90.925781 64.894531 91.191406 C 65.074219 91.457031 65.28125 91.699219 65.507812 91.921875 C 65.738281 92.144531 65.988281 92.34375 66.257812 92.515625 C 66.527344 92.6875 66.8125 92.832031 67.113281 92.945312 C 67.410156 93.0625 67.71875 93.144531 68.035156 93.199219 C 68.347656 93.253906 68.667969 93.273438 68.988281 93.265625 L 69.519531 93.265625 L 69.519531 97.53125 C 69.519531 97.894531 69.554688 98.253906 69.625 98.609375 C 69.699219 98.96875 69.804688 99.3125 69.941406 99.648438 C 70.082031 99.984375 70.25 100.304688 70.453125 100.609375 C 70.65625 100.910156 70.886719 101.191406 71.144531 101.449219 C 71.398438 101.707031 71.679688 101.933594 71.984375 102.136719 C 72.285156 102.339844 72.605469 102.511719 72.941406 102.648438 C 73.277344 102.789062 73.621094 102.894531 73.980469 102.964844 C 74.335938 103.035156 74.695312 103.070312 75.0625 103.070312 C 75.425781 103.070312 75.785156 103.035156 76.140625 102.964844 C 76.5 102.894531 76.84375 102.789062 77.179688 102.648438 C 77.515625 102.511719 77.835938 102.339844 78.136719 102.136719 C 78.441406 101.933594 78.722656 101.707031 78.976562 101.449219 C 79.234375 101.191406 79.464844 100.910156 79.667969 100.609375 C 79.871094 100.304688 80.039062 99.984375 80.179688 99.648438 C 80.316406 99.3125 80.421875 98.96875 80.496094 98.609375 C 80.566406 98.253906 80.601562 97.894531 80.601562 97.53125 L 80.601562 93.28125 L 81.132812 93.28125 C 81.453125 93.289062 81.773438 93.269531 82.085938 93.214844 C 82.402344 93.160156 82.710938 93.078125 83.007812 92.960938 C 83.308594 92.847656 83.59375 92.703125 83.863281 92.527344 C 84.132812 92.355469 84.382812 92.160156 84.613281 91.9375 C 84.839844 91.714844 85.046875 91.46875 85.226562 91.207031 C 85.410156 90.941406 85.5625 90.664062 85.6875 90.367188 C 85.8125 90.074219 85.90625 89.769531 85.96875 89.453125 C 86.035156 89.140625 86.066406 88.824219 86.066406 88.503906 C 86.066406 88.183594 86.035156 87.867188 85.96875 87.550781 C 85.90625 87.238281 85.8125 86.933594 85.6875 86.640625 C 85.5625 86.34375 85.410156 86.0625 85.226562 85.800781 C 85.046875 85.535156 84.839844 85.292969 84.613281 85.070312 C 84.382812 84.847656 84.132812 84.648438 83.863281 84.476562 C 83.59375 84.304688 83.308594 84.160156 83.007812 84.046875 C 82.710938 83.929688 82.402344 83.84375 82.085938 83.792969 C 81.773438 83.738281 81.453125 83.714844 81.132812 83.726562 Z M 73.507812 53.003906 C 73.507812 52.796875 73.550781 52.601562 73.628906 52.410156 C 73.707031 52.21875 73.820312 52.054688 73.964844 51.90625 C 74.109375 51.761719 74.277344 51.648438 74.46875 51.570312 C 74.65625 51.492188 74.855469 51.453125 75.0625 51.453125 C 75.265625 51.453125 75.464844 51.492188 75.652344 51.570312 C 75.84375 51.648438 76.011719 51.761719 76.15625 51.90625 C 76.300781 52.054688 76.414062 52.21875 76.492188 52.410156 C 76.570312 52.601562 76.613281 52.796875 76.613281 53.003906 L 76.613281 83.710938 L 73.507812 83.710938 Z M 76.613281 97.53125 C 76.613281 97.734375 76.570312 97.933594 76.492188 98.125 C 76.414062 98.3125 76.304688 98.480469 76.15625 98.628906 C 76.011719 98.773438 75.84375 98.886719 75.65625 98.964844 C 75.464844 99.046875 75.265625 99.085938 75.0625 99.085938 C 74.855469 99.085938 74.65625 99.046875 74.464844 98.964844 C 74.277344 98.886719 74.109375 98.773438 73.964844 98.628906 C 73.816406 98.480469 73.707031 98.3125 73.628906 98.125 C 73.550781 97.933594 73.507812 97.734375 73.507812 97.53125 L 73.507812 93.28125 L 76.613281 93.28125 Z M 81.132812 89.289062 L 68.988281 89.289062 C 68.878906 89.296875 68.769531 89.285156 68.667969 89.246094 C 68.5625 89.210938 68.46875 89.15625 68.390625 89.082031 C 68.308594 89.007812 68.246094 88.917969 68.203125 88.820312 C 68.160156 88.71875 68.136719 88.613281 68.136719 88.503906 C 68.136719 88.394531 68.160156 88.289062 68.203125 88.1875 C 68.246094 88.085938 68.308594 88 68.390625 87.925781 C 68.46875 87.847656 68.5625 87.792969 68.667969 87.757812 C 68.769531 87.722656 68.878906 87.707031 68.988281 87.71875 L 81.132812 87.71875 C 81.242188 87.707031 81.351562 87.722656 81.453125 87.757812 C 81.558594 87.792969 81.652344 87.847656 81.730469 87.925781 C 81.8125 88 81.875 88.085938 81.917969 88.1875 C 81.960938 88.289062 81.984375 88.394531 81.984375 88.503906 C 81.984375 88.613281 81.960938 88.71875 81.917969 88.820312 C 81.875 88.917969 81.8125 89.007812 81.730469 89.082031 C 81.652344 89.15625 81.558594 89.210938 81.453125 89.246094 C 81.351562 89.285156 81.242188 89.296875 81.132812 89.289062 Z M 81.132812 89.289062 " fill-opacity="1" fill-rule="nonzero"/><path fill="#0d6591" d="M 105.914062 70.488281 L 105.378906 70.488281 L 105.378906 53.03125 C 105.378906 52.664062 105.34375 52.304688 105.273438 51.949219 C 105.203125 51.589844 105.097656 51.246094 104.957031 50.910156 C 104.820312 50.574219 104.648438 50.253906 104.445312 49.949219 C 104.242188 49.648438 104.015625 49.367188 103.757812 49.109375 C 103.5 48.851562 103.21875 48.625 102.917969 48.421875 C 102.613281 48.21875 102.296875 48.046875 101.960938 47.910156 C 101.625 47.769531 101.277344 47.664062 100.921875 47.59375 C 100.5625 47.523438 100.203125 47.488281 99.839844 47.488281 C 99.476562 47.488281 99.117188 47.523438 98.757812 47.59375 C 98.402344 47.664062 98.054688 47.769531 97.71875 47.910156 C 97.382812 48.046875 97.0625 48.21875 96.761719 48.421875 C 96.460938 48.625 96.179688 48.851562 95.921875 49.109375 C 95.664062 49.367188 95.433594 49.648438 95.234375 49.949219 C 95.03125 50.253906 94.859375 50.574219 94.722656 50.910156 C 94.582031 51.246094 94.476562 51.589844 94.40625 51.949219 C 94.335938 52.304688 94.300781 52.664062 94.300781 53.03125 L 94.300781 70.488281 L 93.765625 70.488281 C 93.445312 70.476562 93.128906 70.5 92.8125 70.554688 C 92.496094 70.605469 92.1875 70.691406 91.890625 70.804688 C 91.59375 70.921875 91.308594 71.066406 91.039062 71.238281 C 90.769531 71.410156 90.519531 71.609375 90.289062 71.832031 C 90.058594 72.054688 89.851562 72.296875 89.671875 72.5625 C 89.492188 72.824219 89.335938 73.105469 89.210938 73.398438 C 89.085938 73.695312 88.992188 74 88.929688 74.3125 C 88.867188 74.628906 88.835938 74.945312 88.835938 75.265625 C 88.835938 75.585938 88.867188 75.902344 88.929688 76.214844 C 88.992188 76.53125 89.085938 76.832031 89.210938 77.128906 C 89.335938 77.421875 89.492188 77.703125 89.671875 77.96875 C 89.851562 78.230469 90.058594 78.476562 90.289062 78.699219 C 90.519531 78.921875 90.769531 79.117188 91.039062 79.289062 C 91.308594 79.464844 91.59375 79.605469 91.890625 79.722656 C 92.1875 79.835938 92.496094 79.921875 92.8125 79.976562 C 93.128906 80.03125 93.445312 80.050781 93.765625 80.039062 L 94.300781 80.039062 L 94.300781 97.53125 C 94.300781 97.894531 94.335938 98.253906 94.40625 98.609375 C 94.476562 98.96875 94.582031 99.3125 94.722656 99.648438 C 94.859375 99.984375 95.03125 100.304688 95.234375 100.609375 C 95.433594 100.910156 95.664062 101.191406 95.921875 101.449219 C 96.179688 101.707031 96.460938 101.933594 96.761719 102.136719 C 97.0625 102.339844 97.382812 102.511719 97.71875 102.648438 C 98.054688 102.789062 98.402344 102.894531 98.757812 102.964844 C 99.117188 103.035156 99.476562 103.070312 99.839844 103.070312 C 100.203125 103.070312 100.5625 103.035156 100.921875 102.964844 C 101.277344 102.894531 101.625 102.789062 101.960938 102.648438 C 102.296875 102.511719 102.613281 102.339844 102.917969 102.136719 C 103.21875 101.933594 103.5 101.707031 103.757812 101.449219 C 104.015625 101.191406 104.242188 100.910156 104.445312 100.609375 C 104.648438 100.304688 104.820312 99.984375 104.957031 99.648438 C 105.097656 99.3125 105.203125 98.96875 105.273438 98.609375 C 105.34375 98.253906 105.378906 97.894531 105.378906 97.53125 L 105.378906 80.039062 L 105.914062 80.039062 C 106.234375 80.050781 106.550781 80.03125 106.867188 79.976562 C 107.183594 79.921875 107.488281 79.835938 107.789062 79.722656 C 108.085938 79.605469 108.371094 79.464844 108.640625 79.289062 C 108.910156 79.117188 109.160156 78.921875 109.390625 78.699219 C 109.621094 78.476562 109.828125 78.230469 110.007812 77.96875 C 110.1875 77.703125 110.339844 77.421875 110.464844 77.128906 C 110.589844 76.832031 110.6875 76.53125 110.75 76.214844 C 110.8125 75.902344 110.84375 75.585938 110.84375 75.265625 C 110.84375 74.945312 110.8125 74.628906 110.75 74.3125 C 110.6875 74 110.589844 73.695312 110.464844 73.398438 C 110.339844 73.105469 110.1875 72.824219 110.007812 72.5625 C 109.828125 72.296875 109.621094 72.054688 109.390625 71.832031 C 109.160156 71.609375 108.910156 71.410156 108.640625 71.238281 C 108.371094 71.066406 108.085938 70.921875 107.789062 70.804688 C 107.488281 70.691406 107.183594 70.605469 106.867188 70.554688 C 106.550781 70.5 106.234375 70.476562 105.914062 70.488281 Z M 98.289062 53.03125 C 98.289062 52.824219 98.328125 52.625 98.40625 52.4375 C 98.484375 52.246094 98.597656 52.078125 98.742188 51.933594 C 98.886719 51.785156 99.054688 51.675781 99.246094 51.597656 C 99.4375 51.515625 99.632812 51.476562 99.839844 51.476562 C 100.046875 51.476562 100.242188 51.515625 100.433594 51.597656 C 100.621094 51.675781 100.789062 51.785156 100.9375 51.933594 C 101.082031 52.078125 101.195312 52.246094 101.273438 52.4375 C 101.351562 52.625 101.390625 52.824219 101.390625 53.03125 L 101.390625 70.488281 L 98.289062 70.488281 Z M 101.390625 97.554688 C 101.390625 97.761719 101.351562 97.957031 101.273438 98.148438 C 101.195312 98.339844 101.082031 98.507812 100.9375 98.652344 C 100.792969 98.800781 100.625 98.910156 100.433594 98.992188 C 100.242188 99.070312 100.046875 99.109375 99.839844 99.109375 C 99.632812 99.109375 99.4375 99.070312 99.246094 98.992188 C 99.054688 98.910156 98.886719 98.800781 98.742188 98.652344 C 98.597656 98.507812 98.484375 98.339844 98.40625 98.148438 C 98.328125 97.957031 98.289062 97.761719 98.289062 97.554688 L 98.289062 80.039062 L 101.390625 80.039062 Z M 105.914062 76.074219 L 93.765625 76.074219 C 93.65625 76.082031 93.550781 76.070312 93.445312 76.035156 C 93.339844 76 93.25 75.941406 93.167969 75.867188 C 93.085938 75.792969 93.023438 75.707031 92.980469 75.605469 C 92.9375 75.503906 92.914062 75.398438 92.914062 75.289062 C 92.914062 75.179688 92.9375 75.074219 92.980469 74.972656 C 93.023438 74.871094 93.085938 74.785156 93.167969 74.710938 C 93.25 74.636719 93.339844 74.582031 93.445312 74.542969 C 93.550781 74.507812 93.65625 74.496094 93.765625 74.503906 L 105.914062 74.503906 C 106.023438 74.496094 106.128906 74.507812 106.234375 74.542969 C 106.335938 74.582031 106.429688 74.636719 106.511719 74.710938 C 106.589844 74.785156 106.652344 74.871094 106.699219 74.972656 C 106.742188 75.074219 106.765625 75.179688 106.765625 75.289062 C 106.765625 75.398438 106.742188 75.503906 106.699219 75.605469 C 106.652344 75.707031 106.589844 75.792969 106.511719 75.867188 C 106.429688 75.941406 106.335938 76 106.234375 76.035156 C 106.128906 76.070312 106.023438 76.082031 105.914062 76.074219 Z M 105.914062 76.074219 " fill-opacity="1" fill-rule="nonzero"/><path fill="#0d6591" d="M 56.355469 59.175781 L 55.820312 59.175781 L 55.820312 53.003906 C 55.820312 52.640625 55.785156 52.28125 55.714844 51.921875 C 55.644531 51.566406 55.539062 51.21875 55.398438 50.882812 C 55.261719 50.546875 55.089844 50.226562 54.886719 49.925781 C 54.6875 49.621094 54.457031 49.34375 54.199219 49.085938 C 53.941406 48.828125 53.660156 48.597656 53.359375 48.398438 C 53.058594 48.195312 52.738281 48.023438 52.402344 47.882812 C 52.066406 47.746094 51.71875 47.640625 51.363281 47.570312 C 51.003906 47.496094 50.644531 47.460938 50.28125 47.460938 C 49.917969 47.460938 49.558594 47.496094 49.199219 47.570312 C 48.84375 47.640625 48.496094 47.746094 48.160156 47.882812 C 47.824219 48.023438 47.507812 48.195312 47.203125 48.398438 C 46.902344 48.597656 46.621094 48.828125 46.363281 49.085938 C 46.105469 49.34375 45.878906 49.621094 45.675781 49.925781 C 45.472656 50.226562 45.300781 50.546875 45.164062 50.882812 C 45.023438 51.21875 44.917969 51.566406 44.847656 51.921875 C 44.777344 52.28125 44.742188 52.640625 44.742188 53.003906 L 44.742188 59.175781 L 44.207031 59.175781 C 43.894531 59.175781 43.582031 59.207031 43.277344 59.265625 C 42.96875 59.328125 42.671875 59.417969 42.378906 59.539062 C 42.089844 59.660156 41.816406 59.808594 41.554688 59.980469 C 41.292969 60.15625 41.054688 60.351562 40.832031 60.574219 C 40.609375 60.796875 40.410156 61.039062 40.238281 61.300781 C 40.0625 61.558594 39.917969 61.835938 39.796875 62.125 C 39.675781 62.414062 39.585938 62.714844 39.523438 63.023438 C 39.464844 63.328125 39.433594 63.640625 39.433594 63.953125 C 39.433594 64.265625 39.464844 64.578125 39.523438 64.886719 C 39.585938 65.191406 39.675781 65.492188 39.796875 65.78125 C 39.917969 66.070312 40.0625 66.347656 40.238281 66.609375 C 40.410156 66.867188 40.609375 67.109375 40.832031 67.332031 C 41.054688 67.554688 41.292969 67.75 41.554688 67.925781 C 41.816406 68.101562 42.089844 68.246094 42.378906 68.367188 C 42.671875 68.488281 42.96875 68.578125 43.277344 68.640625 C 43.582031 68.703125 43.894531 68.730469 44.207031 68.730469 L 44.742188 68.730469 L 44.742188 97.53125 C 44.742188 97.894531 44.777344 98.253906 44.847656 98.609375 C 44.917969 98.96875 45.023438 99.3125 45.164062 99.648438 C 45.300781 99.984375 45.472656 100.304688 45.675781 100.609375 C 45.878906 100.910156 46.105469 101.191406 46.363281 101.449219 C 46.621094 101.707031 46.902344 101.933594 47.203125 102.136719 C 47.507812 102.339844 47.824219 102.511719 48.160156 102.648438 C 48.496094 102.789062 48.84375 102.894531 49.199219 102.964844 C 49.558594 103.035156 49.917969 103.070312 50.28125 103.070312 C 50.644531 103.070312 51.003906 103.035156 51.363281 102.964844 C 51.71875 102.894531 52.066406 102.789062 52.402344 102.648438 C 52.738281 102.511719 53.058594 102.339844 53.359375 102.136719 C 53.660156 101.933594 53.941406 101.707031 54.199219 101.449219 C 54.457031 101.191406 54.6875 100.910156 54.886719 100.609375 C 55.089844 100.304688 55.261719 99.984375 55.398438 99.648438 C 55.539062 99.3125 55.644531 98.96875 55.714844 98.609375 C 55.785156 98.253906 55.820312 97.894531 55.820312 97.53125 L 55.820312 68.730469 L 56.355469 68.730469 C 56.667969 68.730469 56.980469 68.703125 57.289062 68.640625 C 57.59375 68.578125 57.894531 68.488281 58.183594 68.367188 C 58.472656 68.246094 58.746094 68.101562 59.007812 67.925781 C 59.269531 67.75 59.511719 67.554688 59.730469 67.332031 C 59.953125 67.109375 60.152344 66.867188 60.324219 66.609375 C 60.5 66.347656 60.648438 66.070312 60.765625 65.78125 C 60.886719 65.492188 60.976562 65.191406 61.039062 64.886719 C 61.101562 64.578125 61.128906 64.265625 61.128906 63.953125 C 61.128906 63.640625 61.101562 63.328125 61.039062 63.023438 C 60.976562 62.714844 60.886719 62.414062 60.765625 62.125 C 60.648438 61.835938 60.5 61.558594 60.324219 61.300781 C 60.152344 61.039062 59.953125 60.796875 59.730469 60.574219 C 59.511719 60.351562 59.269531 60.15625 59.007812 59.980469 C 58.746094 59.808594 58.472656 59.660156 58.183594 59.539062 C 57.894531 59.417969 57.59375 59.328125 57.289062 59.265625 C 56.980469 59.207031 56.667969 59.175781 56.355469 59.175781 Z M 48.730469 53.003906 C 48.730469 52.796875 48.769531 52.601562 48.847656 52.410156 C 48.925781 52.21875 49.039062 52.054688 49.183594 51.90625 C 49.332031 51.761719 49.5 51.648438 49.6875 51.570312 C 49.878906 51.492188 50.074219 51.453125 50.28125 51.453125 C 50.488281 51.453125 50.683594 51.492188 50.875 51.570312 C 51.066406 51.648438 51.234375 51.761719 51.378906 51.90625 C 51.523438 52.054688 51.636719 52.21875 51.714844 52.410156 C 51.792969 52.601562 51.832031 52.796875 51.832031 53.003906 L 51.832031 59.175781 L 48.730469 59.175781 Z M 51.832031 97.53125 C 51.835938 97.84375 51.75 98.132812 51.574219 98.394531 C 51.402344 98.660156 51.167969 98.851562 50.878906 98.972656 C 50.585938 99.089844 50.289062 99.121094 49.980469 99.058594 C 49.671875 98.996094 49.40625 98.851562 49.183594 98.625 C 48.878906 98.324219 48.730469 97.957031 48.730469 97.53125 L 48.730469 68.730469 L 51.832031 68.730469 Z M 56.355469 64.742188 L 44.207031 64.742188 C 43.992188 64.742188 43.804688 64.664062 43.652344 64.511719 C 43.496094 64.355469 43.421875 64.171875 43.421875 63.953125 C 43.421875 63.734375 43.496094 63.550781 43.652344 63.394531 C 43.804688 63.242188 43.992188 63.164062 44.207031 63.164062 L 56.355469 63.164062 C 56.574219 63.164062 56.757812 63.242188 56.914062 63.394531 C 57.066406 63.550781 57.144531 63.734375 57.144531 63.953125 C 57.144531 64.171875 57.066406 64.355469 56.914062 64.511719 C 56.757812 64.664062 56.574219 64.742188 56.355469 64.742188 Z M 56.355469 64.742188 " fill-opacity="1" fill-rule="nonzero"/></svg>