<svg xmlns="http://www.w3.org/2000/svg" xmlns:xlink="http://www.w3.org/1999/xlink" width="200" zoomAndPan="magnify" viewBox="0 0 150 149.999998" height="200" preserveAspectRatio="xMidYMid meet" version="1.0"><defs><clipPath id="3c93b831b0"><path d="M 28.363281 43.957031 L 126.613281 43.957031 L 126.613281 106.207031 L 28.363281 106.207031 Z M 28.363281 43.957031 " clip-rule="nonzero"/></clipPath></defs><path fill="#0d6591" d="M 77.984375 90.742188 L 96.175781 90.742188 C 96.363281 90.742188 96.539062 90.707031 96.710938 90.636719 C 96.882812 90.566406 97.035156 90.464844 97.167969 90.332031 C 97.300781 90.199219 97.402344 90.046875 97.472656 89.875 C 97.542969 89.703125 97.578125 89.519531 97.578125 89.335938 C 97.578125 89.148438 97.542969 88.96875 97.472656 88.796875 C 97.402344 88.621094 97.300781 88.46875 97.167969 88.335938 C 97.035156 88.207031 96.882812 88.105469 96.710938 88.03125 C 96.539062 87.960938 96.363281 87.925781 96.175781 87.925781 L 77.984375 87.925781 C 77.796875 87.925781 77.617188 87.960938 77.445312 88.03125 C 77.273438 88.105469 77.121094 88.207031 76.992188 88.335938 C 76.859375 88.46875 76.757812 88.621094 76.6875 88.796875 C 76.613281 88.96875 76.578125 89.148438 76.578125 89.335938 C 76.578125 89.519531 76.613281 89.703125 76.6875 89.875 C 76.757812 90.046875 76.859375 90.199219 76.992188 90.332031 C 77.121094 90.464844 77.273438 90.566406 77.445312 90.636719 C 77.617188 90.707031 77.796875 90.742188 77.984375 90.742188 Z M 77.984375 90.742188 " fill-opacity="1" fill-rule="nonzero"/><path fill="#0d6591" d="M 77.984375 84.058594 L 114.234375 84.058594 C 114.417969 84.058594 114.597656 84.019531 114.769531 83.949219 C 114.941406 83.878906 115.09375 83.777344 115.226562 83.644531 C 115.359375 83.511719 115.460938 83.359375 115.53125 83.1875 C 115.601562 83.015625 115.636719 82.835938 115.636719 82.648438 C 115.636719 82.460938 115.601562 82.28125 115.53125 82.109375 C 115.460938 81.933594 115.359375 81.78125 115.226562 81.648438 C 115.09375 81.519531 114.941406 81.417969 114.769531 81.34375 C 114.597656 81.273438 114.417969 81.238281 114.234375 81.238281 L 77.984375 81.238281 C 77.796875 81.238281 77.617188 81.273438 77.445312 81.34375 C 77.273438 81.417969 77.121094 81.519531 76.992188 81.648438 C 76.859375 81.78125 76.757812 81.933594 76.6875 82.109375 C 76.613281 82.28125 76.578125 82.460938 76.578125 82.648438 C 76.578125 82.835938 76.613281 83.015625 76.6875 83.1875 C 76.757812 83.359375 76.859375 83.511719 76.992188 83.644531 C 77.121094 83.777344 77.273438 83.878906 77.445312 83.949219 C 77.617188 84.019531 77.796875 84.058594 77.984375 84.058594 Z M 77.984375 84.058594 " fill-opacity="1" fill-rule="nonzero"/><path fill="#0d6591" d="M 40.484375 96.539062 L 69.199219 96.539062 C 69.386719 96.539062 69.566406 96.503906 69.738281 96.433594 C 69.910156 96.363281 70.0625 96.261719 70.195312 96.128906 C 70.324219 95.996094 70.425781 95.84375 70.496094 95.671875 C 70.570312 95.496094 70.605469 95.316406 70.605469 95.132812 L 70.605469 89.558594 L 60.566406 89.558594 C 60.378906 89.558594 60.199219 89.523438 60.027344 89.453125 C 59.855469 89.382812 59.703125 89.28125 59.574219 89.148438 C 59.441406 89.015625 59.339844 88.863281 59.269531 88.691406 C 59.195312 88.515625 59.160156 88.335938 59.160156 88.148438 C 59.160156 87.964844 59.195312 87.785156 59.269531 87.609375 C 59.339844 87.4375 59.441406 87.285156 59.574219 87.152344 C 59.703125 87.019531 59.855469 86.917969 60.027344 86.847656 C 60.199219 86.777344 60.378906 86.742188 60.566406 86.742188 L 70.605469 86.742188 L 70.605469 83.210938 L 60.566406 83.210938 C 60.378906 83.210938 60.199219 83.175781 60.027344 83.105469 C 59.855469 83.03125 59.703125 82.929688 59.574219 82.796875 C 59.441406 82.664062 59.339844 82.511719 59.269531 82.339844 C 59.195312 82.167969 59.160156 81.988281 59.160156 81.800781 C 59.160156 81.613281 59.195312 81.433594 59.269531 81.261719 C 59.339844 81.089844 59.441406 80.9375 59.574219 80.804688 C 59.703125 80.671875 59.855469 80.570312 60.027344 80.5 C 60.199219 80.425781 60.378906 80.390625 60.566406 80.390625 L 70.605469 80.390625 L 70.605469 74.820312 C 70.605469 74.632812 70.570312 74.453125 70.496094 74.28125 C 70.425781 74.109375 70.324219 73.957031 70.195312 73.824219 C 70.0625 73.691406 69.910156 73.589844 69.738281 73.519531 C 69.566406 73.445312 69.386719 73.410156 69.199219 73.410156 L 40.484375 73.410156 C 40.300781 73.410156 40.121094 73.445312 39.949219 73.519531 C 39.777344 73.589844 39.625 73.691406 39.492188 73.824219 C 39.363281 73.957031 39.261719 74.109375 39.1875 74.28125 C 39.117188 74.453125 39.082031 74.632812 39.082031 74.820312 L 39.082031 80.390625 L 49.1875 80.390625 C 49.375 80.390625 49.554688 80.425781 49.726562 80.5 C 49.898438 80.570312 50.050781 80.671875 50.183594 80.804688 C 50.3125 80.9375 50.414062 81.089844 50.484375 81.261719 C 50.558594 81.433594 50.59375 81.613281 50.59375 81.800781 C 50.59375 81.988281 50.558594 82.167969 50.484375 82.339844 C 50.414062 82.511719 50.3125 82.664062 50.183594 82.796875 C 50.050781 82.929688 49.898438 83.03125 49.726562 83.105469 C 49.554688 83.175781 49.375 83.210938 49.1875 83.210938 L 39.082031 83.210938 L 39.082031 86.742188 L 49.1875 86.742188 C 49.375 86.742188 49.554688 86.777344 49.726562 86.847656 C 49.898438 86.917969 50.050781 87.019531 50.183594 87.152344 C 50.3125 87.285156 50.414062 87.4375 50.484375 87.609375 C 50.558594 87.785156 50.59375 87.964844 50.59375 88.148438 C 50.59375 88.335938 50.558594 88.515625 50.484375 88.691406 C 50.414062 88.863281 50.3125 89.015625 50.183594 89.148438 C 50.050781 89.28125 49.898438 89.382812 49.726562 89.453125 C 49.554688 89.523438 49.375 89.558594 49.1875 89.558594 L 39.082031 89.558594 L 39.082031 95.132812 C 39.082031 95.316406 39.117188 95.496094 39.1875 95.671875 C 39.261719 95.84375 39.363281 95.996094 39.492188 96.128906 C 39.625 96.261719 39.777344 96.363281 39.949219 96.433594 C 40.121094 96.503906 40.300781 96.539062 40.484375 96.539062 Z M 40.484375 96.539062 " fill-opacity="1" fill-rule="nonzero"/><g clip-path="url(#3c93b831b0)"><path fill="#0d6591" d="M 119.925781 43.957031 L 34.925781 43.957031 C 34.515625 43.957031 34.109375 43.996094 33.703125 44.078125 C 33.300781 44.160156 32.910156 44.28125 32.527344 44.4375 C 32.148438 44.597656 31.785156 44.792969 31.445312 45.019531 C 31.101562 45.25 30.785156 45.511719 30.496094 45.804688 C 30.203125 46.097656 29.945312 46.417969 29.714844 46.761719 C 29.488281 47.105469 29.292969 47.46875 29.136719 47.847656 C 28.980469 48.230469 28.859375 48.625 28.78125 49.03125 C 28.699219 49.4375 28.660156 49.84375 28.660156 50.257812 L 28.660156 99.933594 C 28.664062 100.347656 28.703125 100.753906 28.785156 101.160156 C 28.867188 101.5625 28.988281 101.953125 29.148438 102.335938 C 29.304688 102.714844 29.5 103.074219 29.726562 103.417969 C 29.957031 103.757812 30.214844 104.074219 30.507812 104.367188 C 30.796875 104.65625 31.113281 104.917969 31.457031 105.144531 C 31.796875 105.375 32.15625 105.566406 32.535156 105.726562 C 32.914062 105.882812 33.304688 106.003906 33.707031 106.082031 C 34.109375 106.164062 34.515625 106.203125 34.925781 106.207031 L 119.925781 106.207031 C 120.339844 106.203125 120.746094 106.164062 121.148438 106.082031 C 121.554688 106 121.945312 105.878906 122.324219 105.722656 C 122.707031 105.5625 123.066406 105.367188 123.410156 105.140625 C 123.75 104.910156 124.066406 104.648438 124.359375 104.355469 C 124.648438 104.0625 124.910156 103.742188 125.136719 103.398438 C 125.367188 103.054688 125.558594 102.691406 125.714844 102.3125 C 125.875 101.929688 125.992188 101.535156 126.074219 101.128906 C 126.152344 100.722656 126.195312 100.316406 126.195312 99.902344 L 126.195312 50.28125 C 126.195312 49.867188 126.15625 49.457031 126.078125 49.050781 C 125.996094 48.644531 125.878906 48.25 125.722656 47.863281 C 125.566406 47.480469 125.375 47.117188 125.144531 46.773438 C 124.917969 46.425781 124.65625 46.105469 124.367188 45.8125 C 124.074219 45.519531 123.757812 45.257812 123.417969 45.027344 C 123.074219 44.796875 122.710938 44.601562 122.332031 44.441406 C 121.949219 44.28125 121.558594 44.160156 121.152344 44.078125 C 120.75 43.996094 120.339844 43.957031 119.925781 43.957031 Z M 123.386719 99.933594 C 123.386719 100.394531 123.296875 100.839844 123.121094 101.265625 C 122.949219 101.691406 122.699219 102.070312 122.375 102.394531 C 122.050781 102.722656 121.675781 102.972656 121.25 103.152344 C 120.828125 103.328125 120.386719 103.417969 119.925781 103.417969 L 34.925781 103.417969 C 34.472656 103.414062 34.03125 103.320312 33.613281 103.140625 C 33.191406 102.960938 32.824219 102.710938 32.503906 102.382812 C 32.183594 102.058594 31.933594 101.683594 31.761719 101.257812 C 31.589844 100.835938 31.5 100.394531 31.5 99.933594 L 31.5 66.296875 L 123.386719 66.296875 Z M 123.386719 54.296875 L 31.5 54.296875 L 31.5 50.257812 C 31.5 49.800781 31.589844 49.359375 31.761719 48.9375 C 31.933594 48.511719 32.183594 48.136719 32.503906 47.8125 C 32.824219 47.484375 33.191406 47.230469 33.613281 47.050781 C 34.03125 46.875 34.46875 46.78125 34.925781 46.773438 L 119.925781 46.773438 C 120.386719 46.777344 120.828125 46.867188 121.25 47.042969 C 121.675781 47.21875 122.050781 47.472656 122.375 47.800781 C 122.699219 48.125 122.949219 48.503906 123.121094 48.929688 C 123.296875 49.355469 123.386719 49.796875 123.386719 50.257812 Z M 123.386719 54.296875 " fill-opacity="1" fill-rule="nonzero"/></g></svg>