<svg xmlns="http://www.w3.org/2000/svg" xmlns:xlink="http://www.w3.org/1999/xlink" width="200" zoomAndPan="magnify" viewBox="0 0 150 149.999998" height="200" preserveAspectRatio="xMidYMid meet" version="1.0"><defs><clipPath id="bca0f11e9c"><path d="M 29.570312 27.050781 L 120.320312 27.050781 L 120.320312 114.050781 L 29.570312 114.050781 Z M 29.570312 27.050781 " clip-rule="nonzero"/></clipPath><clipPath id="3e0953c2f9"><path d="M 70.171875 31.957031 L 79.921875 31.957031 L 79.921875 46.207031 L 70.171875 46.207031 Z M 70.171875 31.957031 " clip-rule="nonzero"/></clipPath></defs><g clip-path="url(#bca0f11e9c)"><path fill="#0d6591" d="M 45.242188 57.359375 L 52.632812 57.359375 L 53.769531 97.226562 L 44.25 97.226562 L 45.242188 57.355469 Z M 38.28125 98.660156 L 111.605469 98.660156 L 111.605469 103.789062 L 116 103.789062 L 116 108.917969 L 120.257812 108.917969 L 120.257812 114.046875 L 29.625 114.046875 L 29.625 108.917969 L 33.886719 108.917969 L 33.886719 103.789062 L 38.28125 103.789062 L 38.28125 98.65625 Z M 115.429688 46.226562 L 74.941406 27.050781 L 34.453125 46.226562 L 34.453125 49.363281 L 115.429688 49.363281 Z M 42.257812 50.796875 L 107.625 50.796875 L 107.625 55.925781 L 42.257812 55.925781 Z M 97.109375 57.359375 L 104.5 57.359375 L 105.632812 97.226562 L 96.113281 97.226562 Z M 79.820312 57.359375 L 87.210938 57.359375 L 88.347656 97.226562 L 78.828125 97.226562 L 79.820312 57.355469 Z M 62.53125 57.359375 L 69.921875 57.359375 L 71.058594 97.226562 L 61.539062 97.226562 Z M 62.53125 57.359375 " fill-opacity="1" fill-rule="nonzero"/></g><g clip-path="url(#3e0953c2f9)"><path fill="#ffffff" d="M 79.28125 43.707031 C 79.277344 43.707031 78.90625 43.824219 78.472656 43.941406 C 77.679688 44.15625 77.460938 44.167969 77.449219 44.167969 C 77.09375 44.1875 76.355469 44.042969 75.761719 43.929688 C 75.050781 43.789062 74.378906 43.660156 73.839844 43.660156 C 73.734375 43.660156 73.613281 43.664062 73.480469 43.675781 C 74.140625 42.585938 74.292969 42.101562 74.347656 41.796875 C 74.4375 41.300781 74.375 40.710938 74.25 40.097656 L 76.980469 40.097656 L 76.980469 38.0625 L 73.695312 38.0625 C 73.617188 37.785156 73.542969 37.535156 73.503906 37.34375 C 73.429688 37 73.347656 36.289062 73.316406 35.984375 C 73.339844 34.878906 74.269531 33.992188 75.410156 33.992188 C 76.566406 33.992188 77.503906 34.90625 77.503906 36.027344 L 79.597656 36.027344 C 79.597656 35.476562 79.488281 34.945312 79.269531 34.441406 C 79.058594 33.957031 78.757812 33.523438 78.371094 33.148438 C 77.988281 32.773438 77.539062 32.480469 77.039062 32.277344 C 76.523438 32.0625 75.976562 31.957031 75.410156 31.957031 C 74.84375 31.957031 74.296875 32.0625 73.78125 32.277344 C 73.28125 32.480469 72.832031 32.773438 72.449219 33.148438 C 72.066406 33.523438 71.761719 33.957031 71.550781 34.441406 C 71.332031 34.945312 71.222656 35.476562 71.222656 36.027344 L 71.222656 36.074219 L 71.226562 36.125 C 71.238281 36.234375 71.335938 37.222656 71.453125 37.761719 C 71.476562 37.859375 71.5 37.957031 71.527344 38.0625 L 70.175781 38.0625 L 70.175781 40.097656 L 72.105469 40.097656 C 72.132812 40.214844 72.160156 40.332031 72.183594 40.445312 C 72.316406 41.0625 72.304688 41.339844 72.285156 41.449219 C 72.28125 41.472656 72.1875 41.867188 71.316406 43.210938 C 71.117188 43.519531 70.917969 43.8125 70.753906 44.046875 C 70.613281 44.074219 70.371094 44.113281 70.371094 44.113281 L 70.371094 46.183594 C 71.394531 45.996094 73.238281 45.695312 73.839844 45.695312 C 74.171875 45.695312 74.796875 45.816406 75.351562 45.925781 C 76.09375 46.070312 76.800781 46.207031 77.386719 46.207031 C 77.445312 46.207031 77.503906 46.203125 77.558594 46.203125 C 77.753906 46.191406 78.117188 46.152344 79.035156 45.902344 C 79.503906 45.773438 79.898438 45.652344 79.917969 45.648438 L 79.28125 43.707031 " fill-opacity="1" fill-rule="nonzero"/></g></svg>