<svg xmlns="http://www.w3.org/2000/svg" xmlns:xlink="http://www.w3.org/1999/xlink" width="200" zoomAndPan="magnify" viewBox="0 0 150 149.999998" height="200" preserveAspectRatio="xMidYMid meet" version="1.0"><defs><clipPath id="e83230a124"><path d="M 10.007812 10.007812 L 140.507812 10.007812 L 140.507812 140.507812 L 10.007812 140.507812 Z M 10.007812 10.007812 " clip-rule="nonzero"/></clipPath><clipPath id="edb1537eed"><path d="M 29.144531 45.933594 L 121 45.933594 L 121 104.433594 L 29.144531 104.433594 Z M 29.144531 45.933594 " clip-rule="nonzero"/></clipPath></defs><g clip-path="url(#e83230a124)"><path fill="#0d6591" d="M 140.507812 75.257812 C 140.507812 76.328125 140.484375 77.394531 140.429688 78.460938 C 140.378906 79.527344 140.300781 80.59375 140.195312 81.65625 C 140.089844 82.71875 139.960938 83.777344 139.804688 84.832031 C 139.648438 85.890625 139.464844 86.941406 139.253906 87.988281 C 139.046875 89.035156 138.8125 90.078125 138.554688 91.113281 C 138.292969 92.148438 138.011719 93.179688 137.699219 94.199219 C 137.390625 95.222656 137.054688 96.234375 136.695312 97.242188 C 136.335938 98.246094 135.953125 99.242188 135.542969 100.230469 C 135.132812 101.214844 134.703125 102.191406 134.246094 103.15625 C 133.789062 104.121094 133.308594 105.078125 132.804688 106.019531 C 132.300781 106.960938 131.773438 107.890625 131.226562 108.804688 C 130.675781 109.71875 130.105469 110.621094 129.511719 111.511719 C 128.917969 112.398438 128.304688 113.269531 127.667969 114.128906 C 127.03125 114.988281 126.375 115.828125 125.699219 116.652344 C 125.019531 117.480469 124.324219 118.289062 123.605469 119.078125 C 122.890625 119.871094 122.152344 120.644531 121.398438 121.398438 C 120.644531 122.152344 119.871094 122.890625 119.078125 123.605469 C 118.289062 124.324219 117.480469 125.019531 116.652344 125.699219 C 115.828125 126.375 114.988281 127.03125 114.128906 127.667969 C 113.269531 128.304688 112.398438 128.917969 111.511719 129.511719 C 110.621094 130.105469 109.71875 130.675781 108.804688 131.226562 C 107.890625 131.773438 106.960938 132.300781 106.019531 132.804688 C 105.078125 133.308594 104.121094 133.789062 103.15625 134.246094 C 102.191406 134.703125 101.214844 135.132812 100.230469 135.542969 C 99.242188 135.953125 98.246094 136.335938 97.242188 136.695312 C 96.234375 137.054688 95.222656 137.390625 94.199219 137.699219 C 93.179688 138.011719 92.148438 138.292969 91.113281 138.554688 C 90.078125 138.8125 89.035156 139.046875 87.988281 139.253906 C 86.941406 139.464844 85.890625 139.648438 84.832031 139.804688 C 83.777344 139.960938 82.71875 140.089844 81.65625 140.195312 C 80.59375 140.300781 79.527344 140.378906 78.460938 140.429688 C 77.394531 140.484375 76.328125 140.507812 75.257812 140.507812 C 74.191406 140.507812 73.125 140.484375 72.058594 140.429688 C 70.992188 140.378906 69.925781 140.300781 68.863281 140.195312 C 67.800781 140.089844 66.742188 139.960938 65.683594 139.804688 C 64.628906 139.648438 63.578125 139.464844 62.53125 139.253906 C 61.484375 139.046875 60.441406 138.8125 59.40625 138.554688 C 58.371094 138.292969 57.339844 138.011719 56.320312 137.699219 C 55.296875 137.390625 54.28125 137.054688 53.277344 136.695312 C 52.273438 136.335938 51.277344 135.953125 50.289062 135.542969 C 49.304688 135.132812 48.328125 134.703125 47.363281 134.246094 C 46.394531 133.789062 45.441406 133.308594 44.5 132.804688 C 43.558594 132.300781 42.628906 131.773438 41.714844 131.226562 C 40.796875 130.675781 39.898438 130.105469 39.007812 129.511719 C 38.121094 128.917969 37.246094 128.304688 36.390625 127.667969 C 35.53125 127.03125 34.691406 126.375 33.867188 125.699219 C 33.039062 125.019531 32.230469 124.324219 31.441406 123.605469 C 30.648438 122.890625 29.875 122.152344 29.121094 121.398438 C 28.367188 120.644531 27.628906 119.871094 26.914062 119.078125 C 26.195312 118.289062 25.5 117.480469 24.820312 116.652344 C 24.144531 115.828125 23.488281 114.988281 22.851562 114.128906 C 22.214844 113.269531 21.597656 112.398438 21.007812 111.511719 C 20.414062 110.621094 19.839844 109.71875 19.292969 108.804688 C 18.742188 107.890625 18.21875 106.960938 17.714844 106.019531 C 17.210938 105.078125 16.730469 104.121094 16.273438 103.15625 C 15.816406 102.191406 15.386719 101.214844 14.976562 100.230469 C 14.566406 99.242188 14.183594 98.246094 13.824219 97.242188 C 13.464844 96.234375 13.128906 95.222656 12.820312 94.199219 C 12.507812 93.179688 12.222656 92.148438 11.964844 91.113281 C 11.707031 90.078125 11.472656 89.035156 11.261719 87.988281 C 11.054688 86.941406 10.871094 85.890625 10.714844 84.832031 C 10.558594 83.777344 10.429688 82.71875 10.324219 81.65625 C 10.21875 80.59375 10.140625 79.527344 10.089844 78.460938 C 10.035156 77.394531 10.007812 76.328125 10.007812 75.257812 C 10.007812 74.191406 10.035156 73.125 10.089844 72.058594 C 10.140625 70.992188 10.21875 69.925781 10.324219 68.863281 C 10.429688 67.800781 10.558594 66.742188 10.714844 65.683594 C 10.871094 64.628906 11.054688 63.578125 11.261719 62.53125 C 11.472656 61.484375 11.707031 60.441406 11.964844 59.40625 C 12.222656 58.371094 12.507812 57.339844 12.820312 56.320312 C 13.128906 55.296875 13.464844 54.28125 13.824219 53.277344 C 14.183594 52.273438 14.566406 51.277344 14.976562 50.289062 C 15.386719 49.304688 15.816406 48.328125 16.273438 47.363281 C 16.730469 46.394531 17.210938 45.441406 17.714844 44.5 C 18.21875 43.558594 18.742188 42.628906 19.292969 41.714844 C 19.839844 40.796875 20.414062 39.898438 21.007812 39.007812 C 21.597656 38.121094 22.214844 37.246094 22.851562 36.390625 C 23.488281 35.53125 24.144531 34.691406 24.820312 33.867188 C 25.5 33.039062 26.195312 32.230469 26.914062 31.441406 C 27.628906 30.648438 28.367188 29.875 29.121094 29.121094 C 29.875 28.367188 30.648438 27.628906 31.441406 26.914062 C 32.230469 26.195312 33.039062 25.5 33.867188 24.820312 C 34.691406 24.144531 35.53125 23.488281 36.390625 22.851562 C 37.246094 22.214844 38.121094 21.597656 39.007812 21.007812 C 39.898438 20.414062 40.796875 19.839844 41.714844 19.292969 C 42.628906 18.742188 43.558594 18.21875 44.5 17.714844 C 45.441406 17.210938 46.394531 16.730469 47.363281 16.273438 C 48.328125 15.816406 49.304688 15.386719 50.289062 14.976562 C 51.277344 14.566406 52.273438 14.183594 53.277344 13.824219 C 54.28125 13.464844 55.296875 13.128906 56.320312 12.820312 C 57.339844 12.507812 58.371094 12.222656 59.40625 11.964844 C 60.441406 11.707031 61.484375 11.472656 62.53125 11.261719 C 63.578125 11.054688 64.628906 10.871094 65.683594 10.714844 C 66.742188 10.558594 67.800781 10.429688 68.863281 10.324219 C 69.925781 10.21875 70.992188 10.140625 72.058594 10.089844 C 73.125 10.035156 74.191406 10.007812 75.257812 10.007812 C 76.328125 10.007812 77.394531 10.035156 78.460938 10.089844 C 79.527344 10.140625 80.59375 10.21875 81.65625 10.324219 C 82.71875 10.429688 83.777344 10.558594 84.832031 10.714844 C 85.890625 10.871094 86.941406 11.054688 87.988281 11.261719 C 89.035156 11.472656 90.078125 11.707031 91.113281 11.964844 C 92.148438 12.222656 93.179688 12.507812 94.199219 12.820312 C 95.222656 13.128906 96.234375 13.464844 97.242188 13.824219 C 98.246094 14.183594 99.242188 14.566406 100.230469 14.976562 C 101.214844 15.386719 102.191406 15.816406 103.15625 16.273438 C 104.121094 16.730469 105.078125 17.210938 106.019531 17.714844 C 106.960938 18.21875 107.890625 18.742188 108.804688 19.292969 C 109.722656 19.839844 110.621094 20.414062 111.511719 21.007812 C 112.398438 21.597656 113.269531 22.214844 114.128906 22.851562 C 114.988281 23.488281 115.828125 24.144531 116.652344 24.820312 C 117.480469 25.5 118.289062 26.195312 119.078125 26.914062 C 119.871094 27.628906 120.644531 28.367188 121.398438 29.121094 C 122.152344 29.875 122.890625 30.648438 123.605469 31.441406 C 124.324219 32.230469 125.019531 33.039062 125.699219 33.867188 C 126.375 34.691406 127.03125 35.53125 127.667969 36.390625 C 128.304688 37.246094 128.917969 38.121094 129.511719 39.007812 C 130.105469 39.898438 130.675781 40.796875 131.226562 41.714844 C 131.773438 42.628906 132.300781 43.558594 132.804688 44.5 C 133.308594 45.441406 133.789062 46.394531 134.246094 47.363281 C 134.703125 48.328125 135.132812 49.304688 135.542969 50.289062 C 135.953125 51.277344 136.335938 52.273438 136.695312 53.277344 C 137.054688 54.28125 137.390625 55.296875 137.699219 56.320312 C 138.011719 57.339844 138.292969 58.371094 138.554688 59.40625 C 138.8125 60.441406 139.046875 61.484375 139.253906 62.53125 C 139.464844 63.578125 139.648438 64.628906 139.804688 65.683594 C 139.960938 66.742188 140.089844 67.800781 140.195312 68.863281 C 140.300781 69.925781 140.378906 70.992188 140.429688 72.058594 C 140.484375 73.125 140.507812 74.191406 140.507812 75.257812 Z M 140.507812 75.257812 " fill-opacity="1" fill-rule="nonzero"/></g><path fill="#ffffff" d="M 75.730469 89.902344 L 92.8125 89.902344 C 92.988281 89.902344 93.15625 89.871094 93.316406 89.800781 C 93.476562 89.734375 93.621094 89.640625 93.742188 89.515625 C 93.867188 89.390625 93.960938 89.246094 94.03125 89.085938 C 94.097656 88.921875 94.128906 88.753906 94.128906 88.578125 C 94.128906 88.402344 94.097656 88.234375 94.03125 88.070312 C 93.960938 87.910156 93.867188 87.765625 93.742188 87.640625 C 93.621094 87.515625 93.476562 87.421875 93.316406 87.355469 C 93.15625 87.289062 92.988281 87.253906 92.8125 87.253906 L 75.730469 87.253906 C 75.558594 87.253906 75.390625 87.289062 75.226562 87.355469 C 75.066406 87.421875 74.921875 87.515625 74.800781 87.640625 C 74.675781 87.765625 74.582031 87.910156 74.515625 88.070312 C 74.449219 88.234375 74.414062 88.402344 74.414062 88.578125 C 74.414062 88.753906 74.449219 88.921875 74.515625 89.085938 C 74.582031 89.246094 74.675781 89.390625 74.800781 89.515625 C 74.921875 89.640625 75.066406 89.734375 75.226562 89.800781 C 75.390625 89.871094 75.558594 89.902344 75.730469 89.902344 Z M 75.730469 89.902344 " fill-opacity="1" fill-rule="nonzero"/><path fill="#ffffff" d="M 75.730469 83.617188 L 109.765625 83.617188 C 109.941406 83.617188 110.109375 83.585938 110.269531 83.519531 C 110.429688 83.449219 110.574219 83.355469 110.699219 83.230469 C 110.820312 83.105469 110.917969 82.964844 110.984375 82.800781 C 111.050781 82.636719 111.082031 82.46875 111.082031 82.292969 C 111.082031 82.117188 111.050781 81.949219 110.984375 81.785156 C 110.917969 81.625 110.820312 81.480469 110.699219 81.355469 C 110.574219 81.234375 110.429688 81.136719 110.269531 81.070312 C 110.109375 81.003906 109.941406 80.96875 109.765625 80.96875 L 75.730469 80.96875 C 75.558594 80.96875 75.390625 81.003906 75.226562 81.070312 C 75.066406 81.136719 74.921875 81.234375 74.800781 81.355469 C 74.675781 81.480469 74.582031 81.625 74.515625 81.785156 C 74.449219 81.949219 74.414062 82.117188 74.414062 82.292969 C 74.414062 82.46875 74.449219 82.636719 74.515625 82.800781 C 74.582031 82.964844 74.675781 83.105469 74.800781 83.230469 C 74.921875 83.355469 75.066406 83.449219 75.226562 83.519531 C 75.390625 83.585938 75.558594 83.617188 75.730469 83.617188 Z M 75.730469 83.617188 " fill-opacity="1" fill-rule="nonzero"/><path fill="#ffffff" d="M 40.527344 95.351562 L 67.488281 95.351562 C 67.660156 95.351562 67.828125 95.316406 67.992188 95.25 C 68.152344 95.183594 68.296875 95.085938 68.417969 94.960938 C 68.542969 94.839844 68.636719 94.695312 68.703125 94.53125 C 68.773438 94.371094 68.804688 94.203125 68.804688 94.027344 L 68.804688 88.789062 L 59.378906 88.789062 C 59.203125 88.789062 59.035156 88.757812 58.875 88.691406 C 58.714844 88.621094 58.570312 88.527344 58.449219 88.402344 C 58.324219 88.277344 58.230469 88.136719 58.160156 87.972656 C 58.09375 87.808594 58.0625 87.640625 58.0625 87.464844 C 58.0625 87.289062 58.09375 87.121094 58.160156 86.957031 C 58.230469 86.796875 58.324219 86.652344 58.449219 86.527344 C 58.570312 86.40625 58.714844 86.308594 58.875 86.242188 C 59.035156 86.175781 59.203125 86.140625 59.378906 86.140625 L 68.804688 86.140625 L 68.804688 82.824219 L 59.378906 82.824219 C 59.203125 82.824219 59.035156 82.789062 58.875 82.722656 C 58.714844 82.65625 58.570312 82.558594 58.449219 82.4375 C 58.324219 82.3125 58.230469 82.167969 58.160156 82.007812 C 58.09375 81.84375 58.0625 81.675781 58.0625 81.5 C 58.0625 81.324219 58.09375 81.15625 58.160156 80.992188 C 58.230469 80.828125 58.324219 80.6875 58.449219 80.5625 C 58.570312 80.4375 58.714844 80.34375 58.875 80.273438 C 59.035156 80.207031 59.203125 80.175781 59.378906 80.175781 L 68.804688 80.175781 L 68.804688 74.9375 C 68.804688 74.761719 68.773438 74.59375 68.703125 74.433594 C 68.636719 74.269531 68.542969 74.125 68.417969 74.003906 C 68.296875 73.878906 68.152344 73.78125 67.992188 73.714844 C 67.828125 73.648438 67.660156 73.613281 67.488281 73.613281 L 40.527344 73.613281 C 40.351562 73.613281 40.183594 73.648438 40.023438 73.714844 C 39.863281 73.78125 39.71875 73.878906 39.597656 74.003906 C 39.472656 74.125 39.378906 74.269531 39.308594 74.433594 C 39.242188 74.59375 39.210938 74.761719 39.210938 74.9375 L 39.210938 80.175781 L 48.699219 80.175781 C 48.875 80.175781 49.042969 80.207031 49.203125 80.273438 C 49.363281 80.34375 49.507812 80.4375 49.628906 80.5625 C 49.753906 80.6875 49.851562 80.828125 49.917969 80.992188 C 49.984375 81.15625 50.015625 81.324219 50.015625 81.5 C 50.015625 81.675781 49.984375 81.84375 49.917969 82.007812 C 49.851562 82.167969 49.753906 82.3125 49.628906 82.4375 C 49.507812 82.558594 49.363281 82.65625 49.203125 82.722656 C 49.042969 82.789062 48.875 82.824219 48.699219 82.824219 L 39.210938 82.824219 L 39.210938 86.140625 L 48.699219 86.140625 C 48.875 86.140625 49.042969 86.175781 49.203125 86.242188 C 49.363281 86.308594 49.507812 86.40625 49.628906 86.527344 C 49.753906 86.652344 49.851562 86.796875 49.917969 86.957031 C 49.984375 87.121094 50.015625 87.289062 50.015625 87.464844 C 50.015625 87.640625 49.984375 87.808594 49.917969 87.972656 C 49.851562 88.136719 49.753906 88.277344 49.628906 88.402344 C 49.507812 88.527344 49.363281 88.621094 49.203125 88.691406 C 49.042969 88.757812 48.875 88.789062 48.699219 88.789062 L 39.210938 88.789062 L 39.210938 94.027344 C 39.210938 94.203125 39.242188 94.371094 39.308594 94.53125 C 39.378906 94.695312 39.472656 94.839844 39.597656 94.960938 C 39.71875 95.085938 39.863281 95.183594 40.023438 95.25 C 40.183594 95.316406 40.351562 95.351562 40.527344 95.351562 Z M 40.527344 95.351562 " fill-opacity="1" fill-rule="nonzero"/><g clip-path="url(#edb1537eed)"><path fill="#ffffff" d="M 115.109375 45.933594 L 35.308594 45.933594 C 34.921875 45.933594 34.539062 45.972656 34.160156 46.046875 C 33.78125 46.125 33.414062 46.238281 33.058594 46.386719 C 32.699219 46.535156 32.359375 46.71875 32.039062 46.933594 C 31.71875 47.152344 31.421875 47.398438 31.148438 47.671875 C 30.875 47.945312 30.632812 48.246094 30.417969 48.570312 C 30.203125 48.890625 30.019531 49.234375 29.875 49.59375 C 29.726562 49.953125 29.613281 50.320312 29.539062 50.703125 C 29.464844 51.082031 29.425781 51.46875 29.425781 51.855469 L 29.425781 98.539062 C 29.429688 98.925781 29.46875 99.3125 29.542969 99.691406 C 29.621094 100.070312 29.734375 100.4375 29.882812 100.796875 C 30.03125 101.152344 30.214844 101.492188 30.429688 101.8125 C 30.644531 102.132812 30.886719 102.433594 31.160156 102.707031 C 31.433594 102.976562 31.730469 103.222656 32.050781 103.4375 C 32.371094 103.652344 32.707031 103.832031 33.0625 103.980469 C 33.421875 104.128906 33.785156 104.242188 34.164062 104.316406 C 34.542969 104.394531 34.921875 104.433594 35.308594 104.433594 L 115.109375 104.433594 C 115.496094 104.433594 115.878906 104.394531 116.257812 104.316406 C 116.636719 104.242188 117.007812 104.128906 117.363281 103.980469 C 117.71875 103.828125 118.058594 103.648438 118.378906 103.429688 C 118.703125 103.214844 119 102.96875 119.273438 102.695312 C 119.542969 102.417969 119.789062 102.121094 120.003906 101.796875 C 120.21875 101.472656 120.398438 101.132812 120.546875 100.773438 C 120.695312 100.414062 120.804688 100.042969 120.882812 99.664062 C 120.957031 99.28125 120.996094 98.898438 120.996094 98.507812 L 120.996094 51.878906 C 120.996094 51.488281 120.960938 51.101562 120.886719 50.71875 C 120.8125 50.339844 120.699219 49.96875 120.550781 49.605469 C 120.40625 49.246094 120.226562 48.90625 120.011719 48.578125 C 119.796875 48.253906 119.550781 47.957031 119.277344 47.679688 C 119.007812 47.402344 118.707031 47.15625 118.386719 46.9375 C 118.066406 46.722656 117.726562 46.539062 117.367188 46.390625 C 117.011719 46.238281 116.640625 46.125 116.261719 46.050781 C 115.882812 45.972656 115.5 45.933594 115.109375 45.933594 Z M 118.359375 98.539062 C 118.359375 98.972656 118.277344 99.390625 118.113281 99.792969 C 117.945312 100.191406 117.710938 100.546875 117.40625 100.851562 C 117.105469 101.160156 116.753906 101.394531 116.355469 101.5625 C 115.957031 101.730469 115.542969 101.8125 115.109375 101.816406 L 35.308594 101.816406 C 34.878906 101.808594 34.46875 101.722656 34.074219 101.554688 C 33.679688 101.386719 33.332031 101.148438 33.03125 100.839844 C 32.730469 100.535156 32.5 100.183594 32.335938 99.785156 C 32.175781 99.386719 32.09375 98.972656 32.09375 98.539062 L 32.09375 66.925781 L 118.359375 66.925781 Z M 118.359375 55.652344 L 32.09375 55.652344 L 32.09375 51.855469 C 32.09375 51.425781 32.175781 51.011719 32.335938 50.613281 C 32.5 50.214844 32.730469 49.863281 33.03125 49.554688 C 33.332031 49.25 33.679688 49.011719 34.074219 48.84375 C 34.46875 48.675781 34.878906 48.585938 35.308594 48.582031 L 115.109375 48.582031 C 115.542969 48.582031 115.957031 48.667969 116.355469 48.835938 C 116.753906 49 117.105469 49.238281 117.40625 49.546875 C 117.710938 49.851562 117.945312 50.207031 118.113281 50.605469 C 118.277344 51.007812 118.359375 51.421875 118.359375 51.855469 Z M 118.359375 55.652344 " fill-opacity="1" fill-rule="nonzero"/></g></svg>