<svg xmlns="http://www.w3.org/2000/svg" xmlns:xlink="http://www.w3.org/1999/xlink" width="200" zoomAndPan="magnify" viewBox="0 0 150 149.999998" height="200" preserveAspectRatio="xMidYMid meet" version="1.0"><defs><clipPath id="f264c29dc6"><path d="M 53 52.304688 L 97 52.304688 L 97 97 L 53 97 Z M 53 52.304688 " clip-rule="nonzero"/></clipPath><clipPath id="b9d8a052be"><path d="M 45 96 L 98 96 L 98 138.554688 L 45 138.554688 Z M 45 96 " clip-rule="nonzero"/></clipPath><clipPath id="ac4614ee9f"><path d="M 95 89.378906 L 116.71875 89.378906 L 116.71875 116.699219 L 95 116.699219 Z M 95 89.378906 " clip-rule="nonzero"/></clipPath><clipPath id="407caa2c9f"><path d="M 12.09375 40.289062 L 47.34375 40.289062 L 47.34375 68 L 12.09375 68 Z M 12.09375 40.289062 " clip-rule="nonzero"/></clipPath><clipPath id="bce855f9f5"><path d="M 97.230469 40.289062 L 136.980469 40.289062 L 136.980469 71.789062 L 97.230469 71.789062 Z M 97.230469 40.289062 " clip-rule="nonzero"/></clipPath><clipPath id="9718dfadc1"><path d="M 59.359375 15 L 93.859375 15 L 93.859375 48 L 59.359375 48 Z M 59.359375 15 " clip-rule="nonzero"/></clipPath></defs><g clip-path="url(#f264c29dc6)"><path fill="#0d6591" d="M 75.054688 57.707031 C 76.679688 57.707031 78.03125 59.074219 78.03125 60.695312 C 78.03125 62.328125 76.679688 63.683594 75.054688 63.683594 C 73.4375 63.683594 72.085938 62.328125 72.085938 60.695312 C 72.085938 58.980469 73.4375 57.707031 75.054688 57.707031 Z M 54.59375 68.121094 L 58.019531 68.121094 L 58.019531 95.449219 L 59.546875 96.082031 C 60.449219 96.445312 61.445312 96.355469 62.257812 95.90625 L 63.519531 95.179688 C 63.609375 95.089844 63.792969 94.996094 63.875 94.996094 L 63.875 68.121094 L 85.878906 68.121094 L 85.878906 94.722656 C 87.867188 95.179688 89.84375 95.273438 91.832031 94.996094 L 91.832031 68.121094 L 95.257812 68.121094 C 95.796875 68.121094 96.152344 67.753906 96.152344 67.214844 L 96.152344 63.234375 C 96.152344 62.867188 95.976562 62.601562 95.621094 62.417969 L 75.511719 52.371094 C 75.238281 52.28125 74.972656 52.28125 74.699219 52.371094 L 54.230469 62.417969 C 53.867188 62.601562 53.691406 62.867188 53.691406 63.234375 L 53.691406 67.214844 C 53.691406 67.753906 54.140625 68.121094 54.59375 68.121094 " fill-opacity="1" fill-rule="nonzero"/></g><path fill="#0d6591" d="M 74.425781 76.894531 L 75.691406 76.894531 C 76.589844 76.894531 77.3125 77.527344 77.402344 78.433594 C 77.402344 78.617188 77.585938 78.707031 77.675781 78.707031 L 80.113281 78.707031 C 80.289062 78.707031 80.378906 78.527344 80.378906 78.433594 C 80.195312 76.261719 78.570312 74.457031 76.5 73.996094 L 76.5 72.101562 C 76.5 71.917969 76.324219 71.832031 76.234375 71.832031 L 73.792969 71.832031 C 73.621094 71.832031 73.527344 72.007812 73.527344 72.101562 L 73.527344 73.996094 C 71.183594 74.457031 69.464844 76.535156 69.558594 79.066406 C 69.738281 81.605469 71.996094 83.59375 74.515625 83.59375 L 75.691406 83.59375 C 76.773438 83.59375 77.585938 84.585938 77.402344 85.675781 C 77.21875 86.492188 76.5 87.03125 75.601562 87.03125 L 74.332031 87.03125 C 73.4375 87.03125 72.714844 86.398438 72.625 85.492188 C 72.625 85.402344 72.441406 85.308594 72.351562 85.308594 L 69.921875 85.308594 C 69.738281 85.308594 69.648438 85.402344 69.648438 85.585938 C 69.832031 87.757812 71.457031 89.65625 73.621094 90.019531 L 73.621094 91.917969 C 73.621094 92.101562 73.703125 92.191406 73.886719 92.191406 L 76.324219 92.191406 C 76.5 92.191406 76.589844 92.101562 76.589844 91.917969 L 76.589844 89.835938 C 78.664062 89.386719 80.378906 87.664062 80.46875 85.492188 C 80.644531 82.6875 78.488281 80.332031 75.691406 80.332031 L 74.332031 80.332031 C 73.253906 80.332031 72.441406 79.339844 72.625 78.25 C 72.898438 77.441406 73.621094 76.894531 74.425781 76.894531 " fill-opacity="1" fill-rule="nonzero"/><g clip-path="url(#b9d8a052be)"><path fill="#0d6591" d="M 95.976562 117.804688 L 94.445312 115.90625 C 89.121094 109.929688 81.554688 105.585938 79.027344 104.230469 L 77.675781 106.402344 C 76.679688 108.023438 74.699219 108.75 72.808594 108.300781 L 72.714844 108.300781 C 70.550781 107.574219 69.199219 105.3125 69.738281 103.054688 C 70.1875 101.058594 71 99.160156 71.996094 97.351562 L 69.648438 96.988281 C 68.03125 96.71875 66.40625 97.078125 65.054688 97.804688 L 63.792969 98.527344 C 62.167969 99.433594 60.183594 99.527344 58.46875 98.800781 L 55.675781 97.621094 L 45.125 114.359375 L 49 116.988281 L 51.070312 114.90625 C 51.882812 114.09375 52.96875 113.636719 54.046875 113.636719 C 55.21875 113.636719 56.214844 114.09375 57.027344 114.90625 C 57.746094 115.632812 58.113281 116.53125 58.195312 117.53125 C 59.546875 117.164062 61.171875 117.53125 62.257812 118.613281 C 63.070312 119.429688 63.519531 120.519531 63.519531 121.601562 C 63.519531 121.964844 63.429688 122.324219 63.335938 122.597656 C 64.332031 122.691406 65.226562 123.140625 65.949219 123.773438 C 67.035156 124.863281 67.390625 126.394531 67.035156 127.84375 C 68.03125 127.941406 68.925781 128.300781 69.648438 129.023438 C 70.460938 129.839844 70.910156 130.921875 70.910156 132.003906 C 70.910156 133.003906 70.550781 133.910156 70.011719 134.636719 L 72.175781 137.347656 C 73.347656 138.4375 75.238281 138.4375 76.414062 137.347656 C 76.953125 136.808594 77.3125 135.992188 77.3125 135.175781 C 77.3125 134.453125 77.046875 133.726562 76.5 133.09375 L 75.601562 132.1875 C 75.144531 131.738281 75.144531 131.105469 75.601562 130.648438 C 76.050781 130.199219 76.679688 130.199219 77.128906 130.648438 L 78.753906 132.28125 C 79.921875 133.453125 81.820312 133.453125 82.992188 132.28125 L 83.082031 132.1875 C 84.160156 131.015625 84.160156 129.199219 82.992188 128.027344 L 81.191406 126.21875 C 80.734375 125.761719 80.734375 125.136719 81.191406 124.679688 C 81.640625 124.222656 82.269531 124.222656 82.71875 124.679688 L 85.339844 127.300781 C 86.507812 128.484375 88.496094 128.484375 89.574219 127.300781 C 90.113281 126.761719 90.480469 125.945312 90.480469 125.136719 C 90.480469 124.320312 90.207031 123.589844 89.667969 123.046875 L 86.871094 120.242188 C 86.691406 120.066406 86.597656 119.792969 86.597656 119.519531 C 86.597656 119.246094 86.691406 118.976562 86.871094 118.796875 C 87.320312 118.34375 87.949219 118.34375 88.398438 118.796875 L 91.832031 122.234375 C 92.460938 122.875 93.359375 123.230469 94.261719 123.230469 C 95.074219 123.230469 95.796875 122.875 96.34375 122.324219 C 96.882812 121.785156 97.148438 121.058594 97.148438 120.242188 C 97.148438 119.886719 97.054688 119.519531 96.972656 119.160156 C 96.609375 118.710938 96.25 118.253906 95.976562 117.804688 " fill-opacity="1" fill-rule="nonzero"/></g><path fill="#0d6591" d="M 83.441406 97.171875 L 79.566406 95.8125 C 77.585938 95.179688 75.511719 95.90625 74.425781 97.527344 L 74.160156 97.804688 C 73.074219 99.527344 72.261719 101.421875 71.8125 103.503906 C 71.539062 104.679688 72.261719 105.859375 73.347656 106.21875 C 74.25 106.492188 75.238281 106.125 75.777344 105.21875 L 77.675781 102.238281 C 77.851562 101.875 78.214844 101.691406 78.570312 101.691406 C 78.753906 101.691406 78.9375 101.691406 79.027344 101.78125 C 79.566406 102.054688 92.828125 108.664062 98.863281 118.253906 L 105.175781 114.632812 L 94.351562 97.621094 C 90.746094 98.527344 86.957031 98.34375 83.441406 97.171875 " fill-opacity="1" fill-rule="nonzero"/><path fill="#0d6591" d="M 68.113281 130.648438 C 67.757812 130.289062 67.21875 130.015625 66.671875 130.015625 C 66.132812 130.015625 65.59375 130.199219 65.226562 130.648438 L 62.351562 133.550781 C 61.535156 134.359375 61.535156 135.625 62.351562 136.449219 C 63.15625 137.257812 64.507812 137.257812 65.226562 136.449219 L 68.113281 133.550781 C 68.476562 133.1875 68.746094 132.644531 68.746094 132.105469 C 68.746094 131.554688 68.476562 131.015625 68.113281 130.648438 " fill-opacity="1" fill-rule="nonzero"/><path fill="#0d6591" d="M 64.421875 125.402344 C 64.058594 125.039062 63.519531 124.769531 62.980469 124.769531 C 62.433594 124.769531 61.894531 124.953125 61.535156 125.402344 L 57.929688 129.023438 C 57.566406 129.382812 57.300781 129.933594 57.300781 130.472656 C 57.300781 131.015625 57.472656 131.554688 57.929688 131.921875 C 58.742188 132.738281 60.09375 132.738281 60.816406 131.921875 L 64.421875 128.300781 C 65.226562 127.484375 65.226562 126.21875 64.421875 125.402344 " fill-opacity="1" fill-rule="nonzero"/><path fill="#0d6591" d="M 61.355469 121.601562 C 61.355469 121.058594 61.171875 120.519531 60.722656 120.152344 C 60.359375 119.792969 59.820312 119.519531 59.28125 119.519531 C 58.742188 119.519531 58.195312 119.703125 57.839844 120.152344 L 53.417969 124.589844 C 53.0625 124.953125 52.789062 125.496094 52.789062 126.035156 C 52.789062 126.578125 52.96875 127.125 53.417969 127.484375 C 54.230469 128.300781 55.582031 128.300781 56.304688 127.484375 L 60.722656 123.046875 C 61.171875 122.691406 61.355469 122.148438 61.355469 121.601562 " fill-opacity="1" fill-rule="nonzero"/><path fill="#0d6591" d="M 55.492188 116.441406 C 55.136719 116.082031 54.59375 115.808594 54.046875 115.808594 C 53.507812 115.808594 52.96875 115.992188 52.605469 116.441406 L 49 120.066406 C 48.640625 120.425781 48.367188 120.96875 48.367188 121.515625 C 48.367188 122.058594 48.550781 122.597656 49 122.957031 C 49.8125 123.773438 51.070312 123.773438 51.882812 122.957031 L 55.492188 119.34375 C 56.304688 118.613281 56.304688 117.253906 55.492188 116.441406 " fill-opacity="1" fill-rule="nonzero"/><path fill="#0d6591" d="M 41.152344 111.289062 C 40.613281 112.195312 39.351562 112.460938 38.449219 111.917969 C 37.546875 111.378906 37.28125 110.105469 37.820312 109.207031 C 38.359375 108.300781 39.625 108.023438 40.523438 108.574219 C 41.425781 109.113281 41.699219 110.378906 41.152344 111.289062 Z M 53.957031 92.917969 L 49 89.746094 C 48.195312 89.203125 47.015625 89.480469 46.476562 90.292969 L 33.671875 110.289062 C 33.132812 111.105469 33.398438 112.277344 34.210938 112.828125 L 39.171875 115.992188 C 39.625 116.265625 40.074219 116.355469 40.523438 116.265625 C 40.980469 116.171875 41.425781 115.90625 41.699219 115.449219 L 54.503906 95.355469 C 55.136719 94.632812 54.863281 93.457031 53.957031 92.917969 " fill-opacity="1" fill-rule="nonzero"/><g clip-path="url(#ac4614ee9f)"><path fill="#0d6591" d="M 111.753906 111.828125 C 110.855469 112.371094 109.59375 112.195312 109.046875 111.195312 C 108.507812 110.289062 108.691406 109.023438 109.679688 108.480469 C 110.582031 107.941406 111.84375 108.117188 112.390625 109.113281 C 112.929688 110.023438 112.664062 111.289062 111.753906 111.828125 Z M 116.445312 110.289062 L 103.640625 90.292969 C 103.367188 89.835938 102.917969 89.5625 102.472656 89.480469 C 102.015625 89.386719 101.476562 89.480469 101.121094 89.746094 L 96.152344 92.917969 C 95.347656 93.457031 95.074219 94.632812 95.621094 95.449219 L 108.417969 115.539062 C 108.957031 116.355469 110.132812 116.628906 110.945312 116.082031 L 115.90625 112.910156 C 116.710938 112.371094 116.984375 111.195312 116.445312 110.289062 " fill-opacity="1" fill-rule="nonzero"/></g><g clip-path="url(#407caa2c9f)"><path fill="#0d6591" d="M 47.15625 53.019531 L 46.746094 51.871094 C 46.523438 51.242188 45.8125 50.726562 45.175781 50.726562 L 43.714844 50.726562 C 42.628906 47.726562 41.320312 44.101562 40.910156 43.253906 C 40.308594 41.921875 38.402344 41.328125 37.355469 41.035156 C 37.355469 41.035156 35.59375 40.367188 29.71875 40.367188 C 23.84375 40.367188 22.125 41.035156 22.125 41.035156 C 20.890625 41.441406 19.167969 42.03125 18.492188 43.289062 C 18.15625 43.917969 16.808594 47.617188 15.726562 50.726562 L 14.304688 50.726562 C 13.667969 50.726562 12.957031 51.242188 12.730469 51.871094 L 12.320312 53.019531 C 12.09375 53.648438 12.433594 54.164062 13.066406 54.164062 L 14.527344 54.164062 C 14.339844 54.683594 14.226562 54.976562 14.226562 54.976562 C 14.117188 55.164062 14.039062 56.015625 14.039062 56.273438 L 14.039062 66.742188 C 14.039062 67.40625 14.601562 67.960938 15.277344 67.960938 L 19.765625 67.960938 C 20.441406 67.960938 21 67.40625 21 66.742188 L 21 64.523438 L 38.476562 64.523438 L 38.476562 66.742188 C 38.476562 67.40625 39.039062 67.960938 39.710938 67.960938 L 44.238281 67.960938 C 44.914062 67.960938 45.472656 67.40625 45.472656 66.742188 L 45.472656 56.273438 C 45.472656 56.050781 45.398438 55.164062 45.285156 54.976562 C 45.285156 54.976562 45.175781 54.683594 44.988281 54.164062 L 46.410156 54.164062 C 47.007812 54.164062 47.34375 53.648438 47.15625 53.019531 Z M 21 59.453125 L 19.503906 58.457031 C 16.734375 58.234375 16.398438 59.195312 15.800781 58.160156 L 15.800781 56.902344 C 15.800781 55.679688 16.511719 55.644531 17.296875 55.644531 C 18.042969 55.644531 19.542969 56.273438 20.550781 56.71875 C 21.636719 57.199219 22.421875 56.792969 22.835938 58.382812 C 22.796875 59.121094 22.386719 59.453125 21 59.453125 Z M 18.382812 51.207031 C 19.316406 47.433594 20.890625 44.804688 21.113281 44.175781 C 21.261719 43.734375 20.890625 42.917969 29.757812 42.917969 C 38.625 42.917969 38.140625 44.101562 38.175781 44.140625 C 38.589844 44.992188 40.234375 47.765625 41.097656 51.207031 C 41.097656 51.207031 37.765625 51.648438 30.167969 51.648438 C 22.574219 51.648438 18.382812 51.207031 18.382812 51.207031 Z M 36.679688 58.382812 C 38.4375 56.234375 37.878906 57.199219 38.960938 56.71875 C 39.9375 56.273438 41.46875 55.644531 42.21875 55.644531 C 43.003906 55.644531 43.714844 55.679688 43.714844 56.902344 L 43.714844 58.160156 C 43.152344 59.160156 42.667969 58.269531 39.859375 58.53125 L 38.476562 59.417969 C 37.09375 59.453125 36.195312 58.9375 36.679688 58.382812 Z M 36.679688 58.382812 " fill-opacity="1" fill-rule="nonzero"/></g><g clip-path="url(#bce855f9f5)"><path fill="#0d6591" d="M 136.019531 42.65625 C 136.746094 43.898438 136.964844 45.765625 127.710938 51.058594 C 127.449219 51.207031 127.179688 51.359375 126.90625 51.511719 L 122.644531 70.042969 L 119.582031 71.796875 L 119.246094 55.558594 C 114.277344 58.039062 112.0625 58.675781 108.820312 59.75 L 107.445312 67.613281 L 104.726562 69.167969 L 103.9375 61.066406 L 97.25 56.335938 L 99.96875 54.78125 L 107.417969 57.492188 C 109.960938 55.253906 111.636719 53.660156 116.304688 50.625 L 102.378906 42.277344 L 105.441406 40.523438 L 123.636719 46.09375 C 123.9375 45.917969 124.230469 45.75 124.519531 45.582031 C 133.773438 40.289062 135.296875 41.414062 136.019531 42.65625 Z M 136.019531 42.65625 " fill-opacity="1" fill-rule="evenodd"/></g><g clip-path="url(#9718dfadc1)"><path fill="#0d6591" d="M 92.8125 15.007812 C 92.761719 15.007812 92.707031 15.015625 92.652344 15.023438 L 87.382812 15.925781 C 87.050781 15.980469 86.769531 16.210938 86.644531 16.527344 C 86.644531 16.53125 86.644531 16.53125 86.644531 16.53125 L 84.199219 22.808594 L 60.351562 23.40625 C 60.078125 23.414062 59.820312 23.539062 59.640625 23.746094 C 59.460938 23.949219 59.375 24.226562 59.410156 24.5 L 60.726562 35.410156 C 60.78125 35.867188 61.160156 36.230469 61.617188 36.269531 L 78.621094 37.621094 L 81.988281 40.277344 C 81.992188 40.28125 81.996094 40.285156 82 40.289062 C 82.003906 40.289062 82.011719 40.289062 82.015625 40.292969 C 82.015625 40.296875 82.019531 40.300781 82.027344 40.300781 C 82.640625 40.761719 82.792969 41.386719 82.707031 41.738281 C 82.65625 41.933594 82.582031 42.082031 82.402344 42.191406 C 82.222656 42.304688 81.910156 42.386719 81.378906 42.355469 C 81.378906 42.355469 81.375 42.355469 81.375 42.355469 C 81.359375 42.355469 81.339844 42.355469 81.320312 42.355469 L 81.3125 42.355469 L 61.035156 42.414062 L 61.03125 42.414062 C 60.5 42.414062 60.050781 42.859375 60.050781 43.394531 C 60.054688 43.925781 60.503906 44.375 61.035156 44.367188 L 61.039062 44.367188 L 62.523438 44.363281 C 61.972656 44.714844 61.601562 45.332031 61.601562 46.027344 C 61.601562 47.117188 62.492188 48.007812 63.574219 48.007812 C 64.660156 48.007812 65.546875 47.117188 65.546875 46.027344 C 65.546875 45.328125 65.179688 44.703125 64.621094 44.355469 L 81.320312 44.308594 C 80.71875 44.648438 80.308594 45.292969 80.308594 46.027344 C 80.308594 47.117188 81.199219 48.007812 82.28125 48.007812 C 83.367188 48.007812 84.257812 47.117188 84.257812 46.027344 C 84.257812 45.085938 83.585938 44.289062 82.699219 44.097656 C 83.539062 43.800781 84.183594 43.1875 84.582031 42.25 C 84.585938 42.238281 84.59375 42.226562 84.597656 42.214844 C 84.902344 40.988281 84.359375 39.65625 83.242188 38.789062 C 83.238281 38.789062 83.234375 38.785156 83.234375 38.78125 C 83.230469 38.777344 83.230469 38.773438 83.226562 38.773438 C 83.21875 38.761719 83.207031 38.75 83.195312 38.738281 L 80.808594 36.863281 L 88.253906 17.753906 L 92.976562 16.945312 L 92.980469 16.945312 C 93.476562 16.867188 93.839844 16.402344 93.796875 15.902344 C 93.753906 15.398438 93.316406 15 92.8125 15.007812 Z M 83.480469 24.316406 L 82.109375 27.84375 L 80.320312 27.84375 L 80.320312 24.394531 Z M 79.636719 24.414062 L 79.636719 27.84375 L 76.332031 27.84375 L 76.332031 24.496094 Z M 75.648438 24.511719 L 75.648438 27.84375 L 72.34375 27.84375 L 72.34375 24.59375 Z M 71.660156 24.613281 L 71.660156 27.84375 L 68.355469 27.84375 L 68.355469 24.695312 Z M 67.671875 24.714844 L 67.671875 27.84375 L 64.367188 27.84375 L 64.367188 24.796875 Z M 63.683594 24.8125 L 63.683594 27.84375 L 61.257812 27.84375 L 60.902344 24.882812 Z M 61.34375 28.527344 L 63.683594 28.527344 L 63.683594 31.621094 L 61.714844 31.621094 Z M 64.367188 28.527344 L 67.671875 28.527344 L 67.671875 31.621094 L 64.367188 31.621094 Z M 68.355469 28.527344 L 71.660156 28.527344 L 71.660156 31.621094 L 68.355469 31.621094 Z M 72.34375 28.527344 L 75.648438 28.527344 L 75.648438 31.621094 L 72.34375 31.621094 Z M 76.332031 28.527344 L 79.636719 28.527344 L 79.636719 31.621094 L 76.332031 31.621094 Z M 80.320312 28.527344 L 81.847656 28.527344 L 80.636719 31.621094 L 80.320312 31.621094 Z M 61.796875 32.304688 L 63.683594 32.304688 L 63.683594 34.527344 L 62.050781 34.398438 Z M 64.367188 32.304688 L 67.671875 32.304688 L 67.671875 34.84375 L 64.367188 34.582031 Z M 68.355469 32.304688 L 71.660156 32.304688 L 71.660156 35.164062 L 68.355469 34.902344 Z M 72.34375 32.304688 L 75.648438 32.304688 L 75.648438 35.484375 L 72.34375 35.21875 Z M 76.332031 32.304688 L 79.636719 32.304688 L 79.636719 34.191406 L 79.007812 35.800781 C 78.925781 35.761719 78.839844 35.734375 78.75 35.726562 L 76.332031 35.535156 Z M 80.320312 32.304688 L 80.371094 32.304688 L 80.320312 32.445312 Z M 63.578125 44.867188 C 64.222656 44.867188 64.738281 45.382812 64.738281 46.03125 C 64.738281 46.675781 64.222656 47.1875 63.578125 47.1875 C 62.933594 47.1875 62.417969 46.675781 62.417969 46.03125 C 62.417969 45.382812 62.933594 44.867188 63.578125 44.867188 Z M 82.285156 44.867188 C 82.929688 44.867188 83.445312 45.382812 83.445312 46.03125 C 83.445312 46.675781 82.929688 47.1875 82.285156 47.1875 C 81.640625 47.1875 81.125 46.675781 81.125 46.03125 C 81.125 45.382812 81.640625 44.867188 82.285156 44.867188 Z M 63.578125 45.417969 C 63.226562 45.417969 62.945312 45.699219 62.945312 46.050781 C 62.945312 46.402344 63.226562 46.679688 63.578125 46.679688 C 63.925781 46.679688 64.207031 46.402344 64.207031 46.050781 C 64.207031 45.699219 63.925781 45.417969 63.578125 45.417969 Z M 82.285156 45.417969 C 81.933594 45.417969 81.652344 45.699219 81.652344 46.050781 C 81.652344 46.402344 81.933594 46.679688 82.285156 46.679688 C 82.632812 46.679688 82.914062 46.402344 82.914062 46.050781 C 82.914062 45.699219 82.632812 45.417969 82.285156 45.417969 Z M 82.285156 45.417969 " fill-opacity="1" fill-rule="nonzero"/></g></svg>