<svg xmlns="http://www.w3.org/2000/svg" xmlns:xlink="http://www.w3.org/1999/xlink" width="200" zoomAndPan="magnify" viewBox="0 0 150 149.999998" height="200" preserveAspectRatio="xMidYMid meet" version="1.0"><defs><clipPath id="13bafba686"><path d="M 18.328125 25 L 133.828125 25 L 133.828125 115.976562 L 18.328125 115.976562 Z M 18.328125 25 " clip-rule="nonzero"/></clipPath></defs><g clip-path="url(#13bafba686)"><path fill="#0d6591" d="M 66.417969 101.726562 L 85.734375 101.726562 L 89.582031 112.457031 L 62.574219 112.457031 Z M 21.351562 89.703125 L 104.164062 89.703125 L 109.382812 98.714844 L 26.714844 98.714844 C 23.710938 98.714844 21.351562 96.351562 21.351562 93.359375 Z M 111.125 84.164062 L 123.316406 105.222656 C 123.417969 105.40625 123.46875 105.703125 123.203125 106.234375 C 122.9375 106.765625 122.351562 107.417969 121.53125 107.886719 C 120.710938 108.367188 119.851562 108.542969 119.257812 108.5 C 118.652344 108.460938 118.425781 108.277344 118.324219 108.101562 L 106.109375 87.042969 C 106.992188 86.675781 107.863281 86.257812 108.714844 85.769531 C 109.566406 85.277344 110.355469 84.734375 111.125 84.164062 Z M 42.414062 60.714844 C 44.8125 60.714844 46.730469 62.625 46.730469 65.003906 C 46.730469 67.398438 44.8125 69.308594 42.414062 69.308594 C 40.023438 69.308594 38.105469 67.398438 38.105469 65.003906 C 38.105469 62.625 40.023438 60.714844 42.414062 60.714844 Z M 60.796875 45.429688 C 63.1875 45.429688 65.105469 47.328125 65.105469 49.71875 C 65.105469 52.101562 63.1875 54.011719 60.796875 54.011719 C 58.398438 54.011719 56.480469 52.101562 56.480469 49.71875 C 56.480469 47.328125 58.398438 45.429688 60.796875 45.429688 Z M 96.125 44.019531 C 103.589844 43.824219 110.910156 47.605469 114.910156 54.511719 C 120.734375 64.554688 117.296875 77.359375 107.207031 83.164062 C 97.128906 88.964844 84.269531 85.53125 78.457031 75.488281 C 72.632812 65.445312 76.078125 52.644531 86.15625 46.839844 C 89.304688 45.019531 92.730469 44.109375 96.125 44.019531 Z M 26.714844 28.121094 L 125.4375 28.121094 C 128.445312 28.121094 130.800781 30.492188 130.800781 33.484375 L 130.800781 86.675781 L 121.5 86.675781 C 119.480469 86.675781 119.480469 89.703125 121.5 89.703125 L 130.800781 89.703125 L 130.800781 93.523438 C 130.800781 96.527344 128.566406 98.714844 125.738281 98.714844 L 123.246094 98.714844 C 123.183594 98.714844 123.113281 98.714844 123.050781 98.722656 L 113.453125 82.171875 C 121.152344 74.703125 123.140625 62.707031 117.523438 53.011719 C 110.890625 41.558594 96.144531 37.613281 84.648438 44.222656 C 81.253906 46.175781 78.539062 48.84375 76.539062 51.90625 L 68.097656 49.414062 C 67.933594 45.53125 64.726562 42.414062 60.796875 42.414062 C 56.769531 42.414062 53.457031 45.703125 53.457031 49.71875 C 53.457031 50.621094 53.640625 51.46875 53.949219 52.265625 L 46.21875 58.792969 C 45.101562 58.121094 43.808594 57.699219 42.414062 57.699219 C 38.382812 57.699219 35.082031 61 35.082031 65.015625 C 35.082031 69.03125 38.382812 72.320312 42.414062 72.320312 C 46.453125 72.320312 49.753906 69.03125 49.753906 65.015625 C 49.753906 63.472656 49.261719 62.042969 48.441406 60.867188 L 55.578125 54.828125 C 56.914062 56.179688 58.757812 57.015625 60.796875 57.015625 C 63.875 57.015625 66.511719 55.09375 67.585938 52.40625 L 75 54.605469 C 71.679688 61.511719 71.707031 69.878906 75.832031 77 C 78.382812 81.394531 82.125 84.675781 86.421875 86.675781 L 21.351562 86.675781 L 21.351562 33.484375 C 21.351562 30.492188 23.710938 28.121094 26.714844 28.121094 Z M 26.714844 25.117188 C 22.089844 25.117188 18.328125 28.875 18.328125 33.484375 L 18.328125 93.359375 C 18.328125 97.96875 22.089844 101.726562 26.714844 101.726562 L 63.199219 101.726562 L 59.363281 112.457031 L 56.472656 112.457031 C 54.453125 112.457031 54.453125 115.480469 56.472656 115.480469 L 95.683594 115.480469 C 97.703125 115.480469 97.703125 112.457031 95.683594 112.457031 L 92.789062 112.457031 L 88.957031 101.726562 L 111.125 101.726562 L 115.699219 109.617188 C 116.40625 110.839844 117.75 111.421875 119.0625 111.503906 C 120.363281 111.585938 121.757812 111.238281 123.039062 110.503906 C 124.332031 109.757812 125.328125 108.746094 125.910156 107.570312 C 126.496094 106.398438 126.648438 104.945312 125.941406 103.71875 L 124.78125 101.726562 L 125.738281 101.726562 C 130.195312 101.726562 133.828125 98.078125 133.828125 93.523438 L 133.828125 33.484375 C 133.828125 28.875 130.0625 25.117188 125.4375 25.117188 L 26.714844 25.117188 " fill-opacity="1" fill-rule="nonzero"/></g><path fill="#0d6591" d="M 95.886719 55.605469 C 97.90625 55.585938 99.691406 56.964844 100.132812 59.007812 C 100.636719 61.335938 99.160156 63.605469 96.820312 64.097656 C 94.484375 64.597656 92.214844 63.136719 91.714844 60.804688 C 91.210938 58.464844 92.679688 56.207031 95.015625 55.707031 C 95.3125 55.648438 95.609375 55.617188 95.886719 55.605469 Z M 95.855469 52.589844 C 95.363281 52.601562 94.871094 52.652344 94.378906 52.753906 C 92.246094 53.214844 90.554688 54.585938 89.5625 56.363281 L 83.777344 54.398438 C 83.582031 54.328125 83.378906 54.308594 83.171875 54.320312 C 81.523438 54.429688 81.222656 56.730469 82.792969 57.25 L 88.660156 59.242188 C 88.597656 59.957031 88.597656 60.695312 88.761719 61.429688 C 89.601562 65.363281 93.519531 67.886719 97.457031 67.050781 C 101.046875 66.28125 103.453125 62.972656 103.230469 59.425781 L 109.628906 57.25 C 111.308594 56.6875 110.816406 54.195312 109.042969 54.320312 C 108.910156 54.328125 108.777344 54.359375 108.644531 54.398438 L 102.386719 56.523438 C 101.117188 54.132812 98.605469 52.570312 95.855469 52.589844 " fill-opacity="1" fill-rule="nonzero"/></svg>