<svg xmlns="http://www.w3.org/2000/svg" xmlns:xlink="http://www.w3.org/1999/xlink" width="200" zoomAndPan="magnify" viewBox="0 0 150 149.999998" height="200" preserveAspectRatio="xMidYMid meet" version="1.0"><defs><clipPath id="63061afc85"><path d="M 10.007812 10.007812 L 140.507812 10.007812 L 140.507812 140.507812 L 10.007812 140.507812 Z M 10.007812 10.007812 " clip-rule="nonzero"/></clipPath><clipPath id="3134857cc0"><path d="M 53.855469 21.378906 L 95.855469 21.378906 L 95.855469 61.878906 L 53.855469 61.878906 Z M 53.855469 21.378906 " clip-rule="nonzero"/></clipPath><clipPath id="14ef370c8b"><path d="M 72.652344 23.414062 L 77.152344 23.414062 L 77.152344 30.164062 L 72.652344 30.164062 Z M 72.652344 23.414062 " clip-rule="nonzero"/></clipPath><clipPath id="74ea412272"><path d="M 37.332031 66.019531 L 113.082031 66.019531 L 113.082031 117.019531 L 37.332031 117.019531 Z M 37.332031 66.019531 " clip-rule="nonzero"/></clipPath></defs><g clip-path="url(#63061afc85)"><path fill="#0d6591" d="M 140.507812 75.257812 C 140.507812 76.328125 140.484375 77.394531 140.429688 78.460938 C 140.378906 79.527344 140.300781 80.59375 140.195312 81.65625 C 140.089844 82.71875 139.960938 83.777344 139.804688 84.832031 C 139.648438 85.890625 139.464844 86.941406 139.253906 87.988281 C 139.046875 89.035156 138.8125 90.078125 138.554688 91.113281 C 138.292969 92.148438 138.011719 93.179688 137.699219 94.199219 C 137.390625 95.222656 137.054688 96.234375 136.695312 97.242188 C 136.335938 98.246094 135.953125 99.242188 135.542969 100.230469 C 135.132812 101.214844 134.703125 102.191406 134.246094 103.15625 C 133.789062 104.121094 133.308594 105.078125 132.804688 106.019531 C 132.300781 106.960938 131.773438 107.890625 131.226562 108.804688 C 130.675781 109.71875 130.105469 110.621094 129.511719 111.511719 C 128.917969 112.398438 128.304688 113.269531 127.667969 114.128906 C 127.03125 114.988281 126.375 115.828125 125.699219 116.652344 C 125.019531 117.480469 124.324219 118.289062 123.605469 119.078125 C 122.890625 119.871094 122.152344 120.644531 121.398438 121.398438 C 120.644531 122.152344 119.871094 122.890625 119.078125 123.605469 C 118.289062 124.324219 117.480469 125.019531 116.652344 125.699219 C 115.828125 126.375 114.988281 127.03125 114.128906 127.667969 C 113.269531 128.304688 112.398438 128.917969 111.511719 129.511719 C 110.621094 130.105469 109.71875 130.675781 108.804688 131.226562 C 107.890625 131.773438 106.960938 132.300781 106.019531 132.804688 C 105.078125 133.308594 104.121094 133.789062 103.15625 134.246094 C 102.191406 134.703125 101.214844 135.132812 100.230469 135.542969 C 99.242188 135.953125 98.246094 136.335938 97.242188 136.695312 C 96.234375 137.054688 95.222656 137.390625 94.199219 137.699219 C 93.179688 138.011719 92.148438 138.292969 91.113281 138.554688 C 90.078125 138.8125 89.035156 139.046875 87.988281 139.253906 C 86.941406 139.464844 85.890625 139.648438 84.832031 139.804688 C 83.777344 139.960938 82.71875 140.089844 81.65625 140.195312 C 80.59375 140.300781 79.527344 140.378906 78.460938 140.429688 C 77.394531 140.484375 76.328125 140.507812 75.257812 140.507812 C 74.191406 140.507812 73.125 140.484375 72.058594 140.429688 C 70.992188 140.378906 69.925781 140.300781 68.863281 140.195312 C 67.800781 140.089844 66.742188 139.960938 65.683594 139.804688 C 64.628906 139.648438 63.578125 139.464844 62.53125 139.253906 C 61.484375 139.046875 60.441406 138.8125 59.40625 138.554688 C 58.371094 138.292969 57.339844 138.011719 56.320312 137.699219 C 55.296875 137.390625 54.28125 137.054688 53.277344 136.695312 C 52.273438 136.335938 51.277344 135.953125 50.289062 135.542969 C 49.304688 135.132812 48.328125 134.703125 47.363281 134.246094 C 46.394531 133.789062 45.441406 133.308594 44.5 132.804688 C 43.558594 132.300781 42.628906 131.773438 41.714844 131.226562 C 40.796875 130.675781 39.898438 130.105469 39.007812 129.511719 C 38.121094 128.917969 37.246094 128.304688 36.390625 127.667969 C 35.53125 127.03125 34.691406 126.375 33.867188 125.699219 C 33.039062 125.019531 32.230469 124.324219 31.441406 123.605469 C 30.648438 122.890625 29.875 122.152344 29.121094 121.398438 C 28.367188 120.644531 27.628906 119.871094 26.914062 119.078125 C 26.195312 118.289062 25.5 117.480469 24.820312 116.652344 C 24.144531 115.828125 23.488281 114.988281 22.851562 114.128906 C 22.214844 113.269531 21.597656 112.398438 21.007812 111.511719 C 20.414062 110.621094 19.839844 109.71875 19.292969 108.804688 C 18.742188 107.890625 18.21875 106.960938 17.714844 106.019531 C 17.210938 105.078125 16.730469 104.121094 16.273438 103.15625 C 15.816406 102.191406 15.386719 101.214844 14.976562 100.230469 C 14.566406 99.242188 14.183594 98.246094 13.824219 97.242188 C 13.464844 96.234375 13.128906 95.222656 12.820312 94.199219 C 12.507812 93.179688 12.222656 92.148438 11.964844 91.113281 C 11.707031 90.078125 11.472656 89.035156 11.261719 87.988281 C 11.054688 86.941406 10.871094 85.890625 10.714844 84.832031 C 10.558594 83.777344 10.429688 82.71875 10.324219 81.65625 C 10.21875 80.59375 10.140625 79.527344 10.089844 78.460938 C 10.035156 77.394531 10.007812 76.328125 10.007812 75.257812 C 10.007812 74.191406 10.035156 73.125 10.089844 72.058594 C 10.140625 70.992188 10.21875 69.925781 10.324219 68.863281 C 10.429688 67.800781 10.558594 66.742188 10.714844 65.683594 C 10.871094 64.628906 11.054688 63.578125 11.261719 62.53125 C 11.472656 61.484375 11.707031 60.441406 11.964844 59.40625 C 12.222656 58.371094 12.507812 57.339844 12.820312 56.320312 C 13.128906 55.296875 13.464844 54.28125 13.824219 53.277344 C 14.183594 52.273438 14.566406 51.277344 14.976562 50.289062 C 15.386719 49.304688 15.816406 48.328125 16.273438 47.363281 C 16.730469 46.394531 17.210938 45.441406 17.714844 44.5 C 18.21875 43.558594 18.742188 42.628906 19.292969 41.714844 C 19.839844 40.796875 20.414062 39.898438 21.007812 39.007812 C 21.597656 38.121094 22.214844 37.246094 22.851562 36.390625 C 23.488281 35.53125 24.144531 34.691406 24.820312 33.867188 C 25.5 33.039062 26.195312 32.230469 26.914062 31.441406 C 27.628906 30.648438 28.367188 29.875 29.121094 29.121094 C 29.875 28.367188 30.648438 27.628906 31.441406 26.914062 C 32.230469 26.195312 33.039062 25.5 33.867188 24.820312 C 34.691406 24.144531 35.53125 23.488281 36.390625 22.851562 C 37.246094 22.214844 38.121094 21.597656 39.007812 21.007812 C 39.898438 20.414062 40.796875 19.839844 41.714844 19.292969 C 42.628906 18.742188 43.558594 18.21875 44.5 17.714844 C 45.441406 17.210938 46.394531 16.730469 47.363281 16.273438 C 48.328125 15.816406 49.304688 15.386719 50.289062 14.976562 C 51.277344 14.566406 52.273438 14.183594 53.277344 13.824219 C 54.28125 13.464844 55.296875 13.128906 56.320312 12.820312 C 57.339844 12.507812 58.371094 12.222656 59.40625 11.964844 C 60.441406 11.707031 61.484375 11.472656 62.53125 11.261719 C 63.578125 11.054688 64.628906 10.871094 65.683594 10.714844 C 66.742188 10.558594 67.800781 10.429688 68.863281 10.324219 C 69.925781 10.21875 70.992188 10.140625 72.058594 10.089844 C 73.125 10.035156 74.191406 10.007812 75.257812 10.007812 C 76.328125 10.007812 77.394531 10.035156 78.460938 10.089844 C 79.527344 10.140625 80.59375 10.21875 81.65625 10.324219 C 82.71875 10.429688 83.777344 10.558594 84.832031 10.714844 C 85.890625 10.871094 86.941406 11.054688 87.988281 11.261719 C 89.035156 11.472656 90.078125 11.707031 91.113281 11.964844 C 92.148438 12.222656 93.179688 12.507812 94.199219 12.820312 C 95.222656 13.128906 96.234375 13.464844 97.242188 13.824219 C 98.246094 14.183594 99.242188 14.566406 100.230469 14.976562 C 101.214844 15.386719 102.191406 15.816406 103.15625 16.273438 C 104.121094 16.730469 105.078125 17.210938 106.019531 17.714844 C 106.960938 18.21875 107.890625 18.742188 108.804688 19.292969 C 109.722656 19.839844 110.621094 20.414062 111.511719 21.007812 C 112.398438 21.597656 113.269531 22.214844 114.128906 22.851562 C 114.988281 23.488281 115.828125 24.144531 116.652344 24.820312 C 117.480469 25.5 118.289062 26.195312 119.078125 26.914062 C 119.871094 27.628906 120.644531 28.367188 121.398438 29.121094 C 122.152344 29.875 122.890625 30.648438 123.605469 31.441406 C 124.324219 32.230469 125.019531 33.039062 125.699219 33.867188 C 126.375 34.691406 127.03125 35.53125 127.667969 36.390625 C 128.304688 37.246094 128.917969 38.121094 129.511719 39.007812 C 130.105469 39.898438 130.675781 40.796875 131.226562 41.714844 C 131.773438 42.628906 132.300781 43.558594 132.804688 44.5 C 133.308594 45.441406 133.789062 46.394531 134.246094 47.363281 C 134.703125 48.328125 135.132812 49.304688 135.542969 50.289062 C 135.953125 51.277344 136.335938 52.273438 136.695312 53.277344 C 137.054688 54.28125 137.390625 55.296875 137.699219 56.320312 C 138.011719 57.339844 138.292969 58.371094 138.554688 59.40625 C 138.8125 60.441406 139.046875 61.484375 139.253906 62.53125 C 139.464844 63.578125 139.648438 64.628906 139.804688 65.683594 C 139.960938 66.742188 140.089844 67.800781 140.195312 68.863281 C 140.300781 69.925781 140.378906 70.992188 140.429688 72.058594 C 140.484375 73.125 140.507812 74.191406 140.507812 75.257812 Z M 140.507812 75.257812 " fill-opacity="1" fill-rule="nonzero"/></g><g clip-path="url(#3134857cc0)"><path fill="#ffffff" d="M 61.113281 35.488281 L 64.53125 35.488281 L 65.058594 54.046875 L 60.652344 54.046875 Z M 57.886719 54.714844 L 91.820312 54.714844 L 91.820312 57.101562 L 93.855469 57.101562 L 93.855469 59.488281 L 95.828125 59.488281 L 95.828125 61.878906 L 53.882812 61.875 L 53.882812 59.488281 L 55.855469 59.488281 L 55.855469 57.101562 L 57.886719 57.101562 L 57.886719 54.714844 L 57.890625 54.714844 Z M 93.589844 30.304688 L 74.855469 21.378906 L 56.117188 30.304688 L 56.117188 31.765625 L 93.589844 31.765625 Z M 59.730469 32.433594 L 89.980469 32.433594 L 89.980469 34.820312 L 59.730469 34.820312 Z M 85.113281 35.488281 L 88.53125 35.488281 L 89.058594 54.046875 L 84.652344 54.046875 Z M 77.113281 35.488281 L 80.53125 35.488281 L 81.058594 54.046875 L 76.652344 54.046875 Z M 69.113281 35.488281 L 72.53125 35.488281 L 73.058594 54.046875 L 68.652344 54.046875 Z M 69.113281 35.488281 " fill-opacity="1" fill-rule="nonzero"/></g><g clip-path="url(#14ef370c8b)"><path fill="#0d6591" d="M 76.859375 28.980469 C 76.855469 28.980469 76.683594 29.035156 76.484375 29.089844 C 76.117188 29.191406 76.015625 29.199219 76.011719 29.199219 C 75.847656 29.207031 75.507812 29.140625 75.234375 29.085938 C 74.90625 29.019531 74.59375 28.957031 74.34375 28.957031 C 74.296875 28.957031 74.242188 28.960938 74.179688 28.964844 C 74.484375 28.449219 74.554688 28.21875 74.578125 28.074219 C 74.621094 27.839844 74.59375 27.5625 74.535156 27.269531 L 75.796875 27.269531 L 75.796875 26.304688 L 74.277344 26.304688 C 74.242188 26.175781 74.207031 26.054688 74.1875 25.964844 C 74.15625 25.804688 74.117188 25.464844 74.101562 25.320312 C 74.113281 24.800781 74.542969 24.378906 75.070312 24.378906 C 75.605469 24.378906 76.039062 24.8125 76.039062 25.34375 L 77.003906 25.34375 C 77.003906 25.082031 76.953125 24.828125 76.851562 24.589844 C 76.753906 24.363281 76.617188 24.15625 76.4375 23.980469 C 76.261719 23.800781 76.054688 23.664062 75.824219 23.566406 C 75.585938 23.464844 75.332031 23.414062 75.070312 23.414062 C 74.808594 23.414062 74.554688 23.464844 74.316406 23.566406 C 74.085938 23.664062 73.878906 23.800781 73.703125 23.980469 C 73.523438 24.15625 73.386719 24.363281 73.289062 24.589844 C 73.1875 24.828125 73.136719 25.082031 73.136719 25.34375 L 73.136719 25.386719 C 73.144531 25.441406 73.1875 25.910156 73.242188 26.164062 C 73.253906 26.210938 73.261719 26.257812 73.277344 26.304688 L 72.652344 26.304688 L 72.652344 27.269531 L 73.542969 27.269531 C 73.554688 27.328125 73.570312 27.382812 73.582031 27.433594 C 73.640625 27.726562 73.636719 27.859375 73.625 27.910156 C 73.625 27.921875 73.582031 28.109375 73.179688 28.746094 C 73.085938 28.890625 72.996094 29.03125 72.921875 29.140625 C 72.855469 29.152344 72.742188 29.171875 72.742188 29.171875 L 72.742188 30.152344 C 73.214844 30.0625 74.066406 29.921875 74.34375 29.921875 C 74.5 29.921875 74.789062 29.980469 75.042969 30.03125 C 75.386719 30.097656 75.710938 30.164062 75.984375 30.164062 C 76.011719 30.164062 76.035156 30.164062 76.0625 30.160156 C 76.152344 30.15625 76.320312 30.136719 76.746094 30.019531 C 76.960938 29.960938 77.144531 29.902344 77.152344 29.898438 L 76.859375 28.980469 " fill-opacity="1" fill-rule="nonzero"/></g><g clip-path="url(#74ea412272)"><path fill="#ffffff" d="M 66.425781 79.207031 C 66.425781 74.386719 70.355469 70.480469 75.207031 70.480469 C 80.054688 70.480469 83.988281 74.386719 83.988281 79.207031 C 83.988281 84.027344 80.054688 87.933594 75.207031 87.933594 C 70.355469 87.933594 66.425781 84.027344 66.425781 79.207031 Z M 87.019531 91.8125 L 63.394531 91.8125 C 61.421875 91.8125 59.824219 93.398438 59.824219 95.359375 L 59.824219 117.019531 L 64.703125 117.019531 L 64.703125 101 C 64.703125 100.566406 65.054688 100.214844 65.492188 100.214844 C 65.925781 100.214844 66.277344 100.566406 66.277344 101 L 66.277344 117.019531 L 84.132812 117.019531 L 84.132812 101 C 84.132812 100.566406 84.488281 100.214844 84.921875 100.214844 C 85.359375 100.214844 85.710938 100.566406 85.710938 101 L 85.710938 117.019531 L 90.589844 117.019531 L 90.589844 95.359375 C 90.589844 93.398438 88.992188 91.8125 87.019531 91.8125 Z M 97.648438 83.472656 C 102.496094 83.472656 106.429688 79.566406 106.429688 74.746094 C 106.429688 69.925781 102.496094 66.019531 97.648438 66.019531 C 92.796875 66.019531 88.867188 69.925781 88.867188 74.746094 C 88.867188 79.566406 92.796875 83.472656 97.648438 83.472656 Z M 109.460938 87.351562 L 85.832031 87.351562 C 84.441406 87.351562 83.25 88.152344 82.660156 89.304688 L 87.019531 89.304688 C 90.378906 89.304688 93.113281 92.019531 93.113281 95.359375 L 93.113281 112.5625 L 106.574219 112.5625 L 106.574219 96.539062 C 106.574219 96.105469 106.929688 95.753906 107.363281 95.753906 C 107.800781 95.753906 108.152344 96.105469 108.152344 96.539062 L 108.152344 112.5625 L 113.03125 112.5625 L 113.03125 90.898438 C 113.03125 88.9375 111.433594 87.351562 109.460938 87.351562 Z M 52.765625 83.472656 C 57.617188 83.472656 61.546875 79.566406 61.546875 74.746094 C 61.546875 69.925781 57.617188 66.019531 52.765625 66.019531 C 47.917969 66.019531 43.984375 69.925781 43.984375 74.746094 C 43.984375 79.566406 47.917969 83.472656 52.765625 83.472656 Z M 67.753906 89.304688 C 67.164062 88.152344 65.972656 87.351562 64.578125 87.351562 L 40.953125 87.351562 C 38.980469 87.351562 37.382812 88.9375 37.382812 90.898438 L 37.382812 112.5625 L 42.261719 112.5625 L 42.261719 96.539062 C 42.261719 96.105469 42.613281 95.753906 43.050781 95.753906 C 43.484375 95.753906 43.839844 96.105469 43.839844 96.539062 L 43.839844 112.5625 L 57.300781 112.5625 L 57.300781 95.359375 C 57.300781 92.019531 60.035156 89.304688 63.394531 89.304688 Z M 67.753906 89.304688 " fill-opacity="1" fill-rule="nonzero"/></g></svg>