<svg xmlns="http://www.w3.org/2000/svg" xmlns:xlink="http://www.w3.org/1999/xlink" width="200" zoomAndPan="magnify" viewBox="0 0 150 149.999998" height="200" preserveAspectRatio="xMidYMid meet" version="1.0"><defs><clipPath id="f68bbda0b1"><path d="M 10.007812 10.007812 L 140.507812 10.007812 L 140.507812 140.507812 L 10.007812 140.507812 Z M 10.007812 10.007812 " clip-rule="nonzero"/></clipPath><clipPath id="c5eb949416"><path d="M 59 68.253906 L 91 68.253906 L 91 101 L 59 101 Z M 59 68.253906 " clip-rule="nonzero"/></clipPath><clipPath id="4efa2752f4"><path d="M 53 100 L 92 100 L 92 130.503906 L 53 130.503906 Z M 53 100 " clip-rule="nonzero"/></clipPath><clipPath id="30b5016654"><path d="M 44.691406 95 L 61 95 L 61 115 L 44.691406 115 Z M 44.691406 95 " clip-rule="nonzero"/></clipPath><clipPath id="eb32fd214b"><path d="M 89 95.011719 L 105.242188 95.011719 L 105.242188 114.730469 L 89 114.730469 Z M 89 95.011719 " clip-rule="nonzero"/></clipPath><clipPath id="1cc6e61797"><path d="M 22 46.902344 L 48.988281 46.902344 L 48.988281 67.902344 L 22 67.902344 Z M 22 46.902344 " clip-rule="nonzero"/></clipPath><clipPath id="3268394821"><path d="M 97.496094 47 L 128.996094 47 L 128.996094 72.402344 L 97.496094 72.402344 Z M 97.496094 47 " clip-rule="nonzero"/></clipPath><clipPath id="d8bfc21933"><path d="M 61.476562 24.003906 L 92.976562 24.003906 L 92.976562 54.003906 L 61.476562 54.003906 Z M 61.476562 24.003906 " clip-rule="nonzero"/></clipPath></defs><g clip-path="url(#f68bbda0b1)"><path fill="#0d6591" d="M 140.507812 75.257812 C 140.507812 76.328125 140.484375 77.394531 140.429688 78.460938 C 140.378906 79.527344 140.300781 80.59375 140.195312 81.65625 C 140.089844 82.71875 139.960938 83.777344 139.804688 84.832031 C 139.648438 85.890625 139.464844 86.941406 139.253906 87.988281 C 139.046875 89.035156 138.8125 90.078125 138.554688 91.113281 C 138.292969 92.148438 138.011719 93.179688 137.699219 94.199219 C 137.390625 95.222656 137.054688 96.234375 136.695312 97.242188 C 136.335938 98.246094 135.953125 99.242188 135.542969 100.230469 C 135.132812 101.214844 134.703125 102.191406 134.246094 103.15625 C 133.789062 104.121094 133.308594 105.078125 132.804688 106.019531 C 132.300781 106.960938 131.773438 107.890625 131.226562 108.804688 C 130.675781 109.71875 130.105469 110.621094 129.511719 111.511719 C 128.917969 112.398438 128.304688 113.269531 127.667969 114.128906 C 127.03125 114.988281 126.375 115.828125 125.699219 116.652344 C 125.019531 117.480469 124.324219 118.289062 123.605469 119.078125 C 122.890625 119.871094 122.152344 120.644531 121.398438 121.398438 C 120.644531 122.152344 119.871094 122.890625 119.078125 123.605469 C 118.289062 124.324219 117.480469 125.019531 116.652344 125.699219 C 115.828125 126.375 114.988281 127.03125 114.128906 127.667969 C 113.269531 128.304688 112.398438 128.917969 111.511719 129.511719 C 110.621094 130.105469 109.71875 130.675781 108.804688 131.226562 C 107.890625 131.773438 106.960938 132.300781 106.019531 132.804688 C 105.078125 133.308594 104.121094 133.789062 103.15625 134.246094 C 102.191406 134.703125 101.214844 135.132812 100.230469 135.542969 C 99.242188 135.953125 98.246094 136.335938 97.242188 136.695312 C 96.234375 137.054688 95.222656 137.390625 94.199219 137.699219 C 93.179688 138.011719 92.148438 138.292969 91.113281 138.554688 C 90.078125 138.8125 89.035156 139.046875 87.988281 139.253906 C 86.941406 139.464844 85.890625 139.648438 84.832031 139.804688 C 83.777344 139.960938 82.71875 140.089844 81.65625 140.195312 C 80.59375 140.300781 79.527344 140.378906 78.460938 140.429688 C 77.394531 140.484375 76.328125 140.507812 75.257812 140.507812 C 74.191406 140.507812 73.125 140.484375 72.058594 140.429688 C 70.992188 140.378906 69.925781 140.300781 68.863281 140.195312 C 67.800781 140.089844 66.742188 139.960938 65.683594 139.804688 C 64.628906 139.648438 63.578125 139.464844 62.53125 139.253906 C 61.484375 139.046875 60.441406 138.8125 59.40625 138.554688 C 58.371094 138.292969 57.339844 138.011719 56.320312 137.699219 C 55.296875 137.390625 54.28125 137.054688 53.277344 136.695312 C 52.273438 136.335938 51.277344 135.953125 50.289062 135.542969 C 49.304688 135.132812 48.328125 134.703125 47.363281 134.246094 C 46.394531 133.789062 45.441406 133.308594 44.5 132.804688 C 43.558594 132.300781 42.628906 131.773438 41.714844 131.226562 C 40.796875 130.675781 39.898438 130.105469 39.007812 129.511719 C 38.121094 128.917969 37.246094 128.304688 36.390625 127.667969 C 35.53125 127.03125 34.691406 126.375 33.867188 125.699219 C 33.039062 125.019531 32.230469 124.324219 31.441406 123.605469 C 30.648438 122.890625 29.875 122.152344 29.121094 121.398438 C 28.367188 120.644531 27.628906 119.871094 26.914062 119.078125 C 26.195312 118.289062 25.5 117.480469 24.820312 116.652344 C 24.144531 115.828125 23.488281 114.988281 22.851562 114.128906 C 22.214844 113.269531 21.597656 112.398438 21.007812 111.511719 C 20.414062 110.621094 19.839844 109.71875 19.292969 108.804688 C 18.742188 107.890625 18.21875 106.960938 17.714844 106.019531 C 17.210938 105.078125 16.730469 104.121094 16.273438 103.15625 C 15.816406 102.191406 15.386719 101.214844 14.976562 100.230469 C 14.566406 99.242188 14.183594 98.246094 13.824219 97.242188 C 13.464844 96.234375 13.128906 95.222656 12.820312 94.199219 C 12.507812 93.179688 12.222656 92.148438 11.964844 91.113281 C 11.707031 90.078125 11.472656 89.035156 11.261719 87.988281 C 11.054688 86.941406 10.871094 85.890625 10.714844 84.832031 C 10.558594 83.777344 10.429688 82.71875 10.324219 81.65625 C 10.21875 80.59375 10.140625 79.527344 10.089844 78.460938 C 10.035156 77.394531 10.007812 76.328125 10.007812 75.257812 C 10.007812 74.191406 10.035156 73.125 10.089844 72.058594 C 10.140625 70.992188 10.21875 69.925781 10.324219 68.863281 C 10.429688 67.800781 10.558594 66.742188 10.714844 65.683594 C 10.871094 64.628906 11.054688 63.578125 11.261719 62.53125 C 11.472656 61.484375 11.707031 60.441406 11.964844 59.40625 C 12.222656 58.371094 12.507812 57.339844 12.820312 56.320312 C 13.128906 55.296875 13.464844 54.28125 13.824219 53.277344 C 14.183594 52.273438 14.566406 51.277344 14.976562 50.289062 C 15.386719 49.304688 15.816406 48.328125 16.273438 47.363281 C 16.730469 46.394531 17.210938 45.441406 17.714844 44.5 C 18.21875 43.558594 18.742188 42.628906 19.292969 41.714844 C 19.839844 40.796875 20.414062 39.898438 21.007812 39.007812 C 21.597656 38.121094 22.214844 37.246094 22.851562 36.390625 C 23.488281 35.53125 24.144531 34.691406 24.820312 33.867188 C 25.5 33.039062 26.195312 32.230469 26.914062 31.441406 C 27.628906 30.648438 28.367188 29.875 29.121094 29.121094 C 29.875 28.367188 30.648438 27.628906 31.441406 26.914062 C 32.230469 26.195312 33.039062 25.5 33.867188 24.820312 C 34.691406 24.144531 35.53125 23.488281 36.390625 22.851562 C 37.246094 22.214844 38.121094 21.597656 39.007812 21.007812 C 39.898438 20.414062 40.796875 19.839844 41.714844 19.292969 C 42.628906 18.742188 43.558594 18.21875 44.5 17.714844 C 45.441406 17.210938 46.394531 16.730469 47.363281 16.273438 C 48.328125 15.816406 49.304688 15.386719 50.289062 14.976562 C 51.277344 14.566406 52.273438 14.183594 53.277344 13.824219 C 54.28125 13.464844 55.296875 13.128906 56.320312 12.820312 C 57.339844 12.507812 58.371094 12.222656 59.40625 11.964844 C 60.441406 11.707031 61.484375 11.472656 62.53125 11.261719 C 63.578125 11.054688 64.628906 10.871094 65.683594 10.714844 C 66.742188 10.558594 67.800781 10.429688 68.863281 10.324219 C 69.925781 10.21875 70.992188 10.140625 72.058594 10.089844 C 73.125 10.035156 74.191406 10.007812 75.257812 10.007812 C 76.328125 10.007812 77.394531 10.035156 78.460938 10.089844 C 79.527344 10.140625 80.59375 10.21875 81.65625 10.324219 C 82.71875 10.429688 83.777344 10.558594 84.832031 10.714844 C 85.890625 10.871094 86.941406 11.054688 87.988281 11.261719 C 89.035156 11.472656 90.078125 11.707031 91.113281 11.964844 C 92.148438 12.222656 93.179688 12.507812 94.199219 12.820312 C 95.222656 13.128906 96.234375 13.464844 97.242188 13.824219 C 98.246094 14.183594 99.242188 14.566406 100.230469 14.976562 C 101.214844 15.386719 102.191406 15.816406 103.15625 16.273438 C 104.121094 16.730469 105.078125 17.210938 106.019531 17.714844 C 106.960938 18.21875 107.890625 18.742188 108.804688 19.292969 C 109.722656 19.839844 110.621094 20.414062 111.511719 21.007812 C 112.398438 21.597656 113.269531 22.214844 114.128906 22.851562 C 114.988281 23.488281 115.828125 24.144531 116.652344 24.820312 C 117.480469 25.5 118.289062 26.195312 119.078125 26.914062 C 119.871094 27.628906 120.644531 28.367188 121.398438 29.121094 C 122.152344 29.875 122.890625 30.648438 123.605469 31.441406 C 124.324219 32.230469 125.019531 33.039062 125.699219 33.867188 C 126.375 34.691406 127.03125 35.53125 127.667969 36.390625 C 128.304688 37.246094 128.917969 38.121094 129.511719 39.007812 C 130.105469 39.898438 130.675781 40.796875 131.226562 41.714844 C 131.773438 42.628906 132.300781 43.558594 132.804688 44.5 C 133.308594 45.441406 133.789062 46.394531 134.246094 47.363281 C 134.703125 48.328125 135.132812 49.304688 135.542969 50.289062 C 135.953125 51.277344 136.335938 52.273438 136.695312 53.277344 C 137.054688 54.28125 137.390625 55.296875 137.699219 56.320312 C 138.011719 57.339844 138.292969 58.371094 138.554688 59.40625 C 138.8125 60.441406 139.046875 61.484375 139.253906 62.53125 C 139.464844 63.578125 139.648438 64.628906 139.804688 65.683594 C 139.960938 66.742188 140.089844 67.800781 140.195312 68.863281 C 140.300781 69.925781 140.378906 70.992188 140.429688 72.058594 C 140.484375 73.125 140.507812 74.191406 140.507812 75.257812 Z M 140.507812 75.257812 " fill-opacity="1" fill-rule="nonzero"/></g><g clip-path="url(#c5eb949416)"><path fill="#ffffff" d="M 75.109375 72.152344 C 76.285156 72.152344 77.261719 73.136719 77.261719 74.308594 C 77.261719 75.488281 76.285156 76.464844 75.109375 76.464844 C 73.9375 76.464844 72.960938 75.488281 72.960938 74.308594 C 72.960938 73.070312 73.9375 72.152344 75.109375 72.152344 Z M 60.3125 79.667969 L 62.789062 79.667969 L 62.789062 99.390625 L 63.894531 99.847656 C 64.546875 100.113281 65.265625 100.046875 65.855469 99.722656 L 66.765625 99.199219 C 66.832031 99.132812 66.964844 99.066406 67.023438 99.066406 L 67.023438 79.667969 L 82.9375 79.667969 L 82.9375 98.867188 C 84.375 99.199219 85.804688 99.265625 87.242188 99.066406 L 87.242188 79.667969 L 89.71875 79.667969 C 90.109375 79.667969 90.367188 79.40625 90.367188 79.015625 L 90.367188 76.140625 C 90.367188 75.878906 90.242188 75.683594 89.984375 75.554688 L 75.4375 68.300781 C 75.242188 68.238281 75.046875 68.238281 74.851562 68.300781 L 60.046875 75.554688 C 59.785156 75.683594 59.660156 75.878906 59.660156 76.140625 L 59.660156 79.015625 C 59.660156 79.40625 59.980469 79.667969 60.3125 79.667969 " fill-opacity="1" fill-rule="nonzero"/></g><path fill="#ffffff" d="M 74.652344 86 L 75.570312 86 C 76.21875 86 76.738281 86.457031 76.804688 87.113281 C 76.804688 87.242188 76.9375 87.308594 77.003906 87.308594 L 78.765625 87.308594 C 78.894531 87.308594 78.960938 87.179688 78.960938 87.113281 C 78.828125 85.542969 77.652344 84.238281 76.152344 83.910156 L 76.152344 82.539062 C 76.152344 82.40625 76.027344 82.347656 75.960938 82.347656 L 74.195312 82.347656 C 74.070312 82.347656 74.003906 82.472656 74.003906 82.539062 L 74.003906 83.910156 C 72.308594 84.238281 71.066406 85.742188 71.132812 87.570312 C 71.265625 89.402344 72.894531 90.835938 74.71875 90.835938 L 75.570312 90.835938 C 76.351562 90.835938 76.9375 91.550781 76.804688 92.339844 C 76.675781 92.925781 76.152344 93.316406 75.503906 93.316406 L 74.585938 93.316406 C 73.9375 93.316406 73.417969 92.859375 73.351562 92.207031 C 73.351562 92.140625 73.21875 92.074219 73.152344 92.074219 L 71.394531 92.074219 C 71.265625 92.074219 71.199219 92.140625 71.199219 92.273438 C 71.328125 93.839844 72.503906 95.210938 74.070312 95.472656 L 74.070312 96.84375 C 74.070312 96.976562 74.132812 97.042969 74.261719 97.042969 L 76.027344 97.042969 C 76.152344 97.042969 76.21875 96.976562 76.21875 96.84375 L 76.21875 95.34375 C 77.71875 95.015625 78.960938 93.773438 79.023438 92.207031 C 79.152344 90.183594 77.589844 88.480469 75.570312 88.480469 L 74.585938 88.480469 C 73.808594 88.480469 73.21875 87.765625 73.351562 86.980469 C 73.550781 86.398438 74.070312 86 74.652344 86 " fill-opacity="1" fill-rule="nonzero"/><g clip-path="url(#4efa2752f4)"><path fill="#ffffff" d="M 90.242188 115.527344 L 89.132812 114.15625 C 85.28125 109.84375 79.808594 106.707031 77.980469 105.730469 L 77.003906 107.296875 C 76.285156 108.46875 74.851562 108.992188 73.484375 108.667969 L 73.417969 108.667969 C 71.851562 108.144531 70.875 106.511719 71.265625 104.882812 C 71.589844 103.441406 72.175781 102.070312 72.894531 100.765625 L 71.199219 100.503906 C 70.027344 100.308594 68.851562 100.570312 67.875 101.089844 L 66.964844 101.613281 C 65.789062 102.269531 64.355469 102.335938 63.113281 101.8125 L 61.09375 100.960938 L 53.460938 113.039062 L 56.265625 114.9375 L 57.761719 113.4375 C 58.351562 112.847656 59.136719 112.519531 59.917969 112.519531 C 60.761719 112.519531 61.480469 112.847656 62.070312 113.4375 C 62.589844 113.957031 62.855469 114.609375 62.914062 115.328125 C 63.894531 115.066406 65.070312 115.328125 65.855469 116.109375 C 66.441406 116.699219 66.765625 117.484375 66.765625 118.265625 C 66.765625 118.53125 66.699219 118.789062 66.632812 118.988281 C 67.351562 119.054688 68 119.378906 68.523438 119.835938 C 69.308594 120.621094 69.566406 121.726562 69.308594 122.773438 C 70.027344 122.84375 70.675781 123.101562 71.199219 123.625 C 71.785156 124.214844 72.109375 124.996094 72.109375 125.777344 C 72.109375 126.496094 71.851562 127.152344 71.460938 127.675781 L 73.027344 129.632812 C 73.875 130.417969 75.242188 130.417969 76.09375 129.632812 C 76.480469 129.242188 76.738281 128.652344 76.738281 128.066406 C 76.738281 127.542969 76.546875 127.019531 76.152344 126.5625 L 75.503906 125.90625 C 75.175781 125.582031 75.175781 125.125 75.503906 124.796875 C 75.828125 124.472656 76.285156 124.472656 76.609375 124.796875 L 77.785156 125.972656 C 78.628906 126.820312 80.003906 126.820312 80.847656 125.972656 L 80.914062 125.90625 C 81.695312 125.0625 81.695312 123.75 80.847656 122.90625 L 79.546875 121.601562 C 79.21875 121.269531 79.21875 120.820312 79.546875 120.488281 C 79.871094 120.160156 80.328125 120.160156 80.652344 120.488281 L 82.546875 122.382812 C 83.390625 123.234375 84.832031 123.234375 85.609375 122.382812 C 86 121.992188 86.265625 121.402344 86.265625 120.820312 C 86.265625 120.230469 86.066406 119.703125 85.675781 119.3125 L 83.65625 117.289062 C 83.523438 117.160156 83.457031 116.960938 83.457031 116.765625 C 83.457031 116.566406 83.523438 116.375 83.65625 116.242188 C 83.980469 115.917969 84.433594 115.917969 84.757812 116.242188 L 87.242188 118.722656 C 87.699219 119.183594 88.347656 119.445312 89 119.445312 C 89.585938 119.445312 90.109375 119.183594 90.503906 118.789062 C 90.894531 118.398438 91.085938 117.875 91.085938 117.289062 C 91.085938 117.027344 91.019531 116.765625 90.960938 116.507812 C 90.695312 116.179688 90.4375 115.851562 90.242188 115.527344 " fill-opacity="1" fill-rule="nonzero"/></g><path fill="#ffffff" d="M 81.171875 100.632812 L 78.371094 99.65625 C 76.9375 99.199219 75.4375 99.722656 74.652344 100.894531 L 74.460938 101.089844 C 73.675781 102.335938 73.085938 103.703125 72.761719 105.207031 C 72.566406 106.054688 73.085938 106.90625 73.875 107.164062 C 74.527344 107.363281 75.242188 107.097656 75.628906 106.445312 L 77.003906 104.292969 C 77.128906 104.027344 77.394531 103.898438 77.652344 103.898438 C 77.785156 103.898438 77.914062 103.898438 77.980469 103.960938 C 78.371094 104.160156 87.960938 108.929688 92.328125 115.851562 L 96.890625 113.238281 L 89.066406 100.960938 C 86.457031 101.613281 83.714844 101.480469 81.171875 100.632812 " fill-opacity="1" fill-rule="nonzero"/><path fill="#ffffff" d="M 70.089844 124.796875 C 69.832031 124.539062 69.441406 124.339844 69.046875 124.339844 C 68.65625 124.339844 68.265625 124.472656 68 124.796875 L 65.917969 126.894531 C 65.332031 127.476562 65.332031 128.390625 65.917969 128.984375 C 66.503906 129.566406 67.480469 129.566406 68 128.984375 L 70.089844 126.894531 C 70.351562 126.628906 70.542969 126.238281 70.542969 125.847656 C 70.542969 125.453125 70.351562 125.0625 70.089844 124.796875 " fill-opacity="1" fill-rule="nonzero"/><path fill="#ffffff" d="M 67.417969 121.011719 C 67.15625 120.746094 66.765625 120.554688 66.375 120.554688 C 65.980469 120.554688 65.589844 120.6875 65.332031 121.011719 L 62.722656 123.625 C 62.460938 123.882812 62.265625 124.28125 62.265625 124.671875 C 62.265625 125.0625 62.394531 125.453125 62.722656 125.714844 C 63.3125 126.304688 64.289062 126.304688 64.808594 125.714844 L 67.417969 123.101562 C 68 122.515625 68 121.601562 67.417969 121.011719 " fill-opacity="1" fill-rule="nonzero"/><path fill="#ffffff" d="M 65.199219 118.265625 C 65.199219 117.875 65.070312 117.484375 64.746094 117.222656 C 64.480469 116.960938 64.089844 116.765625 63.699219 116.765625 C 63.3125 116.765625 62.914062 116.898438 62.65625 117.222656 L 59.460938 120.421875 C 59.203125 120.6875 59.003906 121.078125 59.003906 121.46875 C 59.003906 121.859375 59.136719 122.253906 59.460938 122.515625 C 60.046875 123.101562 61.027344 123.101562 61.546875 122.515625 L 64.746094 119.3125 C 65.070312 119.054688 65.199219 118.664062 65.199219 118.265625 " fill-opacity="1" fill-rule="nonzero"/><path fill="#ffffff" d="M 60.960938 114.542969 C 60.703125 114.285156 60.3125 114.085938 59.917969 114.085938 C 59.527344 114.085938 59.136719 114.21875 58.871094 114.542969 L 56.265625 117.160156 C 56.003906 117.417969 55.808594 117.808594 55.808594 118.207031 C 55.808594 118.597656 55.941406 118.988281 56.265625 119.246094 C 56.851562 119.835938 57.761719 119.835938 58.351562 119.246094 L 60.960938 116.636719 C 61.546875 116.109375 61.546875 115.128906 60.960938 114.542969 " fill-opacity="1" fill-rule="nonzero"/><g clip-path="url(#30b5016654)"><path fill="#ffffff" d="M 50.589844 110.824219 C 50.199219 111.476562 49.289062 111.671875 48.632812 111.28125 C 47.980469 110.890625 47.789062 109.96875 48.179688 109.320312 C 48.570312 108.667969 49.484375 108.46875 50.132812 108.863281 C 50.789062 109.253906 50.984375 110.167969 50.589844 110.824219 Z M 59.851562 97.566406 L 56.265625 95.277344 C 55.683594 94.886719 54.832031 95.082031 54.441406 95.671875 L 45.179688 110.101562 C 44.789062 110.691406 44.980469 111.539062 45.570312 111.933594 L 49.15625 114.21875 C 49.484375 114.414062 49.808594 114.480469 50.132812 114.414062 C 50.464844 114.347656 50.789062 114.15625 50.984375 113.828125 L 60.246094 99.324219 C 60.703125 98.800781 60.503906 97.957031 59.851562 97.566406 " fill-opacity="1" fill-rule="nonzero"/></g><g clip-path="url(#eb32fd214b)"><path fill="#ffffff" d="M 101.648438 111.214844 C 101 111.605469 100.089844 111.476562 99.695312 110.757812 C 99.304688 110.101562 99.433594 109.1875 100.148438 108.796875 C 100.804688 108.40625 101.714844 108.535156 102.109375 109.253906 C 102.5 109.910156 102.308594 110.824219 101.648438 111.214844 Z M 105.042969 110.101562 L 95.78125 95.671875 C 95.585938 95.34375 95.261719 95.144531 94.9375 95.082031 C 94.609375 95.015625 94.21875 95.082031 93.960938 95.277344 L 90.367188 97.566406 C 89.785156 97.957031 89.585938 98.800781 89.984375 99.390625 L 99.238281 113.894531 C 99.628906 114.480469 100.480469 114.679688 101.066406 114.285156 L 104.652344 111.996094 C 105.234375 111.605469 105.433594 110.757812 105.042969 110.101562 " fill-opacity="1" fill-rule="nonzero"/></g><g clip-path="url(#1cc6e61797)"><path fill="#ffffff" d="M 48.84375 56.535156 L 48.527344 55.667969 C 48.355469 55.191406 47.8125 54.800781 47.324219 54.800781 L 46.207031 54.800781 C 45.375 52.53125 44.371094 49.789062 44.058594 49.144531 C 43.597656 48.136719 42.136719 47.6875 41.335938 47.464844 C 41.335938 47.464844 39.988281 46.960938 35.488281 46.960938 C 30.988281 46.960938 29.667969 47.464844 29.667969 47.464844 C 28.722656 47.773438 27.40625 48.21875 26.886719 49.171875 C 26.628906 49.648438 25.597656 52.449219 24.765625 54.800781 L 23.679688 54.800781 C 23.191406 54.800781 22.648438 55.191406 22.472656 55.667969 L 22.160156 56.535156 C 21.988281 57.011719 22.246094 57.402344 22.734375 57.402344 L 23.851562 57.402344 C 23.707031 57.796875 23.621094 58.019531 23.621094 58.019531 C 23.535156 58.160156 23.476562 58.804688 23.476562 59 L 23.476562 66.921875 C 23.476562 67.425781 23.90625 67.847656 24.421875 67.847656 L 27.863281 67.847656 C 28.378906 67.847656 28.808594 67.425781 28.808594 66.921875 L 28.808594 65.242188 L 42.195312 65.242188 L 42.195312 66.921875 C 42.195312 67.425781 42.625 67.847656 43.140625 67.847656 L 46.609375 67.847656 C 47.125 67.847656 47.554688 67.425781 47.554688 66.921875 L 47.554688 59 C 47.554688 58.832031 47.496094 58.160156 47.410156 58.019531 C 47.410156 58.019531 47.324219 57.796875 47.179688 57.402344 L 48.269531 57.402344 C 48.730469 57.402344 48.988281 57.011719 48.84375 56.535156 Z M 28.808594 61.40625 L 27.664062 60.652344 C 25.542969 60.484375 25.285156 61.210938 24.824219 60.425781 L 24.824219 59.476562 C 24.824219 58.550781 25.371094 58.523438 25.972656 58.523438 C 26.542969 58.523438 27.691406 59 28.464844 59.335938 C 29.296875 59.699219 29.898438 59.390625 30.214844 60.59375 C 30.183594 61.15625 29.871094 61.40625 28.808594 61.40625 Z M 26.800781 55.164062 C 27.519531 52.308594 28.722656 50.320312 28.894531 49.84375 C 29.007812 49.507812 28.722656 48.890625 35.515625 48.890625 C 42.308594 48.890625 41.9375 49.789062 41.964844 49.816406 C 42.28125 50.460938 43.542969 52.558594 44.199219 55.164062 C 44.199219 55.164062 41.648438 55.5 35.832031 55.5 C 30.011719 55.5 26.800781 55.164062 26.800781 55.164062 Z M 40.820312 60.59375 C 42.164062 58.972656 41.734375 59.699219 42.566406 59.335938 C 43.3125 59 44.488281 58.523438 45.058594 58.523438 C 45.664062 58.523438 46.207031 58.550781 46.207031 59.476562 L 46.207031 60.425781 C 45.777344 61.183594 45.40625 60.511719 43.253906 60.707031 L 42.195312 61.378906 C 41.132812 61.40625 40.445312 61.015625 40.820312 60.59375 Z M 40.820312 60.59375 " fill-opacity="1" fill-rule="nonzero"/></g><g clip-path="url(#3268394821)"><path fill="#ffffff" d="M 128.234375 48.816406 C 128.8125 49.824219 128.984375 51.335938 121.648438 55.621094 C 121.441406 55.742188 121.230469 55.863281 121.011719 55.988281 L 117.636719 70.988281 L 115.207031 72.410156 L 114.941406 59.265625 C 111.003906 61.269531 109.246094 61.789062 106.679688 62.660156 L 105.589844 69.019531 L 103.433594 70.28125 L 102.808594 63.722656 L 97.507812 59.894531 L 99.664062 58.636719 L 105.566406 60.828125 C 107.582031 59.015625 108.910156 57.726562 112.609375 55.269531 L 101.574219 48.511719 L 104 47.09375 L 118.421875 51.601562 C 118.660156 51.460938 118.894531 51.324219 119.121094 51.1875 C 126.457031 46.90625 127.660156 47.8125 128.234375 48.816406 Z M 128.234375 48.816406 " fill-opacity="1" fill-rule="evenodd"/></g><g clip-path="url(#d8bfc21933)"><path fill="#ffffff" d="M 92.019531 24.011719 C 91.972656 24.011719 91.921875 24.015625 91.875 24.023438 L 91.871094 24.023438 L 87.0625 24.84375 C 86.757812 24.894531 86.503906 25.105469 86.390625 25.394531 L 84.160156 31.101562 L 62.386719 31.644531 C 62.136719 31.652344 61.902344 31.765625 61.738281 31.953125 C 61.574219 32.140625 61.496094 32.390625 61.527344 32.640625 L 62.730469 42.558594 C 62.777344 42.976562 63.125 43.304688 63.542969 43.335938 L 79.0625 44.570312 L 82.140625 46.984375 C 82.144531 46.984375 82.148438 46.988281 82.152344 46.992188 C 82.152344 46.992188 82.160156 46.996094 82.160156 46.996094 C 82.164062 47 82.167969 47.003906 82.171875 47.003906 C 82.734375 47.421875 82.871094 47.992188 82.792969 48.308594 C 82.75 48.488281 82.679688 48.621094 82.515625 48.722656 C 82.351562 48.828125 82.066406 48.898438 81.582031 48.871094 C 81.582031 48.871094 81.578125 48.871094 81.578125 48.871094 C 81.5625 48.871094 81.546875 48.871094 81.53125 48.871094 L 81.523438 48.871094 L 63.011719 48.925781 L 63.007812 48.925781 C 62.519531 48.921875 62.113281 49.332031 62.113281 49.816406 C 62.113281 50.300781 62.527344 50.707031 63.011719 50.699219 L 63.015625 50.699219 L 64.367188 50.695312 C 63.867188 51.015625 63.527344 51.574219 63.527344 52.210938 C 63.527344 53.199219 64.339844 54.007812 65.328125 54.007812 C 66.320312 54.007812 67.132812 53.199219 67.132812 52.210938 C 67.132812 51.574219 66.792969 51.007812 66.285156 50.6875 L 81.53125 50.644531 C 80.980469 50.953125 80.605469 51.539062 80.605469 52.210938 C 80.605469 53.199219 81.417969 54.007812 82.40625 54.007812 C 83.398438 54.007812 84.210938 53.199219 84.210938 52.210938 C 84.210938 51.351562 83.597656 50.628906 82.789062 50.453125 C 83.554688 50.183594 84.140625 49.625 84.507812 48.773438 C 84.511719 48.765625 84.515625 48.753906 84.519531 48.742188 C 84.796875 47.628906 84.304688 46.417969 83.28125 45.628906 C 83.28125 45.628906 83.277344 45.625 83.273438 45.621094 C 83.273438 45.621094 83.273438 45.617188 83.269531 45.613281 C 83.261719 45.605469 83.25 45.59375 83.238281 45.585938 L 81.058594 43.878906 L 87.859375 26.507812 L 92.171875 25.773438 C 92.625 25.699219 92.957031 25.277344 92.917969 24.820312 C 92.878906 24.363281 92.480469 24.003906 92.019531 24.011719 Z M 83.5 32.472656 L 82.25 35.679688 L 80.613281 35.679688 L 80.613281 32.546875 Z M 79.992188 32.5625 L 79.992188 35.679688 L 76.972656 35.679688 L 76.972656 32.636719 Z M 76.351562 32.648438 L 76.351562 35.679688 L 73.332031 35.679688 L 73.332031 32.726562 Z M 72.710938 32.742188 L 72.710938 35.679688 L 69.691406 35.679688 L 69.691406 32.816406 Z M 69.070312 32.832031 L 69.070312 35.679688 L 66.050781 35.679688 L 66.050781 32.910156 Z M 65.429688 32.921875 L 65.429688 35.679688 L 63.214844 35.679688 L 62.890625 32.988281 Z M 63.292969 36.300781 L 65.429688 36.300781 L 65.429688 39.113281 L 63.632812 39.113281 Z M 66.050781 36.300781 L 69.070312 36.300781 L 69.070312 39.113281 L 66.050781 39.113281 Z M 69.691406 36.300781 L 72.710938 36.300781 L 72.710938 39.113281 L 69.691406 39.113281 Z M 73.332031 36.300781 L 76.351562 36.300781 L 76.351562 39.113281 L 73.332031 39.113281 Z M 76.972656 36.300781 L 79.992188 36.300781 L 79.992188 39.113281 L 76.972656 39.113281 Z M 80.613281 36.300781 L 82.007812 36.300781 L 80.90625 39.113281 L 80.613281 39.113281 Z M 63.707031 39.734375 L 65.429688 39.734375 L 65.429688 41.753906 L 63.9375 41.636719 Z M 66.050781 39.734375 L 69.070312 39.734375 L 69.070312 42.042969 L 66.050781 41.804688 Z M 69.691406 39.734375 L 72.710938 39.734375 L 72.710938 42.332031 L 69.691406 42.09375 Z M 73.332031 39.734375 L 76.351562 39.734375 L 76.351562 42.625 L 73.332031 42.382812 Z M 76.972656 39.734375 L 79.992188 39.734375 L 79.992188 41.449219 L 79.417969 42.910156 C 79.34375 42.875 79.261719 42.855469 79.179688 42.847656 L 76.972656 42.671875 Z M 80.613281 39.734375 L 80.660156 39.734375 L 80.613281 39.859375 Z M 65.332031 51.15625 C 65.921875 51.15625 66.390625 51.625 66.390625 52.210938 C 66.390625 52.800781 65.921875 53.265625 65.332031 53.265625 C 64.742188 53.265625 64.273438 52.800781 64.273438 52.210938 C 64.273438 51.625 64.742188 51.15625 65.332031 51.15625 Z M 82.410156 51.15625 C 82.996094 51.15625 83.46875 51.625 83.46875 52.210938 C 83.46875 52.800781 82.996094 53.265625 82.410156 53.265625 C 81.820312 53.265625 81.351562 52.800781 81.351562 52.210938 C 81.351562 51.625 81.820312 51.15625 82.410156 51.15625 Z M 65.332031 51.65625 C 65.011719 51.65625 64.757812 51.910156 64.757812 52.230469 C 64.757812 52.550781 65.011719 52.800781 65.332031 52.800781 C 65.652344 52.800781 65.90625 52.550781 65.90625 52.230469 C 65.90625 51.910156 65.652344 51.65625 65.332031 51.65625 Z M 82.410156 51.65625 C 82.089844 51.65625 81.832031 51.910156 81.832031 52.230469 C 81.832031 52.550781 82.089844 52.800781 82.410156 52.800781 C 82.726562 52.800781 82.984375 52.550781 82.984375 52.230469 C 82.984375 51.910156 82.726562 51.65625 82.410156 51.65625 Z M 82.410156 51.65625 " fill-opacity="1" fill-rule="nonzero"/></g></svg>