<svg xmlns="http://www.w3.org/2000/svg" xmlns:xlink="http://www.w3.org/1999/xlink" width="200" zoomAndPan="magnify" viewBox="0 0 150 149.999998" height="200" preserveAspectRatio="xMidYMid meet" version="1.0"><defs><clipPath id="74a8a921ea"><path d="M 84 5.808594 L 144.332031 5.808594 L 144.332031 67 L 84 67 Z M 84 5.808594 " clip-rule="nonzero"/></clipPath><clipPath id="94d77411dc"><path d="M 79 81 L 142 81 L 142 142.179688 L 79 142.179688 Z M 79 81 " clip-rule="nonzero"/></clipPath><clipPath id="99912fd065"><path d="M 4.082031 25 L 97 25 L 97 118 L 4.082031 118 Z M 4.082031 25 " clip-rule="nonzero"/></clipPath></defs><g clip-path="url(#74a8a921ea)"><path fill="#0d6591" d="M 112.910156 24.421875 C 119.507812 23.648438 125.472656 28.339844 126.25 34.910156 C 127.027344 41.488281 122.3125 47.441406 115.71875 48.203125 C 109.109375 48.976562 103.144531 44.269531 102.367188 37.703125 C 101.601562 31.136719 106.316406 25.183594 112.910156 24.421875 Z M 93.109375 44.234375 L 86.417969 49.207031 L 93.9375 59.246094 L 100.628906 54.273438 L 110.617188 58.554688 L 111.574219 66.804688 L 124.0625 65.351562 L 123.089844 57.105469 L 131.8125 50.632812 L 139.476562 53.910156 L 144.445312 42.421875 L 136.78125 39.128906 L 135.519531 28.378906 L 142.210938 23.40625 L 134.703125 13.378906 L 128 18.351562 L 118.011719 14.070312 L 117.042969 5.808594 L 104.554688 7.261719 L 105.539062 15.519531 L 96.816406 21.980469 L 89.152344 18.691406 L 84.171875 30.191406 L 91.847656 33.480469 L 93.109375 44.234375 " fill-opacity="1" fill-rule="nonzero"/></g><g clip-path="url(#94d77411dc)"><path fill="#0d6591" d="M 121.535156 116.71875 C 118.9375 122.804688 111.878906 125.621094 105.769531 123.023438 C 99.660156 120.433594 96.828125 113.40625 99.429688 107.308594 C 102.027344 101.238281 109.097656 98.410156 115.195312 101.007812 C 121.316406 103.609375 124.148438 110.625 121.535156 116.71875 Z M 141.128906 114.617188 L 139.625 102.207031 L 131.328125 103.199219 L 124.804688 94.539062 L 128.082031 86.90625 L 116.519531 81.984375 L 113.238281 89.628906 L 102.453125 90.933594 L 97.4375 84.28125 L 87.390625 91.792969 L 92.394531 98.445312 L 88.128906 108.398438 L 79.835938 109.402344 L 81.351562 121.824219 L 89.636719 120.832031 L 96.160156 129.492188 L 92.878906 137.125 L 104.445312 142.046875 L 107.726562 134.402344 L 118.511719 133.109375 L 123.527344 139.75 L 133.574219 132.238281 L 128.582031 125.585938 L 132.84375 115.632812 L 141.128906 114.617188 " fill-opacity="1" fill-rule="nonzero"/></g><g clip-path="url(#99912fd065)"><path fill="#0d6591" d="M 50.109375 91.367188 C 38.933594 91.367188 29.871094 82.347656 29.871094 71.230469 C 29.871094 60.101562 38.933594 51.082031 50.109375 51.082031 C 61.285156 51.082031 70.335938 60.101562 70.335938 71.230469 C 70.335938 82.347656 61.285156 91.367188 50.109375 91.367188 Z M 81.933594 90.5 L 86.296875 80.011719 L 96.125 79.09375 L 96.125 63.355469 L 86.296875 62.4375 L 81.933594 51.949219 L 88.226562 44.390625 L 77.050781 33.265625 L 69.460938 39.53125 L 58.929688 35.175781 L 58.003906 25.402344 L 42.199219 25.402344 L 41.277344 35.175781 L 30.746094 39.53125 L 23.152344 33.265625 L 11.976562 44.390625 L 18.269531 51.949219 L 13.898438 62.4375 L 4.082031 63.355469 L 4.082031 79.09375 L 13.898438 80.011719 L 18.269531 90.5 L 11.976562 98.058594 L 23.152344 109.183594 L 30.746094 102.917969 L 41.289062 107.261719 L 42.199219 117.046875 L 58.003906 117.046875 L 58.929688 107.261719 L 69.460938 102.917969 L 77.050781 109.183594 L 88.226562 98.058594 L 81.933594 90.5 " fill-opacity="1" fill-rule="nonzero"/></g></svg>