<svg xmlns="http://www.w3.org/2000/svg" xmlns:xlink="http://www.w3.org/1999/xlink" width="200" zoomAndPan="magnify" viewBox="0 0 150 149.999998" height="200" preserveAspectRatio="xMidYMid meet" version="1.0"><defs><clipPath id="e7d42217c9"><path d="M 10.007812 10.007812 L 140.507812 10.007812 L 140.507812 140.507812 L 10.007812 140.507812 Z M 10.007812 10.007812 " clip-rule="nonzero"/></clipPath><clipPath id="3bcb5ab2d2"><path d="M 39 21 L 111 21 L 111 128 L 39 128 Z M 39 21 " clip-rule="nonzero"/></clipPath><clipPath id="c5e0fd1a4d"><path d="M 58.902344 20.902344 L 111.777344 31.851562 L 91.703125 128.796875 L 38.824219 117.84375 Z M 58.902344 20.902344 " clip-rule="nonzero"/></clipPath><clipPath id="63d3f8f1a9"><path d="M 58.902344 20.902344 L 111.777344 31.851562 L 91.703125 128.796875 L 38.824219 117.84375 Z M 58.902344 20.902344 " clip-rule="nonzero"/></clipPath><clipPath id="05ebe133fb"><path d="M 48 77 L 95 77 L 95 115 L 48 115 Z M 48 77 " clip-rule="nonzero"/></clipPath><clipPath id="5002e35397"><path d="M 55 72.667969 L 96.089844 81.367188 L 88.945312 115.117188 L 47.855469 106.421875 Z M 55 72.667969 " clip-rule="nonzero"/></clipPath><clipPath id="f274ba8729"><path d="M 55 72.667969 L 96.089844 81.367188 L 88.945312 115.117188 L 47.855469 106.421875 Z M 55 72.667969 " clip-rule="nonzero"/></clipPath><clipPath id="fb4e73918e"><path d="M 57 66 L 96 66 L 96 77 L 57 77 Z M 57 66 " clip-rule="nonzero"/></clipPath><clipPath id="d1addc9b7f"><path d="M 65.191406 31.691406 L 102.636719 39.507812 L 94.820312 76.949219 L 57.378906 69.136719 Z M 65.191406 31.691406 " clip-rule="nonzero"/></clipPath><clipPath id="13b0085f3a"><path d="M 65.191406 31.691406 L 102.636719 39.507812 L 94.820312 76.949219 L 57.378906 69.136719 Z M 65.191406 31.691406 " clip-rule="nonzero"/></clipPath><clipPath id="d225f9e087"><path d="M 59 57 L 97 57 L 97 69 L 59 69 Z M 59 57 " clip-rule="nonzero"/></clipPath><clipPath id="5c7fcea539"><path d="M 65.191406 31.691406 L 102.636719 39.507812 L 94.820312 76.949219 L 57.378906 69.136719 Z M 65.191406 31.691406 " clip-rule="nonzero"/></clipPath><clipPath id="9a6498e4b4"><path d="M 65.191406 31.691406 L 102.636719 39.507812 L 94.820312 76.949219 L 57.378906 69.136719 Z M 65.191406 31.691406 " clip-rule="nonzero"/></clipPath><clipPath id="38e9af3d6c"><path d="M 61 49 L 99 49 L 99 60 L 61 60 Z M 61 49 " clip-rule="nonzero"/></clipPath><clipPath id="da40a3fbf5"><path d="M 65.191406 31.691406 L 102.636719 39.507812 L 94.820312 76.949219 L 57.378906 69.136719 Z M 65.191406 31.691406 " clip-rule="nonzero"/></clipPath><clipPath id="4bfe3af802"><path d="M 65.191406 31.691406 L 102.636719 39.507812 L 94.820312 76.949219 L 57.378906 69.136719 Z M 65.191406 31.691406 " clip-rule="nonzero"/></clipPath><clipPath id="9112367b56"><path d="M 63 40 L 101 40 L 101 51 L 63 51 Z M 63 40 " clip-rule="nonzero"/></clipPath><clipPath id="80f7fc0d6a"><path d="M 65.191406 31.691406 L 102.636719 39.507812 L 94.820312 76.949219 L 57.378906 69.136719 Z M 65.191406 31.691406 " clip-rule="nonzero"/></clipPath><clipPath id="39f8dfeb83"><path d="M 65.191406 31.691406 L 102.636719 39.507812 L 94.820312 76.949219 L 57.378906 69.136719 Z M 65.191406 31.691406 " clip-rule="nonzero"/></clipPath><clipPath id="449d1282d2"><path d="M 64 31 L 89 31 L 89 40 L 64 40 Z M 64 31 " clip-rule="nonzero"/></clipPath><clipPath id="071bf723b5"><path d="M 65.191406 31.691406 L 102.636719 39.507812 L 94.820312 76.949219 L 57.378906 69.136719 Z M 65.191406 31.691406 " clip-rule="nonzero"/></clipPath><clipPath id="270e381e5e"><path d="M 65.191406 31.691406 L 102.636719 39.507812 L 94.820312 76.949219 L 57.378906 69.136719 Z M 65.191406 31.691406 " clip-rule="nonzero"/></clipPath></defs><g clip-path="url(#e7d42217c9)"><path fill="#0d6591" d="M 140.507812 75.257812 C 140.507812 76.328125 140.484375 77.394531 140.429688 78.460938 C 140.378906 79.527344 140.300781 80.59375 140.195312 81.65625 C 140.089844 82.71875 139.960938 83.777344 139.804688 84.832031 C 139.648438 85.890625 139.464844 86.941406 139.253906 87.988281 C 139.046875 89.035156 138.8125 90.078125 138.554688 91.113281 C 138.292969 92.148438 138.011719 93.179688 137.699219 94.199219 C 137.390625 95.222656 137.054688 96.234375 136.695312 97.242188 C 136.335938 98.246094 135.953125 99.242188 135.542969 100.230469 C 135.132812 101.214844 134.703125 102.191406 134.246094 103.15625 C 133.789062 104.121094 133.308594 105.078125 132.804688 106.019531 C 132.300781 106.960938 131.773438 107.890625 131.226562 108.804688 C 130.675781 109.71875 130.105469 110.621094 129.511719 111.511719 C 128.917969 112.398438 128.304688 113.269531 127.667969 114.128906 C 127.03125 114.988281 126.375 115.828125 125.699219 116.652344 C 125.019531 117.480469 124.324219 118.289062 123.605469 119.078125 C 122.890625 119.871094 122.152344 120.644531 121.398438 121.398438 C 120.644531 122.152344 119.871094 122.890625 119.078125 123.605469 C 118.289062 124.324219 117.480469 125.019531 116.652344 125.699219 C 115.828125 126.375 114.988281 127.03125 114.128906 127.667969 C 113.269531 128.304688 112.398438 128.917969 111.511719 129.511719 C 110.621094 130.105469 109.71875 130.675781 108.804688 131.226562 C 107.890625 131.773438 106.960938 132.300781 106.019531 132.804688 C 105.078125 133.308594 104.121094 133.789062 103.15625 134.246094 C 102.191406 134.703125 101.214844 135.132812 100.230469 135.542969 C 99.242188 135.953125 98.246094 136.335938 97.242188 136.695312 C 96.234375 137.054688 95.222656 137.390625 94.199219 137.699219 C 93.179688 138.011719 92.148438 138.292969 91.113281 138.554688 C 90.078125 138.8125 89.035156 139.046875 87.988281 139.253906 C 86.941406 139.464844 85.890625 139.648438 84.832031 139.804688 C 83.777344 139.960938 82.71875 140.089844 81.65625 140.195312 C 80.59375 140.300781 79.527344 140.378906 78.460938 140.429688 C 77.394531 140.484375 76.328125 140.507812 75.257812 140.507812 C 74.191406 140.507812 73.125 140.484375 72.058594 140.429688 C 70.992188 140.378906 69.925781 140.300781 68.863281 140.195312 C 67.800781 140.089844 66.742188 139.960938 65.683594 139.804688 C 64.628906 139.648438 63.578125 139.464844 62.53125 139.253906 C 61.484375 139.046875 60.441406 138.8125 59.40625 138.554688 C 58.371094 138.292969 57.339844 138.011719 56.320312 137.699219 C 55.296875 137.390625 54.28125 137.054688 53.277344 136.695312 C 52.273438 136.335938 51.277344 135.953125 50.289062 135.542969 C 49.304688 135.132812 48.328125 134.703125 47.363281 134.246094 C 46.394531 133.789062 45.441406 133.308594 44.5 132.804688 C 43.558594 132.300781 42.628906 131.773438 41.714844 131.226562 C 40.796875 130.675781 39.898438 130.105469 39.007812 129.511719 C 38.121094 128.917969 37.246094 128.304688 36.390625 127.667969 C 35.53125 127.03125 34.691406 126.375 33.867188 125.699219 C 33.039062 125.019531 32.230469 124.324219 31.441406 123.605469 C 30.648438 122.890625 29.875 122.152344 29.121094 121.398438 C 28.367188 120.644531 27.628906 119.871094 26.914062 119.078125 C 26.195312 118.289062 25.5 117.480469 24.820312 116.652344 C 24.144531 115.828125 23.488281 114.988281 22.851562 114.128906 C 22.214844 113.269531 21.597656 112.398438 21.007812 111.511719 C 20.414062 110.621094 19.839844 109.71875 19.292969 108.804688 C 18.742188 107.890625 18.21875 106.960938 17.714844 106.019531 C 17.210938 105.078125 16.730469 104.121094 16.273438 103.15625 C 15.816406 102.191406 15.386719 101.214844 14.976562 100.230469 C 14.566406 99.242188 14.183594 98.246094 13.824219 97.242188 C 13.464844 96.234375 13.128906 95.222656 12.820312 94.199219 C 12.507812 93.179688 12.222656 92.148438 11.964844 91.113281 C 11.707031 90.078125 11.472656 89.035156 11.261719 87.988281 C 11.054688 86.941406 10.871094 85.890625 10.714844 84.832031 C 10.558594 83.777344 10.429688 82.71875 10.324219 81.65625 C 10.21875 80.59375 10.140625 79.527344 10.089844 78.460938 C 10.035156 77.394531 10.007812 76.328125 10.007812 75.257812 C 10.007812 74.191406 10.035156 73.125 10.089844 72.058594 C 10.140625 70.992188 10.21875 69.925781 10.324219 68.863281 C 10.429688 67.800781 10.558594 66.742188 10.714844 65.683594 C 10.871094 64.628906 11.054688 63.578125 11.261719 62.53125 C 11.472656 61.484375 11.707031 60.441406 11.964844 59.40625 C 12.222656 58.371094 12.507812 57.339844 12.820312 56.320312 C 13.128906 55.296875 13.464844 54.28125 13.824219 53.277344 C 14.183594 52.273438 14.566406 51.277344 14.976562 50.289062 C 15.386719 49.304688 15.816406 48.328125 16.273438 47.363281 C 16.730469 46.394531 17.210938 45.441406 17.714844 44.5 C 18.21875 43.558594 18.742188 42.628906 19.292969 41.714844 C 19.839844 40.796875 20.414062 39.898438 21.007812 39.007812 C 21.597656 38.121094 22.214844 37.246094 22.851562 36.390625 C 23.488281 35.53125 24.144531 34.691406 24.820312 33.867188 C 25.5 33.039062 26.195312 32.230469 26.914062 31.441406 C 27.628906 30.648438 28.367188 29.875 29.121094 29.121094 C 29.875 28.367188 30.648438 27.628906 31.441406 26.914062 C 32.230469 26.195312 33.039062 25.5 33.867188 24.820312 C 34.691406 24.144531 35.53125 23.488281 36.390625 22.851562 C 37.246094 22.214844 38.121094 21.597656 39.007812 21.007812 C 39.898438 20.414062 40.796875 19.839844 41.714844 19.292969 C 42.628906 18.742188 43.558594 18.21875 44.5 17.714844 C 45.441406 17.210938 46.394531 16.730469 47.363281 16.273438 C 48.328125 15.816406 49.304688 15.386719 50.289062 14.976562 C 51.277344 14.566406 52.273438 14.183594 53.277344 13.824219 C 54.28125 13.464844 55.296875 13.128906 56.320312 12.820312 C 57.339844 12.507812 58.371094 12.222656 59.40625 11.964844 C 60.441406 11.707031 61.484375 11.472656 62.53125 11.261719 C 63.578125 11.054688 64.628906 10.871094 65.683594 10.714844 C 66.742188 10.558594 67.800781 10.429688 68.863281 10.324219 C 69.925781 10.21875 70.992188 10.140625 72.058594 10.089844 C 73.125 10.035156 74.191406 10.007812 75.257812 10.007812 C 76.328125 10.007812 77.394531 10.035156 78.460938 10.089844 C 79.527344 10.140625 80.59375 10.21875 81.65625 10.324219 C 82.71875 10.429688 83.777344 10.558594 84.832031 10.714844 C 85.890625 10.871094 86.941406 11.054688 87.988281 11.261719 C 89.035156 11.472656 90.078125 11.707031 91.113281 11.964844 C 92.148438 12.222656 93.179688 12.507812 94.199219 12.820312 C 95.222656 13.128906 96.234375 13.464844 97.242188 13.824219 C 98.246094 14.183594 99.242188 14.566406 100.230469 14.976562 C 101.214844 15.386719 102.191406 15.816406 103.15625 16.273438 C 104.121094 16.730469 105.078125 17.210938 106.019531 17.714844 C 106.960938 18.21875 107.890625 18.742188 108.804688 19.292969 C 109.722656 19.839844 110.621094 20.414062 111.511719 21.007812 C 112.398438 21.597656 113.269531 22.214844 114.128906 22.851562 C 114.988281 23.488281 115.828125 24.144531 116.652344 24.820312 C 117.480469 25.5 118.289062 26.195312 119.078125 26.914062 C 119.871094 27.628906 120.644531 28.367188 121.398438 29.121094 C 122.152344 29.875 122.890625 30.648438 123.605469 31.441406 C 124.324219 32.230469 125.019531 33.039062 125.699219 33.867188 C 126.375 34.691406 127.03125 35.53125 127.667969 36.390625 C 128.304688 37.246094 128.917969 38.121094 129.511719 39.007812 C 130.105469 39.898438 130.675781 40.796875 131.226562 41.714844 C 131.773438 42.628906 132.300781 43.558594 132.804688 44.5 C 133.308594 45.441406 133.789062 46.394531 134.246094 47.363281 C 134.703125 48.328125 135.132812 49.304688 135.542969 50.289062 C 135.953125 51.277344 136.335938 52.273438 136.695312 53.277344 C 137.054688 54.28125 137.390625 55.296875 137.699219 56.320312 C 138.011719 57.339844 138.292969 58.371094 138.554688 59.40625 C 138.8125 60.441406 139.046875 61.484375 139.253906 62.53125 C 139.464844 63.578125 139.648438 64.628906 139.804688 65.683594 C 139.960938 66.742188 140.089844 67.800781 140.195312 68.863281 C 140.300781 69.925781 140.378906 70.992188 140.429688 72.058594 C 140.484375 73.125 140.507812 74.191406 140.507812 75.257812 Z M 140.507812 75.257812 " fill-opacity="1" fill-rule="nonzero"/></g><g clip-path="url(#3bcb5ab2d2)"><g clip-path="url(#c5e0fd1a4d)"><g clip-path="url(#63d3f8f1a9)"><path fill="#ffffff" d="M 107.273438 30.992188 C 107.375 31.015625 107.476562 31.039062 107.578125 31.066406 C 107.769531 31.121094 107.953125 31.1875 108.132812 31.265625 C 108.363281 31.367188 108.585938 31.484375 108.796875 31.621094 C 109.023438 31.769531 109.238281 31.9375 109.433594 32.125 C 109.632812 32.316406 109.816406 32.523438 109.976562 32.746094 C 110.160156 33 110.316406 33.269531 110.441406 33.554688 C 110.558594 33.820312 110.648438 34.097656 110.714844 34.382812 C 110.777344 34.664062 110.8125 34.957031 110.816406 35.246094 C 110.820312 35.449219 110.8125 35.65625 110.789062 35.859375 C 110.773438 35.976562 110.753906 36.09375 110.730469 36.207031 C 104.78125 65.625 98.695312 95.019531 92.472656 124.378906 C 92.445312 124.496094 92.417969 124.609375 92.382812 124.722656 C 92.324219 124.917969 92.253906 125.113281 92.167969 125.296875 C 92.058594 125.535156 91.925781 125.765625 91.777344 125.984375 C 91.609375 126.222656 91.417969 126.445312 91.210938 126.644531 C 90.996094 126.847656 90.765625 127.03125 90.519531 127.1875 C 90.269531 127.34375 90.007812 127.476562 89.734375 127.582031 C 89.496094 127.675781 89.246094 127.75 88.996094 127.796875 C 88.738281 127.851562 88.472656 127.878906 88.207031 127.882812 C 88.003906 127.886719 87.796875 127.878906 87.59375 127.851562 C 87.476562 127.839844 87.359375 127.820312 87.242188 127.796875 C 72.589844 124.832031 57.949219 121.800781 43.324219 118.703125 C 43.210938 118.675781 43.09375 118.648438 42.980469 118.613281 C 42.785156 118.554688 42.589844 118.484375 42.402344 118.398438 C 42.164062 118.289062 41.933594 118.15625 41.714844 118.007812 C 41.460938 117.828125 41.222656 117.628906 41.011719 117.402344 C 40.808594 117.1875 40.628906 116.957031 40.472656 116.707031 C 40.320312 116.464844 40.195312 116.210938 40.089844 115.945312 C 39.996094 115.699219 39.921875 115.441406 39.875 115.183594 C 39.824219 114.933594 39.800781 114.679688 39.796875 114.421875 C 39.792969 114.214844 39.804688 114.003906 39.832031 113.796875 C 39.84375 113.695312 39.863281 113.59375 39.882812 113.488281 C 45.816406 84.066406 51.90625 54.675781 58.140625 25.316406 C 58.164062 25.214844 58.1875 25.113281 58.21875 25.015625 C 58.277344 24.8125 58.347656 24.617188 58.433594 24.425781 C 58.542969 24.179688 58.675781 23.945312 58.828125 23.726562 C 58.988281 23.496094 59.167969 23.285156 59.367188 23.089844 C 59.570312 22.890625 59.792969 22.710938 60.027344 22.554688 C 60.265625 22.398438 60.519531 22.261719 60.78125 22.152344 C 61.042969 22.046875 61.3125 21.960938 61.589844 21.90625 C 61.867188 21.847656 62.152344 21.816406 62.433594 21.8125 C 62.640625 21.8125 62.84375 21.824219 63.050781 21.847656 C 63.15625 21.863281 63.265625 21.878906 63.371094 21.902344 C 78.019531 24.863281 92.644531 27.941406 107.273438 30.992188 Z M 68.375 115.167969 L 65.648438 114.601562 C 64.574219 114.378906 63.523438 115.066406 63.304688 116.132812 L 62.742188 118.84375 C 62.519531 119.910156 63.210938 120.957031 64.285156 121.179688 L 67.011719 121.746094 C 68.085938 121.964844 69.136719 121.28125 69.355469 120.214844 L 69.917969 117.5 C 70.136719 116.433594 69.449219 115.386719 68.375 115.167969 Z M 67.609375 116.292969 C 68.277344 116.433594 68.710938 117.085938 68.574219 117.753906 L 68.222656 119.449219 C 68.082031 120.117188 67.425781 120.546875 66.757812 120.40625 L 65.050781 120.054688 C 64.378906 119.914062 63.949219 119.261719 64.085938 118.59375 L 64.4375 116.894531 C 64.574219 116.230469 65.230469 115.800781 65.902344 115.9375 Z M 108.699219 38.296875 L 59.191406 28.042969 C 53.621094 54.722656 48.007812 81.390625 42.585938 108.101562 L 92.121094 118.359375 C 97.699219 91.683594 103.289062 65.007812 108.703125 38.296875 Z M 93.453125 30.828125 L 76.128906 27.238281 C 75.921875 27.199219 75.722656 27.328125 75.679688 27.53125 L 75.527344 28.269531 C 75.484375 28.472656 75.617188 28.671875 75.820312 28.714844 L 93.148438 32.304688 C 93.351562 32.347656 93.550781 32.214844 93.59375 32.011719 L 93.746094 31.273438 C 93.789062 31.070312 93.65625 30.871094 93.453125 30.828125 Z M 93.453125 30.828125 " fill-opacity="1" fill-rule="evenodd"/></g></g></g><g clip-path="url(#05ebe133fb)"><g clip-path="url(#5002e35397)"><g clip-path="url(#f274ba8729)"><path fill="#ffffff" d="M 92.25 88.125 L 85.351562 86.664062 C 84.101562 86.398438 82.875 87.1875 82.613281 88.421875 L 77.949219 110.457031 C 77.691406 111.691406 78.492188 112.910156 79.738281 113.171875 L 86.640625 114.632812 C 87.886719 114.898438 89.113281 114.109375 89.375 112.875 L 94.039062 90.839844 C 94.300781 89.605469 93.5 88.386719 92.25 88.125 Z M 87.914062 112.566406 C 87.820312 113.003906 87.386719 113.28125 86.945312 113.1875 L 80.046875 111.726562 C 79.605469 111.632812 79.320312 111.203125 79.414062 110.769531 L 84.078125 88.730469 C 84.167969 88.292969 84.601562 88.015625 85.042969 88.109375 L 91.945312 89.570312 C 92.386719 89.664062 92.667969 90.09375 92.578125 90.53125 Z M 76.136719 91.246094 L 69.234375 89.789062 C 67.984375 89.523438 66.757812 90.3125 66.5 91.542969 L 63.15625 107.328125 C 62.898438 108.5625 63.699219 109.777344 64.945312 110.042969 L 71.847656 111.503906 C 73.09375 111.765625 74.320312 110.980469 74.582031 109.746094 L 77.921875 93.960938 C 78.183594 92.730469 77.382812 91.511719 76.136719 91.246094 Z M 73.121094 109.4375 C 73.027344 109.871094 72.59375 110.152344 72.152344 110.058594 L 65.253906 108.597656 C 64.8125 108.503906 64.527344 108.074219 64.621094 107.636719 L 67.960938 91.855469 C 68.054688 91.417969 68.488281 91.140625 68.925781 91.234375 L 75.828125 92.695312 C 76.269531 92.789062 76.554688 93.21875 76.460938 93.652344 Z M 60.019531 94.371094 L 53.117188 92.910156 C 51.871094 92.648438 50.644531 93.4375 50.382812 94.667969 L 48.363281 104.195312 C 48.105469 105.429688 48.90625 106.648438 50.152344 106.910156 L 57.054688 108.371094 C 58.300781 108.636719 59.527344 107.847656 59.789062 106.613281 L 61.804688 97.085938 C 62.066406 95.855469 61.265625 94.636719 60.019531 94.371094 Z M 58.328125 106.304688 C 58.234375 106.742188 57.800781 107.019531 57.359375 106.925781 L 50.460938 105.464844 C 50.019531 105.371094 49.734375 104.941406 49.828125 104.507812 L 51.84375 94.980469 C 51.9375 94.542969 52.371094 94.265625 52.8125 94.359375 L 59.710938 95.816406 C 60.152344 95.910156 60.4375 96.34375 60.34375 96.777344 Z M 83.195312 78.636719 L 77.894531 77.515625 C 77.492188 77.429688 77.09375 77.683594 77.011719 78.082031 C 76.925781 78.484375 77.183594 78.875 77.589844 78.960938 L 81.171875 79.71875 L 71.902344 85.421875 L 67.875 80.929688 C 67.625 80.652344 67.207031 80.597656 66.898438 80.804688 L 52.8125 90.183594 C 52.472656 90.410156 52.382812 90.867188 52.613281 91.207031 C 52.726562 91.375 52.894531 91.480469 53.078125 91.519531 C 53.269531 91.558594 53.476562 91.527344 53.648438 91.410156 L 67.191406 82.394531 L 71.207031 86.867188 C 71.449219 87.140625 71.851562 87.199219 72.160156 87.007812 L 81.933594 80.992188 L 81.15625 84.667969 C 81.070312 85.070312 81.332031 85.460938 81.734375 85.546875 C 82.140625 85.632812 82.535156 85.378906 82.617188 84.980469 L 83.777344 79.515625 C 83.859375 79.117188 83.601562 78.722656 83.195312 78.636719 Z M 83.195312 78.636719 " fill-opacity="1" fill-rule="nonzero"/></g></g></g><g clip-path="url(#fb4e73918e)"><g clip-path="url(#d1addc9b7f)"><g clip-path="url(#13b0085f3a)"><path fill="#ffffff" d="M 93.261719 76.625 L 58.9375 69.460938 C 58.074219 69.28125 57.523438 68.4375 57.703125 67.574219 C 57.882812 66.714844 58.726562 66.160156 59.589844 66.339844 L 93.910156 73.503906 C 94.773438 73.683594 95.324219 74.527344 95.144531 75.390625 C 94.964844 76.253906 94.121094 76.804688 93.261719 76.625 Z M 93.261719 76.625 " fill-opacity="1" fill-rule="nonzero"/></g></g></g><g clip-path="url(#d225f9e087)"><g clip-path="url(#5c7fcea539)"><g clip-path="url(#9a6498e4b4)"><path fill="#ffffff" d="M 95.050781 68.042969 L 60.726562 60.878906 C 59.867188 60.699219 59.3125 59.855469 59.492188 58.996094 C 59.671875 58.132812 60.519531 57.582031 61.378906 57.761719 L 95.703125 64.925781 C 96.5625 65.105469 97.117188 65.949219 96.9375 66.808594 C 96.757812 67.671875 95.914062 68.222656 95.050781 68.042969 Z M 95.050781 68.042969 " fill-opacity="1" fill-rule="nonzero"/></g></g></g><g clip-path="url(#38e9af3d6c)"><g clip-path="url(#da40a3fbf5)"><g clip-path="url(#4bfe3af802)"><path fill="#ffffff" d="M 96.84375 59.464844 L 62.519531 52.300781 C 61.65625 52.121094 61.105469 51.277344 61.285156 50.414062 C 61.464844 49.550781 62.308594 49 63.171875 49.179688 L 97.492188 56.34375 C 98.355469 56.523438 98.90625 57.367188 98.726562 58.230469 C 98.546875 59.089844 97.703125 59.644531 96.84375 59.464844 Z M 96.84375 59.464844 " fill-opacity="1" fill-rule="nonzero"/></g></g></g><g clip-path="url(#9112367b56)"><g clip-path="url(#80f7fc0d6a)"><g clip-path="url(#39f8dfeb83)"><path fill="#ffffff" d="M 98.632812 50.882812 L 64.308594 43.71875 C 63.449219 43.539062 62.894531 42.695312 63.074219 41.832031 C 63.253906 40.972656 64.101562 40.417969 64.960938 40.597656 L 99.285156 47.761719 C 100.144531 47.941406 100.699219 48.785156 100.519531 49.648438 C 100.339844 50.511719 99.496094 51.0625 98.632812 50.882812 Z M 98.632812 50.882812 " fill-opacity="1" fill-rule="nonzero"/></g></g></g><g clip-path="url(#449d1282d2)"><g clip-path="url(#071bf723b5)"><g clip-path="url(#270e381e5e)"><path fill="#ffffff" d="M 86.382812 39.371094 L 66.101562 35.136719 C 65.238281 34.957031 64.6875 34.113281 64.867188 33.253906 C 65.046875 32.390625 65.890625 31.839844 66.753906 32.019531 L 87.035156 36.25 C 87.894531 36.429688 88.449219 37.277344 88.269531 38.136719 C 88.089844 39 87.246094 39.550781 86.382812 39.371094 Z M 86.382812 39.371094 " fill-opacity="1" fill-rule="nonzero"/></g></g></g></svg>