<?xml version="1.0" encoding="UTF-8"?><svg id="Layer_2" xmlns="http://www.w3.org/2000/svg" xmlns:xlink="http://www.w3.org/1999/xlink" viewBox="0 0 1365.5 483.5"><defs><style>.cls-1{stroke:#e3fafb;stroke-width:1.47px;}.cls-1,.cls-2,.cls-3,.cls-4,.cls-5,.cls-6,.cls-7,.cls-8,.cls-9,.cls-10,.cls-11,.cls-12,.cls-13,.cls-14,.cls-15,.cls-16,.cls-17{fill:none;}.cls-1,.cls-2,.cls-3,.cls-4,.cls-5,.cls-6,.cls-7,.cls-8,.cls-9,.cls-10,.cls-12,.cls-13,.cls-14,.cls-15,.cls-16,.cls-17{stroke-dasharray:0 0 1 4;stroke-miterlimit:10;}.cls-2{stroke:#caf5f7;}.cls-3{stroke:#f8fefe;stroke-width:1.87px;}.cls-4{stroke:#d5f7f9;stroke-width:1.2px;}.cls-5{stroke:#f4fdfd;stroke-width:1.8px;}.cls-6{stroke:#d8f8f9;stroke-width:1.27px;}.cls-7{stroke:#e6fafb;stroke-width:1.53px;}.cls-8{stroke:#cef6f8;stroke-width:1.07px;}.cls-9{stroke:#dff9fa;stroke-width:1.4px;}.cls-18{clip-path:url(#clippath);}.cls-10{stroke:#fbfefe;stroke-width:1.93px;}.cls-12{stroke:#fff;stroke-linecap:round;stroke-width:2px;}.cls-13{stroke:#eafbfc;stroke-width:1.6px;}.cls-14{stroke:#d1f6f8;stroke-width:1.13px;}.cls-15{stroke:#dcf8fa;stroke-width:1.33px;}.cls-16{stroke:#edfcfc;stroke-width:1.67px;}.cls-17{stroke:#f1fcfd;stroke-width:1.73px;}</style><clipPath id="clippath"><rect class="cls-11" width="1365.5" height="483.5"/></clipPath></defs><g id="Layer_2-2"><g class="cls-18"><g><path class="cls-12" d="M-14.16,41.08c196.99,21.23,355.07,242.59,686.24,278.28,331.16,35.69,499.65-80.59,722.33-56.59"/><path class="cls-10" d="M-16.25,60.45c192.99,20.8,368.2,215.44,694.61,250.62,326.41,35.18,501.1-63.64,715.21-40.56"/><path class="cls-3" d="M-18.33,79.82c188.99,20.37,381.33,188.3,702.98,222.96,321.65,34.67,502.54-46.69,708.09-24.54"/><path class="cls-5" d="M-20.42,99.19c185,19.94,394.46,161.15,711.35,195.31,316.89,34.16,503.99-29.74,700.98-8.51"/><path class="cls-17" d="M-22.51,118.57c181,19.51,407.59,134,719.73,167.65,312.13,33.64,505.44-12.79,693.86,7.52"/><path class="cls-16" d="M-24.6,137.94c177,19.08,420.72,106.86,728.1,139.99,307.37,33.13,506.88,4.16,686.74,23.55"/><path class="cls-13" d="M-26.69,157.31c173,18.65,433.85,79.71,736.47,112.33,302.62,32.62,508.33,21.11,679.62,39.57"/><path class="cls-7" d="M-28.77,176.69c169.01,18.22,446.98,52.57,744.84,84.67,297.86,32.1,509.77,38.06,672.5,55.6"/><path class="cls-1" d="M-30.86,196.06c165.01,17.79,460.12,25.42,753.21,57.01,293.1,31.59,511.22,55.01,665.38,71.63"/><path class="cls-9" d="M-32.95,215.43c161.01,17.35,473.25-1.72,761.59,29.35,288.34,31.08,512.67,71.96,658.27,87.65"/><path class="cls-15" d="M-35.04,234.8c157.02,16.92,486.38-28.87,769.96,1.7,283.58,30.57,514.11,88.91,651.15,103.68"/><path class="cls-6" d="M-37.13,254.18c153.02,16.49,499.51-56.02,778.33-25.96,278.83,30.05,515.56,105.86,644.03,119.71"/><path class="cls-4" d="M-39.21,273.55c149.02,16.06,512.64-83.16,786.7-53.62,274.07,29.54,517.01,122.81,636.91,135.73"/><path class="cls-14" d="M-41.3,292.92c145.03,15.63,525.77-110.31,795.08-81.28,269.31,29.03,518.45,139.76,629.79,151.76"/><path class="cls-8" d="M-43.39,312.3c141.03,15.2,538.9-137.45,803.45-108.94,264.55,28.51,519.9,156.71,622.67,167.79"/><path class="cls-2" d="M-45.48,331.67c137.03,14.77,552.03-164.6,811.82-136.6,259.79,28,521.34,173.66,615.55,183.82"/></g></g></g></svg>