<?xml version="1.0" encoding="UTF-8"?><svg id="Layer_2" xmlns="http://www.w3.org/2000/svg" xmlns:xlink="http://www.w3.org/1999/xlink" viewBox="0 0 1365.5 521.06"><defs><style>.cls-1,.cls-2,.cls-3,.cls-4,.cls-5,.cls-6,.cls-7,.cls-8,.cls-9,.cls-10,.cls-11,.cls-12,.cls-13,.cls-14,.cls-15,.cls-16{fill:none;}.cls-1,.cls-2,.cls-3,.cls-4,.cls-5,.cls-6,.cls-7,.cls-8,.cls-9,.cls-10,.cls-11,.cls-13,.cls-14,.cls-15,.cls-16{stroke-linecap:round;stroke-miterlimit:10;stroke-width:2px;}.cls-1,.cls-14{stroke:#0e6692;}.cls-2{stroke:#4c479f;stroke-dasharray:0 0 1 4.01;}.cls-3{stroke:#aa18b3;stroke-dasharray:0 0 1 4;}.cls-4{stroke:#d900bd;stroke-dasharray:0 0 1 4.01;}.cls-5{stroke:#5c3fa3;stroke-dasharray:0 0 1 4;}.cls-6{stroke:#ba10b6;stroke-dasharray:0 0 1 3.99;}.cls-7{stroke:#3d4e9c;stroke-dasharray:0 0 1 4;}.cls-8{stroke:#8b27ac;stroke-dasharray:0 0 1 4;}.cls-9{stroke:#7b2fa9;stroke-dasharray:0 0 1 4;}.cls-10{stroke:#6c37a6;stroke-dasharray:0 0 1 4.01;}.cls-17{opacity:.1;}.cls-18{clip-path:url(#clippath);}.cls-11{stroke:#1e5e95;stroke-dasharray:0 0 1 4.01;}.cls-13{stroke:#c908ba;stroke-dasharray:0 0 1 4;}.cls-14{stroke-dasharray:0 0 1 4;}.cls-15{stroke:#2d5699;stroke-dasharray:0 0 1 4;}.cls-16{stroke:#9b1fb0;stroke-dasharray:0 0 1 4;}</style><clipPath id="clippath"><rect class="cls-12" width="1365.5" height="521.06"/></clipPath></defs><g id="Layer_2-2"><g class="cls-17"><g class="cls-18"><g><path class="cls-4" d="M-28.35,449.1c25.47-20.05,186.17-142.63,378.95-200.15,328.88-98.13,695.48,65.71,1076.75-47.01"/><path class="cls-13" d="M-26.99,451.27C-.15,432.93,169.5,320.23,369.99,260.4c334.36-99.76,680.29,36.16,1052.43-73.94"/><path class="cls-6" d="M-25.64,453.44c28.15-16.6,206.79-119.45,415.03-181.58,339.84-101.4,665.11,6.61,1028.11-100.88"/><path class="cls-3" d="M-24.31,455.61c29.4-14.86,217.06-107.85,433.09-172.3,345.31-103.03,649.92-22.93,1003.79-127.81"/><path class="cls-16" d="M-23,457.79c30.6-13.11,227.31-96.23,451.17-163.03,350.79-104.67,634.73-52.46,979.47-154.75"/><path class="cls-8" d="M-21.71,459.96c31.7-11.37,237.53-84.6,469.28-153.75,356.26-106.3,619.55-82,955.15-181.69"/><path class="cls-9" d="M-20.44,462.13c32.75-9.64,247.72-72.95,487.41-144.46,361.73-107.93,604.38-111.52,930.83-208.62"/><path class="cls-10" d="M-19.19,464.28c33.75-7.94,257.9-61.28,505.55-135.17,367.2-109.57,589.2-141.04,906.51-235.56"/><path class="cls-5" d="M-17.95,466.43c34.66-6.26,268.04-49.58,523.71-125.87,372.67-111.2,574.03-170.55,882.2-262.5"/><path class="cls-2" d="M-16.73,468.57c35.53-4.62,278.17-37.87,541.88-116.55,378.14-112.83,558.87-200.05,857.88-289.43"/><path class="cls-7" d="M-15.53,470.7c36.32-3.01,288.28-26.13,560.07-107.23,383.61-114.46,543.71-229.55,833.57-316.37"/><path class="cls-15" d="M-14.33,472.81c37.08-1.45,298.37-14.37,578.27-97.89C952.89,258.87,1092.41,115.97,1372.95,31.69"/><path class="cls-11" d="M-13.13,474.91c37.82,.07,308.46-2.6,596.47-88.54C977.74,268.69,1096.66,97.97,1368.02,16.21"/><g><path class="cls-14" d="M-11.95,477c38.48,1.54,318.52,9.19,614.68-79.18C1002.59,278.52,1100.92,79.98,1363.1,.72"/><path class="cls-1" d="M1365.02,.14c.16-.05,.32-.1,.48-.14"/></g></g></g></g></g></svg>